<svg xmlns="http://www.w3.org/2000/svg" width="750.93" height="1236.174" viewBox="0 0 750.93 1236.174">
  <g id="グループ_114" data-name="グループ 114" transform="translate(0.051 -2218.612)">
    <path id="パス_1975" data-name="パス 1975" d="M145.766,3309.8v144.99H.776" fill="#e9a828"/>
    <rect id="長方形_79" data-name="長方形 79" width="102.635" height="220.546" transform="translate(648.243 3234.239)" fill="#ebcb32"/>
    <rect id="長方形_80" data-name="長方形 80" width="102.635" height="267.905" transform="translate(267.853 2218.612) rotate(90)" fill="#1c68ac"/>
    <rect id="長方形_81" data-name="長方形 81" width="58.308" height="58.308" transform="translate(131.893 2288.469) rotate(90)" fill="#e73c71"/>
    <path id="パス_2159" data-name="パス 2159" d="M749.25,2220.173V2332.8H636.618" fill="#7f2583"/>
    <circle id="楕円形_10" data-name="楕円形 10" cx="27.168" cy="27.168" r="27.168" transform="translate(527.572 2290.455)" fill="#fff"/>
    <g id="グループ_94" data-name="グループ 94">
      <path id="パス_2160" data-name="パス 2160" d="M558.184,3413.874c3.326,12.5,15.723,18.325,28.218,15s20.782-12.943,17.456-25.438-15.3-16.722-27.792-13.4-21.208,11.34-17.882,23.835" fill="#1c68ac"/>
      <path id="パス_2161" data-name="パス 2161" d="M560.051,3410.6h-.012c-.011-.05.022-.022.043-.052.029-.013-.015.027-.031.052" fill="#eaa51c"/>
      <path id="パス_2162" data-name="パス 2162" d="M595.394,3406.377l-.121.1c.064.078.262.06.32.146.046.065,0,.2.043.269s.094.158.136.244-.056.261-.018.367c.028.074.232.083.257.162a5.259,5.259,0,0,1,.055.624c-1.142.848-2.295,1.7-3.511,2.508-1.191.787-2.427,1.533-3.666,2.3-1.219.75-2.473,1.465-3.718,2.212s-2.463,1.493-3.7,2.244-2.427,1.56-3.64,2.341-2.442,1.543-3.615,2.374c-.283.2-.579.308-.821.456-.121.076-.126.3-.237.367-.088.048-.209.079-.29.119l0-.021c-1.425.691-2.179.15-2.988-1.751a2.663,2.663,0,0,1,.081-2.367l.071.027c0-.007.03.011.034,0a3.546,3.546,0,0,1,.507-.82c.032-.036-.008-.144.025-.179.2-.207.538-.277.773-.466.075-.06.159-.1.236-.161.22-.168.373-.426.605-.584.082-.057.146-.136.231-.193.274-.182.632-.237.9-.414,1.272-.848,2.556-1.689,3.875-2.492s2.558-1.714,3.9-2.468,2.706-1.47,4.068-2.182,2.75-1.39,4.129-2.062,2.8-1.322,4.189-1.959a5.98,5.98,0,0,1,1.778,1.163l-.085.081c.019.02.022.053.039.075s.145-.07.159-.06" fill="#e9a828"/>
      <path id="パス_2163" data-name="パス 2163" d="M593.164,3399.2a3.347,3.347,0,0,1-.132,1.455c-.228.216-1.7,1.322-3.815,2.757-1.136.775-2.455,1.669-3.867,2.61-1.251.832-2.638,1.607-3.963,2.473s-2.666,1.724-3.935,2.533c-1.433.916-2.827,1.7-4,2.411-2.209,1.345-3.79,2.372-4.1,2.325a10.983,10.983,0,0,1-1.683-2.012,3.215,3.215,0,0,1-.872-2.03c.046-.448-.053-1.392.259-1.684l-.048-.078-.01-.022a31.96,31.96,0,0,1,3.868-2.017c1.3-.632,2.62-1.242,3.95-1.82s2.719-1.06,4.006-1.694c.881-.434,2.363-1.436,4.076-2.438,1.339-.783,2.776-1.651,4.1-2.4a30.665,30.665,0,0,1,4.235-2.181,20.642,20.642,0,0,1,1.93,1.816" fill="#e9a828"/>
      <path id="パス_2164" data-name="パス 2164" d="M567.142,3410.112h-.01c-.017-.05.02-.025.036-.057.03-.013-.011.028-.026.057" fill="#f9dd96"/>
      <path id="パス_2165" data-name="パス 2165" d="M588.489,3394.15c.038.041-.029.174.006.219.055.068.209.055.261.128s.146.146.2.232c.037.066-.059.2-.026.265a3.654,3.654,0,0,1,.138.37c.018.055.076.088.092.146a4.356,4.356,0,0,1,.206.641c-1.144.844-2.314,1.7-3.533,2.5-1.193.783-2.434,1.524-3.675,2.282-1.222.747-2.435,1.533-3.681,2.275s-2.48,1.465-3.716,2.213-2.566,1.335-3.781,2.113-2.382,1.636-3.558,2.464c-.284.2-.45.512-.69.66-.125.076-.272.073-.387.134-.088.048-.224.03-.307.07l.015.02c-1.426.688-2.1.179-2.908-1.725-1.063-2.509,1.387-3.975,3.335-5.264,1.275-.845,2.669-1.52,3.989-2.318s2.658-1.534,4.005-2.284,2.666-1.533,4.031-2.24,2.713-1.459,4.093-2.128,2.767-1.445,4.159-2.077a6.189,6.189,0,0,1,1.645,1.39l.092-.081" fill="#e9a828"/>
      <path id="パス_2166" data-name="パス 2166" d="M594.526,3399.9c.06.061.143.091.2.159a4.94,4.94,0,0,1,.475.524c-.7,1.241-1.6,2.4-2.378,3.625-.766,1.205-1.552,2.411-2.372,3.612-.808,1.183-1.558,2.418-2.387,3.608s-1.632,2.372-2.452,3.562-1.644,2.369-2.432,3.575-1.646,2.378-2.379,3.616c-.179.3-.361.547-.524.785-.065.1-.045.227-.108.313s-.071.276-.143.36l-.009-.018c-1.016,1.213-1.89.969-3.408-.435a2.458,2.458,0,0,1-.791-2.138l-.206.015c0-.008,0-.042.005-.05a4.007,4.007,0,0,1,.289-.94c.016-.05.056-.093.074-.143a7.005,7.005,0,0,1,.321-.811c.044-.085.194-.111.24-.2.134-.245.239-.506.388-.75.048-.076.1-.146.148-.222.179-.284.255-.632.428-.906.816-1.294,1.68-2.568,2.558-3.838s1.73-2.542,2.649-3.779,1.926-2.4,2.88-3.607,1.868-2.452,2.852-3.626,2-2.383,3-3.531a5.983,5.983,0,0,1,2.069.491l-.013.042c.023.01.083-.071.106-.058s.088-.061.1-.058l-.024.046a2.721,2.721,0,0,1,.277.145c.06.036.131.073.19.114.081.058.068.236.147.3s.149.136.222.212" fill="#ebcb32"/>
      <path id="パス_2167" data-name="パス 2167" d="M592.056,3395.352c-.223.214-1.512,1.341-3.529,2.85-1.087.813-2.331,1.775-3.678,2.767-1.194.881-2.45,1.812-3.714,2.733s-2.57,1.788-3.778,2.652c-1.367.976-2.607,1.956-3.726,2.727a17.971,17.971,0,0,1-3.866,2.27,8.365,8.365,0,0,1-1.626-1.133,2.178,2.178,0,0,1-.652-1.636,2.829,2.829,0,0,1,.431-1.37l-.071-.1.045.066a40.9,40.9,0,0,1,3.644-2.254c1.228-.725,2.477-1.418,3.73-2.1s2.41-1.559,3.628-2.284c.832-.495,2.287-1.458,3.913-2.548,1.271-.853,2.729-1.653,3.983-2.479a42.826,42.826,0,0,1,3.963-2.485,11.424,11.424,0,0,1,1.531,1.178c.075.595-.059.572-.228,1.151" fill="#ebcb32"/>
      <path id="パス_2168" data-name="パス 2168" d="M567.99,3407.179a.124.124,0,0,1-.026.048l-.012,0c-.012-.036.02-.023.038-.05" fill="#f1b22d"/>
      <path id="パス_2169" data-name="パス 2169" d="M610.692,3372.262l-1.456,2.795-4.446-2.039a4.892,4.892,0,0,0-4.078,8.894l4.448,2.037,5.886,2.7,5.151-11.463Z" fill="#7f2583"/>
      <path id="パス_2170" data-name="パス 2170" d="M616.2,3375.185l-5.521-2.958c11.558-21.562,4.1-27.486,4.028-27.544l3.482-5.205c1.3.843,12.322,9-1.989,35.707" fill="#221815"/>
      <path id="パス_2171" data-name="パス 2171" d="M584.214,3372.487l-2.609,1.768-2.945-3.906a4.891,4.891,0,1,0-7.81,5.89l2.945,3.906,3.9,5.17,9.977-7.641Z" fill="#7f2583"/>
      <path id="パス_2172" data-name="パス 2172" d="M587.67,3377.674l-3.454-5.226c20.412-13.485,16.668-22.239,16.626-22.326l5.536-2.926c.748,1.362,6.569,13.774-18.708,30.478" fill="#221815"/>
      <path id="パス_2173" data-name="パス 2173" d="M615.838,3291.57c-4.786-7.6-12.007-4.58-13.338.173-4.769-4.342-10.763-1.852-12.053,2.112a6.646,6.646,0,0,0-3.619-.619,11.854,11.854,0,0,0-10.647,10.554c-1.829,15.418.085,38.13,14.873,47.04,19.5,11.75,47.488-1.982,47.3-25.743-.07-8.82-2.079-19.441-6.317-27.045-1.89-3.391-11.671-14.168-16.2-6.472" fill="#7f2583"/>
      <path id="パス_2174" data-name="パス 2174" d="M636.772,3319.972c3.276-2.467,3-6.7,4.016-10.242.512-1.784,1.712-4.778,3.941-4.924,3.974-.257,5.432,4.124,5.906,7.311,1.8,12.122-8.152,27.029-19.071,32" fill="#7f2583"/>
      <path id="パス_2175" data-name="パス 2175" d="M597.254,3328.589l4.215-.97-3.339-2.865" fill="none" stroke="#221815" stroke-linecap="round" stroke-linejoin="round" stroke-width="1.566"/>
      <path id="パス_2176" data-name="パス 2176" d="M622.712,3319.53l-2.294,3.666,4.386-.335" fill="none" stroke="#221815" stroke-linecap="round" stroke-linejoin="round" stroke-width="1.566"/>
      <path id="パス_2177" data-name="パス 2177" d="M603.136,3334.026a5.673,5.673,0,1,0-2.969-7.453,5.674,5.674,0,0,0,2.969,7.453" fill="#fff"/>
      <path id="パス_2178" data-name="パス 2178" d="M607.2,3331.508a2.838,2.838,0,1,0-1.485-3.728,2.84,2.84,0,0,0,1.485,3.728" fill="#221815"/>
      <path id="パス_2179" data-name="パス 2179" d="M615.677,3330.944a5.673,5.673,0,1,0-2.97-7.454,5.673,5.673,0,0,0,2.97,7.454" fill="#fff"/>
      <path id="パス_2180" data-name="パス 2180" d="M619.741,3328.425a2.837,2.837,0,1,0-1.485-3.727,2.838,2.838,0,0,0,1.485,3.727" fill="#221815"/>
      <path id="パス_2181" data-name="パス 2181" d="M621.2,3334.993s-1.4,8.577-9.7,9.756a11.1,11.1,0,0,1-11.052-5.23Z" fill="#efefef"/>
      <path id="パス_2182" data-name="パス 2182" d="M620.1,3313.949c1.521,3.75,7.583,4.2,10.043,1.185,3.276-4.013,2.251-8.593.659-11.6" fill="#7f2583"/>
      <path id="パス_2183" data-name="パス 2183" d="M620.1,3313.949c1.521,3.75,7.583,4.2,10.043,1.185,3.276-4.013,2.251-8.593.659-11.6" fill="none" stroke="#52b6a7" stroke-linecap="round" stroke-linejoin="round" stroke-width="1.659"/>
      <path id="パス_2184" data-name="パス 2184" d="M619.987,3296.7a16.48,16.48,0,0,1,2.766,11.642c-.467,3.671-2.859,8.3-6.4,10.136-1.722.9-5.3.9-6.892-1.514" fill="#7f2583"/>
      <path id="パス_2185" data-name="パス 2185" d="M619.987,3296.7a16.48,16.48,0,0,1,2.766,11.642c-.467,3.671-2.859,8.3-6.4,10.136-1.722.9-5.3.9-6.892-1.514" fill="none" stroke="#52b6a7" stroke-linecap="round" stroke-linejoin="round" stroke-width="1.659"/>
      <path id="パス_2186" data-name="パス 2186" d="M608.488,3298.15c5.692,4.927,4.783,21.776-4.26,22.705-1.586.163-4.212-.688-4.771-2.181" fill="#7f2583"/>
      <path id="パス_2187" data-name="パス 2187" d="M608.488,3298.15c5.692,4.927,4.783,21.776-4.26,22.705-1.586.163-4.212-.688-4.771-2.181" fill="none" stroke="#52b6a7" stroke-linecap="round" stroke-linejoin="round" stroke-width="1.659"/>
      <path id="パス_2188" data-name="パス 2188" d="M594.915,3299.124s11.163,12.5,2.57,22.758c-2.737,3.27-6.468,3.937-8.31,1.712a45.7,45.7,0,0,1-5.97-8.326" fill="#7f2583"/>
      <path id="パス_2189" data-name="パス 2189" d="M594.915,3299.124s11.163,12.5,2.57,22.758c-2.737,3.27-6.468,3.937-8.31,1.712a45.7,45.7,0,0,1-5.97-8.326" fill="none" stroke="#52b6a7" stroke-linecap="round" stroke-linejoin="round" stroke-width="1.659"/>
      <path id="パス_2190" data-name="パス 2190" d="M672.792,3374.249l-2.681,2.466-4.034-3.963a5.655,5.655,0,0,0-7.925,8.068l4.033,3.963,5.342,5.245,10.1-10.439Z" fill="#e84572"/>
      <path id="パス_2191" data-name="パス 2191" d="M677.629,3379.589l-4.841-5.385c21.035-18.9,15.259-28.271,15.2-28.364l5.831-4.29c1.087,1.428,9.863,14.627-16.187,38.039" fill="#7f2583"/>
      <path id="パス_2192" data-name="パス 2192" d="M699.883,3379.088l-1.678,3.235-5.144-2.345a5.654,5.654,0,1,0-4.691,10.288l5.144,2.346,6.812,3.106,5.927-13.264Z" fill="#e84572"/>
      <path id="パス_2193" data-name="パス 2193" d="M706.253,3382.455l-6.388-3.406c13.307-24.954,4.679-31.785,4.59-31.851l4.013-6.024c1.509.971,14.267,10.375-2.215,41.281" fill="#7f2583"/>
      <path id="パス_2194" data-name="パス 2194" d="M731.041,3305.159a26.384,26.384,0,0,0-8.394-9.586l.172-.164s-9.282-3.852-11.556-23.606c-.473-4.108-1.705-12.572-6.959-13.525-5.957-1.082-9.776,6.481-10.539,11.284a30.452,30.452,0,0,0,2.6,17.1c-5.5-.792-10.911-1.226-15.707-1.643-5.7-.494-13.532-.552-14.6,6.908-.478,3.328,1.812,6.739,4.4,8.635-7.427.033-8.445,9.766-3.11,13.729-5.321,1.072-8.909,9.05-1.284,14.595-7.673,3-3.237,13.436,7.009,18.035,8.736,3.92,16.221,7.222,25.889,8.017,26.043,2.14,43.382-27.438,32.082-49.779" fill="#e73c71"/>
      <path id="パス_2195" data-name="パス 2195" d="M710.064,3330.473c-15.458,18.223-29.239,3.877-31.513,1.956" fill="none" stroke="#221815" stroke-linecap="round" stroke-linejoin="round" stroke-width="1.81"/>
      <path id="パス_2196" data-name="パス 2196" d="M689.785,3322.712s3.437-1.917,6,.085" fill="none" stroke="#7f2583" stroke-linecap="round" stroke-linejoin="round" stroke-width="3.318"/>
      <line id="線_116" data-name="線 116" x1="3.464" y2="0.272" transform="translate(672.031 3322.369)" fill="none" stroke="#7f2583" stroke-linecap="round" stroke-linejoin="round" stroke-width="3.318"/>
      <line id="線_117" data-name="線 117" y1="0.365" x2="4.652" transform="translate(709.287 3320.224)" fill="none" stroke="#7f2583" stroke-linecap="round" stroke-linejoin="round" stroke-width="3.318"/>
      <path id="パス_2197" data-name="パス 2197" d="M689.785,3322.712a6.836,6.836,0,1,1-5.148-8.181,6.835,6.835,0,0,1,5.148,8.181" fill="#fff"/>
      <path id="パス_2198" data-name="パス 2198" d="M689.785,3322.712a6.836,6.836,0,1,1-5.148-8.181A6.835,6.835,0,0,1,689.785,3322.712Z" fill="none" stroke="#7f2583" stroke-linecap="round" stroke-linejoin="round" stroke-width="3.318"/>
      <path id="パス_2199" data-name="パス 2199" d="M684.7,3323.556a3.418,3.418,0,1,1-2.574-4.091,3.418,3.418,0,0,1,2.574,4.091" fill="#221815"/>
      <path id="パス_2200" data-name="パス 2200" d="M708.875,3321.6a6.836,6.836,0,1,1-5.148-8.182,6.835,6.835,0,0,1,5.148,8.182" fill="#fff"/>
      <path id="パス_2201" data-name="パス 2201" d="M708.875,3321.6a6.836,6.836,0,1,1-5.148-8.182A6.835,6.835,0,0,1,708.875,3321.6Z" fill="none" stroke="#7f2583" stroke-linecap="round" stroke-linejoin="round" stroke-width="3.318"/>
      <path id="パス_2202" data-name="パス 2202" d="M703.787,3322.445a3.418,3.418,0,1,1-2.575-4.09,3.419,3.419,0,0,1,2.575,4.09" fill="#221815"/>
      <path id="パス_2203" data-name="パス 2203" d="M711.217,3292.328c-4.381-3.744-12.054-4.208-12.054-4.208" fill="none" stroke="#7f2583" stroke-linecap="round" stroke-linejoin="round" stroke-width="1.659"/>
      <path id="パス_2204" data-name="パス 2204" d="M649.2,3401.011l-3.207-2.535c.087-.11,8.61-11.02,11.648-24.511l3.989.9c-3.249,14.426-12.057,25.674-12.43,26.147" fill="#221815"/>
      <path id="パス_2205" data-name="パス 2205" d="M643.07,3396.969l2.636,1.8,1.835-2.454,3.383,2.313-1.729,2.526-3.606,5.271-3.489-2.386-2.634-1.8a3.192,3.192,0,1,1,3.6-5.27" fill="#65bbb1"/>
      <path id="パス_2206" data-name="パス 2206" d="M628.473,3399.938l-2.517-3.221c.108-.085,10.967-8.673,17.1-21.065l3.663,1.813c-6.561,13.251-17.776,22.1-18.25,22.473" fill="#221815"/>
      <path id="パス_2207" data-name="パス 2207" d="M623.389,3394.626l2.135,2.374,2.371-1.942,2.732,3.037-2.276,2.047-4.746,4.272-2.829-3.144-2.135-2.374a3.193,3.193,0,1,1,4.748-4.27" fill="#65bbb1"/>
      <path id="パス_2208" data-name="パス 2208" d="M664.767,3342.187a4.265,4.265,0,0,0-3.364,1.45,4.279,4.279,0,0,0-7.53-1.161,4.267,4.267,0,0,0-3.649-3.341c-4.435-.693-5.145,4.609-5.145,4.609a.3.3,0,0,1-.565.156l-1.963-6.981c-2.12-4.871-4.778-8.238-7.485-6.787-2.084,1.115-2.464,5-.32,11.5l3.565,10.589a12.749,12.749,0,0,1-1.558,11.292c-1.315-.874-8.167-5.1-11.737-.924-2.475,2.9,10.775,17.514,20.169,18.471l-.006-.017c6.712,1.193,14.842-1.453,18.742-6.619,3.275-4.338,4.021-10.169,4.486-15.425.413-4.656.355-8.779.423-10.691-.005,0,.06-1.691.06-1.691a4.277,4.277,0,0,0-4.123-4.428" fill="#1c68ac"/>
      <path id="パス_2209" data-name="パス 2209" d="M659.906,3349.629s-.934,8.325-5.07,7.421c-5.554-1.215-2.345-9.473-2.345-9.473" fill="none" stroke="#7f2583" stroke-linecap="round" stroke-linejoin="round" stroke-width="1.244"/>
      <path id="パス_2210" data-name="パス 2210" d="M665.919,3351.271s.959,8.918-3.17,8.348c-4.869-.674-2.844-9.99-2.844-9.99" fill="none" stroke="#7f2583" stroke-linecap="round" stroke-linejoin="round" stroke-width="1.244"/>
      <path id="パス_2211" data-name="パス 2211" d="M649.573,3365.591a4.266,4.266,0,1,0,3.161-5.138,4.264,4.264,0,0,0-3.161,5.138" fill="#fff"/>
      <path id="パス_2212" data-name="パス 2212" d="M652.5,3363.4a2.133,2.133,0,1,0,1.581-2.57,2.135,2.135,0,0,0-1.581,2.57" fill="#221815"/>
      <path id="パス_2213" data-name="パス 2213" d="M639.587,3365.591a4.266,4.266,0,1,0,3.16-5.138,4.264,4.264,0,0,0-3.16,5.138" fill="#fff"/>
      <path id="パス_2214" data-name="パス 2214" d="M642.512,3363.4a2.133,2.133,0,1,0,1.581-2.57,2.135,2.135,0,0,0-1.581,2.57" fill="#221815"/>
      <path id="パス_2215" data-name="パス 2215" d="M644.929,3346.757s-3.368,9.6,1.219,9.866,5.9-7.643,5.9-7.643" fill="none" stroke="#7f2583" stroke-linecap="round" stroke-linejoin="round" stroke-width="1.244"/>
      <path id="パス_2216" data-name="パス 2216" d="M657.99,3373.722c0,1.357-.732,2.459-1.636,2.459s-1.636-1.1-1.636-2.459.733-2.459,1.636-2.459,1.636,1.1,1.636,2.459" fill="#fff"/>
      <path id="パス_2217" data-name="パス 2217" d="M675.977,3387.921l-20.013-.548,2.837,17,.056,0c-.051,1.919,3.049,2.467,6.891,2.573,3.471.1,6.352,0,6.921-1.651.035-.1.121-.389.156-.54Z" fill="#7f2583" fill-rule="evenodd"/>
      <path id="パス_2218" data-name="パス 2218" d="M656.331,3372.64a1.593,1.593,0,0,1,2.1-.51.545.545,0,0,1,.05.035l6.73,5.274a.437.437,0,0,1,.093.1,1.261,1.261,0,0,1,.236.326l2.886,7.38a.45.45,0,0,1-.167.536,2.8,2.8,0,0,1-1.1.445,3.058,3.058,0,0,1-1.065-.014.448.448,0,0,1-.34-.28l-2.608-6.813-6.292-4.994a1.044,1.044,0,0,1-.519-1.489" fill="#221815"/>
      <path id="パス_2219" data-name="パス 2219" d="M654.786,3386.84l.1-3.542,22.43.614-.131,4.794-22.463-.615c.011-.421.035-.839.068-1.251" fill="#efefef" fill-rule="evenodd"/>
      <path id="パス_2220" data-name="パス 2220" d="M663.049,3300.5l-23.532-2.891,1.435,20.363.066.008c-.277,2.258,3.318,3.252,7.835,3.808,4.081.5,7.488.71,8.345-1.17.053-.118.185-.446.243-.619Z" fill="#65bbb1" fill-rule="evenodd"/>
      <path id="パス_2221" data-name="パス 2221" d="M647.608,3283.028c.792-.8,1.837-.476,2.754-.433a28.844,28.844,0,0,0,4.433.271c.66-.06,2.493-.043,2.956.686a.6.6,0,0,1,.078.186,1.791,1.791,0,0,1,.174.553l-1.184,10.927a.668.668,0,0,1-.432.683,3.509,3.509,0,0,1-1.6.18,3.942,3.942,0,0,1-1.374-.45.653.653,0,0,1-.327-.532l1.233-8.614-6.636-1.149a1.615,1.615,0,0,1-.073-2.308" fill="#221815"/>
      <path id="パス_2222" data-name="パス 2222" d="M638.188,3296.844l.512-4.163,26.372,3.241-.692,5.635-26.411-3.244c.059-.5.134-.986.219-1.469" fill="#efefef" fill-rule="evenodd"/>
      <path id="パス_2223" data-name="パス 2223" d="M583.857,3316.39s12.278,14.567,9.172,28.469" fill="none" stroke="#52b6a7" stroke-linecap="round" stroke-linejoin="round" stroke-width="1.659"/>
      <path id="パス_2224" data-name="パス 2224" d="M587.153,3311.445s3,8.613-1.85,7.228" fill="none" stroke="#52b6a7" stroke-linecap="round" stroke-linejoin="round" stroke-width="1.659"/>
    </g>
    <g id="グループ_95" data-name="グループ 95">
      <path id="パス_2225" data-name="パス 2225" d="M108.645,3395.17l1.79-6.4c-25-7-24.057-17.055-24.045-17.155l-6.542-1.158c-.312,1.617-2.163,16.047,28.8,24.713" fill="#e73c71"/>
      <path id="パス_2226" data-name="パス 2226" d="M110.346,3388.511l1.335-5.016a5.19,5.19,0,0,1,10.031,2.669l-1.335,5.015-1.767,6.641-10.031-2.668Z" fill="#221815"/>
      <path id="パス_2227" data-name="パス 2227" d="M87.02,3399.9l2.858-6c-23.434-11.165-20.79-20.915-20.761-21.012l-6.248-2.259c-.584,1.54-4.872,15.442,24.151,29.27" fill="#e73c71"/>
      <path id="パス_2228" data-name="パス 2228" d="M89.834,3393.629,92,3388.916a5.191,5.191,0,0,1,9.429,4.343l-2.172,4.713-2.876,6.242-9.427-4.343Z" fill="#221815"/>
      <path id="パス_2229" data-name="パス 2229" d="M104.457,3342.818a33.272,33.272,0,0,0-1.827-7.874c-1.956-4.962-5.039-5.606-9.424-7.479l6.689-27.383c2.6-10.939,1.946-16.194-1.62-17.728-4.64-2-8.52,3.887-11.312,12.161l-5.078,20.191a.485.485,0,0,1-.948-.174l-1.028-20.244c1.943-6.524,4.273-13.469.656-14.094-4.152-.717-13.1,1.956-14.081,17.577l-.128,15.914c-1.171-1.361-.384-27.106-5.886-27.432-12.867-.767-5.5,27.08-6.281,30.387a7.033,7.033,0,0,0-11.847,5.922l.343,2.761-.009,0c.379,3.121.862,9.88,2.177,17.381l.007.065.005,0c2.415,13.741,7.633,29.947,20.167,30.9,6.183.471,12.37,1.516,18.57,1.683,3.764.1,7.194-.572,10.105-3.09a39.09,39.09,0,0,0,8.59-11.4c-.1.142-.206.285-.311.428,1.61-2.216,2.2-6.077,2.518-8.718a39.136,39.136,0,0,0-.047-9.758" fill="#7f2583"/>
      <path id="パス_2230" data-name="パス 2230" d="M48.282,3329.229s11.071,13.145,16.071,8.462c5.9-5.523-7.815-17.871-7.815-17.871" fill="#7f2583"/>
      <path id="パス_2231" data-name="パス 2231" d="M48.282,3329.229s11.071,13.145,16.071,8.462c5.9-5.523-7.815-17.871-7.815-17.871" fill="none" stroke="#e73c71" stroke-linecap="round" stroke-linejoin="round" stroke-width="1.707"/>
      <path id="パス_2232" data-name="パス 2232" d="M72.881,3350.9a6.02,6.02,0,1,1-5.061-6.846,6.018,6.018,0,0,1,5.061,6.846" fill="#fff"/>
      <path id="パス_2233" data-name="パス 2233" d="M71.994,3348.1a3.01,3.01,0,1,1-2.532-3.422,3.011,3.011,0,0,1,2.532,3.422" fill="#221815"/>
      <path id="パス_2234" data-name="パス 2234" d="M86.726,3351.592a6.02,6.02,0,1,1-5.062-6.846,6.02,6.02,0,0,1,5.062,6.846" fill="#fff"/>
      <path id="パス_2235" data-name="パス 2235" d="M85.838,3348.792a3.01,3.01,0,1,1-2.531-3.423,3.009,3.009,0,0,1,2.531,3.423" fill="#221815"/>
      <path id="パス_2236" data-name="パス 2236" d="M76.957,3365.209s-12.409,7.061-14.41-7.066Z" fill="#fff"/>
      <path id="パス_2237" data-name="パス 2237" d="M44.172,3307.972c4.491-6.955,10.84-15.4,19.482-16.916,3.887-.681,8.223.391,10.811,3.372,1.562,1.8,2.4,4.129,3.94,5.944,3.474,4.09,9.451,4.58,14.649,5.91a40.937,40.937,0,0,1,24.609,18.876c-2.868-1.372-6.229-.87-9.4-.578-6.144.563-12.329.21-18.5.076-7.1-.151-14.274-.017-21.227-1.475s-13.813-4.718-18.069-10.406a20.356,20.356,0,0,0-2.653-3.292,4.262,4.262,0,0,0-3.894-1.13l.245-.381" fill="#f4b838"/>
      <path id="パス_2238" data-name="パス 2238" d="M39.625,3307.2s10.243-8.773,11.157-10.422,8.433-7.716,15.731-7.279a24.129,24.129,0,0,0,3.367-.021,7.465,7.465,0,0,1,4.15.839c1.744.939,3.842,2.54,4.339,4.957a14.479,14.479,0,0,1-3.308,1.284c-1.841.365-3.695.635-5.523,1.07a33.565,33.565,0,0,0-8.44,3.005c-2.8,1.519-5.5,2.691-7.6,5.26a17.477,17.477,0,0,0-3.237,6.216c-2.977.327-8.272.65-10.162-4.929-.077-.23-.422.131-.61.21.048-.063.091-.125.14-.19" fill="#d88c48"/>
      <path id="パス_2239" data-name="パス 2239" d="M119.956,3324.135a3.389,3.389,0,0,0-.233-.463,1.752,1.752,0,0,1-.11-.2,2.278,2.278,0,0,0-.659-.91,5.153,5.153,0,0,0-1.609-.844,6.976,6.976,0,0,1-2.364-1.089,3.636,3.636,0,0,1-.519-1.669,9.923,9.923,0,0,0-.271-1.334c-.064-.206-.115-.4-.168-.6a6.294,6.294,0,0,0-.942-2.238,6.839,6.839,0,0,0-5.265-3.184c-1.347-.143-2.509-.268-3.4-1.236-.582-.63-1.108-1.314-1.67-2.038-.591-.768-1.2-1.561-1.886-2.286a5.43,5.43,0,0,0-4.709-2.057,18.223,18.223,0,0,0-2.05.2c-.567.078-1.132.159-1.7.181a3.445,3.445,0,0,1-3.015-1.158,3.543,3.543,0,0,0-4.3-.884c-.384.149-1.547.6-2.67-1.116a6.846,6.846,0,0,0-3.9-3.075,6.65,6.65,0,0,0-4.273.183,3.39,3.39,0,0,0-1.422,1.9c-.077.181-.18.429-.267.583a3.6,3.6,0,0,1-.409-.265,3.137,3.137,0,0,0-1.433-.657,8.012,8.012,0,0,0-2.376.049c-.884.157-2.892.518-3.546,1.926a2.717,2.717,0,0,0-.683,1.393l-.194.024-.024.469-.048.1.036.129c-.015.342-.092.487-.132.518s-.223.08-.609,0c-.3-.062-.584-.133-.862-.207a6.267,6.267,0,0,0-3.239-.208c-.628.154-3.626,1.255-3.974,3.015a1.98,1.98,0,0,0-.336,1.27,1.919,1.919,0,0,1-.017.306.7.7,0,0,1-.089.254l-.21.1c-.162.075-.319.153-.475.23a5.848,5.848,0,0,1-.771.348,2.913,2.913,0,0,1-.494.093,2.986,2.986,0,0,0-1.478.5,1.962,1.962,0,0,0-.693,2.084c.019.117.036.236.044.361a4.119,4.119,0,0,1-.287,1.606l-.141.377c-.425,1.113-1.069,2.8.512,4.016a1.97,1.97,0,0,0,1.731.447,1.477,1.477,0,0,0,.965-.971,2.233,2.233,0,0,0-.053-1.4,1.211,1.211,0,0,1-.079-.423c.026-.062.05-.1.06-.133a5.481,5.481,0,0,1,1.087,1.044c.13.149.243.279.331.371a8.75,8.75,0,0,0,1.061.891,3.5,3.5,0,0,1,1.295,1.407c.369.814.14,1.4-.329,2.433l-.244.556a2.652,2.652,0,0,0,.227,2.689,2.752,2.752,0,0,0,2.537,1.026,1.8,1.8,0,0,0,1.495-.852,2.68,2.68,0,0,0-.408-2.443,3.964,3.964,0,0,1-.387-.92.561.561,0,0,1,.191-.567,1.661,1.661,0,0,1,1.406-.138,14.707,14.707,0,0,1,1.824.831,19.457,19.457,0,0,0,1.773.826,7,7,0,0,1,1.7,1.091,10.518,10.518,0,0,0,1.683,1.144,9.841,9.841,0,0,0,1.945.68,6.707,6.707,0,0,1,1.857.7c1.4.862,1.659,1.059,1.528,2.132a7.842,7.842,0,0,1-.306,1.129c-.416,1.318-.937,2.958.106,3.96a3.576,3.576,0,0,0,2.19.936,2.866,2.866,0,0,0,2.29-.8c1.2-1.238.391-3.048-.2-4.367a9.083,9.083,0,0,1-.4-.978c-.193-.644.354-1.342,1.2-2.322a3.746,3.746,0,0,1,2.832-1.251c1.13-.024,1.852.119,2.132.425.048.053.174.191.13.6a3.275,3.275,0,0,1-.8,1.408,3.546,3.546,0,0,0-1.059,2.631,2.913,2.913,0,0,0,2.568,2.4,3.206,3.206,0,0,0,3.472-1.556c.856-1.748-.082-3.035-.766-3.976a8.71,8.71,0,0,1-.543-.8,1.527,1.527,0,0,1,.882-1.938,3.619,3.619,0,0,1,1.288.236c.232.068.456.135.662.181.93.21,1.876.387,2.813.556.381.07.776.154,1.177.239a13.363,13.363,0,0,0,4.042.454c.372-.034.733-.1,1.088-.165a3.38,3.38,0,0,1,2.207.061c.833.4,1.009,1.811.7,2.9a4.5,4.5,0,0,1-.688,1.231,3.946,3.946,0,0,0-.972,3.082,2.653,2.653,0,0,0,4.649,1.333c1.6-1.832.908-3.809.293-5.553-.435-1.245-.848-2.421-.443-3.45.932-2.362,4.249-2.609,6.316-2.025a9.186,9.186,0,0,1,2.984,1.628c.422.3.854.613,1.332.917a9.543,9.543,0,0,0,2.11,1.031,3.007,3.007,0,0,0,1.569.159,1.7,1.7,0,0,0,1.343-.964,3.279,3.279,0,0,0-.054-2.254" fill="#f4b838"/>
      <path id="パス_2240" data-name="パス 2240" d="M70.92,3303.6c-.421,3.6,3.167,7,8.014,7.6s9.119-1.837,9.541-5.434-3.169-7-8.015-7.594-9.118,1.837-9.54,5.432m4.14.511c.222-1.9,2.479-3.186,5.04-2.87s4.457,2.112,4.235,4.012-2.48,3.186-5.041,2.871-4.456-2.113-4.234-4.013" fill="#65bbb1" fill-rule="evenodd"/>
      <path id="パス_2241" data-name="パス 2241" d="M96.3,3304.831c5.693.7,9.893,4.831,9.378,9.224s-5.547,7.385-11.242,6.685-9.893-4.831-9.378-9.224,5.547-7.387,11.242-6.685" fill="#e73c71"/>
      <path id="パス_2242" data-name="パス 2242" d="M75.057,3307.772c4.377.539,7.576,3.952,7.144,7.62s-4.327,6.206-8.7,5.666-7.575-3.953-7.145-7.622,4.328-6.2,8.705-5.664" fill="#e73c71"/>
      <path id="パス_2243" data-name="パス 2243" d="M71.787,3304.577c-1.777-3.317-7.439-1.794-9.864.034a12.544,12.544,0,0,0-3.643,4.968c-.858,1.914-1.454,3.944-2.2,5.911a33.712,33.712,0,0,0,6.424.29,11.6,11.6,0,0,0,6.062-2.109,9.674,9.674,0,0,0,3.43-5.046,5.984,5.984,0,0,0,.157-3.09,4.237,4.237,0,0,0-.366-.958" fill="#65bbb1"/>
      <path id="パス_2244" data-name="パス 2244" d="M95.992,3330.462s-6.155-9.814-10.412-6.576-4.336,9.785,5.277,21.131" fill="#7f2583"/>
      <path id="パス_2245" data-name="パス 2245" d="M95.992,3330.462s-6.155-9.814-10.412-6.576-4.336,9.785,5.277,21.131" fill="none" stroke="#e73c71" stroke-linecap="round" stroke-linejoin="round" stroke-width="1.707"/>
    </g>
  </g>
</svg>
