<?xml version="1.0" encoding="UTF-8"?>
<svg id="_レイヤー_2" data-name="レイヤー 2" xmlns="http://www.w3.org/2000/svg" viewBox="0 0 1019 401.8">
  <defs>
    <style>
      .cls-1 {
        stroke-width: 1.1px;
      }

      .cls-1, .cls-2, .cls-3, .cls-4, .cls-5, .cls-6, .cls-7, .cls-8, .cls-9, .cls-10, .cls-11 {
        fill: none;
        stroke-linecap: round;
        stroke-linejoin: round;
      }

      .cls-1, .cls-6, .cls-8 {
        stroke: #7f2583;
      }

      .cls-2 {
        stroke: #1e65a9;
      }

      .cls-2, .cls-3, .cls-4, .cls-5, .cls-6, .cls-7 {
        stroke-width: 1.4px;
      }

      .cls-3, .cls-9, .cls-11 {
        stroke: #221815;
      }

      .cls-4 {
        stroke: #e84572;
      }

      .cls-5 {
        stroke: #e73c71;
      }

      .cls-7 {
        stroke: #52b6a7;
      }

      .cls-12 {
        fill: #f4b838;
      }

      .cls-13 {
        fill: #f9dd96;
      }

      .cls-14 {
        fill: #f1b22d;
      }

      .cls-15 {
        fill: #eaa51c;
      }

      .cls-16 {
        fill: #ebcb32;
      }

      .cls-17 {
        fill: #fff;
      }

      .cls-18 {
        fill: #e9a828;
      }

      .cls-19 {
        fill: #e84572;
      }

      .cls-20, .cls-21 {
        fill: #efefef;
      }

      .cls-22 {
        fill: #e73c71;
      }

      .cls-23, .cls-24 {
        fill: #7f2583;
      }

      .cls-25, .cls-26 {
        fill: #65bbb1;
      }

      .cls-27 {
        fill: #d88c48;
      }

      .cls-28 {
        fill: #c93462;
      }

      .cls-29 {
        fill: #221815;
      }

      .cls-30 {
        fill: #1c68ac;
      }

      .cls-8 {
        stroke-width: 2.9px;
      }

      .cls-9 {
        stroke-width: 1.6px;
      }

      .cls-10 {
        stroke: #c93262;
        stroke-width: 1.6px;
      }

      .cls-11 {
        stroke-width: 1.4px;
      }

      .cls-24, .cls-26, .cls-21 {
        fill-rule: evenodd;
      }
    </style>
  </defs>
  <g id="_レイヤー_1-2" data-name="レイヤー 1">
    <g>
      <path class="cls-29" d="M765.8,148.8l-3.4-4.7c.2-.1,15.8-11.7,25.1-28.9l5.1,2.7c-9.9,18.3-26.1,30.3-26.7,30.8"/>
      <path class="cls-30" d="M759,141l2.9,3.4,3.4-2.6,3.7,4.4-3.3,2.8-6.9,5.8-3.8-4.6-2.9-3.4c-1.6-1.9-1.4-4.7,.5-6.3,1.9-1.6,4.7-1.4,6.3,.5"/>
      <path class="cls-29" d="M747.1,129.5l-1.7-5.5c.2,0,18.8-5.9,33.1-19.2l3.9,4.2c-15.3,14.2-34.5,20.2-35.3,20.5"/>
      <path class="cls-30" d="M743.1,119.9l1.6,4.2,4.1-1.4,2.1,5.4-4,1.6-8.4,3.2-2.2-5.6-1.6-4.2c-.9-2.3,.3-4.9,2.6-5.8,2.3-.9,4.9,.3,5.8,2.6"/>
      <path class="cls-30" d="M833.9,153.7l4.2-3.9c-.1-.1-13.2-14.6-18.8-33.2l-5.5,1.7c6,19.9,19.5,34.8,20.1,35.5"/>
      <path class="cls-29" d="M842.1,147.4l-3.5,2.8-2.8-3.3-4.5,3.6,2.7,3.4,5.6,7,4.7-3.7,3.5-2.8c1.9-1.5,2.3-4.4,.7-6.3-1.5-1.9-4.4-2.3-6.3-.7"/>
      <path class="cls-30" d="M856,138.5l2.8-5.1c-.2,0-17.2-9.5-28.6-25.3l-4.7,3.4c12.2,16.9,29.8,26.6,30.5,27"/>
      <path class="cls-29" d="M861.9,130l-2.4,3.8-3.7-2.2-3.1,4.8,3.6,2.3,7.6,4.8,3.2-5,2.4-3.8c1.3-2.1,.7-4.9-1.4-6.2-2.1-1.3-4.9-.7-6.2,1.4"/>
      <path class="cls-16" d="M838,74.3c1-14.9,1.3-43.4-13.1-40.6-5.9-9.5-14.8-7.1-14.8-7.1l-.7,8.4-.7,8.1-2.6,30.1-.2,2-3.9,45.7s30.8,1.5,38.2-15.1c6.8-15,5.8-29-2.3-31.6"/>
      <path class="cls-29" d="M813.8,105.8c.8,3.8,4.6,6.1,8.3,5.3,3.8-.8,6.1-4.6,5.3-8.3l-13.6,3Z"/>
      <path class="cls-30" d="M766.8,99.6c4.5,17.6,35.1,21.4,35.1,21.4l3.9-45.7,.2-2,2.6-30.1,.7-8.1,.7-8.4s-8.4-3.9-15.8,4.5c-13.7-5.3-18.2,22.9-19.8,37.8-8.4,1.1-11.7,14.8-7.6,30.7"/>
      <line class="cls-3" x1="818.7" y1="3.4" x2="816.2" y2="16.7"/>
      <line class="cls-3" x1="797.9" y1=".7" x2="800.9" y2="14.5"/>
      <line class="cls-3" x1="782.1" y1="12.1" x2="787.6" y2="21.3"/>
      <line class="cls-3" x1="765.6" y1="24.8" x2="773.7" y2="30.8"/>
      <line class="cls-3" x1="840.9" y1="13.3" x2="831.5" y2="23.6"/>
      <line class="cls-3" x1="854.6" y1="35.1" x2="842.2" y2="41.9"/>
      <path class="cls-2" d="M811,35.2s15.5-2.3,12.1,37.1"/>
      <path class="cls-5" d="M807.5,34.9s-14.9-5-18.2,34.5"/>
      <path class="cls-5" d="M806.8,43s-7.9-2.4-10.1,30.8"/>
      <path class="cls-2" d="M810.3,43.3s8.2-1,4.7,32"/>
      <path class="cls-5" d="M792.9,32.8s-8.4,9-10.1,32.4"/>
      <path class="cls-5" d="M774,70.3s-.9,4.8-.7,8.1"/>
      <path class="cls-2" d="M825.4,35.6s7.2,10.4,4.9,33.7"/>
      <path class="cls-2" d="M837.5,75.8s0,4.9-.7,8.1"/>
      <polyline class="cls-3" points="828.8 83.2 829.4 87.1 832.3 84.2"/>
      <polyline class="cls-3" points="807.4 91.8 811.4 92.2 809.3 88.7"/>
      <path class="cls-17" d="M820.1,96.9c-.3,3-2.9,5.3-6,5-3-.3-5.3-2.9-5-6,.3-3,2.9-5.3,6-5,3,.3,5.3,2.9,5,6"/>
      <path class="cls-29" d="M814.4,98c-.1,1.4-1.4,2.5-2.8,2.3-1.4-.1-2.5-1.4-2.3-2.8,.1-1.4,1.4-2.5,2.8-2.3,1.4,.1,2.5,1.4,2.3,2.8"/>
      <path class="cls-16" d="M819.7,99.9s-1.4-.9-4-1.1c-3.4-.3-5.7,1.6-5.7,1.6,0,0,5.1,5.4,9.7-.5"/>
      <path class="cls-17" d="M834.1,92.8c-.3,3-2.9,5.3-6,5-3-.3-5.3-2.9-5-6,.3-3,2.9-5.3,6-5,3,.3,5.3,2.9,5,6"/>
      <path class="cls-29" d="M828.4,93.9c-.1,1.4-1.4,2.5-2.8,2.3-1.4-.1-2.5-1.4-2.3-2.8,.1-1.4,1.4-2.5,2.8-2.3,1.4,.1,2.5,1.4,2.3,2.8"/>
      <path class="cls-16" d="M833.8,95.8s-1.4-.9-4-1.1c-3.4-.3-5.7,1.6-5.7,1.6,0,0,5.1,5.4,9.7-.5"/>
      <path class="cls-3" d="M788.8,108.3c3,.3,5.6-1.9,5.8-4.9"/>
      <path class="cls-17" d="M777.9,83.6c2.5-1.7,5.9-.9,7.6,1.6,1.7,2.5,.9,5.9-1.6,7.6-2.5,1.7-5.9,.9-7.6-1.6-1.7-2.5-.9-5.9,1.6-7.6"/>
      <path class="cls-29" d="M782.3,87.5c1.2-.8,2.8-.4,3.5,.7,.8,1.2,.4,2.8-.7,3.5-1.2,.8-2.8,.4-3.5-.7-.8-1.2-.4-2.8,.7-3.5"/>
      <path class="cls-22" d="M776.2,83.7l10.6,3.5s-1.8-14.4-10.6-3.5"/>
      <path class="cls-17" d="M789.7,88.9c2.5-1.7,5.9-.9,7.6,1.6,1.7,2.5,.9,5.9-1.6,7.6-2.5,1.7-5.9,.9-7.6-1.6-1.7-2.5-.9-5.9,1.6-7.6"/>
      <path class="cls-29" d="M794.1,92.7c1.2-.8,2.8-.4,3.5,.7,.8,1.2,.4,2.8-.7,3.5-1.2,.8-2.8,.4-3.5-.7-.8-1.2-.4-2.8,.7-3.5"/>
      <path class="cls-22" d="M788,88.9l10.6,3.5s-1.8-14.4-10.6-3.5"/>
      <line class="cls-3" x1="756.3" y1="41.5" x2="770.4" y2="45.1"/>
      <line class="cls-3" x1="845.3" y1="53.4" x2="855.2" y2="54.1"/>
      <line class="cls-3" x1="756.3" y1="63.9" x2="766.2" y2="61.6"/>
      <line class="cls-3" x1="844.6" y1="66.3" x2="849.4" y2="69.2"/>
    </g>
    <g>
      <path class="cls-30" d="M56.6,294c-6.6-6.9-17-3.6-24.3-2.5-7.3,1.2-4.2-3-15.2-5.6-6.6-1.6-16-.5-17,7.7-.5,3.8,3.9,9.4,9.5,6.5,5.5-2.9,10.4-.4,10.4-.4,11.5,7.9,10.1,3.5,19,2.1,8.8-1.4,13.1,8.4,13.1,8.4l4.6-16.2Z"/>
      <path class="cls-29" d="M81.3,372.2c-2.8,.4-2.8-.8-5.7-.9,0-.2,2-18.9-6.3-36.1-.5-2.1,3.1-4.5,4.4-2.7,8.4,18.6,7.5,38.9,7.6,39.8"/>
      <path class="cls-30" d="M81.4,372.1s-5.8,.3-5.8,.3c-2,0-4.4,.6-6.3,1.5-1.9,1-2.2,2-1.6,4.1,1,3.4,6.5,3.6,9.4,3.2,.5,0,4.2-.2,4.3-.3,.6-.9,0-8.8,0-8.8"/>
      <path class="cls-29" d="M93.2,348.7c-1-.1-1.8-.3-2.5-.6-7.7-3-9.3-14.4-9.6-15.7l2.7-1.3c.7,2.7,4.7,10.1,9,11.7,1.8,.7,3.7,.3,6-1.3l3.1-2.3,3.6,4.3-3.4,2.6c-3.5,2.3-6.4,2.8-8.8,2.5"/>
      <path class="cls-30" d="M118.1,339.2c-2.1-2.6-4.6-5.1-6.7-7.8l-5.3,4.3,3.8,4.4c2.1,2.4,4.6,6.4,8.4,4.4,.7-.4,1.4-1.1,1.5-1.9,0-.7-.2-1.5-.7-2.1-.3-.4-.7-.9-1-1.3"/>
      <path class="cls-20" d="M75.5,372.4c0-.3,0-3.1,0-5.7l5.7-.3,.2,5.7-5.8,.3Z"/>
      <path class="cls-20" d="M109.9,340.2c-.3,.2-2.5,1.8-4.6,3.4l-3.6-4.3,4.3-3.5,3.8,4.5Z"/>
      <path class="cls-30" d="M98,317.8c0,14.8-13.4,26.8-30,26.8s-30-12-30-26.8,13.4-26.8,30-26.8,30,12,30,26.8"/>
      <path class="cls-17" d="M88.3,314.5c-2.7-1.7-6.8-1.5-9.1,.3-2.4,1.9-2.2,4.7,.5,6.4,2.7,1.7,6.8,1.5,9.1-.3,2.4-1.9,2.2-4.7-.5-6.4"/>
      <path class="cls-29" d="M81.8,316c-1-.9-2.6-.8-3.5,.2-.9,1-.8,2.6,.2,3.5,1,.9,2.6,.8,3.5-.2,.9-1,.8-2.6-.2-3.5"/>
      <path class="cls-17" d="M75.1,317c-2.7-1.7-6.8-1.5-9.1,.3-2.4,1.9-2.2,4.7,.5,6.4,2.7,1.7,6.8,1.5,9.1-.3,2.4-1.9,2.2-4.7-.5-6.4"/>
      <path class="cls-29" d="M68.5,318.5c-1-.9-2.6-.8-3.5,.2-.9,1-.8,2.6,.2,3.5,1,.9,2.6,.8,3.5-.2,.9-1,.8-2.6-.2-3.5"/>
      <path class="cls-17" d="M74.4,327.4c1.3,3.7,3.8,6.2,5.5,5.6,1.7-.6,2-4.1,.6-7.8l-6.1,2.2Z"/>
      <path class="cls-16" d="M115.2,384.2c1.5-.4,3.1-.2,3.5,1.3,.4,1.5-.1,3.5-1.6,3.9-2.2,.6-4.3,1.2-6.5,1.7-1,.3-2,.5-3,.8l-6.8-1c-2.8-.6-5.7-.9-8.5-1.5-3.7-.8-7.3-1.5-11-2.2-5.7-1.1-11.5-2.2-17.2-3.3-8.6-1.7-17.2-3.5-25.8-5.3-.4,0-1-.1-1.4-.4-4.9-4-4.6-4.2-9.5-8.2-1.2-1-1.6-2.9-.6-4.1,1-1.2,2.9-1.1,4.1-.2l8.4,7.5,67.6,12.4,8.4-1.5Z"/>
      <path class="cls-16" d="M68,278.2c-.9,0-1.9,0-2.8,.4-3.7,1.4-6.5,5.2-8.2,8.5-.4,.7-.4,.8-1.2,.7-.6,0-1.1-.1-1.7-.2-2-.2-4.1-.5-6.1-.7-.6,0-1.1,.3-1.2,.9,0,.6,.3,1.1,.9,1.2l17.7,2,11.3,1.3c0-.4,0-.8,0-1.2,0-3.2-1-6.5-2.9-9.2-1.3-2-3.6-3.5-6-3.7"/>
      <path class="cls-3" d="M107.2,309.2c23.5-7.6,23.2-8.6,46.7-16.2"/>
      <path class="cls-3" d="M109.4,319.8c15.3-.7,15.3-.9,30.7-1.5"/>
      <path class="cls-30" d="M74.6,295.5c-.6,5.4-21.2,15.3-27.4,14.6s-10.7-5.6-10.1-11c.6-5.4,6.1-9.2,12.2-8.5,6.2,.7,25.9-.5,25.3,4.9"/>
      <path class="cls-30" d="M45.1,311.7c.4,4.4-3.4,8.2-8.4,8.7-5,.4-9.7-2.7-9.7-7.1,0-6.2,7.9-9,12.9-9.4,5-.4,4.8,3.5,5.2,7.9"/>
      <path class="cls-30" d="M46.2,321.2c.3,3.9-3,7.3-7.5,7.7-4.4,.4-8.3-2.5-8.7-6.3-.3-3.9,3-7.3,7.5-7.7,4.4-.4,8.3,2.5,8.7,6.3"/>
      <path class="cls-30" d="M72.9,335.1c.3,3.4-11.5,7.4-15.3,7.7-3.8,.3-23.2-3.8-23.2-12s2.6-6.3,6.5-6.7c3.8-.3,31.8,7.6,32.1,10.9"/>
      <path class="cls-4" d="M44,325.6c16.4-.5,16.4-9.2,10.6-10.2-10.6-2-18.9,1.8-19,1.8,3.6-1.3,8.7-3.1,19-1.8,3.8,.5,8.5-1,8.9-5,1.9-9.7-17.9-6.7-19.8-6.7"/>
      <path class="cls-30" d="M42.8,333.8s14.8,1.7,14.3-4c-.7-7.8-14.4-4.9-14.4-4.9"/>
      <path class="cls-4" d="M42.8,333.8s14.8,1.7,14.3-4c-.7-7.8-14.4-4.9-14.4-4.9"/>
      <path class="cls-30" d="M56.7,298.8c-4.2,3.8-7.3,7.4-4,10.4,3.3,3,8.8,1.4,16.8-8.1"/>
      <path class="cls-4" d="M56.7,298.8c-4.2,3.8-7.3,7.4-4,10.4,3.3,3,8.8,1.4,16.8-8.1"/>
      <path class="cls-29" d="M47.9,387.7c0,3.5-2.9,6.4-6.4,6.4s-6.4-2.9-6.4-6.4,2.9-6.4,6.4-6.4,6.4,2.9,6.4,6.4"/>
      <path class="cls-29" d="M104.4,397.3c0,2.5-2,4.5-4.5,4.5s-4.5-2-4.5-4.5,2-4.5,4.5-4.5,4.5,2,4.5,4.5"/>
    </g>
    <g>
      <path class="cls-29" d="M979.5,392.3l-1.4-6.1c23.7-5.3,23.4-14.8,23.4-14.9l6.2-.8c.2,1.5,1.2,15.1-28.2,21.7"/>
      <path class="cls-19" d="M1005.3,327.5s-.1-.3-.3-.6c-.6-1.8-1-3.7-1.2-5.6-.7-5.6-1.6-11.4-3.9-16.4-1.2-2.5-2.9-5.5-6-5.5-6.1,0-4.9,7.1-5.6,11,.7-3.8-1.8-12.3-4.7-14.8-2.2-1.9-4.9-1.3-6.7,.9-2.5,3.2-1.4,8.4-1.6,12.1,.1-2.5-1.6-7.6-3.5-9.3-5.1-4.4-8,4-8.1,7.4-.2,4.2-.3,8.6,.5,12.7-.4-2-1.1-4.1-1.8-6-.9-2.5-4.9-4.4-6.8-.5-1.4,2.9-1.2,6.3-1.2,9.5,0,5.4,.4,10.8,1.2,16.1,1.4,10.5,3.4,21.9,9.4,30.9,11.6,17.3,43.1,13.1,51.9-5.3,6-12.7-.5-37.4-11.4-36.5"/>
      <path class="cls-10" d="M988.4,311.6s.5,13.4,2.5,18.5"/>
      <path class="cls-10" d="M964,320.9s.4,12.1,2.4,17.2"/>
      <path class="cls-10" d="M975,310.1s.6,17.5,2.6,22.6"/>
      <path class="cls-29" d="M1001.7,351.3c.4,1.7-2,3.8-5.4,4.7-3.4,.8-6.6,.1-7-1.6-.4-1.7,2-3.8,5.4-4.7,3.4-.9,6.6-.1,7,1.6"/>
      <path class="cls-17" d="M980.1,339.8c1.3-3,4.8-4.4,7.8-3.1,3,1.3,4.4,4.8,3.1,7.8-1.3,3-4.8,4.4-7.8,3.1-3-1.3-4.4-4.8-3.1-7.8"/>
      <path class="cls-29" d="M986.2,340.6c.6-1.4,2.2-2,3.6-1.4,1.4,.6,2,2.2,1.4,3.6s-2.2,2-3.6,1.4c-1.4-.6-2-2.2-1.4-3.6"/>
      <path class="cls-28" d="M978.2,339.8l13.4-1.1s-6.8-16.5-13.4,1.1"/>
      <path class="cls-17" d="M993.8,338.7c1.3-3,4.8-4.4,7.8-3.1,3,1.3,4.4,4.8,3.1,7.8-1.3,3-4.8,4.4-7.8,3.1-3-1.3-4.4-4.8-3.1-7.8"/>
      <path class="cls-29" d="M999.9,339.5c.6-1.4,2.2-2,3.6-1.4,1.4,.6,2,2.2,1.4,3.6s-2.2,2-3.6,1.4c-1.4-.6-2-2.2-1.4-3.6"/>
      <path class="cls-28" d="M991.8,338.7l13.4-1.1s-6.8-16.5-13.4,1.1"/>
      <path class="cls-19" d="M955.2,373.1l1.1,4.7,3.1-.6,2.9,5.8-4.5,1.1-9.5,2.2-1.5-6.3-1.1-4.7c-.6-2.6,1-5.2,3.6-5.9,2.6-.6,5.2,1,5.9,3.6"/>
      <path class="cls-26" d="M949.2,359.2l32.4-2.6-3.1,27.8h0c.3,3.1-4.7,4.3-10.9,4.8-5.6,.5-10.3,.5-11.4-2.1,0-.2-.2-.6-.3-.9l-6.6-27Z"/>
      <path class="cls-29" d="M977.5,328.1c-.8-.8-2.5-1-3.5,0,0,0,0,0,0,0l-8.5,11c0,0,0,.1-.1,.2-.1,.2-.2,.4-.2,.6l-1.6,12.8c0,.3,.2,.7,.5,.8,.6,.2,1.3,.3,1.9,.3,.6,0,1.1-.2,1.7-.4,.2-.1,.4-.3,.4-.6l1.4-11.8,7.9-10.4c1-1,.8-2,.2-2.6"/>
      <path class="cls-21" d="M983.4,355.7l-.5-5.7-36.3,2.9,.6,7.8,36.3-2.9c0-.7-.1-1.4-.2-2"/>
      <path class="cls-19" d="M978.1,386.2l-3.1,.7-1.4-4.7c-.8-2.6-3.5-4.1-6-3.3-2.6,.7-4.1,3.5-3.3,6l1.4,4.7,1.8,6.2,12-3.6-1.4-6Z"/>
    </g>
    <g>
      <path class="cls-23" d="M306.2,99.6l-.2,2.7h-4.2c-2.3-.2-4.3,1.7-4.4,4,0,2.3,1.8,4.3,4.1,4.4h4.2c0,.1,5.6,.3,5.6,.3l.2-10.9-5.4-.5Z"/>
      <path class="cls-29" d="M311.6,100l-5.4-.5c1.9-21.1-6.1-23.3-6.2-23.4l1-5.3c1.3,.2,12.9,3,10.6,29.2"/>
      <path class="cls-23" d="M285.1,108.8l-1.5,2.3-3.7-2.1c-2-1.2-4.6-.5-5.8,1.6-1.2,2-.5,4.6,1.6,5.8l3.7,2.1,4.9,2.8,5.4-9.5-4.5-3Z"/>
      <path class="cls-29" d="M289.6,111.7l-4.5-3c11.7-17.7,5.7-23.4,5.7-23.5l3.4-4.2c1.1,.8,9.9,8.8-4.6,30.7"/>
      <path class="cls-16" d="M286,28.9c-5.4-5.9-11.3-2.1-11.7,2.3-4.9-3.1-9.8,0-10.3,3.8-1-.3-2.1-.3-3.3,0-4.9,1.3-8,6-7.7,11,.9,13.9,6.2,33.6,20.7,39.1,19.1,7.2,41.5-9.4,37.6-30.3-1.5-7.8-5-16.8-9.9-22.8-2.2-2.7-12.6-10.6-15.3-3.1"/>
      <path class="cls-29" d="M228.3,71.3c.5,.8,1.5,1.1,2.3,.6,0,0,8-5.1,8-5.1,.5-.3,1.1,0,1.4,.4,.3,.5,.2,1.1-.3,1.4l-7.8,5c-.7,.5-1,1.4-.7,2.2,0,0,0,.2,.1,.2h0s0,0,0,0c0,0,0,0,0,0,0,0,.1,.1,.2,.2,.6,.6,1.6,.8,2.3,.3l7.8-5c.5-.3,1.1-.2,1.4,.3,.3,.4,.2,1.1-.2,1.4,0,0-8,5.1-8,5.1-.7,.6-.9,1.6-.4,2.4,.5,.8,1.6,1.1,2.5,.6l10.5-6.7c.4-.2,1.1-.7,1.5-2l1.1-3.4c.4-1.6,1.4-3,2.7-3.8l15.8-10c.8-.5,1-1.6,.5-2.4l-.4-.7h0s-.4-.7-.4-.7c-.5-.8-1.6-1-2.4-.5l-15.8,10c-1.4,.9-3,1.2-4.6,.9l-3.6-.5c-1.3-.2-2.1,.3-2.4,.5l-10.5,6.7c-.8,.5-1.1,1.6-.6,2.5"/>
      <polyline class="cls-3" points="301.3 58.3 297.1 61 299.6 56.4"/>
      <polyline class="cls-3" points="277.7 64.6 282.3 67.2 277.6 67.1"/>
      <path class="cls-17" d="M289.1,65.1c2,1.9,2.1,5.1,.2,7.1-1.9,2-5.1,2.1-7.1,.2-2-1.9-2.1-5.1-.2-7.1,1.9-2,5.1-2.1,7.1-.2"/>
      <path class="cls-29" d="M285,67.4c1,1,1.1,2.6,.1,3.6-1,1-2.6,1.1-3.6,.1-1-1-1.1-2.6-.1-3.6,1-1,2.6-1.1,3.6-.1"/>
      <path class="cls-17" d="M299,59.8c2,1.9,2.1,5.1,.2,7.1s-5.1,2.1-7.1,.2c-2-1.9-2.1-5.1-.2-7.1,1.9-2,5.1-2.1,7.1-.2"/>
      <path class="cls-29" d="M294.8,62.1c1,1,1.1,2.6,.1,3.6-1,1-2.6,1.1-3.6,.1-1-1-1.1-2.6-.1-3.6,1-1,2.6-1.1,3.6-.1"/>
      <path class="cls-16" d="M301.6,62.2l-22.9,12.4s23.2-.2,22.9-12.4"/>
      <path class="cls-29" d="M287.4,75.8l12.9-8.5s.6,14.7-12.9,8.5"/>
      <path class="cls-16" d="M265.7,36.5c5.7,3.5,9.1,10.4,8.5,17.1l-8.3,6.3s-6-17-6.5-10.9"/>
      <path class="cls-4" d="M265.7,36.5c5.7,3.5,9.1,10.4,8.5,17.1l-8.3,6.3s-6-17-6.5-10.9"/>
      <path class="cls-4" d="M294.1,50.5c1.3,3.4,5.4,3.8,7.5,1,4.3-5.6,1.6-12.9,.3-15.6"/>
      <path class="cls-4" d="M288.1,31c4.2,4,6.8,10.1,6.6,15.9,0,2.6-1.1,5.4-3.2,6.9-2.1,1.5-5.2,1.8-6.9-.3"/>
      <path class="cls-4" d="M276.4,32.3c4.2,2.5,7.3,7.1,8.6,11.7,1.2,4.3,.7,11.5-4.6,13-1.4,.4-3.1,0-3.8-1.2"/>
      <path class="cls-16" d="M266.8,73.1c-4.1-1.9-5.3-7.4-2.8-14,2.5-6.8,7.5-17.8,11.9-14.3,6.3,4.9-3.5,17.7-3.5,17.7"/>
      <path class="cls-4" d="M266.8,73.1c-4.1-1.9-5.3-7.4-2.8-14,2.5-6.8,7.5-17.8,11.9-14.3,6.3,4.9-3.5,17.7-3.5,17.7"/>
      <line class="cls-3" x1="296.4" y1="3.7" x2="292.4" y2="19.2"/>
      <line class="cls-3" x1="279.2" y1="6.5" x2="281.7" y2="17.8"/>
      <line class="cls-3" x1="301.2" y1="20.7" x2="311.2" y2="12.2"/>
      <line class="cls-3" x1="309.7" y1="28.5" x2="317.3" y2="27.7"/>
      <line class="cls-3" x1="269.2" y1="13.5" x2="274.2" y2="19.2"/>
    </g>
    <g>
      <path class="cls-22" d="M948.5,256.2l1.5-5.4c-21.1-5.9-20.3-14.4-20.3-14.5l-5.5-1c-.3,1.4-1.8,13.5,24.3,20.8"/>
      <path class="cls-29" d="M949.9,250.6l1.1-4.2c.6-2.3,3-3.7,5.4-3.1,2.3,.6,3.7,3,3.1,5.4l-1.1,4.2-1.5,5.6-8.5-2.2,1.5-5.6Z"/>
      <path class="cls-22" d="M930.2,260.2l2.4-5.1c-19.8-9.4-17.5-17.6-17.5-17.7l-5.3-1.9c-.5,1.3-4.1,13,20.4,24.7"/>
      <path class="cls-29" d="M932.6,254.9l1.8-4c1-2.2,3.6-3.2,5.8-2.1,2.2,1,3.2,3.6,2.1,5.8l-1.8,4-2.4,5.3-7.9-3.7,2.4-5.3Z"/>
      <path class="cls-23" d="M944.9,212.1c-.3-2.2-.7-4.5-1.5-6.6-1.6-4.2-4.2-4.7-7.9-6.3l5.6-23.1c2.2-9.2,1.6-13.7-1.4-14.9-3.9-1.7-7.2,3.3-9.5,10.3l-4.3,17c-.1,.5-.8,.3-.8-.1l-.9-17.1c1.6-5.5,3.6-11.4,.6-11.9-3.5-.6-11,1.6-11.9,14.8v13.4c-1.1-1.1-.4-22.9-5.1-23.1-10.8-.6-4.6,22.8-5.3,25.6-1.2-1.2-3-1.8-4.8-1.6-3.3,.4-5.6,3.3-5.2,6.6l.3,2.3h0c.3,2.6,.7,8.3,1.8,14.7h0c0,0,0,0,0,0,2,11.6,6.4,25.2,17,26.1,5.2,.4,10.4,1.3,15.7,1.4,3.2,0,6.1-.5,8.5-2.6,3-2.6,5.4-6.1,7.2-9.6,0,.1-.2,.2-.3,.4,1.4-1.9,1.9-5.1,2.1-7.4,.3-2.8,.3-5.5,0-8.2"/>
      <path class="cls-23" d="M897.6,200.6s9.3,11.1,13.6,7.1c5-4.7-6.6-15.1-6.6-15.1"/>
      <path class="cls-5" d="M897.6,200.6s9.3,11.1,13.6,7.1c5-4.7-6.6-15.1-6.6-15.1"/>
      <path class="cls-17" d="M918.3,218.9c-.4,2.8-3,4.7-5.8,4.3-2.8-.4-4.7-3-4.3-5.8,.4-2.8,3-4.7,5.8-4.3,2.8,.4,4.7,3,4.3,5.8"/>
      <path class="cls-29" d="M917.5,216.5c-.2,1.4-1.5,2.3-2.9,2.1-1.4-.2-2.3-1.5-2.1-2.9,.2-1.4,1.5-2.3,2.9-2.1,1.4,.2,2.3,1.5,2.1,2.9"/>
      <path class="cls-17" d="M930,219.5c-.4,2.8-3,4.7-5.8,4.3-2.8-.4-4.7-3-4.3-5.8s3-4.7,5.8-4.3c2.8,.4,4.7,3,4.3,5.8"/>
      <path class="cls-29" d="M929.2,217.1c-.2,1.4-1.5,2.3-2.9,2.1-1.4-.2-2.3-1.5-2.1-2.9,.2-1.4,1.5-2.3,2.9-2.1,1.4,.2,2.3,1.5,2.1,2.9"/>
      <path class="cls-17" d="M921.7,230.9s-10.5,6-12.1-6l12.1,6Z"/>
      <path class="cls-12" d="M894.1,182.7c3.8-5.9,9.1-13,16.4-14.3,3.3-.6,6.9,.3,9.1,2.8,1.3,1.5,2,3.5,3.3,5,2.9,3.4,8,3.9,12.4,5,8.7,2.2,16.2,8.2,20.7,15.9-2.4-1.2-5.3-.7-7.9-.5-5.2,.5-10.4,.2-15.6,0-6-.1-12,0-17.9-1.2-5.9-1.2-11.6-4-15.2-8.8-.7-1-1.3-2-2.2-2.8-.9-.8-2.1-1.3-3.3-1,0-.1,.1-.2,.2-.3"/>
      <path class="cls-27" d="M890.3,182s8.6-7.4,9.4-8.8c.8-1.4,7.1-6.5,13.3-6.1,1.2,0,2.1,0,2.8,0,1.2,0,2.4,.1,3.5,.7,1.5,.8,3.2,2.1,3.7,4.2-.9,.4-1.8,.9-2.8,1.1-1.6,.3-3.1,.5-4.7,.9-2.5,.6-4.8,1.3-7.1,2.5-2.4,1.3-4.6,2.3-6.4,4.4-1.3,1.5-2.2,3.3-2.7,5.2-2.5,.3-7,.5-8.6-4.2,0-.2-.4,.1-.5,.2,0,0,0-.1,.1-.2"/>
      <path class="cls-12" d="M958,196.3c0-.1-.1-.3-.2-.4,0,0,0-.1,0-.2-.1-.3-.3-.6-.6-.8-.4-.4-.9-.6-1.4-.7-1.7-.6-2-.9-2-.9-.3-.4-.4-.8-.4-1.4,0-.4-.1-.7-.2-1.1,0-.2,0-.3-.1-.5-.2-.6-.3-1.2-.8-1.9-1.2-1.7-2.5-2.5-4.4-2.7-1.1-.1-2.1-.2-2.9-1-.5-.5-.9-1.1-1.4-1.7-.5-.6-1-1.3-1.6-1.9-1.3-1.3-2.3-1.8-4-1.7-.6,0-1.2,0-1.7,.2-.5,0-1,.1-1.4,.2-1.1,0-1.8-.2-2.5-1-1-1.1-2.2-1.3-3.6-.7-.3,.1-1.3,.5-2.3-.9-.9-1.4-2-2.2-3.3-2.6-1-.3-2.6-.4-3.6,.2-.7,.3-1,1-1.2,1.6,0,.2-.2,.4-.2,.5-.1,0-.2-.1-.3-.2-.3-.2-.7-.5-1.2-.6-.6,0-1.4,0-2,0-.7,.1-2.4,.4-3,1.6-.3,.3-.5,.8-.6,1.2h-.2s0,.4,0,.4h0c0,0,0,.2,0,.2,0,.3,0,.4-.1,.4,0,0-.2,0-.5,0-.3,0-.5-.1-.7-.2-.8-.2-1.7-.4-2.7-.2-.5,.1-3.1,1.1-3.4,2.5-.3,.4-.3,.8-.3,1.1,0,.1,0,.2,0,.3,0,.1,0,.2,0,.2h-.2c-.1,.1-.3,.2-.4,.3-.2,.1-.4,.2-.7,.3-.1,0-.3,0-.4,0-.4,0-.9,.1-1.2,.4-.8,.6-.7,1.3-.6,1.8,0,0,0,.2,0,.3,0,.4,0,.9-.2,1.4v.3c-.5,.9-1,2.4,.3,3.4,.5,.4,1,.5,1.5,.4,.4-.1,.7-.4,.8-.8,.2-.5,0-.9,0-1.2,0-.1,0-.3,0-.4,0,0,0,0,0-.1,.3,.1,.7,.7,.9,.9,.1,.1,.2,.2,.3,.3,.3,.3,.6,.5,.9,.8,.5,.4,.8,.6,1.1,1.2,.3,.7,.1,1.2-.3,2.1l-.2,.5c-.3,.8-.3,1.6,.2,2.3,.5,.6,1.3,1,2.1,.9,.6,0,1-.3,1.3-.7,.4-.7,0-1.4-.3-2.1-.1-.3-.3-.6-.3-.8,0-.3,0-.4,.2-.5,.3-.2,.8-.3,1.2-.1,.5,.2,1,.4,1.5,.7,.5,.2,1,.5,1.5,.7,.5,.2,1,.5,1.4,.9,.4,.3,.9,.7,1.4,1,.5,.3,1.1,.4,1.6,.6,.6,.1,1.1,.3,1.6,.6,1.2,.7,1.4,.9,1.3,1.8,0,.2-.1,.6-.3,1-.4,1.1-.8,2.5,0,3.3,.5,.5,1.2,.7,1.8,.8,.7,0,1.4-.1,1.9-.7,1-1,.3-2.6-.2-3.7-.1-.3-.3-.6-.3-.8-.2-.5,.3-1.1,1-2,.7-.8,1.7-1,2.4-1.1,1,0,1.6,.1,1.8,.4,0,0,.1,.2,.1,.5,0,.4-.3,.8-.7,1.2-.5,.6-1,1.3-.9,2.2,.1,1,1,1.8,2.2,2,1.3,.2,2.4-.3,2.9-1.3,.7-1.5,0-2.6-.6-3.4-.2-.2-.3-.4-.5-.7-.1-.3-.1-.6,0-1,.2-.3,.4-.6,.7-.6,.3,0,.7,0,1.1,.2,.2,0,.4,.1,.6,.2,.8,.2,1.6,.3,2.4,.5,.3,0,.7,.1,1,.2,1.1,.2,2.3,.5,3.4,.4,.3,0,.6,0,.9-.1,.7-.1,1.3-.2,1.9,0,.7,.3,.9,1.5,.6,2.4-.1,.3-.3,.7-.6,1-.5,.6-1,1.5-.8,2.6,.2,.9,.8,1.6,1.6,1.8,.8,.2,1.7,0,2.3-.7,1.4-1.5,.8-3.2,.2-4.7-.4-1-.7-2-.4-2.9,.8-2,3.6-2.2,5.3-1.7,1,.3,1.7,.8,2.5,1.4,.4,.3,.7,.5,1.1,.8,.6,.4,1.2,.7,1.8,.9,.4,.1,.8,.2,1.3,.1,.7-.2,1-.5,1.1-.8,.3-.6,.1-1.4,0-1.9"/>
      <path class="cls-26" d="M916.6,179c-.4,3,2.7,5.9,6.8,6.4,4.1,.5,7.7-1.5,8-4.6,.4-3-2.7-5.9-6.8-6.4-4.1-.5-7.7,1.5-8,4.6m3.5,.4c.2-1.6,2.1-2.7,4.2-2.4,2.2,.3,3.8,1.8,3.6,3.4-.2,1.6-2.1,2.7-4.3,2.4-2.2-.3-3.8-1.8-3.6-3.4"/>
      <path class="cls-22" d="M938,180c4.8,.6,8.3,4.1,7.9,7.8-.4,3.7-4.7,6.2-9.5,5.6-4.8-.6-8.3-4.1-7.9-7.8,.4-3.7,4.7-6.2,9.5-5.6"/>
      <path class="cls-22" d="M920.1,182.5c3.7,.5,6.4,3.3,6,6.4-.4,3.1-3.6,5.2-7.3,4.8-3.7-.5-6.4-3.3-6-6.4,.4-3.1,3.6-5.2,7.3-4.8"/>
      <path class="cls-25" d="M917.4,179.8c-1.5-2.8-6.3-1.5-8.3,0-1.4,1-2.3,2.6-3.1,4.2-.7,1.6-1.2,3.3-1.9,5,1.8,.2,3.6,.4,5.4,.2,1.8-.1,3.6-.7,5.1-1.8,1.4-1,2.4-2.6,2.9-4.3,.2-.8,.3-1.8,.1-2.6,0-.3-.2-.6-.3-.8"/>
      <path class="cls-23" d="M937.8,201.6s-5.2-8.3-8.8-5.5c-3.6,2.7-3.7,8.3,4.4,17.8"/>
      <path class="cls-5" d="M937.8,201.6s-5.2-8.3-8.8-5.5c-3.6,2.7-3.7,8.3,4.4,17.8"/>
    </g>
    <g>
      <path class="cls-30" d="M63.6,236.3c2.9,10.8,13.6,15.9,24.5,13,10.8-2.9,18-11.2,15.1-22.1-2.9-10.8-13.3-14.5-24.1-11.6-10.8,2.9-18.4,9.8-15.5,20.7"/>
      <path class="cls-15" d="M65.2,233.4s0,0,0,0c0,0,0,0,0,0,0,0,0,0,0,0"/>
      <path class="cls-18" d="M95.9,229.8s-.1,0-.1,0c0,0,.2,0,.3,.1,0,0,0,.2,0,.2,0,0,0,.1,.1,.2,0,0,0,.2,0,.3,0,0,.2,0,.2,.1,0,.2,0,.3,0,.5-1,.7-2,1.5-3,2.2-1,.7-2.1,1.3-3.2,2-1.1,.7-2.1,1.3-3.2,1.9-1.1,.6-2.1,1.3-3.2,1.9-1.1,.7-2.1,1.4-3.2,2-1.1,.7-2.1,1.3-3.1,2.1-.2,.2-.5,.3-.7,.4-.1,0-.1,.3-.2,.3,0,0-.2,0-.3,.1,0,0,0,0,0,0-1.2,.6-1.9,.1-2.6-1.5-.3-.8-.2-1.5,0-2.1,0,0,0,0,0,0,0,0,0,0,0,0,.1-.2,.2-.5,.4-.7,0,0,0-.1,0-.2,.2-.2,.5-.2,.7-.4,0,0,.1,0,.2-.1,.2-.1,.3-.4,.5-.5,0,0,.1-.1,.2-.2,.2-.2,.5-.2,.8-.4,1.1-.7,2.2-1.5,3.4-2.2,1.1-.7,2.2-1.5,3.4-2.1,1.2-.7,2.3-1.3,3.5-1.9,1.2-.6,2.4-1.2,3.6-1.8,1.2-.6,2.4-1.1,3.6-1.7,.5,.3,1.1,.5,1.5,1,0,0,0,0,0,0,0,0,0,0,0,0,0,0,.1,0,.1,0"/>
      <path class="cls-18" d="M93.9,223.5c0,.6,0,.7-.1,1.3-.2,.2-1.5,1.1-3.3,2.4-1,.7-2.1,1.4-3.4,2.3-1.1,.7-2.3,1.4-3.4,2.1-1.2,.8-2.3,1.5-3.4,2.2-1.2,.8-2.5,1.5-3.5,2.1-1.9,1.2-3.3,2.1-3.6,2-.9-.7-.9-1.1-1.5-1.7-.2-.2-.8-1-.8-1.8,0-.4,0-1.2,.2-1.5,0,0,0,0,0,0,0,0,0,0,0,0,1-.7,2.2-1.2,3.4-1.8,1.1-.5,2.3-1.1,3.4-1.6,1.2-.5,2.4-.9,3.5-1.5,.8-.4,2-1.2,3.5-2.1,1.2-.7,2.4-1.4,3.6-2.1,1.6-.9,3-1.7,3.7-1.9,.3,.3,1.4,1.2,1.7,1.6"/>
      <path class="cls-13" d="M71.4,233h0s0,0,0,0c0,0,0,0,0,0"/>
      <path class="cls-18" d="M89.9,219.2s0,.2,0,.2c0,0,.2,0,.2,.1,0,0,.1,.1,.2,.2,0,0,0,.2,0,.2,0,.1,0,.2,.1,.3,0,0,0,0,0,.1,0,.2,.2,.4,.2,.6-1,.7-2,1.5-3.1,2.2-1,.7-2.1,1.3-3.2,2-1.1,.6-2.1,1.3-3.2,2-1.1,.6-2.2,1.3-3.2,1.9-1.1,.6-2.2,1.2-3.3,1.8-1.1,.7-2.1,1.4-3.1,2.1-.2,.2-.4,.4-.6,.6-.1,0-.2,0-.3,.1,0,0-.2,0-.3,0,0,0,0,0,0,0-1.2,.6-1.8,.2-2.5-1.5-.9-2.2,1.2-3.4,2.9-4.6,1.1-.7,2.3-1.3,3.5-2,1.1-.7,2.3-1.3,3.5-2,1.2-.7,2.3-1.3,3.5-1.9,1.2-.6,2.4-1.3,3.6-1.8,1.2-.6,2.4-1.3,3.6-1.8,.5,.3,1,.7,1.4,1.2,0,0,0,0,0,0"/>
      <path class="cls-16" d="M95.1,224.1c0,0,.1,0,.2,.1,.1,.1,.3,.3,.4,.5-.6,1.1-1.4,2.1-2.1,3.1-.7,1-1.3,2.1-2.1,3.1-.7,1-1.4,2.1-2.1,3.1-.7,1-1.4,2.1-2.1,3.1-.7,1-1.4,2.1-2.1,3.1-.7,1.1-1.4,2.1-2.1,3.1-.2,.3-.3,.5-.5,.7,0,0,0,.2,0,.3,0,0,0,.2-.1,.3,0,0,0,0,0,0-.9,1.1-1.6,.8-3-.4-.6-.6-.7-1.2-.7-1.9,0,0-.2,0-.2,0,0,0,0,0,0,0,0-.3,.2-.5,.3-.8,0,0,0,0,0-.1,0-.2,.2-.5,.3-.7,0,0,.2,0,.2-.2,.1-.2,.2-.4,.3-.7,0,0,0-.1,.1-.2,.2-.2,.2-.5,.4-.8,.7-1.1,1.5-2.2,2.2-3.3,.8-1.1,1.5-2.2,2.3-3.3,.8-1.1,1.7-2.1,2.5-3.1,.8-1,1.6-2.1,2.5-3.1,.9-1,1.7-2.1,2.6-3.1,.6,0,1.2,.2,1.8,.4,0,0,0,0,0,0,0,0,0,0,0,0,0,0,0,0,0,0,0,0,0,0,0,0,0,0,.2,0,.2,.1,0,0,.1,0,.2,0,0,0,0,.2,.1,.3,0,0,.1,.1,.2,.2"/>
      <path class="cls-16" d="M93,220.2c-.2,.2-1.3,1.2-3.1,2.5-.9,.7-2,1.5-3.2,2.4-1,.8-2.1,1.6-3.2,2.4-1.1,.8-2.2,1.6-3.3,2.3-1.2,.8-2.3,1.7-3.2,2.4-1.8,1.3-3.1,2-3.4,2-.7-.5-1-.6-1.4-1-.1-.1-.7-.8-.6-1.4,0-.3,.1-.9,.4-1.2,0,0,0,0,0,0h0c1-.7,2.1-1.3,3.2-1.9,1.1-.6,2.1-1.2,3.2-1.8,1.1-.6,2.1-1.4,3.1-2,.7-.4,2-1.3,3.4-2.2,1.1-.7,2.4-1.4,3.5-2.2,1.5-1,2.8-1.9,3.4-2.2,.3,.2,1.1,.8,1.3,1,0,.5,0,.5-.2,1"/>
      <path class="cls-14" d="M72.1,230.5s0,0,0,0c0,0,0,0,0,0,0,0,0,0,0,0"/>
      <path class="cls-23" d="M109.1,200.2l-1.3,2.4-3.9-1.8c-2.1-1-4.7,0-5.6,2.1-1,2.1,0,4.6,2.1,5.6l3.9,1.8,5.1,2.3,4.5-9.9-4.8-2.5Z"/>
      <path class="cls-29" d="M113.9,202.7l-4.8-2.6c10-18.7,3.6-23.8,3.5-23.9l3-4.5c1.1,.7,10.7,7.8-1.7,31"/>
      <path class="cls-23" d="M86.2,200.4l-2.3,1.5-2.6-3.4c-1.4-1.9-4.1-2.2-5.9-.8-1.9,1.4-2.2,4.1-.8,5.9l2.6,3.4,3.4,4.5,8.7-6.6-3-4.5Z"/>
      <path class="cls-29" d="M89.2,204.9l-3-4.5c17.7-11.7,14.5-19.3,14.4-19.4l4.8-2.5c.6,1.2,5.7,12-16.2,26.4"/>
      <path class="cls-23" d="M113.6,130.2c-4.2-6.6-10.4-4-11.6,.1-4.1-3.8-9.3-1.6-10.5,1.8-.9-.5-2-.6-3.1-.5-4.8,.4-8.7,4.3-9.2,9.2-1.6,13.4,0,33.1,12.9,40.8,16.9,10.2,41.2-1.7,41-22.3,0-7.7-1.8-16.9-5.5-23.5-1.6-2.9-10.1-12.3-14.1-5.6"/>
      <path class="cls-23" d="M131.8,154.8c2.8-2.1,2.6-5.8,3.5-8.9,.4-1.5,1.5-4.1,3.4-4.3,3.4-.2,4.7,3.6,5.1,6.3,1.6,10.5-7.1,23.5-16.5,27.8"/>
      <polyline class="cls-11" points="97.5 162.3 101.1 161.4 98.2 158.9"/>
      <polyline class="cls-11" points="119.6 154.4 117.6 157.6 121.4 157.3"/>
      <path class="cls-17" d="M102.6,167c2.5,1.1,5.4,0,6.5-2.6,1.1-2.5,0-5.4-2.6-6.5-2.5-1.1-5.4,0-6.5,2.6s0,5.4,2.6,6.5"/>
      <path class="cls-29" d="M106.1,164.8c1.2,.5,2.7,0,3.2-1.3,.5-1.2,0-2.7-1.3-3.2-1.2-.5-2.7,0-3.2,1.3-.5,1.2,0,2.7,1.3,3.2"/>
      <path class="cls-17" d="M113.5,164.3c2.5,1.1,5.4,0,6.5-2.6,1.1-2.5,0-5.4-2.6-6.5-2.5-1.1-5.4,0-6.5,2.6s0,5.4,2.6,6.5"/>
      <path class="cls-29" d="M117,162.1c1.2,.5,2.7,0,3.2-1.3,.5-1.2,0-2.7-1.3-3.2-1.2-.5-2.7,0-3.2,1.3-.5,1.2,0,2.7,1.3,3.2"/>
      <path class="cls-20" d="M118.3,167.8s-1.2,7.4-8.4,8.5c0,0-6,1.2-9.6-4.5l18-3.9Z"/>
      <path class="cls-23" d="M117.3,149.6c1.3,3.3,6.6,3.6,8.7,1,2.8-3.5,2-7.5,.6-10.1"/>
      <path class="cls-7" d="M117.3,149.6c1.3,3.3,6.6,3.6,8.7,1,2.8-3.5,2-7.5,.6-10.1"/>
      <path class="cls-23" d="M117.2,134.6c2.1,2.9,2.8,6.6,2.4,10.1-.4,3.2-2.5,7.2-5.5,8.8-1.5,.8-4.6,.8-6-1.3"/>
      <path class="cls-7" d="M117.2,134.6c2.1,2.9,2.8,6.6,2.4,10.1-.4,3.2-2.5,7.2-5.5,8.8-1.5,.8-4.6,.8-6-1.3"/>
      <path class="cls-23" d="M107.2,135.9c4.9,4.3,4.1,18.9-3.7,19.7-1.4,.1-3.7-.6-4.1-1.9"/>
      <path class="cls-7" d="M107.2,135.9c4.9,4.3,4.1,18.9-3.7,19.7-1.4,.1-3.7-.6-4.1-1.9"/>
      <path class="cls-23" d="M95.5,136.7s9.7,10.8,2.2,19.7c-2.4,2.8-5.6,3.4-7.2,1.5-2-2.4-3.1-3.5-5.2-7.2"/>
      <path class="cls-7" d="M95.5,136.7s9.7,10.8,2.2,19.7c-2.4,2.8-5.6,3.4-7.2,1.5-2-2.4-3.1-3.5-5.2-7.2"/>
      <path class="cls-19" d="M163,201.9l-2.3,2.1-3.5-3.4c-1.9-1.9-5-1.9-6.9,0-1.9,1.9-1.9,5,0,6.9l3.5,3.4,4.6,4.6,8.8-9.1-4.2-4.6Z"/>
      <path class="cls-23" d="M167.2,206.5l-4.2-4.7c18.3-16.4,13.2-24.5,13.2-24.6l5.1-3.7c.9,1.2,8.6,12.7-14,33"/>
      <path class="cls-19" d="M186.5,206.1l-1.5,2.8-4.5-2c-2.5-1.1-5.4,0-6.5,2.4s0,5.4,2.4,6.5l4.5,2,5.9,2.7,5.1-11.5-5.5-2.9Z"/>
      <path class="cls-23" d="M192.1,209l-5.5-3c11.5-21.7,4.1-27.6,4-27.6l3.5-5.2c1.3,.8,12.4,9-1.9,35.8"/>
      <path class="cls-22" d="M213.6,141.9c-1.7-3.4-4.3-6.2-7.3-8.3h.1c0-.1-8.1-3.5-10-20.6-.4-3.6-1.5-10.9-6-11.7-5.2-.9-8.5,5.6-9.1,9.8-.7,4.7,0,10.2,2.3,14.8-4.8-.7-9.5-1.1-13.6-1.4-4.9-.4-11.7-.5-12.7,6-.4,2.9,1.6,5.8,3.8,7.5-6.4,0-7.3,8.5-2.7,11.9-4.6,.9-7.7,7.9-1.1,12.7-6.7,2.6-2.8,11.7,6.1,15.6,7.6,3.4,14.1,6.3,22.5,7,22.6,1.9,37.6-23.8,27.8-43.2"/>
      <path class="cls-9" d="M195.4,163.9c-13.4,15.8-25.4,3.4-27.3,1.7"/>
      <path class="cls-8" d="M177.8,157.2s3-1.7,5.2,0"/>
      <line class="cls-8" x1="165.4" y1="156.9" x2="162.4" y2="157.1"/>
      <line class="cls-8" x1="194.7" y1="155.3" x2="198.7" y2="155"/>
      <path class="cls-17" d="M177.8,157.2c-.7,3.2-3.9,5.2-7.1,4.5-3.2-.7-5.2-3.9-4.5-7.1,.7-3.2,3.9-5.2,7.1-4.5,3.2,.7,5.2,3.9,4.5,7.1"/>
      <path class="cls-8" d="M177.8,157.2c-.7,3.2-3.9,5.2-7.1,4.5-3.2-.7-5.2-3.9-4.5-7.1,.7-3.2,3.9-5.2,7.1-4.5,3.2,.7,5.2,3.9,4.5,7.1Z"/>
      <path class="cls-29" d="M173.4,157.9c-.4,1.6-2,2.6-3.5,2.2-1.6-.4-2.6-2-2.2-3.5,.4-1.6,2-2.6,3.5-2.2,1.6,.4,2.6,2,2.2,3.5"/>
      <path class="cls-17" d="M194.3,156.2c-.7,3.2-3.9,5.2-7.1,4.5-3.2-.7-5.2-3.9-4.5-7.1,.7-3.2,3.9-5.2,7.1-4.5,3.2,.7,5.2,3.9,4.5,7.1"/>
      <path class="cls-8" d="M194.3,156.2c-.7,3.2-3.9,5.2-7.1,4.5-3.2-.7-5.2-3.9-4.5-7.1,.7-3.2,3.9-5.2,7.1-4.5,3.2,.7,5.2,3.9,4.5,7.1Z"/>
      <path class="cls-29" d="M189.9,156.9c-.4,1.6-2,2.6-3.5,2.2-1.6-.4-2.6-2-2.2-3.5,.4-1.6,2-2.6,3.5-2.2,1.6,.4,2.6,2,2.2,3.5"/>
      <path class="cls-6" d="M196.4,130.8c-3.8-3.2-10.5-3.7-10.5-3.7"/>
      <path class="cls-29" d="M142.6,225.1l-2.8-2.2c0,0,7.5-9.6,10.1-21.3l3.5,.8c-2.8,12.5-10.5,22.3-10.8,22.7"/>
      <path class="cls-25" d="M137.2,221.6l2.3,1.6,1.6-2.1,2.9,2-1.5,2.2-3.1,4.6-3-2.1-2.3-1.6c-1.3-.9-1.6-2.6-.7-3.9,.9-1.3,2.6-1.6,3.9-.7"/>
      <path class="cls-29" d="M124.6,224.2l-2.2-2.8c0,0,9.5-7.5,14.8-18.3l3.2,1.6c-5.7,11.5-15.4,19.2-15.8,19.5"/>
      <path class="cls-25" d="M120.2,219.6l1.9,2.1,2.1-1.7,2.4,2.6-2,1.8-4.1,3.7-2.5-2.7-1.9-2.1c-1-1.1-.9-2.9,.2-3.9s2.9-.9,3.9,.2"/>
      <path class="cls-30" d="M156.1,174.1c-1.2,0-2.2,.5-2.9,1.3-.6-1.7-2.3-2.8-4.1-2.5-1,.2-1.9,.7-2.4,1.5,0,0-.4-2.5-3.2-2.9-3.8-.6-4.5,4-4.5,4,0,.3-.4,.4-.5,.1l-1.7-6.1c-1.8-4.2-4.1-7.1-6.5-5.9-1.8,1-2.1,4.3-.3,10l3.1,9.2s2,4.7-1.4,9.8c-1.1-.8-7.1-4.4-10.2-.8-2.1,2.5,9.3,15.2,17.5,16h0c5.8,1,12.9-1.3,16.3-5.8,2.8-3.8,3.5-8.8,3.9-13.4,.4-4,.3-7.6,.4-9.3,0,0,0-1.5,0-1.5,0-2-1.5-3.8-3.6-3.8"/>
      <path class="cls-1" d="M151.8,180.5s-.8,7.2-4.4,6.4c-4.8-1.1-2-8.2-2-8.2"/>
      <path class="cls-1" d="M157.1,182s.8,7.7-2.8,7.2c-4.2-.6-2.5-8.7-2.5-8.7"/>
      <path class="cls-17" d="M142.9,194.4c.5,2,2.5,3.2,4.5,2.7,2-.5,3.2-2.5,2.7-4.5-.5-2-2.5-3.2-4.5-2.7-2,.5-3.2,2.5-2.7,4.5"/>
      <path class="cls-29" d="M145.4,192.5c.2,1,1.2,1.6,2.2,1.4,1-.2,1.6-1.2,1.4-2.2-.2-1-1.2-1.6-2.2-1.4-1,.2-1.6,1.2-1.4,2.2"/>
      <path class="cls-17" d="M134.2,194.4c.5,2,2.5,3.2,4.5,2.7,2-.5,3.2-2.5,2.7-4.5-.5-2-2.5-3.2-4.5-2.7-2,.5-3.2,2.5-2.7,4.5"/>
      <path class="cls-29" d="M136.8,192.5c.2,1,1.2,1.6,2.2,1.4,1-.2,1.6-1.2,1.4-2.2-.2-1-1.2-1.6-2.2-1.4-1,.2-1.6,1.2-1.4,2.2"/>
      <path class="cls-1" d="M138.8,178s-2.9,8.3,1.1,8.6c4,.2,5.1-6.6,5.1-6.6"/>
      <path class="cls-17" d="M150.2,201.4c0,1.2-.6,2.1-1.4,2.1s-1.4-1-1.4-2.1,.6-2.1,1.4-2.1,1.4,1,1.4,2.1"/>
      <path class="cls-24" d="M165.8,213.8l-17.4-.5,2.5,14.8h0c0,1.7,2.6,2.1,6,2.2,3,0,5.5,0,6-1.4,0,0,.1-.3,.1-.5l2.7-14.6Z"/>
      <path class="cls-29" d="M148.7,200.5c.3-.5,1.2-.8,1.8-.4,0,0,0,0,0,0l5.8,4.6s0,0,0,0c0,0,.1,.2,.2,.3l2.5,6.4c0,.2,0,.4-.1,.5-.3,.2-.6,.3-1,.4-.3,0-.6,0-.9,0-.1,0-.2-.1-.3-.2l-2.3-5.9-5.5-4.3c-.7-.4-.7-.9-.5-1.3"/>
      <path class="cls-21" d="M147.4,212.8v-3.1c0,0,19.5,.5,19.5,.5v4.2c-.1,0-19.6-.5-19.6-.5,0-.4,0-.7,0-1.1"/>
      <path class="cls-26" d="M154.6,137.9l-20.4-2.5,1.2,17.7h0c-.2,2,2.9,2.8,6.8,3.3,3.5,.4,6.5,.6,7.2-1,0-.1,.2-.4,.2-.5l4.9-16.9Z"/>
      <path class="cls-29" d="M141.2,122.7c.7-.7,1.6-.4,2.4-.4,1.5,0,2.4,.4,3.8,.2,.6,0,2.2,0,2.6,.6,0,0,0,.1,0,.2,0,.1,.1,.3,.2,.5l-1,9.5c0,.3-.1,.5-.4,.6-.5,.2-.9,.2-1.4,.2-.4,0-.8-.2-1.2-.4-.2,0-.3-.3-.3-.5l1.1-7.5-5.8-1c-.7-.8-.5-1.6,0-2"/>
      <path class="cls-21" d="M133,134.7l.4-3.6,22.9,2.8-.6,4.9-22.9-2.8c0-.4,.1-.9,.2-1.3"/>
      <path class="cls-7" d="M85.9,151.7s10.7,12.6,8,24.7"/>
      <path class="cls-7" d="M88.7,147.4s2.6,7.5-1.6,6.3"/>
    </g>
  </g>
</svg>