<svg xmlns="http://www.w3.org/2000/svg" width="659.196" height="173.349" viewBox="0 0 659.196 173.349">
  <g id="グループ_92" data-name="グループ 92" transform="translate(-46.816 -3815.393)">
    <g id="グループ_88" data-name="グループ 88">
      <g id="グループ_87" data-name="グループ 87">
        <g id="グループ_86" data-name="グループ 86">
          <path id="パス_2135" data-name="パス 2135" d="M54.624,3877.268l16.883,41.819-5.066,2.045L47.493,3874.2l17.582-7.1,2.066,5.116Z" fill="#1c68ac" stroke="#221815" stroke-miterlimit="10" stroke-width="1.04"/>
          <path id="パス_2136" data-name="パス 2136" d="M100.3,3900.909a5.84,5.84,0,0,1-4.314-.463c-4.688-2.314-8.245-7.749-11.373-17.433a52.093,52.093,0,0,1-2.751-13.744l6.1-.282c.39-.014,1.287-.023,1.486.589.18.56-.366.962-1.133,1.547a55.435,55.435,0,0,0,2.7,11.678c3.211,9.939,6.25,10.983,7.269,10.653,1.834-.592,2.179-6.669,2.357-9.428l5.448,2.4C105.228,3893.35,104.424,3899.576,100.3,3900.909ZM123.2,3883.49c-4.9-10.123-10.209-15.05-14.176-18.272l4.426-4.243a45.529,45.529,0,0,1,15.356,18.959Z" fill="#1c68ac" stroke="#221815" stroke-miterlimit="10" stroke-width="1.04"/>
          <path id="パス_2137" data-name="パス 2137" d="M155.795,3858.365a151.836,151.836,0,0,1-3.842,30.316l-6.82-.349c1.867-5.817,3.8-12.258,4.409-27.366a70.731,70.731,0,0,1-7.592,2.547l-1.757-5.3a21.565,21.565,0,0,0,4.288-.733,38.96,38.96,0,0,0,5.069-1.59,65.045,65.045,0,0,0-.969-11.46l6.769-.08c.1-.026,1.364-.062,1.506.509.09.364-.027.558-.444.883-.6.479-.689.557-.664,1.1.113,2.455.162,4.43.159,5.976a41.9,41.9,0,0,0,7.505-5.119l1.433,5.77A64.693,64.693,0,0,1,155.795,3858.365Zm20.11,24.755c-9.357,2.323-14.005.717-15.322-4.585a12.459,12.459,0,0,1-.306-3.9l5.417-.186a10.2,10.2,0,0,0,.271,1.975,1.835,1.835,0,0,0,1.011,1.4c1.791.991,5.755.062,6.951-.235a35.286,35.286,0,0,0,8.865-3.416l2.018,5.9A51.928,51.928,0,0,1,175.9,3883.12Zm-3.981-20.923a65.767,65.767,0,0,0-7.655,2.507l-1.356-5.458c2.652-.879,5.212-1.68,7.967-2.365a61.547,61.547,0,0,1,6.94-1.391l1.369,5.51A58.227,58.227,0,0,0,171.924,3862.2Z" fill="#1c68ac" stroke="#221815" stroke-miterlimit="10" stroke-width="1.04"/>
          <path id="パス_2138" data-name="パス 2138" d="M211.581,3847.26a150.936,150.936,0,0,1-5.158,28.451l-6.154-.644a85.441,85.441,0,0,0,5.364-25.767s-3.544,1.176-3.957,1.3a21.807,21.807,0,0,1-3.107.88l-1.253-4.891a44.668,44.668,0,0,0,8.694-2.2,52.693,52.693,0,0,0-.428-10.642l6.222.415c.882.06,1.235.214,1.3.583.038.211-.058.283-.789,1.066-.331.277-.3.435-.264,1.571-.006.273-.082,2.9-.179,4.493a27.531,27.531,0,0,0,7.25-4.5l1.025,5.748A50.088,50.088,0,0,1,211.581,3847.26Zm16.655,24.454c-5.115.912-11.869,1.789-13.147-5.383a14.676,14.676,0,0,1-.238-3.168l5.036-.135a12.284,12.284,0,0,0,.146,2.042,1.784,1.784,0,0,0,.94,1.3c1.525.925,5.269.258,6.219.088a31.612,31.612,0,0,0,8.354-2.577l1.629,5.478A47.092,47.092,0,0,1,228.236,3871.714Zm-8.992-18.093-.9-5.063a72.144,72.144,0,0,1,8.66-2.087,40.672,40.672,0,0,1,4.942-.664l.893,5.01A62.268,62.268,0,0,0,219.244,3853.621Zm6.269-14.285a34.719,34.719,0,0,0-4.928-3.529l1.839-2.5a39.065,39.065,0,0,1,4.928,3.529Zm4.961-3.6a30.972,30.972,0,0,0-4.679-3.357l1.863-2.671a31.594,31.594,0,0,1,4.742,3.4Z" fill="#1c68ac" stroke="#221815" stroke-miterlimit="10" stroke-width="1.04"/>
          <path id="パス_2139" data-name="パス 2139" d="M280.044,3840.938a58.168,58.168,0,0,0,8.259,10.291l-2.8,4.408c-2.71-1.1-8.276-3.176-14.4-2.495-3.514.391-6.277,2.207-5.956,5.082.5,4.524,7.423,3.755,9.234,3.554a39.121,39.121,0,0,0,10.487-2.621l.166,6.34a53.919,53.919,0,0,1-8.341,1.575c-9.582,1.065-16.521-1.235-17.3-8.262-.812-7.294,4.719-9.9,10.735-10.572a40.834,40.834,0,0,1,7.708.006c-1.532-2.148-2.118-3.053-3.349-4.911a69.065,69.065,0,0,1-16.829,4.244l-2.461-5.17c7.554-.894,10.979-1.6,16.592-3.462-1-1.722-1.733-2.988-2.4-4.153a61.5,61.5,0,0,1-12.511,2.847l-2.219-4.928a65.964,65.964,0,0,0,12.285-2.444c-1.59-3.164-2.366-4.8-3.5-7.21l5.993-1.367c.419-.1,1.733-.408,1.8.23.031.267-.112.444-.348.74-.379.473-.414.638-.4.8a46.543,46.543,0,0,0,2.142,4.72,51.624,51.624,0,0,0,8.648-5.111l1.745,5.034a35.307,35.307,0,0,1-8.009,4.556c.876,1.573,1.148,2.082,2.208,3.85a61.143,61.143,0,0,0,9.156-5.869l1.55,5.217A39.792,39.792,0,0,1,280.044,3840.938Z" fill="#1c68ac" stroke="#221815" stroke-miterlimit="10" stroke-width="1.04"/>
          <path id="パス_2140" data-name="パス 2140" d="M343.4,3858.758a40.353,40.353,0,0,0-10.038-4.839c.041,5.467-1.142,7.667-7.99,7.988-7.383.345-12.106-2.061-12.309-6.394-.073-1.552.172-7.782,12.229-7.918l1.5-.016-.347-5.131c-.961.1-3.9.343-5.449.416-4.922.23-7.466-1.42-7.562-3.506-.123-2.622,3.4-5.307,5.413-6.9l3.172,2.48c-.93.74-1.7,1.366-1.673,2.061.035.75,1.159.7,2.068.655a36.746,36.746,0,0,0,3.687-.28l-.42-6.682c-6.14.555-9.179.912-13.755,1.662l-.377-5.772c6.1-.287,8.982-.528,13.738-.858l-.493-7.107,6.557.336c1.021.059,1.35.205,1.368.58.01.214-.1.272-.661.781a1.748,1.748,0,0,0-.651.995c0,.054,0,1.073.074,3.857,6.833-.641,8.646-.834,13.658-1.443l.051,5.681c-5.939.277-10.909.617-13.581.8l.3,6.312c4.627-.8,6.591-1.22,11.47-2.359l.274,5.832c-2.284.481-5.1,1.1-11.386,1.872.231,2.67.257,3.205.564,6.354a44.538,44.538,0,0,1,13.819,5.413Zm-18.838-6.142c-3.478.163-5.147,1.152-5.081,2.543.085,1.819,3.508,1.659,4.15,1.629,3.478-.163,3.646-1.136,3.453-4.129A13.8,13.8,0,0,0,324.563,3852.616Z" fill="#1c68ac" stroke="#221815" stroke-miterlimit="10" stroke-width="1.04"/>
          <path id="パス_2141" data-name="パス 2141" d="M391.722,3829.3l-.124,7.5a13.814,13.814,0,0,1,1.445,6.56,24,24,0,0,1-2.9,10.292,37.2,37.2,0,0,1-7.448,9.841l-5.948-3.205c3.248-2.037,6.561-4.767,7.8-8.658a10.818,10.818,0,0,1-2.9.489,6.758,6.758,0,0,1-4.365-1.734c-2.164-1.964-2.7-4.866-2.661-7.49.1-5.892,3.11-9.913,8.573-9.823a7.026,7.026,0,0,1,2.51.471l-.041-4.02c-4.77.189-12.866.538-19.682,1.282l.1-6.213c3.642.061,8.247.137,19.5-.213-.026-1.661.021-4.5-.236-8.415l5.938.473c1.232.074,1.55.24,1.541.775-.005.323-.115.481-.495.8s-.435.421-.439.636l-.091,5.517c7.452-.306,9.114-.439,14.585-.778l-.1,5.785C402.226,3829.095,398.689,3829.144,391.722,3829.3Zm-6.107,9.65a2.785,2.785,0,0,0-1.968-.784c-2.143-.035-3.673,1.815-3.72,4.654-.054,3.214,1.641,4.473,2.872,4.494,1.125.018,3.715-1.117,3.777-4.92A4.985,4.985,0,0,0,385.615,3838.947Z" fill="#1c68ac" stroke="#221815" stroke-miterlimit="10" stroke-width="1.04"/>
          <path id="パス_2142" data-name="パス 2142" d="M416.383,3865.628l.441-5.5,13.455,1.08,3.611-44.954,5.445.438-4.052,50.454Z" fill="#1c68ac" stroke="#221815" stroke-miterlimit="10" stroke-width="1.04"/>
          <path id="パス_2143" data-name="パス 2143" d="M484.367,3866.5l-4.991.083a57.628,57.628,0,0,1,.384-16.722,101.569,101.569,0,0,1,6.853-24.329l4.847,2.764c.151.076,1.194.716,1.117,1.245a.461.461,0,0,1-.266.34,8.381,8.381,0,0,1-1.069.278c-.41.211-1.44,2.82-1.692,3.433-.825,2.315-3.763,12.062-4.358,16.142a52.679,52.679,0,0,0-.548,5.6l2.636-2.862,3.006,2.767C488.757,3857.561,485.569,3862.345,484.367,3866.5Zm31.712,2.626a28.684,28.684,0,0,0-4.953-5c-.7,4.065-2.164,6.666-9.371,5.614-1.537-.225-10.44-1.524-9.326-9.156.7-4.769,5.184-6.224,10.325-5.474,1.06.155,2.157.424,3.2.684.5-6.368.663-8.617,1.083-12.236a59.525,59.525,0,0,1-9.654-.977l.744-5.465a27.96,27.96,0,0,0,4.724,1.013,42.435,42.435,0,0,0,4.974.4c.686-3.959.772-4.542,1.643-9.773l5.8,1.82c1.089.322,1.21.61,1.163.928-.039.265-.555.46-1.131.7a61.809,61.809,0,0,0-1.7,6.463,23.367,23.367,0,0,0,6.888-1.214l-.835,5.724a50.093,50.093,0,0,1-6.841.517,131.55,131.55,0,0,0-1.331,14.31,42.836,42.836,0,0,1,8.387,6.313Zm-14.233-9.275c-2.491-.364-4.319.289-4.5,1.508s1.2,2.556,4.323,3.012c3.5.511,3.569-.723,3.865-3.5A18.4,18.4,0,0,0,501.846,3859.851Z" fill="#221815"/>
          <path id="パス_2144" data-name="パス 2144" d="M569.514,3884.5c-6.487-4.239-9.781-7.52-13.551-13.7l-2.358,11-6.389-1.37,2.436-11.364a42.849,42.849,0,0,1-9.221,5.2,37.813,37.813,0,0,1-8.892,2.64l-3.549-6.185c4.709-.25,9.318-.795,17.182-5.024l-14.087-3.021,1.134-5.29,19.062,4.088.528-2.461-5.865-1.258,4.324-20.162,4.713,1.011a23.387,23.387,0,0,0,2.016-3.018l5.869,1.751c.209.045,1.13.352,1.018.876a.726.726,0,0,1-.363.415,6.406,6.406,0,0,0-.928.24c-.233.059-.864.965-1.014,1.151l7.436,1.6-4.323,20.162-6.546-1.4c.658.251.979.539.9.906-.1.471-.838.587-1.163.572l-.214.994,19.586,4.2-1.135,5.29-15.186-3.257c2.565,3.618,5.635,7.179,14.422,11.42Zm-32-28.827c-.917.187-1.1.258-1.4.632-.715.778-.715.778-.976.722-.419-.09-.58-.617-.7-1.081l-1.368-5.881a83.043,83.043,0,0,0,13.276-2.138l-.244,5.481C542.312,3854.507,540.172,3855.035,537.517,3855.67Zm5.833-10.088a41.421,41.421,0,0,0-6.549-7.265l4.123-4.155a60.416,60.416,0,0,1,7.252,7.306Zm17.719,7.032-8.222-1.763-.843,3.928,8.222,1.762Zm1.672-7.8-8.221-1.763-.8,3.718,8.221,1.764Zm11.773,19.943a59.745,59.745,0,0,0-8.027-8.294l4.34-3.889a72.558,72.558,0,0,1,8.551,8.406Zm6.53-17.168a1.783,1.783,0,0,0-1.474.232,71.208,71.208,0,0,1-7.433,4.266l-4.054-4.593a38.769,38.769,0,0,0,9.408-5.816l3.984,4.415a1.452,1.452,0,0,1,.519,1.152C581.894,3847.713,581.632,3847.657,581.044,3847.586Z" fill="#e84572" stroke="#221815" stroke-miterlimit="10" stroke-width="1.04"/>
          <path id="パス_2145" data-name="パス 2145" d="M613.916,3892.554a19.359,19.359,0,0,1-11.19.356,11.921,11.921,0,0,1-6.764-4.783c-1.813-2.8-1.884-5.667,1.661-18.022.9-3.141,5.7-18.314,6.534-21.807l6.568,2.943c1.19.508,1.551,1,1.462,1.311-.118.411-.854.647-1.869,1.079-.8,1.221-5.726,14.517-7.351,20.18-.679,2.368-2.111,7.362-1.636,9.393.059.184.615,2.517,3.91,3.462,2.883.828,10.3,1,18.18-7.432l3.85,5.617C624.318,3887.18,619.958,3890.721,613.916,3892.554Z" fill="#e84572" stroke="#221815" stroke-miterlimit="10" stroke-width="1.04"/>
          <path id="パス_2146" data-name="パス 2146" d="M648.329,3903.126a5.848,5.848,0,0,1-3.119-3.017c-2.275-4.706-1.74-11.181,1.745-20.742a52.15,52.15,0,0,1,6.279-12.535l4.985,3.528c.315.228,1.029.774.808,1.378-.2.553-.878.534-1.844.524a55.567,55.567,0,0,0-5.046,10.874c-3.576,9.814-1.821,12.505-.815,12.872,1.812.66,5.819-3.922,7.656-5.989l2.819,5.246C656.865,3900.2,652.405,3904.612,648.329,3903.126Zm28.779.341c2.355-11,1.2-18.147.048-23.127l6.1-.627a45.541,45.541,0,0,1,.458,24.4Z" fill="#e84572" stroke="#221815" stroke-miterlimit="10" stroke-width="1.04"/>
          <path id="パス_2147" data-name="パス 2147" d="M705.286,3922.579a8.274,8.274,0,1,1-4.147-10.9A8.332,8.332,0,0,1,705.286,3922.579Zm-12.753-5.723a5.7,5.7,0,1,0,7.553-2.833A5.726,5.726,0,0,0,692.533,3916.856Z" fill="#221815"/>
        </g>
      </g>
    </g>
    <g id="グループ_91" data-name="グループ 91">
      <g id="グループ_90" data-name="グループ 90">
        <g id="グループ_89" data-name="グループ 89">
          <path id="パス_2148" data-name="パス 2148" d="M134.088,3963.8c.649,1.986,2.815,8.264,3.382,9.994l-5.9,1.932c-.8-2.952-1.561-5.463-2.243-7.719-1.618,1.6-6.046,5.978-4.881,9.541,1.083,3.309,5.218,2.689,8.934,1.474a61.935,61.935,0,0,0,12.447-5.874l1.882,5.752a88.666,88.666,0,0,1-11.865,4.725c-2.851.933-8.756,2.864-13.078.5a7.32,7.32,0,0,1-3.566-4.356c-2.064-6.312,1.836-10.236,8.19-16.652-.805-1.428-2.015-3.061-4.967-2.095-4.989,1.632-6.528,7.263-7.829,12.76l-6-1.474a71.187,71.187,0,0,0,5.45-17.278c-2.851,1.1-4.413,1.669-6.55,2.368l-2.342-5.095a75.369,75.369,0,0,0,9.789-2.976,41.641,41.641,0,0,0,.331-7.6l6.728-.961c.17,0,1.069-.181,1.185.176.1.305-.054.524-.325.726-.085.084-.954.875-1,.892-.034.067-.374,3.335-.445,3.978a45.307,45.307,0,0,0,9.127-5.859l1.508,5.817a112.659,112.659,0,0,1-11.533,5.914c-.646,3.536-.821,4.381-1.253,5.988a10.356,10.356,0,0,1,4.028-2.5c3.512-1.149,6.334-.1,8.6,2.877,5.04-4.747,5.6-5.269,7.645-7.12l3.628,5.237C139.549,3959.478,137.389,3961.143,134.088,3963.8Z" fill="#221815"/>
          <path id="パス_2149" data-name="パス 2149" d="M182.482,3966.77a34.3,34.3,0,0,1-8.495-6.519c-.906,5.518-2.324,8.954-5.892,14.188l-6.461-2.054c5.433-6.629,7.165-10.8,6.992-19.145l-9.468,2.325-1.328-5.41,10.092-2.478a73.981,73.981,0,0,0-1.939-8.348l-2.341.575a28.779,28.779,0,0,1-1.656,7.41l-6.089-.766c1.315-3.852,2.424-8.1,2.022-17.373l6.118-.013c.222,0,.884,0,.973.368.077.311-.106.466-.379.7-.365.309-.587.529-.627.815a33.46,33.46,0,0,0-.041,3.43L176.5,3931.4l1.239,5.046-5.721,1.4c.56,2.51,1.083,4.863,1.627,8.425l6.97-1.711,1.329,5.409-7.492,1.84.012.493a24.007,24.007,0,0,0,11.017,9.153Zm19.032-3.129-.933-3.8-8.114,1.992,1.4,5.723-5.617,1.379-9.63-39.221,19.4-4.763,9.157,37.295Zm-7.867-32.042-8.116,1.992,5.646,22.991,8.114-1.992Z" fill="#ebcb32" stroke="#221815" stroke-miterlimit="10" stroke-width="1.04"/>
          <path id="パス_2150" data-name="パス 2150" d="M235.293,3955.653l-3.683-5.081c1.981-.172,3.045-.3,3.891-.441,4.383-.74,14.932-4.533,13.584-12.508-.955-5.65-6.037-6.149-8.783-5.685-2.377.4-7.337,2.87-9.888,4.17-1,.5-4.248,2.184-8.961,4.828l-3.525-5.107a92.139,92.139,0,0,0,13.591-5.72,33.069,33.069,0,0,1,8.261-2.863c6.549-1.107,13.062,1.431,14.481,9.829C256.27,3948.956,244.1,3953.132,235.293,3955.653Z" fill="#ebcb32" stroke="#221815" stroke-miterlimit="10" stroke-width="1.04"/>
          <path id="パス_2151" data-name="パス 2151" d="M298.46,3918.34c-4.328,4.237-8.183,10.58-7.671,15.911a9.177,9.177,0,0,0,4.663,7.085c3.59,2.076,7.279,1.828,9.523,1.666l-1.22,6.9c-4.4-.491-18-1.982-19.145-13.871-.875-9.116,6.253-17.228,8.534-19.815a204.913,204.913,0,0,0-20.092,4.246l-1.672-6.188c12.52-1.312,28.286-4.657,38.39-8.7l.615,6.4C308.113,3912.408,303.82,3913.089,298.46,3918.34Z" fill="#ebcb32" stroke="#221815" stroke-miterlimit="10" stroke-width="1.04"/>
          <path id="パス_2152" data-name="パス 2152" d="M351.843,3947.288c-5.194.134-13-1.485-13.261-11.336a36.85,36.85,0,0,1,.486-6.068,42.229,42.229,0,0,1-6.792-1.592l.757-5.913a38.153,38.153,0,0,0,7.282,1.847c.486-1.888.922-3.667,2.009-7.178-3.336-.556-4.735-.788-7.807-1.512l.32-6.224a40.8,40.8,0,0,0,9.172,2.441c1.485-4.7,2.23-6.969,2.909-9.719l6.218,2.142c.432.15,1.242.4,1.258.986.016.642-.738.5-1.587.792a55.389,55.389,0,0,0-2.676,6.337c2.68.038,3.911.006,7.016-.128l-1.081,5.814a49.168,49.168,0,0,1-7.883-.224c-.6,1.837-1.188,3.782-2.063,7.234a20.712,20.712,0,0,0,3.538.068,34.778,34.778,0,0,0,6.308-.592l-1.24,5.926c-.8.074-2.457.278-5.081.346-2.035.053-3.324-.074-4.772-.144a32.443,32.443,0,0,0-.515,4.943,6.39,6.39,0,0,0,1.836,4.667,7.211,7.211,0,0,0,5.075,1.475c4.39-.113,9.749-2.128,9.581-8.606a16.442,16.442,0,0,0-2.616-7.915l4.912-2.753a22.207,22.207,0,0,1,3.835,11.527C367.221,3943.192,358.589,3947.113,351.843,3947.288Z" fill="#ebcb32" stroke="#221815" stroke-miterlimit="10" stroke-width="1.04"/>
          <path id="パス_2153" data-name="パス 2153" d="M397.747,3947.514l-2.553-6.7a53.86,53.86,0,0,0,6.664.876c9.954.429,14.725-4.566,14.937-9.489.148-3.425-2.487-5.737-6.5-5.909-3.692-.16-9.189,1.749-14.977,7.933l-4.55-2.662c.741-7.26,3.7-16.246,5.053-20.263l6.051,2.674a68.558,68.558,0,0,0-3.718,11.634,20.6,20.6,0,0,1,13.4-4.838c5.619.242,11.71,4.472,11.375,12.23C422.277,3948.087,404.39,3947.639,397.747,3947.514Zm13.39-33.307a50.846,50.846,0,0,0-12.11-6.365l2.529-5.2a63.732,63.732,0,0,1,12.552,6.062Z" fill="#ebcb32" stroke="#221815" stroke-miterlimit="10" stroke-width="1.04"/>
          <path id="パス_2154" data-name="パス 2154" d="M450.325,3946.446a5.843,5.843,0,0,1-3.738-2.2c-3.314-4.044-4.309-10.465-3.157-20.578a52.142,52.142,0,0,1,3.172-13.656l5.672,2.264c.361.148,1.182.512,1.109,1.15-.066.585-.73.726-1.671.943a55.537,55.537,0,0,0-2.361,11.753c-1.182,10.378,1.155,12.585,2.219,12.707,1.916.217,4.741-5.176,6.042-7.616l3.969,4.442C457.94,3941.6,454.636,3946.937,450.325,3946.446Zm28.063-6.4c-.284-11.246-3.082-17.925-5.365-22.5l5.785-2.037a45.553,45.553,0,0,1,6.154,23.614Z" fill="#ebcb32" stroke="#221815" stroke-miterlimit="10" stroke-width="1.04"/>
          <path id="パス_2155" data-name="パス 2155" d="M518.457,3930.7a151.88,151.88,0,0,1-16.1,25.972l-6.057-3.152c4.116-4.514,8.552-9.567,15.386-23.054a70.511,70.511,0,0,1-7.962-.839l.605-5.554a21.634,21.634,0,0,0,4.2,1.116,38.905,38.905,0,0,0,5.271.661,65.07,65.07,0,0,0,3.883-10.824l6.188,2.74c.106.021,1.267.511,1.158,1.09-.068.368-.257.5-.769.618-.744.188-.859.221-1.063.728-.918,2.279-1.7,4.095-2.34,5.5a41.976,41.976,0,0,0,8.953-1.536l-1.1,5.842A64.581,64.581,0,0,1,518.457,3930.7Zm8,30.873c-9.475-1.778-13.036-5.17-12.028-10.539a12.382,12.382,0,0,1,1.342-3.672l5.005,2.083a10.119,10.119,0,0,0-.577,1.908,1.842,1.842,0,0,0,.336,1.7c1.217,1.646,5.208,2.449,6.419,2.676a35.276,35.276,0,0,0,9.483.579l-.619,6.2A51.815,51.815,0,0,1,526.454,3961.568Zm5.077-20.683a65.582,65.582,0,0,0-8-.9l1.037-5.528c2.776.3,5.438.638,8.228,1.162a61.554,61.554,0,0,1,6.89,1.619l-1.047,5.58A58.418,58.418,0,0,0,531.531,3940.885Z" fill="#ebcb32" stroke="#221815" stroke-miterlimit="10" stroke-width="1.04"/>
          <path id="パス_2156" data-name="パス 2156" d="M560.076,3965.408a5.846,5.846,0,0,1-3.378-2.725c-2.69-4.481-2.74-10.979-.13-20.815a52.11,52.11,0,0,1,5.124-13.049l5.283,3.063c.335.2,1.094.679.929,1.3-.151.569-.827.611-1.79.689a55.543,55.543,0,0,0-4.045,11.285c-2.678,10.095-.688,12.618.348,12.893,1.863.494,5.442-4.43,7.085-6.655l3.28,4.972C568.315,3961.719,564.271,3966.521,560.076,3965.408Zm28.694-2.253c1.355-11.167-.442-18.183-2.035-23.038l6.019-1.175a45.526,45.526,0,0,1,2.654,24.256Z" fill="#ebcb32" stroke="#221815" stroke-miterlimit="10" stroke-width="1.04"/>
          <path id="パス_2157" data-name="パス 2157" d="M629.1,3981.25l-2.379,6.829-6.779-2.362,2.379-6.828Zm10.486-30.1-3.577,10.268-7.536,16.093-3.339-1.163,4.1-17.292,3.577-10.268Z" fill="#ebcb32" stroke="#221815" stroke-miterlimit="10" stroke-width="1.04"/>
        </g>
      </g>
    </g>
  </g>
</svg>
