<?xml version="1.0" encoding="UTF-8"?>
<svg id="_レイヤー_2" data-name="レイヤー 2" xmlns="http://www.w3.org/2000/svg" viewBox="0 0 1626.1 1323.5">
  <defs>
    <style>
      .cls-1 {
        fill: #1c68ac;
      }

      .cls-1, .cls-2, .cls-3, .cls-4 {
        font-family: MiGoMB1Std-DeBold, 'MiGoMB1Std DeBold-83pv-RKSJ-H';
        font-size: 40.3px;
        font-weight: 700;
      }

      .cls-1, .cls-3, .cls-4 {
        stroke: #221815;
        stroke-miterlimit: 10;
      }

      .cls-2 {
        fill: #221815;
      }

      .cls-3 {
        fill: #ebcb32;
      }

      .cls-4 {
        fill: #e84572;
      }
    </style>
  </defs>
  <g id="_レイヤー_1-2" data-name="レイヤー 1">
    <g>
      <text class="cls-1" transform="translate(331.5 160.7) rotate(-28.9)"><tspan x="0" y="0">「</tspan></text>
      <text class="cls-1" transform="translate(370.1 139.6) rotate(-25.9)"><tspan x="0" y="0">い</tspan></text>
      <text class="cls-1" transform="translate(409.7 120.4) rotate(-23.1)"><tspan x="0" y="0">た</tspan></text>
      <text class="cls-1" transform="translate(450.2 103.2) rotate(-20.3)"><tspan x="0" y="0">だ</tspan></text>
      <text class="cls-1" transform="translate(491.5 88) rotate(-17.6)"><tspan x="0" y="0">き</tspan></text>
      <text class="cls-1" transform="translate(533.5 74.8) rotate(-15)"><tspan x="0" y="0">ま</tspan></text>
      <text class="cls-1" transform="translate(576 63.5) rotate(-12.4)"><tspan x="0" y="0">す</tspan></text>
      <text class="cls-1" transform="translate(619.1 54.2) rotate(-9.8)"><tspan x="0" y="0">」</tspan></text>
      <text class="cls-2" transform="translate(662.5 46.8) rotate(-7.3)"><tspan x="0" y="0">は</tspan></text>
      <text class="cls-4" transform="translate(706.2 41.3) rotate(-4.8)"><tspan x="0" y="0">楽</tspan></text>
      <text class="cls-4" transform="translate(750.1 37.7) rotate(-2.4)"><tspan x="0" y="0">し</tspan></text>
      <text class="cls-4" transform="translate(794 35.7) rotate(.7)"><tspan x="0" y="0">い</tspan></text>
      <text class="cls-2" transform="translate(838.1 36.1) rotate(2.5)"><tspan x="0" y="0">。</tspan></text>
      <text class="cls-2" transform="translate(859.8 36.8) rotate(3.7)"><tspan x="0" y="0">を</tspan></text>
      <text class="cls-3" transform="translate(903.7 39.7) rotate(6.2)"><tspan x="0" y="0">知</tspan></text>
      <text class="cls-3" transform="translate(947.5 44.5) rotate(8.7)"><tspan x="0" y="0">っ</tspan></text>
      <text class="cls-3" transform="translate(991 51.2) rotate(11.2)"><tspan x="0" y="0">て</tspan></text>
      <text class="cls-3" transform="translate(1034.2 59.9) rotate(13.8)"><tspan x="0" y="0">も</tspan></text>
      <text class="cls-3" transform="translate(1076.9 70.4) rotate(16.4)"><tspan x="0" y="0">ら</tspan></text>
      <text class="cls-3" transform="translate(1119.1 82.9) rotate(19.1)"><tspan x="0" y="0">い</tspan></text>
      <text class="cls-3" transform="translate(1160.7 97.4) rotate(21.8)"><tspan x="0" y="0">た</tspan></text>
      <text class="cls-3" transform="translate(1201.5 113.8) rotate(24.6)"><tspan x="0" y="0">い</tspan></text>
      <text class="cls-3" transform="translate(1241.5 132.2) rotate(27.5)"><tspan x="0" y="0">！</tspan></text>
    </g>
  </g>
</svg>