<?xml version="1.0" encoding="UTF-8"?>
<svg id="_レイヤー_2" data-name="レイヤー 2" xmlns="http://www.w3.org/2000/svg" viewBox="0 0 587.2 11.7">
  <defs>
    <style>
      .cls-1 {
        fill: #fff;
      }
    </style>
  </defs>
  <g id="_レイヤー_1-2" data-name="レイヤー 1">
    <g>
      <rect class="cls-1" x=".2" y=".7" width="17.2" height="5.3" transform="translate(-.2 .7) rotate(-4.6)"/>
      <rect class="cls-1" x="67.2" y=".7" width="17.2" height="5.3" transform="translate(0 2.7) rotate(-2)"/>
      <rect class="cls-1" x="33.7" y="4" width="17.2" height="5.3" transform="translate(3.7 -11.8) rotate(16.7)"/>
      <rect class="cls-1" x="167.7" y="5.7" width="17.2" height="5.3" transform="translate(352.8 2.5) rotate(175.4)"/>
      <rect class="cls-1" x="100.7" y="5.7" width="17.2" height="5.3" transform="translate(218.8 12.9) rotate(178)"/>
      <rect class="cls-1" x="134.2" y="2.4" width="17.2" height="5.3" transform="translate(278.2 50.8) rotate(-163.3)"/>
      <rect class="cls-1" x="201.2" y=".7" width="17.2" height="5.3" transform="translate(.4 16.9) rotate(-4.6)"/>
      <rect class="cls-1" x="268.2" y=".7" width="17.2" height="5.3" transform="translate(0 9.8) rotate(-2)"/>
      <rect class="cls-1" x="234.7" y="4" width="17.2" height="5.3" transform="translate(12.1 -69.5) rotate(16.7)"/>
      <rect class="cls-1" x="368.8" y="5.7" width="17.2" height="5.3" transform="translate(754.2 -13.6) rotate(175.4)"/>
      <rect class="cls-1" x="301.8" y="5.7" width="17.2" height="5.3" transform="translate(620.8 5.7) rotate(178)"/>
      <rect class="cls-1" x="335.3" y="2.4" width="17.2" height="5.3" transform="translate(671.9 108.4) rotate(-163.3)"/>
      <rect class="cls-1" x="402.3" y=".7" width="17.2" height="5.3" transform="translate(1.1 33) rotate(-4.6)"/>
      <rect class="cls-1" x="469.3" y=".7" width="17.2" height="5.3" transform="translate(.2 16.9) rotate(-2)"/>
      <rect class="cls-1" x="435.8" y="4" width="17.2" height="5.3" transform="translate(20.6 -127.1) rotate(16.7)"/>
      <rect class="cls-1" x="569.8" y="5.7" width="17.2" height="5.3" transform="translate(1155.6 -29.8) rotate(175.4)"/>
      <rect class="cls-1" x="502.8" y="5.7" width="17.2" height="5.3" transform="translate(1022.8 -1.4) rotate(178)"/>
      <rect class="cls-1" x="536.3" y="2.4" width="17.2" height="5.3" transform="translate(1065.5 166) rotate(-163.3)"/>
    </g>
  </g>
</svg>