<?xml version="1.0" encoding="UTF-8"?>
<svg id="_レイヤー_2" data-name="レイヤー 2" xmlns="http://www.w3.org/2000/svg" viewBox="0 0 638.8 164.8">
  <defs>
    <style>
      .cls-1 {
        fill: #fff;
      }

      .cls-2 {
        fill: none;
        stroke: #fff;
        stroke-miterlimit: 10;
      }
    </style>
  </defs>
  <g id="_レイヤー_1-2" data-name="レイヤー 1">
    <g>
      <g>
        <path class="cls-1" d="m79.1,21.9v2.2h-14.8v35.7h-2.4V21.9h17.2Z"/>
        <path class="cls-1" d="m91.9,48.4l-.4-.3v-4.9l.3-.2h6.1c0,.1,34.7.1,34.7.1h5.9c0-.1.3.1.3.1v4.8l-.3.3h-5.8c0-.1-17-.1-17-.1v11.4l.2,7.3c2.3-1,4.6-2.1,6.6-3.6-1.5-1.8-2.8-3.8-3.8-6l.2-.4,4.7-1.9h-6.3c0,.1-.4,0-.4,0v-5l.3-.3,5.5.2h9.7l1.8-.2,2.1,2.1c.3.4.6.6.6,1.1s-.1.6-.2.9c-1.1,3.4-2.9,6.5-5.1,9.3,2.1,1.3,4.8,2.3,7.9,3.1l-3.2,5.1c-.2.4-.4.5-.7.5s-.3,0-.6-.1c-2.9-1-5.6-2.4-7.9-4.1-2.1,1.6-4.2,3-6.5,4.1-.4.2-.6.3-.8.3-.4,0-.5-.2-.9-.7l-2.9-3.5v4.4c0,0-6.8,0-6.8,0v-4.7c-4.3,1-9.2,1.8-15.4,2.8h-.4c0-.1-1.8-5-1.8-5l.4-.5c1.7-.1,3.4-.4,5-.6v-15.9h-4.9Zm40.1-13.9v7.1c.1,0-.3.4-.3.4h-6.9c0-.1-19-.1-19-.1h-7.5c0,.1-.4-.2-.4-.2l.2-6.9v-2.5l-.2-6,.4-.3h7.8c0,.1,18.3.1,18.3.1h7.4c0-.1.4.2.4.2v6.1c-.1,0-.1,2.1-.1,2.1Zm-28.9,13.8v2.1h6.2v-2.1h-6.2Zm0,6.2v2.1h6.2v-2.1h-6.2Zm0,9c2.1-.2,4.1-.5,6.1-.9v-2c0,0-6.1,0-6.1,0v2.9Zm21.8-33.1h-19.9v1.7h19.9v-1.7Zm-19.9,7.1h19.9v-1.6h-19.9v1.6Zm18.8,17.8c.8,1.5,1.8,2.8,2.8,4,1-1.4,1.8-2.8,2.4-4.2h-5.6l.4.2Z"/>
        <path class="cls-1" d="m165.3,15.8l.3-.4h6.7l.4.3v4.5h19.2c0-.1.4.2.4.2v5.4l-.4.3h-8.1c0-.1-29.5-.1-29.5-.1h-8c0,.1-.4-.2-.4-.2v-5.4l.4-.3h8c0,.1,10.9.1,10.9.1v-4.5Zm9.1,42.6h-10.1v2.1h-6.2l.2-6.3v-6.7c-.1,0,.2-.3.2-.3h4.9c0,.1,10.5.1,10.5.1h5.3c0-.1.4.1.4.1v3.6c-.1,0-.1,3-.1,3v2.8c1.2,0,2.2-.1,2.8-.2.6-.1.9-.1.9-.9v-10.1h-28.1v17.7h-7.1l.2-11.2v-5.8l-.2-5.7.4-.4h6.4c0,.1,28.8.1,28.8.1h6.4c0-.1.4.2.4.2l-.2,5.7v4.2l.2,7c0,4.6-2.9,5.6-9.6,5.6s-.9,0-1.1-.6l-1.9-4.3h-3.4Zm-18.7-19.4l-.4-.4.2-4.6v-6.2c-.1,0,.2-.4.2-.4h5.4c0,.1,15.9.1,15.9.1h5.4c0-.1.4.2.4.2v4.2c-.1,0-.1,2.1-.1,2.1v4.4c.1,0-.2.4-.2.4h-5.7c0-.1-15.2-.1-15.2-.1h-5.8Zm20.2-4.5v-2.3h-13.8v2.3h13.8Zm-2.4,19.5v-2.2h-9.2v2.2h9.2Z"/>
        <path class="cls-1" d="m220.4,60.9c10.8-1.8,15.6-7,15.6-13s-4.2-12.4-9.3-13.5c-1,9.5-4.3,18.3-7.7,23.3-2.7,4-5.5,5.4-9.4,5.4s-5.2-1.5-7.1-4.5c-1.4-2.2-2.5-5-2.5-9.1,0-12.1,9.1-21.9,22.8-21.9s21,9.2,21,20.3-6.4,16-17,18.5c-.7,0-1.1,0-1.6-.5l-4.9-5.1Zm-13.4-11.2c0,1.6.3,2.9.8,3.8.6,1,1.3,1.7,2.1,1.7,1.1,0,2.6-1.1,4-3.9,2.8-5.6,4.2-10.9,5-17-7.3,1.3-11.8,7.7-11.8,15.4Z"/>
        <path class="cls-1" d="m255.1,28.7l7.1.2.4.3c-.4,5.6-.6,10.5-.6,13.4,0,4.4.5,7.4,1.2,9.9.6,2,1.2,3.4,2.3,3.4s3.1-2.7,4.2-7.3l5,6.3c.3.5.3.7.1,1.2-2,5.2-5.3,9-9.3,9s-6.1-2.3-8.1-6.4c-1.6-3.1-2.9-8.8-2.9-15.6s.1-8.9.4-14.3l.4-.3Zm23.7,8.7l4.8-3.9h.6c5.6,3.7,10.4,9.4,13.3,16.1v.5c-.1,0-6.5,4-6.5,4h-.5c-2.7-7.1-6.5-12.5-11.7-16.2v-.5Z"/>
        <path class="cls-1" d="m305,68c2.6-9.5,4.8-17.6,7.1-25.8-2.6.3-5.1.5-7.6.7l-.4-.3-.5-6.1.3-.4c3.7-.3,7-.6,10-1,.8-2.8,1.6-5.8,2.4-8.7l.4-.2,6.9,1,.3.5c-.6,2.1-1.3,4.3-1.9,6.3,2-.4,4-.8,5.9-1.1l.4.2.4,6.2-.4.4c-2.7.5-5.6,1-8.4,1.4-2.7,9.3-5.1,18.4-7.7,28.7l-.4.2-6.8-1.5-.2-.4Zm16.7-4.6l3.7-4.6h.5c2.5,2.7,4.9,3.4,10.6,3.4s6.4-.2,9.1-.8l.4.2v7l-.3.4c-3.1.4-5.4.6-9.5.6-8.8,0-11.6-2.1-14.5-5.6v-.6Zm4.7-15.2l.4-6.2.4-.4c2.5-.2,5-.3,7.3-.3,3.4,0,6.7.2,9.5.6l.4.4-.5,6.2-.5.3c-3.4-.3-6.7-.5-10.3-.5s-4.2.1-6.4.2l-.4-.4Z"/>
        <path class="cls-1" d="m356.8,65.6c2.6-9.5,4.8-17.6,7.1-25.8-2.6.3-5.1.5-7.6.7l-.4-.3-.5-6.1.3-.4c3.7-.3,7-.6,10-1,.8-2.8,1.6-5.8,2.4-8.7l.4-.2,6.9,1,.3.5c-.6,2.1-1.3,4.3-1.9,6.3,2-.4,4-.8,5.9-1.1l.4.2.4,6.2-.4.4c-2.7.5-5.6,1-8.4,1.4-2.7,9.3-5.1,18.4-7.7,28.7l-.4.2-6.8-1.5-.2-.4Zm16.7-4.6l3.7-4.6h.5c2.5,2.7,4.9,3.4,10.6,3.4s6.4-.2,9.1-.8l.4.2v7l-.3.4c-3.1.4-5.4.6-9.5.6-8.8,0-11.6-2.1-14.5-5.6v-.6Zm4.7-15.2l.4-6.2.4-.4c2.5-.2,5-.3,7.3-.3,3.4,0,6.7.2,9.5.6l.4.4-.5,6.2-.5.3c-3.4-.3-6.7-.5-10.3-.5s-4.2.1-6.4.2l-.4-.4Zm8.8-17.5l2.6-1.9h.5c1.9,1.5,3.6,3.2,5.1,5.3v.5s-2.8,2-2.8,2h-.5c-1.6-2.1-3-3.7-5-5.4v-.5Zm4.8-3.1l2.6-1.9h.5c1.9,1.5,3.5,3.1,5,5.1v.5c0,0-2.7,1.9-2.7,1.9h-.5c-1.6-2-2.9-3.5-4.9-5.2v-.4Z"/>
        <path class="cls-1" d="m411.4,35.7c5.9,0,10.5-.7,15.5-2.2-.8-1.4-1.7-2.8-2.6-4.2-4.2,1.1-8,1.6-12.9,1.9l-.4-.4-1.2-5.5.2-.4c4.1-.2,7-.6,10.3-1.4-1-1.5-2.2-3-3.4-4.6v-.5c0,0,6.5-2.2,6.5-2.2l.5.2c1.2,1.7,2.4,3.4,3.6,5.1,2.5-.9,5.6-2.3,8-3.6h.5s3.1,5.2,3.1,5.2v.5c-2.4,1.2-5.5,2.7-7.8,3.6.7,1.2,1.3,2.1,2.4,3.8,2.4-1.1,5.5-2.7,7.7-4.2h.4s3.5,5.3,3.5,5.3l-.2.5c-2.6,1.6-5.7,3.2-8,4.4,1.3,2.3,2.4,4.4,3.4,6.2.6,1.2.9,2.3.9,3.6,0,2.3-2.1,4.2-4.1,4.2s-1.6-.2-2.4-.9c-1.7-1.2-4.1-2.3-8.1-3.4v-1.6c1.8-.1,3.3-.3,5.4-.6.3,0,.5-.2.3-.6-.6-1.2-1.5-2.8-2.2-4.2-5.4,1.8-10.3,2.5-17.7,2.4l-.4-.2-1.2-5.7.3-.4Zm-.9,17.8l4.2-4.5h.4c3.5,4,9.4,5,15.8,5s2.9,0,5.7-.3l.4.4.2,7-.4.4c-2.5.1-4.2.2-6.1.2-10.5,0-16.2-2.7-20.2-7.6v-.5Z"/>
        <path class="cls-1" d="m459.2,44.4c3.9.4,8,.5,12.2.3-.1-1.6,0-3.2-.2-4.8-3.7.2-7.3.1-11-.1l-.3-.4v-5.6c.1,0,.6-.3.6-.3,3.5.2,7.1.2,10.8,0,0-2.1,0-4.2,0-6.5l.4-.4h6.8l.4.4c0,2,0,4-.1,5.8,2.8-.4,5.3-.9,7.6-1.4l.4.4.6,5.2-.3.4c-2.7.7-5.5,1.3-8.3,1.7,0,1.6,0,3.1,0,4.8,3.2-.5,6.3-1.2,9.3-2l.4.3.8,5.7-.2.5c-3.4.9-6.8,1.6-10.1,2.1,0,2.4.2,4.6.3,6.7,5.1,2.1,9.3,4.8,14,8.5v.5l-4.4,5.3h-.6c-2.9-2.7-6.8-5.7-9.1-7-.3,5.4-4.7,7.5-11.7,7.5s-10.4-2.1-10.4-8,7.3-8.5,14.9-8.1c0-1.5-.2-3-.2-4.6-4.7.3-9.1.2-13.5-.2l-.3-.4,1-5.9.3-.4Zm9,17.1c-2.6,0-4.3,1.1-4.3,2s1.1,2.1,4.3,2.1,3.8-1.2,3.6-3.5c-1.1-.4-1.9-.6-3.6-.6Z"/>
        <path class="cls-1" d="m509.7,58.4c7.3-1.5,11.8-4.7,13.1-7.8-.7.6-2.1,1.1-4.8,1.1-4.6,0-7.1-2.4-7.1-6,0-6,4.6-11.3,9-11.3s2.1.1,2.5.2c0-1.1,0-2.1,0-3.3-6.4.4-13.2,1-20.2,1.8l-.4-.3-.5-6.3.4-.5c7-.5,14.1-1,20.8-1.4v-6.8l.3-.3h6.9l.4.4c0,2.3-.1,4.4-.2,6.3,5-.2,10-.4,14.8-.5l.4.4v6.3l-.4.3c-5,0-10,0-14.8.2,0,2.8,0,5.7.1,9.1.6,1.9,1.1,4.2,1.1,6.1,0,3.2-.7,5.7-2.1,8.2-2.5,4.4-6.8,7.2-11.5,8.7-.2,0-.4.1-.5.1-.2.1-.5.1-.7.1-.3,0-.6-.1-.8-.2l-5.7-4.9Zm10.8-18c-1.4,0-3.1,2.1-3.1,3.7s.3,1.4,1.6,1.4c2.1,0,3.5-.9,3.6-3.1-.3-1.4-1.1-2-2.2-2Z"/>
        <path class="cls-1" d="m555.2,68.9v-2.2h14.8V31.1h2.4v37.9h-17.2Z"/>
        <path class="cls-1" d="m269.5,115.9c-.7-2.2-1.5-4.3-2.4-6.2l.2-.4,5.2-1.6.4.2c1,1.7,2,4,2.9,6.3l-.2.4-3.4,1.2h5.7c1-2.5,1.8-5,2.5-7.9l.4-.3,6,1.8v.5c-.7,2-1.6,4-2.6,5.9h6.6c0-.1.3.1.3.1v5.4l-.3.2h-6.2c0-.1-14.8-.1-14.8-.1h-6.1c0,.1-.3-.2-.3-.2v-5.3l.3-.3h5.8Zm13.9-13.7l6.3-.2.3.2v5.3l-.3.2h-6.3c0-.1-12.2-.1-12.2-.1h-6.2c0,.1-.4-.1-.4-.1v-5.2l.3-.3,6.3.2h2.6v-4.6l.4-.4h6.3l.4.4v4.6h2.7Zm-9.7,38.9v2.7h-6.8l.2-8.4v-10.9c-.1,0,.1-.4.1-.4h6.8c0,.1,6.8.1,6.8.1h6.8c0-.1.4.2.4.2l-.2,5.4v5.6l.2,7.9h-7v-2.3h-7.4Zm7.4-11.4h-7.4v5.9h7.4v-5.9Zm17.7-4.9l.2,19.5h-7.4l.4-19.5v-18.6l-.2-7.5.4-.4,6.4.2h6.2l3.1-.2,2.6,2.6c.2.1.3.5.3.9s0,.5,0,.7c-1,4.3-2.6,9.6-4.5,14.5,3.5,3.9,5,7.5,5,13.3s-4.1,8.8-8.8,8.8-1-.1-1.2-.8l-1.9-5.8c4.4,0,5.1-.4,5.1-3.5s-1.1-6.7-4.1-10.5c-.4-.6-.6-.9-.6-1.3s.1-.4.2-.8c1.3-3.6,2.5-7.9,3.3-12h-4.4v20.3Z"/>
        <path class="cls-1" d="m339.3,98.2h5.3c0-.1.4.2.4.2v5.8c-.1,0-.1,8.4-.1,8.4v5.6c.1,0-.3.5-.3.5l-5.3-.2h-7.5v26h-6.7l.2-17v-29c-.1,0,.2-.3.2-.3h5.4c0,.1,8.5.1,8.5.1Zm-.8,7.8v-2.6h-6.8v2.6h6.8Zm-6.8,7.2h6.8v-2.7h-6.8v2.7Zm22.2,5.3l-5.3.2-.4-.5v-5.6c.1,0,.1-8.4.1-8.4v-5.8c-.1,0,.2-.3.2-.3h5.3c0,.1,9.2.1,9.2.1h5.4c0-.1.3.2.3.2l-.2,6.7v18.9l.3,14.3c0,4.3-2.8,5.8-8.5,5.8h-1.5c-1,0-1.2-.2-1.4-.8l-2.2-6c1.9,0,4.4,0,5.9-.2.6-.1.7-.3.7-1.5v-17.2h-7.9Zm7.9-12.5v-2.6h-7.1v2.6h7.1Zm-7.1,7.2h7.1v-2.7h-7.1v2.7Z"/>
      </g>
      <polyline class="cls-2" points="27.1 .2 .5 82.4 27.1 164.6"/>
      <polyline class="cls-2" points="611.7 164.6 638.3 82.4 611.7 .2"/>
    </g>
  </g>
</svg>