<?xml version="1.0" encoding="UTF-8"?>
<svg id="_レイヤー_2" data-name="レイヤー 2" xmlns="http://www.w3.org/2000/svg" viewBox="0 0 671.2 152.6">
  <defs>
    <style>
      .cls-1 {
        fill: #fff;
      }

      .cls-2 {
        fill: none;
        stroke: #fff;
        stroke-miterlimit: 10;
      }
    </style>
  </defs>
  <g id="_レイヤー_1-2" data-name="レイヤー 1">
    <g>
      <path class="cls-1" d="m133,24v1.8h-12.4v30h-2v-31.8h14.4Z"/>
      <path class="cls-1" d="m143.8,46.4l-.3-.3v-4.1l.3-.2h5.1c0,.1,29.1.1,29.1.1h4.9c0-.1.3,0,.3,0v4l-.3.3h-4.9c0-.1-14.3-.1-14.3-.1v15.7c2.1-.8,3.9-1.8,5.6-3.1-1.3-1.5-2.3-3.2-3.2-5v-.4c.1,0,4-1.6,4-1.6h-5.3c0,.1-.3,0-.3,0v-4.2l.3-.3h4.6c0,.1,8.1.1,8.1.1h1.5c0-.1,1.8,1.6,1.8,1.6.3.3.5.5.5.9s0,.5-.2.8c-.9,2.8-2.4,5.5-4.3,7.8,1.8,1.1,4,1.9,6.6,2.6l-2.7,4.2c-.2.3-.3.4-.5.4s-.3,0-.5-.1c-2.4-.8-4.7-2-6.6-3.4-1.7,1.4-3.5,2.5-5.4,3.4-.3.2-.5.3-.7.3-.3,0-.4-.2-.7-.6l-2.4-2.9v3.7c0,0-5.7,0-5.7,0v-3.9c-3.6.8-7.7,1.5-12.9,2.4h-.3c0-.1-1.5-4.2-1.5-4.2l.3-.4c1.4-.1,2.8-.3,4.2-.5v-13.3h-4.1Zm33.6-11.6v5.9c.1,0-.3.3-.3.3h-5.8c0-.1-16-.1-16-.1h-6.3c0,.1-.3-.2-.3-.2v-5.8c.1,0,.1-2.1.1-2.1v-5c-.1,0,.2-.3.2-.3h6.5c0,.1,15.3.1,15.3.1h6.2c0-.1.3.2.3.2v5.1c-.1,0-.1,1.7-.1,1.7Zm-24.3,11.6v1.8h5.2v-1.8h-5.2Zm0,5.2v1.8h5.2v-1.8h-5.2Zm0,7.6c1.7-.2,3.4-.4,5.1-.7v-1.7s-5.1,0-5.1,0v2.4Zm18.3-27.8h-16.7v1.4h16.7v-1.4Zm-16.7,5.9h16.7v-1.4h-16.7v1.4Zm15.8,15c.7,1.3,1.5,2.4,2.4,3.4.8-1.1,1.5-2.3,2-3.5h-4.7l.3.2Z"/>
      <path class="cls-1" d="m205.5,18.3l.3-.3h5.6l.3.3v3.8h16.1c0-.1.3.2.3.2v4.5l-.3.3h-6.8c0-.1-24.7-.1-24.7-.1h-6.7c0,.1-.3-.2-.3-.2v-4.5l.3-.3h6.7c0,.1,9.2.1,9.2.1v-3.7Zm7.6,35.7h-8.4v1.8h-5.2l.2-5.3v-5.6c0,0,.2-.3.2-.3h4.1c0,.1,8.8.1,8.8.1h4.5c0-.1.3.1.3.1v3c0,0,0,2.5,0,2.5v2.4c1,0,1.8,0,2.3-.2.5,0,.7,0,.7-.8v-8.5h-23.6v14.8h-6l.2-9.4v-9.6c-.1,0,.2-.3.2-.3h5.4c0,.1,24.2.1,24.2.1h5.4c0-.1.3.2.3.2v4.7c-.1,0-.1,3.6-.1,3.6l.2,5.9c0,3.8-2.4,4.7-8.1,4.7s-.8,0-.9-.5l-1.6-3.6h-2.8Zm-15.7-16.3l-.3-.3.2-3.9v-5.2c-.1,0,.2-.3.2-.3h4.5c0,.1,13.3.1,13.3.1h4.5c0-.1.3.2.3.2v3.5c-.1,0-.1,1.8-.1,1.8v3.7c.1,0-.2.4-.2.4h-4.8c0-.1-12.8-.1-12.8-.1h-4.9Zm17-3.7v-1.9h-11.6v1.9h11.6Zm-2,16.4v-1.9h-7.7v1.9h7.7Z"/>
      <path class="cls-1" d="m251.9,56.7c9-1.5,13.1-5.8,13.1-10.9s-3.5-10.4-7.8-11.3c-.8,7.9-3.6,15.3-6.5,19.6-2.3,3.3-4.6,4.5-7.9,4.5s-4.3-1.2-5.9-3.7c-1.2-1.9-2.1-4.2-2.1-7.6,0-10.2,7.6-18.4,19.2-18.4s17.6,7.7,17.6,17-5.4,13.4-14.3,15.5c-.6,0-.9,0-1.3-.4l-4.1-4.3Zm-11.3-9.4c0,1.4.3,2.4.7,3.2.5.8,1.1,1.4,1.7,1.4,1,0,2.2-1,3.3-3.2,2.4-4.7,3.5-9.2,4.2-14.3-6.1,1.1-9.9,6.5-9.9,12.9Z"/>
      <path class="cls-1" d="m281.1,29.6l5.9.2.3.3c-.4,4.7-.5,8.8-.5,11.3,0,3.7.4,6.2,1,8.3.5,1.6,1,2.9,1.9,2.9s2.6-2.3,3.5-6.1l4.2,5.3c.3.4.3.6.1,1.1-1.7,4.4-4.4,7.5-7.8,7.5s-5.1-1.9-6.8-5.3c-1.3-2.6-2.4-7.4-2.4-13.1s0-7.4.3-12l.3-.3Zm19.9,7.3l4-3.2h.5c4.7,3.1,8.7,7.9,11.1,13.5v.4c-.1,0-5.5,3.3-5.5,3.3h-.4c-2.3-5.9-5.5-10.5-9.8-13.6v-.4Z"/>
      <path class="cls-1" d="m323.3,62.8c2.1-8,4-14.8,5.9-21.7-2.1.3-4.2.5-6.3.6l-.3-.3-.4-5.1.3-.3c3.1-.3,5.8-.5,8.4-.9.6-2.4,1.3-4.8,2-7.3l.4-.2,5.8.9.3.4c-.5,1.7-1.1,3.6-1.6,5.3,1.7-.3,3.4-.6,4.9-1l.3.2.4,5.3-.3.3c-2.3.4-4.7.8-7,1.2-2.2,7.8-4.3,15.5-6.4,24.1l-.4.2-5.7-1.3-.2-.3Zm14-3.8l3.1-3.9h.4c2.1,2.2,4.1,2.8,8.9,2.8s5.3-.2,7.6-.7l.3.2v5.9l-.3.3c-2.6.3-4.5.5-7.9.5-7.4,0-9.7-1.7-12.1-4.7v-.5Zm3.9-12.7l.4-5.2.3-.4c2.1-.2,4.2-.3,6.1-.3,2.9,0,5.6.2,8,.5l.3.3-.4,5.2-.4.3c-2.9-.3-5.6-.4-8.6-.4s-3.5,0-5.4.2l-.3-.3Z"/>
      <path class="cls-1" d="m366.9,60.6c2.1-8,4-14.8,5.9-21.7-2.1.3-4.2.5-6.3.6l-.3-.3-.4-5.1.3-.3c3.1-.3,5.8-.5,8.4-.9.6-2.4,1.3-4.8,2-7.3l.4-.2,5.8.9.3.4c-.5,1.7-1.1,3.6-1.6,5.3,1.7-.3,3.4-.6,4.9-1l.3.2.4,5.3-.3.3c-2.3.4-4.7.8-7,1.2-2.2,7.8-4.3,15.5-6.4,24.1l-.4.2-5.7-1.3-.2-.3Zm14-3.8l3.1-3.9h.4c2.1,2.2,4.1,2.8,8.9,2.8s5.3-.2,7.6-.7l.3.2v5.9l-.3.3c-2.6.3-4.5.5-7.9.5-7.4,0-9.7-1.7-12.1-4.7v-.5Zm3.9-12.7l.4-5.2.3-.4c2.1-.2,4.2-.3,6.1-.3,2.9,0,5.6.2,8,.5l.3.3-.4,5.2-.4.3c-2.9-.3-5.6-.4-8.6-.4s-3.5,0-5.4.2l-.3-.3Zm7.4-14.7l2.2-1.6h.4c1.6,1.3,3,2.7,4.3,4.4v.4s-2.4,1.6-2.4,1.6h-.4c-1.3-1.7-2.5-3.1-4.2-4.5v-.4Zm4-2.6l2.1-1.6h.4c1.6,1.3,2.9,2.6,4.2,4.3v.4s-2.2,1.6-2.2,1.6h-.4c-1.3-1.7-2.4-2.9-4.1-4.4v-.4Z"/>
      <path class="cls-1" d="m412.9,35c5,0,8.8-.5,13-1.8-.7-1.2-1.4-2.3-2.1-3.5-3.5.9-6.7,1.3-10.8,1.6l-.3-.3-1-4.6.2-.3c3.4-.2,5.8-.5,8.7-1.2-.8-1.2-1.8-2.5-2.9-3.9v-.4s5.5-1.8,5.5-1.8l.4.2c1,1.4,2,2.8,3,4.2,2.1-.8,4.7-1.9,6.7-3.1h.4s2.6,4.4,2.6,4.4v.4c-2,1.1-4.6,2.2-6.6,3,.6,1,1.1,1.8,2,3.2,2-.9,4.6-2.3,6.5-3.5h.4s2.9,4.4,2.9,4.4v.4c-2.3,1.3-4.9,2.7-6.8,3.7,1.1,1.9,2,3.7,2.9,5.2.5,1.1.8,1.9.8,3,0,1.9-1.8,3.5-3.4,3.5s-1.3-.2-2-.7c-1.4-1.1-3.4-1.9-6.8-2.8v-1.3c1.5-.1,2.8-.3,4.5-.5.3,0,.4-.2.3-.5-.5-1.1-1.3-2.4-1.9-3.5-4.5,1.5-8.7,2.1-14.8,2l-.3-.2-1-4.8.3-.3Zm-.8,14.9l3.5-3.7h.4c2.9,3.3,7.9,4.2,13.3,4.2s2.4,0,4.8-.3l.3.3v5.8c.1,0-.2.3-.2.3-2.1.1-3.5.2-5.1.2-8.8,0-13.6-2.3-16.9-6.4v-.4Z"/>
      <path class="cls-1" d="m453.2,43.2c3.3.4,6.7.5,10.2.3,0-1.3,0-2.7-.1-4-3.1.2-6.1.1-9.2,0l-.3-.4v-4.7c.1,0,.5-.3.5-.3,2.9.2,6,.2,9,0,0-1.7,0-3.5,0-5.4l.3-.3h5.7l.3.3c0,1.6,0,3.3-.1,4.9,2.3-.3,4.5-.7,6.4-1.2l.3.3.5,4.4-.3.3c-2.3.6-4.6,1.1-7,1.4,0,1.3,0,2.6,0,4,2.7-.4,5.3-1,7.8-1.7l.4.3.7,4.7-.2.4c-2.9.8-5.7,1.4-8.4,1.8,0,2,.2,3.8.3,5.6,4.2,1.7,7.8,4,11.7,7.1v.4l-3.7,4.5h-.5c-2.4-2.3-5.7-4.7-7.6-5.8-.3,4.5-3.9,6.3-9.8,6.3s-8.7-1.8-8.7-6.7,6.1-7.1,12.5-6.8c0-1.3-.2-2.6-.2-3.8-3.9.3-7.6.2-11.3-.2l-.3-.3.8-4.9.3-.3Zm7.5,14.3c-2.2,0-3.6.9-3.6,1.7s.9,1.8,3.6,1.8,3.2-1.1,3-2.9c-.9-.4-1.6-.5-3-.5Z"/>
      <path class="cls-1" d="m495.8,54.1c6.1-1.3,9.9-3.9,11-6.5-.5.5-1.7,1-4,1-3.9,0-6-2-6-5,0-5,3.9-9.5,7.6-9.5s1.7.1,2.1.2c0-.9,0-1.7,0-2.7-5.4.3-11,.8-17,1.5l-.3-.3-.4-5.3.3-.4c5.8-.4,11.8-.8,17.4-1.1v-5.7l.3-.3h5.8l.3.3c0,1.9,0,3.7-.1,5.3,4.2-.2,8.4-.3,12.4-.4l.3.3v5.3l-.3.3c-4.2,0-8.4,0-12.4.2,0,2.3,0,4.7.1,7.6.5,1.6.9,3.5.9,5.1,0,2.7-.6,4.7-1.8,6.9-2.1,3.7-5.7,6-9.7,7.3-.2,0-.3,0-.4.1-.2,0-.4,0-.6,0-.3,0-.5,0-.7-.2l-4.8-4.1Zm9-15.1c-1.2,0-2.6,1.8-2.6,3.1s.3,1.2,1.3,1.2c1.7,0,2.9-.7,3-2.6-.3-1.2-1-1.6-1.8-1.6Z"/>
      <path class="cls-1" d="m534,63.5v-1.8h12.4v-30h2v31.8h-14.4Z"/>
      <path class="cls-1" d="m295.6,103.9c-.5-1.9-1.2-3.6-2-5.2l.2-.3,4.4-1.3.3.2c.8,1.4,1.7,3.3,2.4,5.3l-.2.3-2.9,1h4.8c.8-2.1,1.5-4.2,2.1-6.6l.3-.3,5,1.5v.4c-.5,1.7-1.3,3.4-2.2,4.9h5.5c0-.1.3,0,.3,0v4.5l-.3.2h-5.2c0-.1-12.4-.1-12.4-.1h-5.1c0,.1-.3-.1-.3-.1v-4.5l.3-.3h4.9Zm11.6-11.5h5.3c0-.1.3,0,.3,0v4.5l-.3.2h-5.3c0-.1-10.2-.1-10.2-.1h-5.2c0,.1-.3-.1-.3-.1v-4.4l.3-.3h5.3c0,.1,2.1.1,2.1.1v-3.9l.3-.3h5.3l.3.3v3.9h2.2Zm-8.1,32.7v2.3h-5.7l.2-7v-9.2c0,0,.1-.3.1-.3h5.7c0,.1,5.7.1,5.7.1h5.7c0-.1.3.2.3.2v4.5c-.1,0-.1,4.7-.1,4.7l.2,6.6h-5.9v-1.9h-6.2Zm6.2-9.5h-6.2v4.9h6.2v-4.9Zm14.8-4.1l.2,16.4h-6.2l.3-16.4v-21.9c-.1,0,.2-.3.2-.3h5.4c0,.1,5.2.1,5.2.1h2.6c0-.1,2.2,2,2.2,2,.1.1.3.4.3.8s0,.4,0,.6c-.8,3.6-2.1,8-3.7,12.2,2.9,3.3,4.2,6.3,4.2,11.1s-3.4,7.4-7.4,7.4-.8-.1-1-.6l-1.6-4.8c3.7,0,4.2-.4,4.2-2.9s-.9-5.6-3.4-8.8c-.3-.5-.5-.7-.5-1.1s0-.4.2-.7c1.1-3,2.1-6.6,2.8-10.1h-3.7v17Z"/>
      <path class="cls-1" d="m350,89h4.5c0-.1.3.2.3.2v4.9c-.1,0-.1,7-.1,7v4.7c.1,0-.2.4-.2.4h-4.5c0-.1-6.3-.1-6.3-.1v21.8h-5.6l.2-14.3v-24.4c-.1,0,.1-.3.1-.3h4.5c0,.1,7.1.1,7.1.1Zm-.6,6.5v-2.1h-5.7v2.1h5.7Zm-5.7,6h5.7v-2.3h-5.7v2.3Zm18.7,4.5h-4.5c0,.1-.3-.3-.3-.3v-4.7c.1,0,.1-7,.1-7v-4.9c-.1,0,.2-.3.2-.3h4.5c0,.1,7.7.1,7.7.1h4.5c0-.1.3.2.3.2v5.6c-.1,0-.1,15.9-.1,15.9l.2,12c0,3.6-2.3,4.9-7.1,4.9h-1.3c-.8,0-1-.2-1.2-.6l-1.8-5c1.6,0,3.7,0,4.9-.2.5,0,.6-.3.6-1.3v-14.5h-6.6Zm6.6-10.5v-2.1h-6v2.1h6Zm-6,6h6v-2.3h-6v2.3Z"/>
    </g>
    <g>
      <polyline class="cls-2" points="25.1 .2 .5 76.3 25.1 152.4"/>
      <polyline class="cls-2" points="646 152.4 670.6 76.3 646 .2"/>
    </g>
  </g>
</svg>