<?xml version="1.0" encoding="UTF-8"?>
<svg id="_レイヤー_2" data-name="レイヤー 2" xmlns="http://www.w3.org/2000/svg" viewBox="0 0 638.8 164.8">
  <defs>
    <style>
      .cls-1 {
        fill: #fff;
      }

      .cls-2 {
        fill: none;
        stroke: #fff;
        stroke-miterlimit: 10;
      }
    </style>
  </defs>
  <g id="_レイヤー_1-2" data-name="レイヤー 1">
    <g>
      <g>
        <path class="cls-1" d="m160.5,20v2.2h-14.8v35.7h-2.4V20h17.2Z"/>
        <path class="cls-1" d="m174.4,46.4l-.4-.3v-4.9l.3-.2,6.1.2h34.7l5.9-.2.3.2v4.8l-.3.3h-5.8c0-.1-17-.1-17-.1v11.4l.2,7.3c2.3-1,4.6-2.2,6.6-3.7-1.5-1.8-2.8-3.8-3.8-6l.2-.5,4.7-1.9h-.6l-5.7.2h-.4v-5.1l.3-.3h5.5c0,.1,9.7.1,9.7.1h1.8c0-.1,2.1,2,2.1,2,.3.4.6.6.6,1.1s-.1.5-.2.9c-1.1,3.4-2.9,6.5-5.1,9.3,2.2,1.3,4.8,2.3,7.9,3.2l-3.2,5c-.2.3-.4.5-.7.5s-.3,0-.6-.2c-2.9-1-5.6-2.3-7.9-4.1-2.1,1.7-4.2,3-6.5,4-.4.2-.6.3-.8.3-.4,0-.5-.3-.9-.7l-2.9-3.5v4.3c0,0-6.8,0-6.8,0v-4.7c-4.3,1-9.2,1.8-15.4,2.8l-.4-.2-1.8-4.9.4-.5c1.7-.1,3.4-.3,5-.5v-15.9h-4.9Zm40.1-13.9v7c.1,0-.3.4-.3.4l-6.9-.2h-19l-7.5.2-.4-.4.2-6.9v-2.5l-.2-6,.4-.3h7.8c0,.1,18.3.1,18.3.1h7.4c0-.1.4.2.4.2v6.1c-.1,0-.1,2.1-.1,2.1Zm-28.9,13.8v2.1h6.2v-2.1h-6.2Zm0,6.2v2.1h6.2v-2.1h-6.2Zm0,9c2.1-.2,4.1-.5,6.1-.8v-2c0,0-6.1,0-6.1,0v2.8Zm21.8-33.1h-19.9v1.7h19.9v-1.7Zm-19.9,7.1h19.9v-1.7h-19.9v1.7Zm18.8,17.8c.8,1.5,1.8,2.8,2.8,4,1-1.3,1.8-2.8,2.4-4.2h-5.6l.4.2Z"/>
        <path class="cls-1" d="m252.7,17.3l.3-.4h6.7l.4.4v4.5h11.2l8.1-.2.4.4v5.4l-.4.3h-8.1c0-.1-29.5-.1-29.5-.1h-8c0,.1-.4-.2-.4-.2v-5.4l.4-.3,8,.2h10.9v-4.5Zm9.1,42.6h-10.1v2.2h-6.2l.2-6.3v-6.7c-.1,0,.2-.3.2-.3l4.9.2h10.5l5.3-.2.4.3v3.6c-.1,0-.1,3-.1,3v2.8c1.2,0,2.2,0,2.8-.2.6,0,.9,0,.9-.9v-10.1h-28.1v17.7h-7.1l.2-11.2v-5.8l-.2-5.7.4-.3,6.4.2h28.8l6.4-.2.4.3v5.7c-.1,0-.1,4.3-.1,4.3l.2,7c0,4.6-2.9,5.6-9.6,5.6s-.9,0-1.1-.5l-1.9-4.3h-3.4Zm-18.7-19.4l-.4-.4.2-4.6v-6.2c-.1,0,.2-.3.2-.3h5.4c0,.1,15.9.1,15.9.1h5.4c0-.1.4.2.4.2v4.2c-.1,0-.1,2.1-.1,2.1v4.4c.1,0-.2.5-.2.5l-5.7-.2h-15.2l-5.8.2Zm20.2-4.6v-2.3h-13.8v2.3h13.8Zm-2.4,19.5v-2.2h-9.2v2.2h9.2Z"/>
        <path class="cls-1" d="m312.9,59c10.8-1.8,15.6-7,15.6-13s-4.2-12.4-9.3-13.5c-1,9.5-4.3,18.3-7.7,23.3-2.7,4-5.5,5.4-9.4,5.4s-5.2-1.5-7.1-4.5c-1.4-2.2-2.5-5-2.5-9.1,0-12.1,9.1-21.9,22.8-21.9s21,9.2,21,20.3-6.4,16-17,18.5c-.7,0-1.1,0-1.6-.5l-4.9-5.2Zm-13.4-11.2c0,1.7.3,2.9.9,3.8.6,1,1.3,1.6,2.1,1.6,1.1,0,2.6-1.1,4-3.8,2.8-5.6,4.2-10.9,5-17-7.3,1.2-11.8,7.7-11.8,15.4Z"/>
        <path class="cls-1" d="m388.4,29c.5,1,1,2.2,1.5,3.7l-.2.4-3.1.9c1.5,1.2,2.9,2.4,4.5,4.2v.5c-5.6.9-10.2,1.6-14.6,2.1v2.2c0,1.1,0,2.2-.1,3.2h11.4l8.3-.2.4.4v5.5l-.4.4-8.3-.2h-9.3c4.5,4.9,9.6,6.7,18.8,7.8l-3.7,6.9c-.2.4-.6.3-1.2.2-7.8-1.3-14.6-5.1-18.9-11-3.7,6.6-11.4,9.9-19,11.3-.6.1-.9.2-1.2-.3l-4.1-6c10.4-1.3,15.9-4.2,18.3-8.7h-8.4l-8.3.2-.4-.4v-5.5l.4-.4,8.3.2h10.1c0-.7,0-1.4,0-2.1v-2.5c-3.8.4-7.7.7-11.9,1-.6,0-1-.1-1.2-.4l-3-5.4c11.8-.5,22.6-1.8,29.8-3.2-.4-1.6-.9-3.1-1.5-4.6h-1.9c-1.1,1.5-2.2,3-3.2,4.1-.2.3-.5.4-.8.4s-.5,0-.8-.3l-4.6-3.2.9-.9-4.8-.2c.5,1.1,1.1,2.4,1.6,4l-.2.4-5.9,1.8-.4-.2c-.5-2-1.1-3.9-1.9-5.9h-1.2c-1.2,1.5-2.6,2.9-4,4.2-.3.3-.6.4-.8.4s-.6-.2-.9-.4l-4.3-3.4c3.6-3.1,6.4-6.5,8-10.5l.5-.2,5.7,2.3.2.5c-.2.5-.5,1-.8,1.5h3.6l5.9-.2.3.2v4.7c2.1-2.5,3.7-5.2,5.2-8.9h.4c0-.1,5.8,1.8,5.8,1.8l.2.5c-.2.7-.5,1.3-.8,1.9h7.4l6.1-.2.3.2v5.3l-.3.2-6.1-.2h-1.8Z"/>
        <path class="cls-1" d="m417.6,57.7c-.2,2.4-.5,4.8-1.3,7.1,5.6-1.8,10.6-4.4,14.1-6.7h.5l3.3,3.5v.6c-5,3.4-9.9,6-15.1,7.7-.2,0-.4.1-.6.1-.3,0-.4-.1-.6-.5l-2.1-3c-.4,1-.8,1.9-1.3,2.9-.1.3-.3.5-.5.5s-.5-.1-.8-.4l-4-3.6c1.9-4.1,2.6-7.8,2.6-16.7v-2.5l-.2-6.7.4-.3h3.6c-.2-1.3-.6-2.5-1.1-4.4l.4-.4,4.8-.9.4.5c.5,1.8.9,3.7,1.1,5.3h2.1c.5-2,.7-3.4,1-5.5l.3-.3,5.1,1,.4.3c-.2,1.3-.6,2.8-.9,4.5h4.3c0,0,.4.2.4.2v4.9l-.4.3h-3.6c0,0,2.1,2,2.1,2v.6c-2.9,2-7,4.2-10.7,5.5-.2.1-.4.2-.6.2-.3,0-.5-.2-.7-.5l-2-3.2h0c0,2.4,0,4.5-.1,6.5,4.8-1.4,8.6-3.3,11.5-5.5h.5l3.2,3.3v.6c-3.7,2.7-8,4.8-12.1,6.2-.2,0-.4.2-.6.2-.3,0-.4-.2-.7-.5l-2-3Zm31.3-24.7h6.4c0-.1.4.2.4.2l-.2,5.6v14.3l.2,7.2-.5.4-4.9-.2h-.6c2.9,1.2,5.9,3,8.3,4.9v.5c0,0-3.8,4.7-3.8,4.7h-.6c-2.6-2.2-5.6-4.4-9-6.2-4.1,3.1-7.6,5.2-11,6.5-.2.1-.5.2-.6.2-.3,0-.5-.2-.8-.5l-3.4-4.2c4.6-1.5,7.5-3.2,10.3-5.8h-3.9c0,.1-.3-.2-.3-.2v-7c.1,0,.1-14.8.1-14.8v-5.5c-.1,0,.2-.3.2-.3h5.4c.4-.8.7-1.7.9-2.6h-2.1l-6.6.2v3.2l-.3.2-6.6-.2h-8.2l-6.6.2-.4-.3v-5.3l.3-.3,6.6.2h.9v-4.8l.4-.4h6l.3.4v4.8h.6l6.6-.2v-3.2l.3-.3,6.6.2h11.3l6.6-.2.3.2v5.4l-.3.2-6.6-.2h-1.8c-.4.9-1,1.8-1.5,2.7h1.4Zm-31.1,15.9c3.1-.9,6-2.1,8.7-3.8h-8.7v3.8Zm30.1,11.7h-7.1s4,3.1,4,3.1l3.1-3.1Zm1.1-19.8v-2.6h-7.7v2.6h7.7Zm-7.7,7.2h7.7v-2.5h-7.7v2.5Zm0,7.4h7.7v-2.7h-7.7v2.7Z"/>
        <path class="cls-1" d="m470.7,67v-2.2h14.8V29.1h2.4v37.9h-17.2Z"/>
        <path class="cls-1" d="m268,114c-.7-2.3-1.5-4.3-2.4-6.2l.2-.4,5.2-1.6.4.2c1,1.7,2,4,2.9,6.2l-.2.4-3.4,1.2h5.7c1-2.5,1.8-5,2.5-7.9l.4-.3,6,1.8v.5c-.7,2-1.6,4-2.6,5.9h.3l6.2-.2.3.2v5.4l-.3.2-6.2-.2h-14.8l-6.1.2-.3-.3v-5.3l.3-.3,5.8.2Zm13.9-13.9h6.3c0-.1.3.1.3.1v5.3l-.3.2h-6.3c0-.1-12.2-.1-12.2-.1h-6.2c0,.1-.4-.2-.4-.2v-5.2l.3-.3h6.3c0,.1,2.6.1,2.6.1v-4.6l.4-.4h6.3l.4.4v4.6h2.7Zm-9.7,38.9v2.7h-6.8l.2-8.4v-10.9c-.1,0,.1-.3.1-.3h6.8c0,.1,6.8.1,6.8.1h6.8c0-.1.4.2.4.2l-.2,5.4v5.6l.2,7.9h-7v-2.3h-7.4Zm7.4-11.4h-7.4v5.9h7.4v-5.9Zm17.7-4.9l.2,19.5h-7.4l.4-19.5v-18.6l-.2-7.5.4-.4,6.4.2h6.2l3.1-.2,2.6,2.6c.2.1.3.4.3.9s0,.5,0,.7c-1,4.3-2.6,9.6-4.5,14.5,3.5,3.9,5,7.5,5,13.3s-4.1,8.8-8.8,8.8-1-.2-1.2-.8l-1.9-5.8c4.4,0,5.1-.5,5.1-3.5s-1.1-6.7-4.1-10.5c-.4-.5-.6-.8-.6-1.2s.1-.5.2-.8c1.3-3.6,2.5-7.9,3.3-12h-4.4v20.3Z"/>
        <path class="cls-1" d="m337.8,96.2h5.3c0-.1.4.2.4.2v5.8c-.1,0-.1,8.4-.1,8.4v5.6c.1,0-.3.5-.3.5h-5.3c0-.1-7.5-.1-7.5-.1v26h-6.7l.2-17v-29c-.1,0,.2-.3.2-.3h5.4c0,.1,8.5.1,8.5.1Zm-.8,7.8v-2.5h-6.8v2.5h6.8Zm-6.8,7.2h6.8v-2.7h-6.8v2.7Zm22.2,5.3h-5.3c0,.1-.4-.3-.4-.3v-5.6c.1,0,.1-8.4.1-8.4v-5.8c-.1,0,.2-.3.2-.3h5.3c0,.1,9.2.1,9.2.1h5.4c0-.1.3.2.3.2l-.2,6.7v18.9l.3,14.3c0,4.3-2.8,5.8-8.5,5.8h-1.5c-1,0-1.2-.2-1.4-.8l-2.2-6c1.9,0,4.4,0,5.9-.2.6-.1.7-.3.7-1.5v-17.2h-7.9Zm7.9-12.5v-2.5h-7.1v2.5h7.1Zm-7.1,7.2h7.1v-2.7h-7.1v2.7Z"/>
      </g>
      <g>
        <polyline class="cls-2" points="27.1 .2 .5 82.4 27.1 164.6"/>
        <polyline class="cls-2" points="611.7 164.6 638.3 82.4 611.7 .2"/>
      </g>
    </g>
  </g>
</svg>