<?xml version="1.0" encoding="UTF-8"?>
<svg id="_レイヤー_2" data-name="レイヤー 2" xmlns="http://www.w3.org/2000/svg" viewBox="0 0 177.1 171.6">
  <defs>
    <style>
      .cls-1 {
        stroke-width: 3.3px;
      }

      .cls-1, .cls-2, .cls-3, .cls-4, .cls-5, .cls-6 {
        fill: none;
        stroke-linecap: round;
        stroke-linejoin: round;
      }

      .cls-1, .cls-2, .cls-5 {
        stroke: #7f2583;
      }

      .cls-7 {
        fill: #f9dd96;
      }

      .cls-8 {
        fill: #f1b22d;
      }

      .cls-9 {
        fill: #eaa51c;
      }

      .cls-10 {
        fill: #ebcb32;
      }

      .cls-11 {
        fill: #fff;
      }

      .cls-12 {
        fill: #e9a828;
      }

      .cls-13 {
        fill: #e84572;
      }

      .cls-14, .cls-15 {
        fill: #efefef;
      }

      .cls-16 {
        fill: #e73c71;
      }

      .cls-17, .cls-18 {
        fill: #7f2583;
      }

      .cls-19, .cls-20 {
        fill: #65bbb1;
      }

      .cls-21 {
        fill: #221815;
      }

      .cls-22 {
        fill: #1c68ac;
      }

      .cls-2 {
        stroke-width: 1.2px;
      }

      .cls-3 {
        stroke-width: 1.8px;
      }

      .cls-3, .cls-4 {
        stroke: #221815;
      }

      .cls-4 {
        stroke-width: 1.6px;
      }

      .cls-18, .cls-20, .cls-15 {
        fill-rule: evenodd;
      }

      .cls-5, .cls-6 {
        stroke-width: 1.7px;
      }

      .cls-6 {
        stroke: #52b6a7;
      }
    </style>
  </defs>
  <g id="_レイヤー_1-2" data-name="レイヤー 1">
    <g>
      <path class="cls-22" d="M.7,155.7c3.3,12.5,15.7,18.3,28.2,15,12.5-3.3,20.8-12.9,17.5-25.4-3.3-12.5-15.3-16.7-27.8-13.4-12.5,3.3-21.2,11.3-17.9,23.8"/>
      <path class="cls-9" d="M2.6,152.4s0,0,0,0c0,0,0,0,0,0,0,0,0,0,0,0"/>
      <path class="cls-12" d="M37.9,148.2s-.1,0-.1,0c0,0,.3,0,.3,.1,0,0,0,.2,0,.3,0,0,0,.2,.1,.2,0,0,0,.3,0,.4,0,0,.2,0,.3,.2,0,.2,0,.4,0,.6-1.1,.8-2.3,1.7-3.5,2.5-1.2,.8-2.4,1.5-3.7,2.3-1.2,.7-2.5,1.5-3.7,2.2-1.2,.7-2.5,1.5-3.7,2.2-1.2,.7-2.4,1.6-3.6,2.3-1.2,.8-2.4,1.5-3.6,2.4-.3,.2-.6,.3-.8,.5-.1,0-.1,.3-.2,.4,0,0-.2,0-.3,.1,0,0,0,0,0,0-1.4,.7-2.2,.2-3-1.8-.4-.9-.3-1.7,0-2.4,0,0,0,0,0,0,0,0,0,0,0,0,.1-.3,.3-.6,.5-.8,0,0,0-.1,0-.2,.2-.2,.5-.3,.8-.5,0,0,.2-.1,.2-.2,.2-.2,.4-.4,.6-.6,0,0,.1-.1,.2-.2,.3-.2,.6-.2,.9-.4,1.3-.8,2.6-1.7,3.9-2.5,1.3-.8,2.6-1.7,3.9-2.5,1.3-.8,2.7-1.5,4.1-2.2,1.4-.7,2.8-1.4,4.1-2.1,1.4-.7,2.8-1.3,4.2-2,.6,.3,1.3,.6,1.8,1.2,0,0,0,0,0,0,0,0,0,0,0,0,0,0,.1,0,.2,0"/>
      <path class="cls-12" d="M35.7,141c0,.7,0,.7-.1,1.5-.2,.2-1.7,1.3-3.8,2.8-1.1,.8-2.5,1.7-3.9,2.6-1.3,.8-2.6,1.6-4,2.5-1.3,.9-2.7,1.7-3.9,2.5-1.4,.9-2.8,1.7-4,2.4-2.2,1.3-3.8,2.4-4.1,2.3-1-.8-1.1-1.3-1.7-2-.2-.2-1-1.2-.9-2,0-.4,0-1.4,.3-1.7,0,0,0,0,0,0,0,0,0,0,0,0,1.2-.8,2.6-1.4,3.9-2,1.3-.6,2.6-1.2,3.9-1.8,1.3-.6,2.7-1.1,4-1.7,.9-.4,2.4-1.4,4.1-2.4,1.3-.8,2.8-1.7,4.1-2.4,1.9-1.1,3.5-2,4.2-2.2,.4,.4,1.6,1.4,1.9,1.8"/>
      <path class="cls-7" d="M9.7,151.9h0s0,0,0,0c0,0,0,0,0,0"/>
      <path class="cls-12" d="M31,136s0,.2,0,.2c0,0,.2,0,.3,.1,0,0,.1,.1,.2,.2,0,0,0,.2,0,.3,0,.1,0,.2,.1,.4,0,0,0,0,0,.1,0,.2,.2,.4,.2,.6-1.1,.8-2.3,1.7-3.5,2.5-1.2,.8-2.4,1.5-3.7,2.3-1.2,.7-2.4,1.5-3.7,2.3-1.2,.7-2.5,1.5-3.7,2.2-1.2,.7-2.6,1.3-3.8,2.1-1.2,.8-2.4,1.6-3.6,2.5-.3,.2-.4,.5-.7,.7-.1,0-.3,0-.4,.1,0,0-.2,0-.3,0,0,0,0,0,0,0-1.4,.7-2.1,.2-2.9-1.7-1.1-2.5,1.4-4,3.3-5.3,1.3-.8,2.7-1.5,4-2.3,1.3-.8,2.7-1.5,4-2.3,1.3-.7,2.7-1.5,4-2.2,1.4-.7,2.7-1.5,4.1-2.1,1.4-.7,2.8-1.4,4.2-2.1,.6,.3,1.2,.9,1.6,1.4,0,0,0,0,0,0"/>
      <path class="cls-10" d="M37.1,141.7c0,0,.1,0,.2,.2,.1,.2,.4,.3,.5,.5-.7,1.2-1.6,2.4-2.4,3.6-.8,1.2-1.6,2.4-2.4,3.6-.8,1.2-1.6,2.4-2.4,3.6-.8,1.2-1.6,2.4-2.5,3.6-.8,1.2-1.6,2.4-2.4,3.6-.8,1.2-1.6,2.4-2.4,3.6-.2,.3-.4,.5-.5,.8,0,0,0,.2-.1,.3,0,0,0,.3-.1,.4,0,0,0,0,0,0-1,1.2-1.9,1-3.4-.4-.7-.7-.8-1.4-.8-2.1,0,0-.2,0-.2,0,0,0,0,0,0,0,0-.3,.2-.6,.3-.9,0,0,0,0,0-.1,0-.3,.2-.5,.3-.8,0,0,.2-.1,.2-.2,.1-.2,.2-.5,.4-.7,0,0,0-.1,.1-.2,.2-.3,.3-.6,.4-.9,.8-1.3,1.7-2.6,2.6-3.8,.9-1.3,1.7-2.5,2.6-3.8,.9-1.2,1.9-2.4,2.9-3.6,1-1.2,1.9-2.5,2.9-3.6,1-1.2,2-2.4,3-3.5,.7,0,1.4,.2,2.1,.5,0,0,0,0,0,0,0,0,0,0,.1,0,0,0,0,0,.1,0,0,0,0,0,0,0,0,0,.2,0,.3,.1,0,0,.1,0,.2,.1,0,0,0,.2,.1,.3,0,0,.1,.1,.2,.2"/>
      <path class="cls-10" d="M34.6,137.2c-.2,.2-1.5,1.3-3.5,2.9-1.1,.8-2.3,1.8-3.7,2.8-1.2,.9-2.5,1.8-3.7,2.7-1.3,.9-2.6,1.8-3.8,2.7-1.4,1-2.6,2-3.7,2.7-2.1,1.5-3.6,2.3-3.9,2.3-.8-.5-1.1-.7-1.6-1.1-.2-.1-.8-.9-.7-1.6,0-.4,.1-1.1,.4-1.4,0,0,0-.1,0-.1h0c1.1-.8,2.4-1.5,3.6-2.2,1.2-.7,2.5-1.4,3.7-2.1,1.3-.7,2.4-1.6,3.6-2.3,.8-.5,2.3-1.5,3.9-2.5,1.3-.9,2.7-1.7,4-2.5,1.8-1.2,3.3-2.2,4-2.5,.3,.2,1.3,.9,1.5,1.2,0,.6,0,.6-.2,1.2"/>
      <path class="cls-8" d="M10.5,149s0,0,0,0c0,0,0,0,0,0,0,0,0,0,0,0"/>
      <path class="cls-17" d="M53.2,114.1l-1.5,2.8-4.4-2c-2.5-1.1-5.4,0-6.5,2.4-1.1,2.5,0,5.4,2.4,6.5l4.4,2,5.9,2.7,5.2-11.5-5.5-2.9Z"/>
      <path class="cls-21" d="M58.7,117l-5.5-3c11.6-21.6,4.1-27.5,4-27.5l3.5-5.2c1.3,.8,12.3,9-2,35.7"/>
      <path class="cls-17" d="M26.7,114.3l-2.6,1.8-2.9-3.9c-1.6-2.2-4.7-2.6-6.8-1-2.2,1.6-2.6,4.7-1,6.9l2.9,3.9,3.9,5.2,10-7.6-3.5-5.2Z"/>
      <path class="cls-21" d="M30.2,119.5l-3.5-5.2c20.4-13.5,16.7-22.2,16.6-22.3l5.5-2.9c.7,1.4,6.6,13.8-18.7,30.5"/>
      <path class="cls-17" d="M58.4,33.4c-4.8-7.6-12-4.6-13.3,.2-4.8-4.3-10.8-1.9-12.1,2.1-1.1-.6-2.3-.7-3.6-.6-5.6,.4-10,5-10.6,10.6-1.8,15.4,0,38.1,14.9,47,19.5,11.8,47.5-2,47.3-25.7,0-8.8-2.1-19.4-6.3-27-1.9-3.4-11.7-14.2-16.2-6.5"/>
      <path class="cls-17" d="M79.3,61.8c3.3-2.5,3-6.7,4-10.2,.5-1.8,1.7-4.8,3.9-4.9,4-.3,5.4,4.1,5.9,7.3,1.8,12.1-8.2,27-19.1,32"/>
      <polyline class="cls-4" points="39.8 70.4 44 69.4 40.7 66.6"/>
      <polyline class="cls-4" points="65.2 61.4 62.9 65 67.3 64.7"/>
      <path class="cls-11" d="M45.7,75.9c2.9,1.2,6.2,0,7.5-3,1.2-2.9,0-6.2-3-7.5-2.9-1.2-6.2,0-7.5,3-1.2,2.9,0,6.2,3,7.5"/>
      <path class="cls-21" d="M49.7,73.3c1.4,.6,3.1,0,3.7-1.5,.6-1.4,0-3.1-1.5-3.7-1.4-.6-3.1,0-3.7,1.5-.6,1.4,0,3.1,1.5,3.7"/>
      <path class="cls-11" d="M58.2,72.8c2.9,1.2,6.2,0,7.5-3,1.2-2.9,0-6.2-3-7.5-2.9-1.2-6.2,0-7.5,3s0,6.2,3,7.5"/>
      <path class="cls-21" d="M62.3,70.3c1.4,.6,3.1,0,3.7-1.5,.6-1.4,0-3.1-1.5-3.7-1.4-.6-3.1,0-3.7,1.5-.6,1.4,0,3.1,1.5,3.7"/>
      <path class="cls-14" d="M63.7,76.8s-1.4,8.6-9.7,9.8c0,0-6.9,1.3-11.1-5.2l20.7-4.5Z"/>
      <path class="cls-17" d="M62.6,55.8c1.5,3.7,7.6,4.2,10,1.2,3.3-4,2.3-8.6,.7-11.6"/>
      <path class="cls-6" d="M62.6,55.8c1.5,3.7,7.6,4.2,10,1.2,3.3-4,2.3-8.6,.7-11.6"/>
      <path class="cls-17" d="M62.5,38.5c2.4,3.3,3.3,7.6,2.8,11.6-.5,3.7-2.9,8.3-6.4,10.1-1.7,.9-5.3,.9-6.9-1.5"/>
      <path class="cls-6" d="M62.5,38.5c2.4,3.3,3.3,7.6,2.8,11.6-.5,3.7-2.9,8.3-6.4,10.1-1.7,.9-5.3,.9-6.9-1.5"/>
      <path class="cls-17" d="M51,40c5.7,4.9,4.8,21.8-4.3,22.7-1.6,.2-4.2-.7-4.8-2.2"/>
      <path class="cls-6" d="M51,40c5.7,4.9,4.8,21.8-4.3,22.7-1.6,.2-4.2-.7-4.8-2.2"/>
      <path class="cls-17" d="M37.4,41s11.2,12.5,2.6,22.8c-2.7,3.3-6.5,3.9-8.3,1.7-2.3-2.7-3.5-4.1-6-8.3"/>
      <path class="cls-6" d="M37.4,41s11.2,12.5,2.6,22.8c-2.7,3.3-6.5,3.9-8.3,1.7-2.3-2.7-3.5-4.1-6-8.3"/>
      <path class="cls-13" d="M115.3,116.1l-2.7,2.5-4-4c-2.2-2.2-5.8-2.2-8,0s-2.2,5.8,0,8l4,4,5.3,5.2,10.1-10.4-4.8-5.3Z"/>
      <path class="cls-17" d="M120.2,121.4l-4.8-5.4c21-18.9,15.3-28.3,15.2-28.4l5.8-4.3c1.1,1.4,9.9,14.6-16.2,38"/>
      <path class="cls-13" d="M142.4,120.9l-1.7,3.2-5.1-2.3c-2.8-1.3-6.2,0-7.5,2.8s0,6.2,2.8,7.5l5.1,2.3,6.8,3.1,5.9-13.3-6.4-3.4Z"/>
      <path class="cls-17" d="M148.8,124.3l-6.4-3.4c13.3-25,4.7-31.8,4.6-31.9l4-6c1.5,1,14.3,10.4-2.2,41.3"/>
      <path class="cls-16" d="M173.6,47c-2-4-4.9-7.1-8.4-9.6l.2-.2s-9.3-3.9-11.6-23.6c-.5-4.1-1.7-12.6-7-13.5-6-1.1-9.8,6.5-10.5,11.3-.9,5.4,0,11.8,2.6,17.1-5.5-.8-10.9-1.2-15.7-1.6-5.7-.5-13.5-.6-14.6,6.9-.5,3.3,1.8,6.7,4.4,8.6-7.4,0-8.4,9.8-3.1,13.7-5.3,1.1-8.9,9-1.3,14.6-7.7,3-3.2,13.4,7,18,8.7,3.9,16.2,7.2,25.9,8,26,2.1,43.4-27.4,32.1-49.8"/>
      <path class="cls-3" d="M152.6,72.3c-15.5,18.2-29.2,3.9-31.5,2"/>
      <path class="cls-1" d="M132.3,64.5s3.4-1.9,6,0"/>
      <line class="cls-1" x1="118" y1="64.2" x2="114.6" y2="64.5"/>
      <line class="cls-1" x1="151.8" y1="62.4" x2="156.5" y2="62.1"/>
      <path class="cls-11" d="M132.3,64.5c-.8,3.7-4.5,6-8.2,5.1-3.7-.8-6-4.5-5.1-8.2,.8-3.7,4.5-6,8.2-5.1,3.7,.8,6,4.5,5.1,8.2"/>
      <path class="cls-1" d="M132.3,64.5c-.8,3.7-4.5,6-8.2,5.1-3.7-.8-6-4.5-5.1-8.2,.8-3.7,4.5-6,8.2-5.1,3.7,.8,6,4.5,5.1,8.2Z"/>
      <path class="cls-21" d="M127.2,65.4c-.4,1.8-2.3,3-4.1,2.6-1.8-.4-3-2.3-2.6-4.1,.4-1.8,2.3-3,4.1-2.6,1.8,.4,3,2.2,2.6,4.1"/>
      <path class="cls-11" d="M151.4,63.4c-.8,3.7-4.5,6-8.2,5.1-3.7-.8-6-4.5-5.1-8.2,.8-3.7,4.5-6,8.2-5.1,3.7,.8,6,4.5,5.1,8.2"/>
      <path class="cls-1" d="M151.4,63.4c-.8,3.7-4.5,6-8.2,5.1-3.7-.8-6-4.5-5.1-8.2,.8-3.7,4.5-6,8.2-5.1,3.7,.8,6,4.5,5.1,8.2Z"/>
      <path class="cls-21" d="M146.3,64.3c-.4,1.8-2.3,3-4.1,2.6-1.8-.4-3-2.3-2.6-4.1,.4-1.8,2.3-3,4.1-2.6,1.8,.4,3,2.2,2.6,4.1"/>
      <path class="cls-5" d="M153.7,34.2c-4.4-3.7-12.1-4.2-12.1-4.2"/>
      <path class="cls-21" d="M91.7,142.8l-3.2-2.5c0-.1,8.6-11,11.6-24.5l4,.9c-3.2,14.4-12.1,25.7-12.4,26.1"/>
      <path class="cls-19" d="M85.6,138.8l2.6,1.8,1.8-2.5,3.4,2.3-1.7,2.5-3.6,5.3-3.5-2.4-2.6-1.8c-1.5-1-1.8-3-.8-4.4,1-1.5,3-1.8,4.4-.8"/>
      <path class="cls-21" d="M71,141.8l-2.5-3.2c.1,0,11-8.7,17.1-21.1l3.7,1.8c-6.6,13.3-17.8,22.1-18.2,22.5"/>
      <path class="cls-19" d="M65.9,136.5l2.1,2.4,2.4-1.9,2.7,3-2.3,2-4.7,4.3-2.8-3.1-2.1-2.4c-1.2-1.3-1.1-3.3,.2-4.5,1.3-1.2,3.3-1.1,4.5,.2"/>
      <path class="cls-22" d="M107.3,84c-1.3,0-2.5,.5-3.4,1.4-.6-2-2.6-3.2-4.7-2.9-1.2,.2-2.1,.8-2.8,1.7,0,0-.5-2.8-3.6-3.3-4.4-.7-5.1,4.6-5.1,4.6,0,.3-.4,.5-.6,.2l-2-7c-2.1-4.9-4.8-8.2-7.5-6.8-2.1,1.1-2.5,5-.3,11.5l3.6,10.6s2.3,5.4-1.6,11.3c-1.3-.9-8.2-5.1-11.7-.9-2.5,2.9,10.8,17.5,20.2,18.5h0c6.7,1.2,14.8-1.5,18.7-6.6,3.3-4.3,4-10.2,4.5-15.4,.4-4.7,.4-8.8,.4-10.7,0,0,0-1.7,0-1.7,0-2.4-1.8-4.3-4.1-4.4"/>
      <path class="cls-2" d="M102.4,91.5s-.9,8.3-5.1,7.4c-5.6-1.2-2.3-9.5-2.3-9.5"/>
      <path class="cls-2" d="M108.4,93.1s1,8.9-3.2,8.3c-4.9-.7-2.8-10-2.8-10"/>
      <path class="cls-11" d="M92.1,107.4c.5,2.3,2.8,3.7,5.1,3.2,2.3-.5,3.7-2.8,3.2-5.1-.5-2.3-2.8-3.7-5.1-3.2-2.3,.5-3.7,2.8-3.2,5.1"/>
      <path class="cls-21" d="M95,105.2c.3,1.1,1.4,1.9,2.6,1.6,1.1-.3,1.9-1.4,1.6-2.6-.3-1.1-1.4-1.9-2.6-1.6-1.1,.3-1.9,1.4-1.6,2.6"/>
      <path class="cls-11" d="M82.1,107.4c.5,2.3,2.8,3.7,5.1,3.2,2.3-.5,3.7-2.8,3.2-5.1-.5-2.3-2.8-3.7-5.1-3.2-2.3,.5-3.7,2.8-3.2,5.1"/>
      <path class="cls-21" d="M85,105.2c.3,1.1,1.4,1.9,2.6,1.6,1.1-.3,1.9-1.4,1.6-2.6-.3-1.1-1.4-1.9-2.6-1.6-1.1,.3-1.9,1.4-1.6,2.6"/>
      <path class="cls-2" d="M87.5,88.6s-3.4,9.6,1.2,9.9,5.9-7.6,5.9-7.6"/>
      <path class="cls-11" d="M100.5,115.5c0,1.4-.7,2.5-1.6,2.5s-1.6-1.1-1.6-2.5,.7-2.5,1.6-2.5,1.6,1.1,1.6,2.5"/>
      <path class="cls-18" d="M118.5,129.7l-20-.5,2.8,17h0c0,1.9,3,2.5,6.9,2.6,3.5,0,6.4,0,6.9-1.7,0-.1,.1-.4,.2-.5l3.2-16.8Z"/>
      <path class="cls-21" d="M98.9,114.5c.4-.6,1.3-1,2.1-.5,0,0,0,0,0,0l6.7,5.3s0,0,0,.1c0,0,.2,.2,.2,.3l2.9,7.4c0,.2,0,.4-.2,.5-.3,.2-.7,.4-1.1,.4-.3,0-.7,0-1.1,0-.2,0-.3-.1-.3-.3l-2.6-6.8-6.3-5c-.8-.4-.8-1.1-.5-1.5"/>
      <path class="cls-15" d="M97.3,128.7v-3.5c0,0,22.5,.6,22.5,.6v4.8c-.1,0-22.6-.6-22.6-.6,0-.4,0-.8,0-1.3"/>
      <path class="cls-20" d="M105.6,42.3l-23.5-2.9,1.4,20.4h0c-.3,2.3,3.3,3.3,7.8,3.8,4.1,.5,7.5,.7,8.3-1.2,0-.1,.2-.4,.2-.6l5.6-19.5Z"/>
      <path class="cls-21" d="M90.1,24.9c.8-.8,1.8-.5,2.8-.4,1.7,0,2.8,.4,4.4,.3,.7,0,2.5,0,3,.7,0,0,0,.1,0,.2,0,.2,.1,.3,.2,.6l-1.2,10.9c0,.3-.2,.6-.4,.7-.5,.2-1.1,.2-1.6,.2-.5,0-.9-.2-1.4-.4-.2-.1-.3-.3-.3-.5l1.2-8.6-6.6-1.1c-.8-.9-.5-1.8,0-2.3"/>
      <path class="cls-15" d="M80.7,38.7l.5-4.2,26.4,3.2-.7,5.6-26.4-3.2c0-.5,.1-1,.2-1.5"/>
      <path class="cls-6" d="M26.4,58.2s12.3,14.6,9.2,28.5"/>
      <path class="cls-6" d="M29.7,53.3s3,8.6-1.8,7.2"/>
    </g>
  </g>
</svg>