<?xml version="1.0" encoding="UTF-8"?>
<svg id="_レイヤー_2" data-name="レイヤー 2" xmlns="http://www.w3.org/2000/svg" viewBox="0 0 154.6 123.6">
  <defs>
    <style>
      .cls-1 {
        stroke: #221815;
      }

      .cls-1, .cls-2 {
        fill: none;
        stroke-linecap: round;
        stroke-linejoin: round;
        stroke-width: 1.4px;
      }

      .cls-2 {
        stroke: #e84572;
      }

      .cls-3 {
        fill: #ebcb32;
      }

      .cls-4 {
        fill: #fff;
      }

      .cls-5 {
        fill: #efefef;
      }

      .cls-6 {
        fill: #221815;
      }

      .cls-7 {
        fill: #1c68ac;
      }
    </style>
  </defs>
  <g id="_レイヤー_1-2" data-name="レイヤー 1">
    <g>
      <path class="cls-7" d="m56.6,15.8c-6.6-6.9-17-3.6-24.3-2.5-7.3,1.2-4.2-3-15.2-5.6C10.5,6.1,1,7.2,0,15.5c-.5,3.8,3.9,9.4,9.5,6.5,5.5-2.9,10.4-.4,10.4-.4,11.5,7.9,10.1,3.5,19,2.1,8.8-1.4,13.1,8.4,13.1,8.4l4.6-16.2Z"/>
      <path class="cls-6" d="m81.3,94c-2.8.4-2.8-.8-5.7-.9,0-.2,2-18.9-6.3-36.1-.5-2.1,3.1-4.5,4.4-2.7,8.4,18.6,7.5,38.9,7.6,39.8"/>
      <path class="cls-7" d="m81.4,93.9s-5.8.3-5.8.3c-2,0-4.4.6-6.3,1.5-1.9,1-2.2,2-1.6,4.1,1,3.4,6.5,3.6,9.4,3.2.5,0,4.2-.2,4.3-.3.6-.9,0-8.8,0-8.8"/>
      <path class="cls-6" d="m93.2,70.5c-1-.1-1.8-.3-2.5-.6-7.7-3-9.3-14.4-9.6-15.7l2.7-1.3c.7,2.7,4.7,10.1,9,11.7,1.8.7,3.7.3,6-1.3l3.1-2.3,3.6,4.3-3.4,2.6c-3.5,2.3-6.4,2.8-8.8,2.5"/>
      <path class="cls-7" d="m118.1,61c-2.1-2.6-4.6-5.1-6.7-7.8l-5.3,4.3,3.8,4.4c2.1,2.4,4.6,6.4,8.4,4.4.7-.4,1.4-1.1,1.5-1.9,0-.7-.2-1.5-.7-2.1-.3-.4-.7-.9-1-1.3"/>
      <path class="cls-5" d="m75.5,94.2c0-.3,0-3.1,0-5.7l5.7-.3.2,5.7-5.8.3Z"/>
      <path class="cls-5" d="m109.9,62c-.3.2-2.5,1.8-4.6,3.4l-3.6-4.3,4.3-3.5,3.8,4.5Z"/>
      <path class="cls-7" d="m98,39.6c0,14.8-13.4,26.8-30,26.8s-30-12-30-26.8,13.4-26.8,30-26.8,30,12,30,26.8"/>
      <path class="cls-4" d="m88.3,36.3c-2.7-1.7-6.8-1.5-9.1.3-2.4,1.9-2.2,4.7.5,6.4,2.7,1.7,6.8,1.5,9.1-.3,2.4-1.9,2.2-4.7-.5-6.4"/>
      <path class="cls-6" d="m81.8,37.8c-1-.9-2.6-.8-3.5.2-.9,1-.8,2.6.2,3.5,1,.9,2.6.8,3.5-.2.9-1,.8-2.6-.2-3.5"/>
      <path class="cls-4" d="m75.1,38.8c-2.7-1.7-6.8-1.5-9.1.3-2.4,1.9-2.2,4.7.5,6.4,2.7,1.7,6.8,1.5,9.1-.3,2.4-1.9,2.2-4.7-.5-6.4"/>
      <path class="cls-6" d="m68.5,40.3c-1-.9-2.6-.8-3.5.2-.9,1-.8,2.6.2,3.5,1,.9,2.6.8,3.5-.2.9-1,.8-2.6-.2-3.5"/>
      <path class="cls-4" d="m74.4,49.2c1.3,3.7,3.8,6.2,5.5,5.6,1.7-.6,2-4.1.6-7.8l-6.1,2.2Z"/>
      <path class="cls-3" d="m115.2,106c1.5-.4,3.1-.2,3.5,1.3.4,1.5-.1,3.5-1.6,3.9-2.2.6-4.3,1.2-6.5,1.7-1,.3-2,.5-3,.8l-6.8-1c-2.8-.6-5.7-.9-8.5-1.5-3.7-.8-7.3-1.5-11-2.2-5.7-1.1-11.5-2.2-17.2-3.3-8.6-1.7-17.2-3.5-25.8-5.3-.4,0-1-.1-1.4-.4-4.9-4-4.6-4.2-9.5-8.2-1.2-1-1.6-2.9-.6-4.1,1-1.2,2.9-1.1,4.1-.2l8.4,7.5,67.6,12.4,8.4-1.5Z"/>
      <path class="cls-3" d="m68,0c-.9,0-1.9,0-2.8.4-3.7,1.4-6.5,5.2-8.2,8.5-.4.7-.4.8-1.2.7-.6,0-1.1-.1-1.7-.2-2-.2-4.1-.5-6.1-.7-.6,0-1.1.3-1.2.9,0,.6.3,1.1.9,1.2l17.7,2,11.3,1.3c0-.4,0-.8,0-1.2,0-3.2-1-6.5-2.9-9.2-1.3-2-3.6-3.5-6-3.7"/>
      <path class="cls-1" d="m107.2,31c23.5-7.6,23.2-8.6,46.7-16.2"/>
      <path class="cls-1" d="m109.4,41.6c15.3-.7,15.3-.9,30.7-1.5"/>
      <path class="cls-7" d="m74.6,17.3c-.6,5.4-21.2,15.3-27.4,14.6s-10.7-5.6-10.1-11c.6-5.4,6.1-9.2,12.2-8.5,6.2.7,25.9-.5,25.3,4.9"/>
      <path class="cls-7" d="m45.1,33.5c.4,4.4-3.4,8.2-8.4,8.7-5,.4-9.7-2.7-9.7-7.1,0-6.2,7.9-9,12.9-9.4,5-.4,4.8,3.5,5.2,7.9"/>
      <path class="cls-7" d="m46.2,43c.3,3.9-3,7.3-7.5,7.7-4.4.4-8.3-2.5-8.7-6.3-.3-3.9,3-7.3,7.5-7.7,4.4-.4,8.3,2.5,8.7,6.3"/>
      <path class="cls-7" d="m72.9,56.9c.3,3.4-11.5,7.4-15.3,7.7-3.8.3-23.2-3.8-23.2-12s2.6-6.3,6.5-6.7c3.8-.3,31.8,7.6,32.1,10.9"/>
      <path class="cls-2" d="m44,47.4c16.4-.5,16.4-9.2,10.6-10.2-10.6-2-18.9,1.8-19,1.8,3.6-1.3,8.7-3.1,19-1.8,3.8.5,8.5-1,8.9-5,1.9-9.7-17.9-6.7-19.8-6.7"/>
      <path class="cls-7" d="m42.8,55.6s14.8,1.7,14.3-4c-.7-7.8-14.4-4.9-14.4-4.9"/>
      <path class="cls-2" d="m42.8,55.6s14.8,1.7,14.3-4c-.7-7.8-14.4-4.9-14.4-4.9"/>
      <path class="cls-7" d="m56.7,20.6c-4.2,3.8-7.3,7.4-4,10.4,3.3,3,8.8,1.4,16.8-8.1"/>
      <path class="cls-2" d="m56.7,20.6c-4.2,3.8-7.3,7.4-4,10.4,3.3,3,8.8,1.4,16.8-8.1"/>
      <path class="cls-6" d="m47.9,109.5c0,3.5-2.9,6.4-6.4,6.4s-6.4-2.9-6.4-6.4,2.9-6.4,6.4-6.4,6.4,2.9,6.4,6.4"/>
      <path class="cls-6" d="m104.4,119.1c0,2.5-2,4.5-4.5,4.5s-4.5-2-4.5-4.5,2-4.5,4.5-4.5,4.5,2,4.5,4.5"/>
    </g>
  </g>
</svg>