<?xml version="1.0" encoding="UTF-8"?>
<svg id="_レイヤー_2" data-name="レイヤー 2" xmlns="http://www.w3.org/2000/svg" viewBox="0 0 151.3 229.8">
  <defs>
    <style>
      .cls-1 {
        stroke-width: 1.4px;
      }

      .cls-1, .cls-2 {
        stroke-linecap: round;
        stroke-linejoin: round;
      }

      .cls-1, .cls-2, .cls-3, .cls-4 {
        fill: none;
      }

      .cls-1, .cls-3, .cls-4 {
        stroke: #221815;
      }

      .cls-5 {
        fill: #0083c9;
      }

      .cls-6 {
        fill: #ebcb32;
      }

      .cls-7 {
        fill: #fff;
      }

      .cls-8 {
        fill: #e84572;
      }

      .cls-9 {
        fill: #7f2583;
      }

      .cls-10 {
        fill: #221815;
      }

      .cls-2 {
        stroke: #e84572;
        stroke-width: 1.2px;
      }

      .cls-3 {
        stroke-width: 5.3px;
      }

      .cls-3, .cls-4 {
        stroke-miterlimit: 10;
      }

      .cls-4 {
        stroke-width: 2.9px;
      }
    </style>
  </defs>
  <g id="_レイヤー_1-2" data-name="レイヤー 1">
    <g>
      <g>
        <path class="cls-3" d="m35.6,143.9s-30,24.7-1,50.7"/>
        <path class="cls-6" d="m29.8,203l4.1-3.8-3.5-4.1,5.2-4.9,3.7,3.9,7.6,8.1-5.4,5-4.1,3.8c-2.2,2.1-5.8,2-7.9-.3-2.1-2.2-2-5.8.3-7.9"/>
        <path class="cls-3" d="m50.2,154.4s20.4,29.3,12.1,58.7"/>
        <path class="cls-6" d="m51.7,215.2l5.3,1.7,1.8-5,6.8,2.2-1.6,5.1-3.4,10.6-7-2.2-5.3-1.7c-2.9-.9-4.6-4.1-3.6-7,.9-2.9,4.1-4.6,7-3.6"/>
        <path class="cls-9" d="m86.2,126.1c-.2-1.7-.9-3.4-2.2-4.7-2.8-2.7-5.6-1.3-8.6.4,2.3-3.6,1.7-8.8-1.5-11.6-3.2-2.8-8.5-2.9-11.7-.1,2.2-3.4,1.4-8.5-1.8-10.9-3.2-2.4-8.5-1.6-10.6,1.8,3.2-13.5,5.7-12.4,8.9-26,1-4.2,2-8.7.4-12.7-1.4-3.6-5.5-6.2-9.3-4.9-4.6,1.6-5.8,7-6.5,11.2-3.8,22.6-6.9,30.5-10.6,53.1-.2,1.2-.4,2.5-1.3,3.3-.6.6-1.5.9-2.4,1.2-2,.6-4,1.3-5.9,1.9-1.9.6-4.3,1.2-5.6-.6-1-1.3-.7-3.1.3-4.3,2.2-2.7,5.7-2.8,8.4-4.4,2.8-1.7,4.5-4.9,4.8-8.2,0,0,0,0,0,0,.4-4.8-5-8.1-9.2-5.8-5.4,3-10.4,6.6-14.3,11.3-5.5,6.7-8.4,16.2-5.4,24.3,2,5.5,5.7,12.6,10.7,15.6,5,3,10.5,4.9,16,6.8,6.1,2.1,12.3,4.3,18.7,5.2,6.4.9,13.2.4,18.9-2.7,8.7-4.6,14.5-17.3,17.8-26.2,1.4-3.9,1.9-6.6,2.2-10.8,0-.8,0-1.6,0-2.4"/>
        <path class="cls-9" d="m48.2,103.5s-9.6,13.1-2.1,17.7c0,0,4.3,1.8,7,2.1"/>
        <path class="cls-2" d="m48.2,103.5s-9.6,13.1-2.1,17.7c0,0,4.3,1.8,7,2.1"/>
        <path class="cls-7" d="m51.1,134c2.7-2.2,6.7-1.8,8.9.9,2.2,2.7,5.8,6.5,3.1,8.7-2.7,2.2-9.9-1.8-13-2.7-3.3-1-1.6-4.7,1.1-6.9"/>
        <path class="cls-10" d="m49.9,136.6c1.3-1,3.1-.8,4.1.4,1,1.3.8,3.1-.4,4.1-1.3,1-3.1.8-4.1-.4-1-1.3-.8-3.1.4-4.1"/>
        <path class="cls-8" d="m54.4,130.6s-5.5,1-3.6,3.3c2.5,3.1,12.2,5,12.2,5,0,0,0-9.2-8.6-8.3"/>
        <path class="cls-7" d="m32.9,128.8c2.7-2.2,6.7-1.8,8.9.9,2.2,2.7,5.8,6.5,3.1,8.7-2.7,2.2-9.9-1.8-13-2.7-3.3-1-1.6-4.7,1.1-6.9"/>
        <path class="cls-10" d="m31.6,131.4c1.3-1,3.1-.8,4.1.4,1,1.3.8,3.1-.4,4.1-1.3,1-3.1.8-4.1-.4-1-1.3-.8-3.1.4-4.1"/>
        <path class="cls-8" d="m36.2,125.4s-5.5,1-3.6,3.3c2.5,3.1,12.4,5.2,12.4,5.2,0,0-.2-9.3-8.7-8.4"/>
        <path class="cls-9" d="m60.7,111.5s-10.9,10-6.8,17.7c4.1,7.7,11.8,4.7,11.8,4.7"/>
        <path class="cls-2" d="m60.7,111.5s-10.9,10-6.8,17.7c4.1,7.7,11.8,4.7,11.8,4.7"/>
        <path class="cls-9" d="m73.4,124.4s-11.1,10.4-9.6,16.5c1.5,6.1,13-1.3,13-1.3"/>
        <path class="cls-2" d="m73.4,124.4s-11.1,10.4-9.6,16.5c1.5,6.1,13-1.3,13-1.3"/>
        <path class="cls-9" d="m66.4,143.2s-13.3-.7-16.4,6.4c-3.1,7.1-1.3,11.1-1.3,11.1"/>
        <path class="cls-2" d="m66.4,143.2s-13.3-.7-16.4,6.4c-3.1,7.1-1.3,11.1-1.3,11.1"/>
        <path class="cls-10" d="m32.5,149.6l14.4-3.5s-2.6,14.3-14.4,3.5"/>
        <path class="cls-10" d="m58.8,94.1c2,5.4-.8,11.4-6.2,13.4-5.4,2-11.4-.8-13.4-6.2-2-5.4.8-11.4,6.2-13.4,5.4-2,11.4.8,13.4,6.2"/>
        <path class="cls-10" d="m35.2,102.8c2,5.4-.8,11.4-6.2,13.4-5.4,2-11.4-.8-13.4-6.2-2-5.4.8-11.4,6.2-13.4,5.4-2,11.4.8,13.4,6.2"/>
        <path class="cls-4" d="m33.2,103.2s1.9-4.6,8.4-3.1"/>
        <path class="cls-7" d="m22.7,99.1l-3.2,6.5c-.1.3,0,.7.3.8.3.1.6,0,.8-.3l3.2-6.5c.1-.2,0-.5-.1-.7-.3-.3-.8-.2-1,.2"/>
        <path class="cls-7" d="m25.8,99.9l-4.9,10.2c-.2.5,0,1,.4,1.2.5.2,1,0,1.2-.4l4.9-10.2c.2-.4.1-.8-.2-1.1-.5-.4-1.2-.3-1.5.3"/>
        <path class="cls-7" d="m46,90.4l-3.2,6.5c-.1.3,0,.7.3.8.3.1.6,0,.8-.3l3.2-6.5c.1-.2,0-.5-.1-.7-.3-.3-.8-.2-1,.2"/>
        <path class="cls-7" d="m49,91.3l-4.9,10.2c-.2.5,0,1,.4,1.2.5.2,1,0,1.2-.4l4.9-10.2c.2-.4.1-.8-.2-1.1-.5-.4-1.2-.3-1.5.3"/>
      </g>
      <g>
        <line class="cls-1" x1="13.2" y1="63.2" x2="16.8" y2="38.5"/>
        <line class="cls-1" x1="7.6" y1="44.2" x2="19.1" y2="57.9"/>
        <line class="cls-1" x1="6.2" y1="59.5" x2="25.1" y2="44.4"/>
        <line class="cls-1" x1=".7" y1="49.6" x2="29.5" y2="54"/>
      </g>
      <g>
        <polygon class="cls-7" points="151.3 45.3 123.1 36.6 136.2 51.3 151.3 45.3"/>
        <polygon class="cls-6" points="107.1 37.6 80.9 60.1 92.7 36.6 107.1 37.6"/>
        <polygon class="cls-5" points="102.2 0 108 12.6 91 24.9 102.2 0"/>
      </g>
    </g>
  </g>
</svg>