<?xml version="1.0" encoding="UTF-8"?>
<svg id="_レイヤー_2" data-name="レイヤー 2" xmlns="http://www.w3.org/2000/svg" viewBox="0 0 106.3 139.8">
  <defs>
    <style>
      .cls-1 {
        stroke: #221815;
      }

      .cls-1, .cls-2 {
        fill: none;
        stroke-linecap: round;
        stroke-linejoin: round;
        stroke-width: 1.4px;
      }

      .cls-2 {
        stroke: #e84572;
      }

      .cls-3 {
        fill: #ebcb32;
      }

      .cls-4 {
        fill: #fff;
      }

      .cls-5 {
        fill: #7f2583;
      }

      .cls-6 {
        fill: #221815;
      }
    </style>
  </defs>
  <g id="_レイヤー_1-2" data-name="レイヤー 1">
    <g>
      <path class="cls-5" d="m92.5,114.2l-.3,3.2h-5c-2.8-.2-5.1,2-5.2,4.7,0,2.8,2.1,5.1,4.9,5.2h5c0,.1,6.6.3,6.6.3l.3-12.9-6.4-.5Z"/>
      <path class="cls-6" d="m98.8,114.7l-6.4-.6c2.2-25-7.2-27.6-7.3-27.6l1.2-6.3c1.6.3,15.3,3.5,12.5,34.5"/>
      <path class="cls-5" d="m67.5,125l-1.8,2.7-4.3-2.5c-2.4-1.4-5.5-.6-6.9,1.8-1.4,2.4-.6,5.5,1.8,6.9l4.4,2.5,5.8,3.3,6.3-11.2-5.3-3.5Z"/>
      <path class="cls-6" d="m72.9,128.5l-5.4-3.5c13.8-20.9,6.8-27.7,6.7-27.8l4.1-5c1.3,1,11.7,10.4-5.4,36.3"/>
      <path class="cls-3" d="m68.6,30.6c-6.4-7-13.4-2.5-13.9,2.7-5.8-3.6-11.6.1-12.2,4.5-1.2-.4-2.5-.3-3.9,0-5.7,1.5-9.5,7.1-9.1,13,1,16.4,7.3,39.7,24.4,46.2,22.6,8.5,49.1-11.1,44.4-35.8-1.7-9.2-5.9-19.9-11.7-27-2.6-3.2-14.9-12.6-18.1-3.7"/>
      <path class="cls-6" d="m.3,80.7c.6.9,1.8,1.3,2.8.7,0,0,9.5-6.1,9.5-6.1.6-.3,1.3,0,1.6.4.4.6.2,1.3-.4,1.7l-9.3,5.9c-.9.6-1.2,1.7-.8,2.6,0,.1,0,.2.1.3h0s0,0,0,0c0,0,0,0,0,0,0,0,.1.2.2.3.7.8,1.8.9,2.7.4l9.3-5.9c.6-.4,1.3-.2,1.7.4.3.5.2,1.3-.3,1.6,0,0-9.5,6-9.5,6.1-.9.7-1.1,1.9-.5,2.8.6,1,1.9,1.3,2.9.7l12.4-7.9c.4-.3,1.3-.9,1.8-2.3l1.3-4.1c.5-1.9,1.6-3.5,3.2-4.5l18.7-11.8c.9-.6,1.2-1.8.6-2.8l-.5-.8h0s-.5-.8-.5-.8c-.6-.9-1.8-1.2-2.8-.6l-18.7,11.8c-1.6,1-3.6,1.4-5.5,1l-4.2-.5c-1.5-.2-2.4.3-2.9.6l-12.4,7.9c-1,.6-1.3,1.9-.7,2.9"/>
      <polyline class="cls-1" points="86.6 65.3 81.7 68.5 84.7 63.1"/>
      <polyline class="cls-1" points="58.8 72.8 64.3 75.8 58.6 75.7"/>
      <path class="cls-4" d="m72.3,73.4c2.4,2.3,2.5,6.1.2,8.5-2.3,2.4-6.1,2.5-8.5.2-2.4-2.3-2.5-6.1-.2-8.5s6.1-2.5,8.5-.2"/>
      <path class="cls-6" d="m67.4,76c1.2,1.1,1.3,3,.1,4.2-1.1,1.2-3,1.3-4.2.1-1.2-1.1-1.3-3-.1-4.2,1.1-1.2,3-1.3,4.2-.1"/>
      <path class="cls-4" d="m84,67.1c2.4,2.3,2.5,6.1.2,8.5-2.3,2.4-6.1,2.5-8.5.2-2.4-2.3-2.5-6.1-.2-8.5,2.3-2.4,6.1-2.5,8.5-.2"/>
      <path class="cls-6" d="m79,69.8c1.2,1.1,1.3,3,.1,4.2-1.1,1.2-3,1.3-4.2.1-1.2-1.1-1.3-3-.1-4.2,1.1-1.2,3-1.3,4.2-.1"/>
      <path class="cls-3" d="m87,70l-27,14.6s27.4-.3,27-14.6"/>
      <path class="cls-6" d="m70.2,86l15.2-10.1s.7,17.4-15.2,10.1"/>
      <path class="cls-3" d="m44.5,39.6c6.8,4.2,10.8,12.3,10,20.2l-9.8,7.4s-7.1-20.1-7.6-12.9"/>
      <path class="cls-2" d="m44.5,39.6c6.8,4.2,10.8,12.3,10,20.2l-9.8,7.4s-7.1-20.1-7.6-12.9"/>
      <path class="cls-2" d="m78.1,56.1c1.5,4,6.3,4.5,8.9,1.2,5.1-6.6,1.9-15.2.3-18.4"/>
      <path class="cls-2" d="m71.1,33c4.9,4.8,8,11.9,7.8,18.8,0,3.1-1.3,6.4-3.8,8.2-2.5,1.8-6.2,2.1-8.1-.4"/>
      <path class="cls-2" d="m57.2,34.6c5,2.9,8.7,8.3,10.2,13.8,1.4,5.1.8,13.6-5.4,15.4-1.6.5-3.6,0-4.5-1.5"/>
      <path class="cls-3" d="m45.9,82.9c-4.8-2.2-6.2-8.8-3.4-16.5,3-8,8.8-21,14.1-16.9,7.5,5.8-4.2,20.9-4.2,20.9"/>
      <path class="cls-2" d="m45.9,82.9c-4.8-2.2-6.2-8.8-3.4-16.5,3-8,8.8-21,14.1-16.9,7.5,5.8-4.2,20.9-4.2,20.9"/>
      <line class="cls-1" x1="80.8" y1=".7" x2="76.2" y2="19"/>
      <line class="cls-1" x1="60.6" y1="4.1" x2="63.6" y2="17.4"/>
      <line class="cls-1" x1="86.6" y1="20.8" x2="98.4" y2="10.8"/>
      <line class="cls-1" x1="96.6" y1="30.1" x2="105.6" y2="29.2"/>
      <line class="cls-1" x1="48.8" y1="12.4" x2="54.7" y2="19"/>
    </g>
  </g>
</svg>