<?xml version="1.0" encoding="UTF-8"?>
<svg id="_レイヤー_2" data-name="レイヤー 2" xmlns="http://www.w3.org/2000/svg" viewBox="0 0 101.9 120.8">
  <defs>
    <style>
      .cls-1 {
        stroke: #1e65a9;
      }

      .cls-1, .cls-2, .cls-3 {
        fill: none;
        stroke-linecap: round;
        stroke-linejoin: round;
        stroke-width: 1.1px;
      }

      .cls-2 {
        stroke: #221815;
      }

      .cls-3 {
        stroke: #e73c71;
      }

      .cls-4 {
        fill: #ebcb32;
      }

      .cls-5 {
        fill: #fff;
      }

      .cls-6 {
        fill: #e73c71;
      }

      .cls-7 {
        fill: #221815;
      }

      .cls-8 {
        fill: #1c68ac;
      }
    </style>
  </defs>
  <g id="_レイヤー_1-2" data-name="レイヤー 1">
    <g>
      <path class="cls-7" d="M23.6,111.6l-2.5-3.5c.1,0,11.9-8.8,18.8-21.7l3.8,2c-7.4,13.8-19.5,22.7-20.1,23.1"/>
      <path class="cls-8" d="M18.5,105.8l2.2,2.6,2.6-2,2.8,3.3-2.5,2.1-5.2,4.3-2.9-3.4-2.2-2.6c-1.2-1.4-1-3.6,.4-4.8,1.4-1.2,3.6-1,4.8,.4"/>
      <path class="cls-7" d="M9.6,97.1l-1.3-4.1c.1,0,14.1-4.5,24.8-14.4l2.9,3.2c-11.5,10.6-25.9,15.2-26.5,15.4"/>
      <path class="cls-8" d="M6.5,90l1.2,3.1,3.1-1,1.6,4-3,1.2-6.3,2.4-1.6-4.2-1.2-3.1c-.7-1.7,.2-3.7,1.9-4.4,1.7-.7,3.7,.2,4.4,1.9"/>
      <path class="cls-8" d="M74.7,115.4l3.2-2.9c0-.1-9.9-11-14.1-24.9l-4.1,1.3c4.5,15,14.7,26.1,15.1,26.6"/>
      <path class="cls-7" d="M80.8,110.6l-2.6,2.1-2.1-2.4-3.4,2.7,2,2.5,4.2,5.3,3.5-2.8,2.6-2.1c1.5-1.2,1.7-3.3,.5-4.7-1.2-1.5-3.3-1.7-4.7-.5"/>
      <path class="cls-8" d="M91.3,104l2.1-3.8c-.1,0-12.9-7.2-21.5-19l-3.5,2.5c9.1,12.7,22.3,20,22.9,20.3"/>
      <path class="cls-7" d="M95.7,97.5l-1.8,2.8-2.8-1.6-2.3,3.6,2.7,1.7,5.7,3.6,2.4-3.8,1.8-2.8c1-1.6,.5-3.7-1-4.7-1.6-1-3.7-.5-4.7,1"/>
      <path class="cls-4" d="M77.8,55.8c.8-11.2,1-32.6-9.8-30.4-4.4-7.1-11.1-5.3-11.1-5.3l-.5,6.3-.5,6.1-1.9,22.6v1.5c-.1,0-3.1,34.3-3.1,34.3,0,0,23.1,1.1,28.7-11.3,5.1-11.2,4.4-21.8-1.7-23.7"/>
      <path class="cls-7" d="M59.6,79.4c.6,2.8,3.4,4.6,6.3,4,2.8-.6,4.6-3.4,4-6.3l-10.2,2.3Z"/>
      <path class="cls-8" d="M24.3,74.7c3.4,13.2,26.3,16,26.3,16l2.9-34.3v-1.5c.1,0,2.1-22.6,2.1-22.6l.5-6.1,.5-6.3s-6.3-2.9-11.9,3.3c-10.3-3.9-13.7,17.2-14.8,28.3-6.3,.8-8.8,11.1-5.7,23"/>
      <line class="cls-2" x1="63.3" y1="2.5" x2="61.4" y2="12.6"/>
      <line class="cls-2" x1="47.7" y1=".5" x2="49.9" y2="10.9"/>
      <line class="cls-2" x1="35.8" y1="9" x2="39.9" y2="16"/>
      <line class="cls-2" x1="23.4" y1="18.6" x2="29.5" y2="23.1"/>
      <line class="cls-2" x1="79.9" y1="10" x2="72.9" y2="17.7"/>
      <line class="cls-2" x1="90.2" y1="26.3" x2="80.9" y2="31.5"/>
      <path class="cls-1" d="M57.5,26.4s11.6-1.8,9.1,27.8"/>
      <path class="cls-3" d="M54.9,26.2s-11.2-3.7-13.7,25.9"/>
      <path class="cls-3" d="M54.4,32.3s-6-1.8-7.6,23.1"/>
      <path class="cls-1" d="M57,32.5s6.2-.8,3.5,24"/>
      <path class="cls-3" d="M43.9,24.6s-6.3,6.8-7.6,24.3"/>
      <path class="cls-3" d="M29.8,52.8s-.7,3.6-.5,6.1"/>
      <path class="cls-1" d="M68.3,26.7s5.4,7.8,3.7,25.3"/>
      <path class="cls-1" d="M77.4,56.9s0,3.7-.5,6.1"/>
      <polyline class="cls-2" points="70.9 62.4 71.3 65.3 73.5 63.2"/>
      <polyline class="cls-2" points="54.8 68.9 57.8 69.2 56.2 66.6"/>
      <path class="cls-5" d="M64.3,72.7c-.2,2.3-2.2,4-4.5,3.8-2.3-.2-4-2.2-3.8-4.5,.2-2.3,2.2-4,4.5-3.8,2.3,.2,4,2.2,3.8,4.5"/>
      <path class="cls-7" d="M60,73.6c0,1.1-1,1.8-2.1,1.7-1.1,0-1.8-1-1.7-2.1,0-1.1,1-1.8,2.1-1.7,1.1,0,1.8,1,1.7,2.1"/>
      <path class="cls-4" d="M64,74.9s-1-.7-3-.8c-2.6-.2-4.3,1.2-4.3,1.2,0,0,3.8,4,7.3-.4"/>
      <path class="cls-5" d="M74.9,69.7c-.2,2.3-2.2,4-4.5,3.8-2.3-.2-4-2.2-3.8-4.5,.2-2.3,2.2-4,4.5-3.8,2.3,.2,4,2.2,3.8,4.5"/>
      <path class="cls-7" d="M70.6,70.5c0,1.1-1,1.8-2.1,1.7-1.1,0-1.8-1-1.7-2.1,0-1.1,1-1.8,2.1-1.7,1.1,0,1.8,1,1.7,2.1"/>
      <path class="cls-4" d="M74.6,71.9s-1-.7-3-.8c-2.6-.2-4.3,1.2-4.3,1.2,0,0,3.8,4,7.3-.4"/>
      <path class="cls-2" d="M40.9,81.3c2.2,.2,4.2-1.5,4.4-3.7"/>
      <path class="cls-5" d="M32.7,62.8c1.9-1.2,4.5-.7,5.7,1.2,1.2,1.9,.7,4.5-1.2,5.7-1.9,1.2-4.5,.7-5.7-1.2-1.2-1.9-.7-4.5,1.2-5.7"/>
      <path class="cls-7" d="M36,65.6c.9-.6,2.1-.3,2.7,.6,.6,.9,.3,2.1-.6,2.7-.9,.6-2.1,.3-2.7-.6-.6-.9-.3-2.1,.6-2.7"/>
      <path class="cls-6" d="M31.4,62.8l8,2.6s-1.3-10.8-8-2.6"/>
      <path class="cls-5" d="M41.6,66.7c1.9-1.2,4.5-.7,5.7,1.2,1.2,1.9,.7,4.5-1.2,5.7-1.9,1.2-4.5,.7-5.7-1.2-1.2-1.9-.7-4.5,1.2-5.7"/>
      <path class="cls-7" d="M44.8,69.6c.9-.6,2.1-.3,2.7,.6,.6,.9,.3,2.1-.6,2.7-.9,.6-2.1,.3-2.7-.6-.6-.9-.3-2.1,.6-2.7"/>
      <path class="cls-6" d="M40.2,66.7l8,2.6s-1.3-10.8-8-2.6"/>
      <line class="cls-2" x1="16.5" y1="31.1" x2="27" y2="33.9"/>
      <line class="cls-2" x1="83.3" y1="40" x2="90.7" y2="40.6"/>
      <line class="cls-2" x1="16.5" y1="47.9" x2="23.9" y2="46.3"/>
      <line class="cls-2" x1="82.7" y1="49.8" x2="86.3" y2="51.9"/>
    </g>
  </g>
</svg>