<?xml version="1.0" encoding="UTF-8"?>
<svg id="_レイヤー_2" data-name="レイヤー 2" xmlns="http://www.w3.org/2000/svg" viewBox="0 0 60.2 60.2">
  <defs>
    <style>
      .cls-1 {
        fill: #fff;
      }
    </style>
  </defs>
  <g id="_レイヤー_1-2" data-name="レイヤー 1">
    <g>
      <path class="cls-1" d="M43.1,0H17.1C7.7,0,0,7.7,0,17.1v26c0,9.4,7.7,17.1,17.1,17.1h26c9.4,0,17.1-7.7,17.1-17.1V17.1C60.2,7.7,52.5,0,43.1,0Zm12.7,43.5c0,6.8-5.6,12.4-12.4,12.4H16.8c-6.8,0-12.4-5.6-12.4-12.4V16.9c0-6.8,5.6-12.4,12.4-12.4h26.6c6.8,0,12.4,5.6,12.4,12.4v26.6Z"/>
      <path class="cls-1" d="M30.1,14.9c-8.4,0-15.3,6.9-15.3,15.3s6.9,15.3,15.3,15.3,15.3-6.9,15.3-15.3-6.9-15.3-15.3-15.3Zm0,26.3c-6,0-11-4.9-11-11s4.9-11,11-11,11,4.9,11,11-4.9,11-11,11Z"/>
      <path class="cls-1" d="M46.5,10.6c-1.7,0-3.1,1.4-3.1,3.1s1.4,3.1,3.1,3.1,3.1-1.4,3.1-3.1-1.4-3.1-3.1-3.1Z"/>
    </g>
  </g>
</svg>