<?xml version="1.0" encoding="UTF-8"?>
<svg id="_レイヤー_2" data-name="レイヤー 2" xmlns="http://www.w3.org/2000/svg" viewBox="0 0 505.4 225.6">
  <defs>
    <style>
      .cls-1 {
        fill: #f9dd96;
      }

      .cls-2 {
        fill: #f1b22d;
      }

      .cls-3 {
        fill: #eaa51c;
      }

      .cls-4 {
        fill: #ebcb32;
      }

      .cls-5 {
        fill: #e9a828;
      }

      .cls-6 {
        fill: #edab23;
      }

      .cls-7 {
        fill: #efefef;
      }

      .cls-8 {
        fill: #e73c71;
      }

      .cls-9 {
        fill: #65bbb1;
      }

      .cls-10 {
        fill: #221815;
      }

      .cls-11 {
        fill: #1c68ac;
      }

      .cls-12 {
        fill: none;
        stroke: #e9c72c;
        stroke-linecap: round;
        stroke-linejoin: round;
        stroke-width: 2.3px;
      }
    </style>
  </defs>
  <g id="_レイヤー_1-2" data-name="レイヤー 1">
    <g>
      <path class="cls-11" d="M0,171.4c-1.3,28.2,27.1,52.4,63.5,54.1,36.4,1.7,66.9-19.8,68.2-48,1.3-28.2-27.1-52.4-63.5-54.1C31.9,121.8,1.3,143.3,0,171.4"/>
      <path class="cls-9" d="M10.5,158.4c0-.2,.1-.3,.2-.5,.4-2.3-3.3-3.9-3.1-6.4,.3-3.3,3-2.3,5-3.5,2.9-1.8,1.6-4.1,4-6.6,2.6-2.7,5.4,.9,8.3,.2,3.4-.8,6.4-1.5,10.2-1.8,3.4-.2,3.5-9.1,9-7.8,5.5,1.2,9.5,6.7,15.1,7.5,2.7,.4,5.2,1.6,7.9,2.1,5.1,.9,10-.4,15.1,1.4,7.3,2.6,14.7-2.3,22.3-.4,1.3,.3,2.6,.8,3.4,1.8,1.6,2-.1,3.7-1.6,5-1.2,1-3.1,2.4-3,4.2,0,1.7,1.8,2.9,3.4,2.9,1.8,0,3.4-1.1,5.1-1.7,1.8-.6,3.7-.7,5.6-.4,.5,0,1.1,.2,1.5,.6,1.4,1.1,.8,3.4,0,5,.2,.9,1,1.5,1.9,1.7,.9,.3,1.8,.3,2.6,.6,1.4,.5,2.5,1.8,2.8,3.2,.3,1.4-.2,3-1.3,4-.6,.6-1.5,1-1.7,1.9-.2,.8,.3,1.6,1,2.1,.7,.5,1.5,.6,2.3,.9,1.4,.4,.8,2.9,0,3.7-.6,.6-1.6,.9-2.3,1.5-2.2,1.9,2.1,4.5,1,6.9-.3,.7-.7,1.1-1.2,1.4-1.8,1.1-6.5-3.4-9.9-4.7-1-.4-2.6-.4-2.7,.6,0,.4,.1,.7,.3,1,1,1.8,16.6,11.9,7.6,13.6-1,.2-2.1-.1-3.1-.1-4.6,0-2.6,8.7-8.7,7-1.6-.4-3-1.8-4.6-1.6-3.6,.4-2.6,6-6.7,6-1.3,0-2.5-.6-3.6-1.3-3.8-2.3-5.5,.5-9.1,1.9-4.2,1.7-10.2,3.5-14.8,1.9-2.7-.9-4.7-4.6-7.6-4.7-4-.1-5.9,5.7-10.5,3.8-3.1-1.3-2.3-4.5-4.3-6.4-2-1.9-4.6-.9-6.9-2-2.4-1.2-2.8-3.7-4.6-5.2-1.4-1.1-2.4-1-4.3-1.3-2.9-.6-7.2-.6-8.5-3.9-1.2-2.9,.7-6-.6-8.9-1.3-2.9-3.9-4.6-5.9-7-1.9-2.2-2.9-6.4-5.6-7.6-2.1-.9-5.2-2.9-4.9-5.6,.4-3.3,4.6-2.8,5.6-5.1"/>
      <path class="cls-7" d="M37.5,114c0-.4,0-.8,.2-1.2,.9-2.8,3.9-4.4,6.7-3.5,2.8,.9,4.4,3.9,3.5,6.7-.2,.8-.6,1.4-1.1,2l11.5,7.7-2.5,3.8-11.7-7.8c-1.2,2.1-3.8,3.2-6.2,2.5-2.8-.9-4.4-3.9-3.5-6.7,.5-1.6,1.7-2.8,3.1-3.4"/>
      <path class="cls-5" d="M90,145.5c-.2-9.9-6.8-18.5-14.1-23.7-6-4.2-13.7-2.9-20.5-1-2.2,.6-3.8,1.5-5.1,2.9-1.4,1.5-1.6,3.7-.8,5.7,1.1,2.9,.7,7.6,1.5,10.3,2.7,8.9,10.9,12.3,19.2,12.2l19.9-6.4Z"/>
      <path class="cls-5" d="M111.9,162.7c-1.7-5.9-4.6-11.5-8-13.7-3.1-2-6.9-3-10.1-5.1-13.8-8.9-33.8-21-48.5-2.4-5.7,7.2-12.6,22.3-9.3,31.7,2.5,7.2,7.2,14,12.3,18.6,4.3,3.8,11.7,3.7,17.1,4.6,9.4,1.7,23.9,4.2,33.6-.6,7.3-3.7,14-11.6,14.6-21.2,.2-3.3-.4-7.7-1.6-11.9"/>
      <path class="cls-7" d="M18.2,129.3c.1-.4,.3-.8,.5-1.1,1.6-2.5,4.9-3.2,7.4-1.6,2.5,1.6,3.2,4.9,1.6,7.4-.4,.7-1,1.2-1.6,1.6l9,10.5-3.5,3-9.1-10.7c-1.8,1.7-4.5,2.1-6.7,.7-2.5-1.6-3.2-5-1.6-7.4,.9-1.4,2.4-2.2,3.9-2.4"/>
      <path class="cls-5" d="M34.9,139.3c-9.4-1.4-10.4,15.3-10.7,21.5-.4,8.7,1.6,16.5,6.4,23.4,3.8,5.5,11.8,10.7,18.7,8.3,8.5-3,13.4-18.4,13.4-27,0-9.5-7.7-16.8-14.8-21.1-4-2.4-8.3-4.5-12.9-5.2"/>
      <path class="cls-12" d="M51.7,147.1s17,10.7,6.3,30.2"/>
      <path class="cls-12" d="M57.1,133.2s15.4-6.8,28.4,6.2"/>
      <path class="cls-11" d="M386.3,63.3c7.8,30.5-14.4,62.5-49.6,71.5-35.2,9.1-72.1-10.2-78-41-7.4-38.7,16.7-60.2,51.9-69.2,35.2-9.1,67.9,8.3,75.7,38.7"/>
      <path class="cls-3" d="M276.5,121.6s0,0,0,0c0,0,0,0,.1,0,0,0,0,0,0,0"/>
      <path class="cls-5" d="M306.8,73s-.2,0-.2,0c0-.1-.2-.3-.2-.4,0-.1,0-.3,0-.4,0-.1-.4,0-.5-.2-.1-.1-.3-.2-.4-.3,0,0,0-.4,0-.5-.2-.2-.7-.5-1-.7-1.7,.9-3.3,2.2-5.1,3.2-1.7,1-3.5,1.8-5.2,2.9-1.7,1.1-3.3,2.3-4.9,3.4-1.6,1.1-3.2,2.4-4.8,3.5-1.7,1.1-3.5,1.9-5.2,3-1.7,1.1-3.2,2.3-4.9,3.4-1.7,1-3.4,2.1-5.1,3.1-.5,.3-1,.4-1.4,.7-.2,.1-.3,.3-.5,.4-.1,0-.3,.1-.4,.2,0,0,0,0,0,0-2,1.6-1.6,2.9,.7,5.4,1,1.2,2.1,1.8,3.3,1.7,0,0,0-.3,0-.3,0,0,0,.1,0,.1,.5,0,1.1,0,1.6,0,0,0,0-.3,.2-.3,.4-.2,.9-.3,1.3-.5,.1,0,.3-.2,.4-.2,.4-.2,.7-.5,1.1-.8,.1,0,.3,0,.5-.1,.5-.3,1-.4,1.4-.7,1.8-1.1,3.4-2.3,5.2-3.4,1.7-1.1,3.4-2.4,5.1-3.5,1.7-1.2,3.4-2.3,5.1-3.5,1.7-1.2,3.2-2.6,4.9-3.8,1.6-1.3,3.4-2.4,5-3.7,1.6-1.3,3.1-2.7,4.7-4,0-1.1,0-2.2-.5-3.3,0,0,0,0,0,0,0,0-.2,0-.2,0,0,0,.2-.2,.2-.2"/>
      <path class="cls-5" d="M315.6,81.4c-1-.6-1-.5-2.1-.8-.4,.2-2.6,1.1-5.7,2.9-1.6,1-3.5,2.1-5.5,3.3-1.8,1.1-3.6,2.2-5.5,3.3-1.8,1.1-3.6,2.4-5.4,3.5-1.9,1.2-3.6,2.5-5.4,3.6-2,1.3-3.9,2.4-5.4,3.5-3,2-5.1,3.4-5.2,3.8,.6,2,1.2,2.5,1.8,3.8,.2,.4,1,2.2,2.3,2.6,.7,.2,1.9,.9,2.5,.7,0,0,0,0,0,0,0,0,.2,.3,.2,.3,2-1.2,3.7-2.8,5.5-4.3,1.8-1.5,3.7-2.8,5.5-4.4,1.8-1.6,3.4-3.3,5.2-4.7,1-.8,2.8-1.9,4.7-3.2,1.5-1,3-2.2,4.6-3.4,1.6-1.1,3.2-2.3,4.7-3.3,2.1-1.5,3.7-2.7,4.4-3.5-.3-.8-.7-3-1.2-3.8"/>
      <path class="cls-1" d="M282,111.6s0,0,0,0c0,0,0,0,.1,0,0,0,0,0-.1,0"/>
      <path class="cls-6" d="M312.4,102.8c2.2-1.7,3.8-3,4.1-3.3-.4,.2-2,1.5-4.1,3.3"/>
      <path class="cls-5" d="M320,91.4c0,0,0-.2-.1-.3,0-.1-.2-.2-.3-.3,0-.1,0-.3-.2-.5,0,0-.4,0-.5,0-.1-.2-.3-.3-.4-.5,0,0,0-.3,0-.3-.2-.2-.5-.3-.8-.5-1.7,.9-3.6,1.7-5.3,2.8-1.7,1-3.3,2.1-5,3.2-1.7,1.1-3.3,2.2-5,3.3-1.6,1.1-3.3,2.2-5,3.3-1.6,1.1-3.2,2.4-4.8,3.5-1.7,1.1-3.3,2.2-5,3.3-1.7,1.1-3.4,2-5.1,3-.5,.3-1.1,.3-1.4,.5-.2,.1-.4,.2-.5,.4-.1,0-.2,.4-.3,.4,0,0,0,0,0,0-2,1.6-1.7,3.1,.6,5.6,1.5,1.7,3.3,1.8,5.1,1.2,1.6-.5,3.2-1.8,4.7-2.8,1.8-1.1,3.5-2.1,5.3-3.2,1.7-1.1,3.6-2,5.3-3.2,1.7-1.2,3.2-2.6,4.8-3.9,1.7-1.2,3.5-2.3,5.1-3.5,1.6-1.3,3.2-2.7,4.8-4,1.6-1.3,3.2-2.7,4.7-4,0-1.1-.1-2.2-.6-3.3,0,0,.1,0,.1,0"/>
      <path class="cls-4" d="M315.7,78.7c0-.1-.1-.2-.2-.4-.1-.3-.2-.5-.4-.8-2,.1-3.9,.4-5.9,.6-2,.2-3.9,.5-5.9,.8-2,.3-3.9,.5-5.9,.8-2,.3-3.9,.7-5.9,1.1-2,.3-3.9,.5-5.9,.8-2,.3-3.9,.7-5.9,1-2,.3-3.9,.6-5.9,.7-.6,0-1.1,0-1.5,0-.2,0-.4,0-.5,0-.2,0-.4,0-.6,.1,0,0,.1,.4,.1,.4-2.5,.6-2.9,1.9-1.9,5,.5,1.5,1.4,2.5,2.5,3,0,0,0-.2,0-.2,0,0,0,0,0,0,.5,.2,.9,.4,1.5,.5,0,0,.2,.1,.2,.1,.5,0,.9,0,1.4,0,.2,0,.3,0,.5,0,.5,0,.9-.4,1.3-.4,.1,0,.3,.1,.4,.1,.5,0,1.1,0,1.6,0,2-.3,4.1-.6,6.1-.9,2-.3,4-.9,6.1-1.3,2-.4,4.1-.5,6.1-.9,2-.4,4-1.1,6-1.6,2-.5,4-1.1,6-1.6,2-.5,4-1,6-1.6,.4-1,.7-2,.7-3.2,0,0,.2,0,.2,0,0,0-.2,0-.2-.1,0,0,.3,0,.3-.1,0,0-.3,0-.3,0,0-.2,.3-.4,.2-.5,0-.1,0-.2,0-.3,0-.2-.2-.3-.3-.4,0-.2,0-.3-.1-.5"/>
      <path class="cls-4" d="M320.9,79.8c0-.1,0-.3-.1-.4-.2-.3-.5-.2-.8-.5-1.9,.6-3.9,.8-5.8,1.5-1.9,.7-3.7,1.5-5.5,2.2-1.8,.7-3.6,1.6-5.5,2.3-1.8,.7-3.8,1.2-5.6,2-1.8,.7-3.6,1.6-5.5,2.3-1.9,.7-3.8,1.3-5.6,2-1.9,.7-3.7,1.6-5.5,2.2-.5,.2-1.1,.1-1.5,.3-.2,0-.4,.1-.6,.2-.1,0-.1,.5-.2,.6,0,0-.2-.3-.2-.3-2.3,1.2-2.3,2.7-.6,5.6,.8,1.4,2,1.9,3.2,2.1,0,0,0,0,0,0,0,0,0,.1,0,.1,.5,0,1,0,1.6-.1,0,0,.2,0,.3,0,.4,0,.9,0,1.3-.2,.2,0,.4,0,.5,0,.4-.1,.8-.3,1.2-.4,.2,0,.4,0,.5-.1,.5-.2,1-.3,1.5-.4,1.9-.7,3.7-1.8,5.7-2.5,1.9-.7,3.9-1.4,5.8-2.2,1.9-.8,3.8-1.6,5.7-2.4,1.9-.9,3.8-1.7,5.6-2.6,1.9-.9,3.6-2.1,5.4-3.1,1.8-1,3.6-1.9,5.4-2.9,.2-1.1,.4-2.1,.2-3.2,0,0,0,0,0,0,0,0,0,0,0-.1,0,0,0,0,0,0,0,0,.2,0,.1,0,0,0,0,0,0,0,0-.2-.3-.2-.3-.4,0-.1-.1-.2-.2-.4,0-.1-.1-.2-.2-.4,0-.2,0-.5,0-.6"/>
      <path class="cls-4" d="M323.6,87.9c-1.1-.3-1.2,0-2.3,0-.4,.3-2,1.9-4.6,4.4-1.4,1.3-3,2.8-4.7,4.4-1.5,1.4-3.2,2.8-4.7,4.4-1.5,1.5-2.9,3.2-4.4,4.8-1.6,1.6-3.3,3-4.7,4.4-1.6,1.7-3.1,3.3-4.4,4.7-2.4,2.6-3.8,4.6-3.8,5,1,1.8,1.5,2.3,2.4,3.4,.3,.4,1.5,1.8,2.9,1.9,.7,0,2.1,.6,2.7,.2,0,0,0,0,0,0,0,0,.1,.2,.1,.2,1.7-1.6,3-3.6,4.4-5.4,1.4-1.8,2.8-3.8,4.1-5.7,1.3-1.9,2.9-3.7,4.3-5.5,.8-1,1.9-2.7,3.5-4.5,1.2-1.3,2.6-2.7,3.9-4.2,1.3-1.5,2.7-2.9,3.8-4.3,1.7-2,3-3.6,3.5-4.5-.5-.7-1.6-3-2.2-3.6"/>
      <path class="cls-1" d="M298,125.4s0,0,0,0c0,0,0,0,.1,0,0,0,0,0,0,0"/>
      <path class="cls-4" d="M320.7,85.1c-.4,.2-2.7,1.2-5.8,2.8-1.6,.9-3.5,2-5.5,3.1-1.8,1-3.7,1.9-5.6,3-1.8,1-3.6,2.2-5.5,3.3-1.9,1.1-3.8,2.2-5.5,3.2-2,1.2-3.9,2.2-5.5,3.2-3.1,1.8-5.2,2.9-5.4,3.3,.2,1.6,.6,2,1,3,.1,.3,.6,1.5,1.8,1.8,.6,.2,1.6,.9,2.2,.6,0,0,0,.2,.1,.2h0c2-1,3.8-2.5,5.8-3.8,1.9-1.3,3.8-2.5,5.7-3.9,1.9-1.4,3.7-2.7,5.6-4,1-.7,2.7-1.9,4.7-3.1,1.5-.9,3.2-1.9,4.9-2.9,1.7-1,3.3-2.2,4.7-3.1,2.2-1.4,3.9-2.5,4.6-3.1-.1-.6-.2-2.4-.5-2.9-.7-.7-.8-.6-1.8-.8"/>
      <path class="cls-2" d="M286.9,112.4s0,0,0,0c0,0,0,0,0,0,0,0,0,0,0,0"/>
      <path class="cls-5" d="M366.5,99.3c-.2,2.1-.8,3.9-1.9,5.3-1.1,1.5-2.5,2.9-4.8,3.3-2.2,.4-4.5,.4-6.7,.6-2.2,.2-4.5,0-6.7,0-2.2,0-4.5,0-6.7-.1-2.2-.2-4.5,0-6.7-.2-2.2-.2-4.4-.7-6.7-.9-1.9-.2-3.7-.3-5.6-.3-1.9,0-3.7-.1-5.6-.2-1.9-.1-3.6-.3-5.5-.8-2.1-.6-4.7-.8-6.8-1.6-2.3-.9-4.1-2.3-4.1-5,0-2.1,.1-4,.2-5.7,.1-2.2,.3-4,.9-5.6,.6-1.9,1.6-3.3,3.3-4.5,1.3-1,3-1.8,5.2-2.4,2-.6,4.2-1.3,6.6-1.7,2.2-.4,4.4-.7,6.8-1,2.2-.2,4.5,0,6.8-.2,2.3,0,4.6-.7,6.8-.6,2.3,0,4.6,.4,6.8,.7,2.4,.3,4.7,.8,6.7,1.4,1.4,.4,3.1,1.5,5,2.3,1.7,.7,3.5,1.3,5.1,2.2,1.9,1,3.5,2.1,4.7,2.9,3.3,2.5,2.1,3.8,3,7.8,.3,1.5,.1,2.9,0,4.4"/>
      <path class="cls-9" d="M357.8,78.6c4.1,0,4.2,.5,7.4,2.9,2.7,2,3.3,4.4,1.7,5.1-1.7,.6-2.1,1.1-2.4,2.3-.4,1.1-.4,2.9-4.1,2.7-3.7-.1-5.8,1.4-7.7,3.1-1.9,1.7-4.6,2-7.6,1.5-1.6-.3-3.3-.7-5.1-.7-1.6,0-3.1,.6-4.8,1.6-3.7,2.3-6.4,.9-8.1,.1-1-.5-2.8-1.6-4.9-1.9-1.6-.2-3.4,.2-5.1,1-4.2,1.9-7,1.4-7.8-.3-.8-1.7-3-2.9-7.1-2.6-4.1,.3-6.7-1.3-6.3-3.5,.3-2.2-2.7-.9-2.9-2.7-.2-1.3-.5-3.7,2.3-5.4,1.3-.8,3.3-1.3,6.2-1.5,1.3-.1,3.5-.2,6.3-.3,1.9,0,4-.4,6.3-.5,2,0,4.1,.3,6.3,.2,2,0,4.2,0,6.3,0,2.1,0,4.2-.3,6.3-.4,2.1,0,4.2,0,6.3,0,2.2,0,4.3-.5,6.3-.5,2.3,0,4.5-.2,6.3-.3,3.8,0,3.1,0,6.3,0"/>
      <path class="cls-8" d="M303,83.6c1.8,1.5,4,2.2,6.3,2.8,2.8,.7,5.6,1.2,8.4,1.9,2.2,.6,4.5,.8,6.8,.9,2.3,.2,4.6,.2,6.9,.2,2.3,0,4.6,.5,6.9,.6,2.3,.1,4.5,0,6.8,.2,2.3,.2,4.5,.3,6.8,.3,2.2,0,4.5,.2,6.8,0,1.6-.2,3.6-.1,4.9-1.2,.9-.8,1.3-2.7,1.5-5,.2-1.7,.7-3.7,.5-5.4-.2-2.3-.5-4.4-1.1-5.3,.2,0-3.1,0-7.1-.2-2.2-.1-4.6-.7-6.9-.8-2.6-.2-5-.2-6.9-.4-2.2-.3-4.4-.2-6.6-.5-2.2-.3-4.3-1.1-6.5-1.5-2.2-.3-4.4-.4-6.6-.8-1.8-.3-3.5-.6-5.3-.9-1.7-.4-3.4-1-5.2-1.4-2.3-.6-4.5-1.2-6.8-1.7-3.4-.6-6.3,.4-6.9,3.4-.3,1.6-.2,4.7,.3,7.8,.6,3.1,1.7,5.8,3.1,7"/>
      <path class="cls-4" d="M297.7,71.3c.6-1.6-1.6-2.6-1.9-4.2-.5-2.3,1.7-6.4,4.1-7.6-.1-.2,2.2,.9,4.6,1.9,2,.9,4.1,1.7,4.7,1.7,2.6,.2,5.1,1.1,7.8,1.3,1.8,.2,4,.1,6.3,.1,2,0,4.1-.3,6.3-.4,2,0,4.1,0,6.3-.1,2.1,0,4.2-.3,6.3-.4,2.1-.1,4.2,.1,6.3,0,2.2-.1,4.3-.1,6.3-.2,2.2,0,4.3-.3,6.3-.3,2.3,0,2.1,0,4,0,.5,0,.7,.3,.5,.6,2.5,1.1,4.4,6.3,2.9,8.1-1.1,1.3-2.8,2.3-4.3,3.2-.8,.5-3.3,.6-6.2,.6-2,0-4.2,0-6.2,0-2.9,0-5.2,.6-5.9,1.2-2.2,1.9-.8,3.6-.4,6.1,.2,1.2,.4,4-1.5,4.7-1.8,.7-3.6,1-5.7-1.4-1-1.1-.3-4,0-5,.3-1.1,1.1-3.4,.2-4.1-2.7-2.1-3.7,1.6-4.1,2.9-.2,.5,0,2.6-1.4,2.8-2,.4-2.1-4.5-3.5-5.3-2.1-1.2-3.8-.8-5.1-.1-1.6,.9-3,2.6-4.8,2.1-3.1-.9-4.6-2.7-5.4-4.3-1.2-2.3-1.1-4.8-3.7-5.4-1.3-.3-2.7,0-3.8,.7-1.6,.9-3,2-4.8,2.4-.4,0-1.2,.7-1.3,1.3-.3,1.1,.5,3.4-.5,4.3-1.1,1.1-2.5-1.7-2.5-3.4s.1-3.1,.4-4"/>
      <path class="cls-8" d="M361.5,55.8c-3.6,.3-1.7,1.6-6.7,2.8-1.9,.5-4.1,1.5-7,1.8-2.1,.2-4.5,.1-7.2,.1-2.2,0-4.5-.2-7.2-.4-2.1-.1-4.2-.2-6.1-.4-2.2-.2-4.2-.4-6.1-.6-2.2-.2-4.3-.1-6.1-.4-2.3-.4-4.2-.9-6-1.3-2.4-.5-4.3-1.4-5.9-1.8-4.2-1.3-5-5.5-5.8-2.1-.2,7.8-2.5,6.7,.7,10.6,2,.6,4,1.3,6.1,1.7,2.1,.4,4.2,.4,6.3,.7,2.1,.3,4.2,1,6.3,1.2,2.1,.2,4.3,.3,6.4,.4,2.2,.1,4.3,0,6.4,.1,2.2,0,4.3,0,6.4,0,2.2,0,4.3,0,6.4,0,2.3,0,4.4-.2,6.4-.3,2.4-.2,4.6,.2,6.4,0,3.6-.4,5.6-1.5,6-1.9,.8-.7,2-4.4,2-6.5,0-2-.2-3.8-1.8-3.7"/>
      <path class="cls-5" d="M295.9,46.1c.4-.9,.8-1.8,1.4-2.6,1.9-2.8,4.5-5.1,7.4-6.8,3.1-1.9,6.1-2.8,9.7-3.7,7.7-1.8,15.7-2.5,23.6-2.2,7.2,.3,14.6,1.6,20.5,5.5,2.4,1.6,4.6,3.7,6.3,6,.8,1.1,1.5,2.2,1.8,3.5,.4,1.4,.3,2.9,.2,4.4,0,1.1-.2,2.3-.6,3.3-.9,1.9-2.9,3-4.9,3.9-7.3,3-15.3,3.6-23.2,4.1-4.9,.3-9.8,.6-14.7,.8-3.2,.2-6.5,.3-9.7-.1-3.1-.4-6.1-1.4-9.2-1.6-2.6-.2-5.4,0-7.4-1.7-.9-.8-1.5-1.8-1.9-2.9-1.2-3.2-.8-6.8,.5-9.9"/>
      <path class="cls-4" d="M338.2,48.8h0c.4-.3,.9-.4,1.5-.3,.9,.2,1.8,.8,2.3,1.8,.1,.2,.4,.8,.2,1.3-.1,.3-.4,.4-.7,.6-.2,0-.4,0-.6,0-.5,0-1.1,0-1.8-.3-.9-.3-1.6-1-1.8-1.7-.1-.6,.2-1.1,.7-1.5"/>
      <path class="cls-4" d="M331.6,33.6c.4-.3,.9-.4,1.5-.3,.9,.2,1.8,.8,2.4,1.8,.1,.2,.4,.8,.2,1.3-.1,.3-.3,.5-.7,.6-.2,0-.4,0-.6,0-.5,0-1.1,0-1.8-.3-.9-.3-1.6-.9-1.7-1.7-.1-.6,.2-1.1,.7-1.5"/>
      <path class="cls-4" d="M352.3,39.6c.5-.2,1.1,0,1.5,.1h0c.6,.3,.9,.8,.9,1.4,0,.7-.7,1.5-1.5,1.9-.7,.3-1.3,.4-1.7,.5-.2,0-.4,0-.6,0-.3,0-.6-.2-.8-.5-.3-.5,0-1,0-1.3,.4-1,1.2-1.8,2.1-2.1"/>
      <path class="cls-4" d="M323.9,41.5c.9-.5,2.4-.8,3.2-.6,.7,.2,.8,.6,.9,.8,.2,.8-1,1.7-1.6,2.1-.3,.2-.7,.4-1.2,.4-.4,0-.8,0-1.1-.1-.7-.2-1-.7-1.1-1.2,0-.5,.3-1,.9-1.4"/>
      <path class="cls-4" d="M317.3,35.7c0-.5,.3-1,.9-1.4,.9-.5,2.4-.8,3.2-.6,0,0,0,0,0,0,.7,.2,.9,.6,.9,.8,.2,.8-1,1.8-1.5,2.1-.3,.2-.8,.3-1.2,.3-.4,0-.8,0-1.1-.1-.7-.2-1.1-.7-1.1-1.2"/>
      <path class="cls-4" d="M326.7,48.6c.8-.3,2.3-.3,3.3,.1,.6,.3,1,.8,1,1.3,0,.5-.3,1-1,1.3-.3,.2-.7,.2-1.1,.3-.5,0-.9,0-1.3-.2-.6-.3-1.8-1.1-1.8-1.9,0-.2,.1-.6,.8-.9"/>
      <path class="cls-4" d="M308.1,38.8c.8-.3,2.3-.3,3.3,.2,.6,.3,1,.7,1,1.3,0,.5-.3,1-.9,1.3-.3,.2-.7,.3-1.1,.3-.5,0-.9,0-1.3-.2-.7-.4-1.9-1.1-1.8-1.9,0-.2,.2-.7,.8-.9"/>
      <path class="cls-4" d="M343.2,35.7c0,.8,1.1,1.5,1.8,1.9,.3,.2,.8,.3,1.3,.3,.4,0,.8-.1,1.1-.3,.6-.3,1-.8,.9-1.3,0-.5-.4-1-1-1.3-.9-.4-2.5-.5-3.3-.1-.7,.3-.8,.7-.8,.9m1.1-.4h0s0,0,0,0c0,0,0,0,0,0"/>
      <path class="cls-4" d="M339.6,43.4c-.2,0-.4,.1-.6,.1-.5,0-1-.1-1.4-.5-.5-.5-.9-1.4-.5-2.2,.3-.5,.9-.8,1.6-.9,1,0,1.5,.3,1.8,.6,.4,.5,.4,1.1,.3,1.4-.3,.7-.8,1.2-1.3,1.4"/>
      <path class="cls-4" d="M318,46.7c1,0,1.5,.3,1.8,.6,.4,.5,.4,1.1,.3,1.4-.3,.7-.7,1.2-1.2,1.4-.2,0-.4,0-.6,.1-.5,0-1-.1-1.4-.5-.5-.5-.9-1.4-.5-2.1,.3-.5,.8-.8,1.6-.9"/>
      <path class="cls-11" d="M381.5,23.7c-.3,22.2,21,40.2,44.7,54.4,23.7,14.3,64.5,21.2,75.7,2.6,11.2-18.6-6.1-43.9-29.9-58.2-23.7-14.3-89.9-43.4-90.6,1.1"/>
      <path class="cls-7" d="M391.6,34.2c0-2.1,.3-4.2,1-5.7,.6-1.3,1.9-3.6,2.9-4.6,1.1-1.2,.8-1.5,2.2-2.9,1.6-1.6,2.9-4.2,5.2-4.3-.5-2.1,2.2-4.5,3.5-6.2,.8-1.2,2-2.2,2.8-3.4,.7-.9,1.7-1.4,2.7-1.8,1.8-.6,3.7-.3,5.2-.8,3.1,0,5.3,1.2,7.1,3.5,.3,.4,.6,.7,1.2,.8,1.6,.3,2.8,1.2,3.8,2.5,.3,.4,1.4,4.8,1.5,5.3,0,.3,.2,.6,.1,.9,.3,.4,.7,1,1.1,2,.6,1.6,2.2,2.2,2.5,3.9,0,.7,.4,1.1,.8,1.6,1.6,2,2.4,4.2,1.4,6.8-.2,.4-.2,.8,0,1.2,1.1,2.8,.6,5-1.6,7.1-.3,.2-.6,.4-.7,.8-.3,1.4-1.2,2.3-2.4,2.6-1.7,.5-3.3,1.4-5,1.7-2.4,.5-4.9,.5-7.3,.4-1.4,0-2.8-.2-4.2-.2-.9,0-1.9,.2-2.8-.1-.8-.3-1.6-.3-2.5,0-1.6,.4-3.2,.3-4.8,0-2.4-.3-4.6-1.1-7-1.5-1.8-.3-3.4-1.3-4.3-3.2-.1-.3-.3-.5-.5-.7-1.3-1.3-1.8-3.5-1.9-5.7"/>
      <path class="cls-10" d="M406.2,40.1c.5-4.3,2.2-8.4,3.2-12.5,1.7-1.3,2.8-2.1,4.5-3.4,4.4,.2,9,1.9,12.1,5,3,3.1,2.6,10.3,1.8,14.3-1,5-13.7,3-17.4,2.7-1,0-2.1-.2-3-.8-1.3-.9-1.4-2.8-1.3-4.3,0-.3,0-.6,0-.9"/>
      <path class="cls-7" d="M466.6,44c-.1-.4-.2-.9-.3-1.4-.2-2.4-1.2-4.5-2.7-6.3-.5-.6-.8-1.2-.9-2-.3-1.9-1.4-3.3-3.1-4.2-.2-1.6-1.8-4-2-4.4-1.3-2.2-3-4.1-4.7-5.9-.7-.7-1.5-1.2-2.5-1.5-1.1-.3-2-.9-2.8-1.8-.8-.9-1.9-1.2-3-1.5-1.9-.4-1.6-.2-3.3-.4-3.2,.4-5.4,1.9-7,4.3-.3,.4-.6,.8-1.1,.9-1.6,.5-2.8,1.5-3.7,2.9-.3,.5-3,7.4-3.1,8,0,.3,0,.7,0,.9-.3,.4-.6,1.1-.9,2.1-.5,1.6-2.1,2.5-2.1,4.2,0,.7-.3,1.2-.6,1.7-1.5,2.2-2,4.5-.7,6.9,.2,.4,.3,.7,.2,1.2-.8,2.9,0,5.1,2.5,6.8,.3,.2,.7,.3,.8,.8,.4,1.4,1.5,2.1,2.8,2.3,1.8,.3,1.3,1.3,3.1,1.4,2.5,.2,5.1,0,7.7-.5,1.4-.3,2.9-.5,4.4-.7,1,0,2,0,2.9-.5,.8-.4,1.7-.5,2.6-.4,1.7,.2,3.4-.1,5-.5,2.4-.5,4.7-1.6,7.1-2.3,1.9-.5,3.4-1.7,4.1-3.7,0-.3,.3-.5,.5-.7,1.4-1.8,1.7-3.7,1.1-5.9"/>
      <path class="cls-10" d="M458.1,50.6c-.7-6-1.3-15-8.2-16.9-.5-.1-1-.1-1.5,0-2.8,.2-5.6,.7-8.4,1.3-.8,.2-1.7,.4-2.4,.9-1,.8-1.6,2-2,3.2-1.6,4.5-2.6,9.4-1.9,14.2,.3,1.8,.9,3.7,2.3,4.8,1.3,1,3.1,1.3,4.8,1.1,5.5-.4,10.6-.5,15.9-2.5,.4-.2,.8-.3,1.1-.6,.5-.5,.5-1.2,.5-1.8,0-1.2-.2-2.5-.3-3.7"/>
      <path class="cls-7" d="M444.6,62.7c0-.5,.1-.9,0-1.4-.1-2.4,.7-4.6,1.9-6.6,.4-.7,.6-1.3,.7-2.1,.1-1.9,1-1.2,2.6-2.2,0-1.6,1.3-4.1,1.5-4.6,1-2.3,2.5-4.4,4-6.4,.6-.8,1.4-1.4,2.3-1.8,1.1-.5,1.9-1.1,2.6-2.1,.7-.9,1.7-1.4,2.9-1.8,1.9-.6,3.9-.3,5.5-.8,3.2,0,5.6,1.2,7.5,3.5,.3,.4,.7,.7,1.2,.8,1.6,.3,3,1.2,4,2.5,.4,.4,3.8,4.8,4,5.3,.1,.3,.2,.7,.1,.9,.3,.4,.7,1,1.1,2,.7,1.6,2.3,2.2,2.6,3.9,.1,.7,.4,1.1,.8,1.6,1.7,2,2.5,4.2,1.5,6.8-.2,.4-.2,.8,0,1.2,1.1,2.8,.6,5-1.7,7.1-.3,.2-.6,.4-.7,.8-.3,1.4-1.3,2.3-2.5,2.6-1.8,.5-3.5,1.4-5.2,1.7-2.5,.5-5.1,.5-7.7,.4-1.5,0-2.9-.2-4.4-.2-1,0-2,.2-2.9-.1-.9-.3-1.7-.3-2.6,0-1.7,.3-3.4,.3-5.1,0-2.5-.3-4.8-1.1-7.3-1.5-1.9-.3-3.6-1.3-4.5-3.2-.1-.3-.4-.5-.6-.7-1.6-1.6-2.1-3.5-1.7-5.7"/>
      <path class="cls-10" d="M459.1,68.6c.3-5.1,2.9-8,3.2-13.1,0-.9,.2-2,1-2.6,.4-.3,1-.3,1.6-.4,3.3-.2,6.7-.2,10.1-.1,2.3,0,5,.4,6.1,2.5,.4,.8,.4,1.7,.5,2.6,.6,6.1,2.1,8.2,.8,14.5-.4,2.1-1.5,2.5-3.8,2.9-5.6,1.1-10.9,1.5-16.1-.8-1.1-.5-2.4-1.1-2.9-2.2-.4-.8-.4-1.8-.3-2.7v-.7Z"/>
      <path class="cls-11" d="M249.5,89.1c4.2,13.6-8.7,21.1-41.2,37.1-40.7,20.1-79.7,15.3-83.9,1.7-4.2-13.6,20.4-33.3,54.9-44,34.5-10.7,66-8.4,70.2,5.2"/>
      <path class="cls-7" d="M236.6,95.8c0-.1-.1-.3-.2-.4,.3-.6,.2-1.5-.2-2.4-.2-.4-.4-.7-.7-1,.2-.4,.3-.8,.3-1.3,.1-1.2-.3-2.3-.9-2.5,.5-.8,.6-1.6,.2-2.1-.4-.6-1.4-.5-2.2,.2,0,0,0,0,0-.1,0-.1,0-.2,0-.3,.3-1.4,0-2.7-.8-2.9-.1,0-.3,0-.5,0-.2-.7-1-1.2-1.9-1.4-.4,0-.9,0-1.2,0,0-.1,0-.3-.1-.4-.4-1.3-1.3-2.1-2-1.8,0,0-.1,0-.2,.1-.4-.5-1.3-.7-2.2-.3-.3,.1-.5,.3-.7,.4,0,0,0-.1,0-.2,0-1.4-.8-2.5-1.6-2.5-.2,0-.4,0-.5,.2-.5-.6-1.4-.7-2.4-.2-.4,.2-.7,.5-1,.8-.5-1.2-1.4-1.9-2-1.5-.5,.2-.7,.9-.7,1.7,0,0,0-.1,0-.2-.5-1.2-1.5-1.8-2.1-1.4-.2,.1-.3,.3-.4,.5-.5-.3-1.3-.3-2,.2-.4,.2-.7,.6-1,.9-.5-1-1.4-1.6-2-1.3-.6,.3-.8,1.4-.5,2.5,0,0,0,0,0,0-.7-1.1-1.7-1.5-2.4-1-.5,.4-.6,1.3-.3,2.2-.8-.9-1.9-1.3-2.4-.7-.6,.6-.4,1.8,.3,2.8,0,0-.2,0-.3,0-1.2-.2-2.2,.3-2.3,1.2,0,.3,0,.7,.3,1-.4,0-.7,0-.9,.2-.6,.6-.5,1.8,.2,2.9-.3,.4-.6,1-.7,1.8-.1,.9,0,1.8,.4,2.3-.5,.3-.8,.8-.7,1.3,0,.7,.7,1.2,1.5,1.4-.3,.2-.6,.5-.6,.9-.1,.9,.7,1.8,1.9,2,0,0,.2,0,.2,0-.2,.3-.2,.5-.2,.8,0,.9,1.1,1.6,2.3,1.4,0,0,0,0,0,0-.2,.3-.3,.7-.3,1,.1,.9,1.2,1.4,2.4,1.1,.2,0,.4-.1,.5-.2-.3,.8-.3,1.5,0,2,.5,.5,1.3,.4,2.1-.3,.3,.7,1.1,1.1,2,1.1,.4,0,.8-.1,1.2-.3,0,0,0,.2,0,.3,.4,1.3,1.3,2.2,2,1.9,.3-.1,.6-.4,.7-.9,0,.1,0,.2,.2,.3,.6,1.1,1.6,1.6,2.2,1.1,.1-.1,.3-.3,.3-.5,.1,.4,.3,.7,.6,.8,.5,.2,1.2-.2,1.6-1,0,.1,0,.2,.1,.3,.5,.7,1.6,.6,2.5-.3,.2-.2,.4-.4,.6-.7,.3,1.2,1,2.1,1.7,2,.5,0,.9-.7,1-1.4,.1,.3,.3,.5,.5,.6,.7,.3,1.6-.5,2-1.7,0,0,0,0,0,0,.1,.2,.3,.4,.5,.5,.7,.3,1.7-.5,2.1-1.8,0,0,0,0,0,0,.1,.2,.2,.3,.4,.4,.7,.3,1.6-.4,2.1-1.7,.2-.5,.3-1,.2-1.5,.9,.3,1.7,.1,2-.5,.3-.6,0-1.4-.7-2,0,0,0,0,0,0,.3,0,.5-.1,.8-.3,1.1-.5,1.8-1.6,1.5-2.5"/>
      <path class="cls-8" d="M219.4,74.7c-1.5-.4-2.9-.8-4.2-.9-.2,0-.3,0-.4,0-.1,0-.2,0-.3,0,0,0,0,0,0,0,0,0,0,0,0,0-.4,0-.8,0-1.1,0s-.1,0-.2,0c-.3,0-.7,0-1,0-.2,0-.4,0-.5,0-3.1,3.4-7.1,8.5-9,14.5-.2,0-.2-.2-.4-.2,.2-3,.8-7.8,4-12.2-4.8,3-8.7,8-10.1,10.1,0,0-3.3,2.8,5.6,2.2,2.1-.1,4.5,.2,6.9,.8,2-4.5,5.9-11.8,10.7-14.3"/>
      <path class="cls-8" d="M235.5,87c-3.6,.9-8.9,2.7-14.8,6.5,2.9,1.4,5.5,2.8,7.6,4,2.4-1.8,5.6-3.6,9.4-5-.5-2-1.3-3.9-2.2-5.6"/>
      <path class="cls-8" d="M238.1,94.3c-2.2,.5-5.2,1.7-8.7,3.8,.4,.2,.8,.4,1.1,.7,6,3.5,9.1,8.9,7.9-2.4,0-.7-.2-1.4-.3-2"/>
      <path class="cls-8" d="M231.6,81.8c-1.4-1.4-2.9-2.6-4.5-3.6-3.9,1.7-10.9,5.2-16.9,11.3,2.5,.7,5.2,1.7,7.7,2.8,2.9-3.8,7.5-8.3,13.8-10.5"/>
      <path class="cls-5" d="M219.4,74.7c-4.8,2.5-8.7,9.9-10.7,14.3,.5,.1,1,.3,1.5,.4,6-6,13.1-9.6,16.9-11.3-2.5-1.6-5.2-2.7-7.7-3.5"/>
      <path class="cls-5" d="M231.6,81.8c-6.2,2.2-10.8,6.6-13.8,10.5,1,.4,1.9,.9,2.9,1.3,5.9-3.8,11.3-5.7,14.8-6.5-1.1-2-2.4-3.7-3.9-5.2"/>
      <path class="cls-5" d="M237.7,92.6c-3.8,1.4-7,3.2-9.4,5,.4,.2,.7,.4,1.1,.6,3.5-2.2,6.5-3.3,8.7-3.8-.1-.6-.2-1.2-.4-1.7"/>
      <path class="cls-5" d="M202.6,88.2c1.9-5.9,5.9-11.1,9-14.5h0c-1.9,.3-3.7,1.1-5.4,2.1-3.2,4.3-4.1,9.3-4.3,12.4,.2,0,.5,0,.7,0"/>
      <path class="cls-7" d="M199.3,98.2c0-.1-.1-.3-.2-.4,.3-.6,.2-1.5-.2-2.4-.2-.4-.4-.7-.7-1,.2-.4,.3-.8,.3-1.3,.1-1.2-.3-2.3-.9-2.5,.5-.8,.6-1.6,.2-2.1-.4-.6-1.4-.5-2.2,.2,0,0,0,0,0-.1,0-.1,0-.2,0-.3,.3-1.4,0-2.7-.8-2.9-.1,0-.3,0-.5,0-.2-.7-1-1.2-1.9-1.4-.4,0-.9,0-1.2,0,0-.1,0-.3-.1-.4-.4-1.3-1.3-2.1-2-1.8,0,0-.1,0-.2,.1-.4-.5-1.3-.7-2.2-.3-.3,.1-.5,.3-.7,.4,0,0,0-.1,0-.2,0-1.4-.8-2.5-1.6-2.5-.2,0-.4,0-.5,.2-.5-.6-1.4-.7-2.4-.2-.4,.2-.7,.5-1,.8-.5-1.2-1.4-1.9-2-1.5-.5,.2-.7,.9-.7,1.7,0,0,0-.1,0-.2-.5-1.2-1.5-1.8-2.1-1.4-.2,.1-.3,.3-.4,.5-.5-.3-1.3-.3-2,.2-.4,.2-.7,.6-1,.9-.5-1-1.4-1.6-2-1.3-.6,.3-.8,1.4-.5,2.5,0,0,0,0,0,0-.7-1.1-1.7-1.5-2.4-1-.5,.4-.6,1.3-.3,2.2-.8-.9-1.9-1.3-2.4-.7-.6,.6-.4,1.8,.3,2.8,0,0-.2,0-.3,0-1.2-.2-2.2,.3-2.3,1.2,0,.3,0,.7,.3,1-.4,0-.7,0-.9,.2-.6,.6-.5,1.8,.2,2.9-.3,.4-.6,1-.7,1.8-.1,.9,0,1.8,.4,2.3-.5,.3-.8,.8-.7,1.3,0,.7,.7,1.2,1.5,1.4-.3,.2-.6,.5-.6,.9-.1,.9,.7,1.8,1.9,2,0,0,.2,0,.2,0-.2,.3-.2,.5-.2,.8,0,.9,1.1,1.6,2.3,1.4,0,0,0,0,0,0-.2,.3-.3,.7-.3,1,.1,.9,1.2,1.4,2.4,1.1,.2,0,.4-.1,.5-.2-.3,.8-.3,1.5,0,2,.5,.5,1.3,.4,2.1-.3,.3,.7,1.1,1.1,2,1.1,.4,0,.8-.1,1.2-.3,0,0,0,.2,0,.3,.4,1.3,1.3,2.2,2,1.9,.3-.1,.6-.4,.7-.9,0,.1,0,.2,.2,.3,.6,1.1,1.6,1.6,2.2,1.1,.1-.1,.3-.3,.3-.5,.1,.4,.3,.7,.6,.8,.5,.2,1.2-.2,1.6-1,0,.1,0,.2,.1,.3,.5,.7,1.6,.6,2.5-.3,.2-.2,.4-.4,.6-.7,.3,1.2,1,2.1,1.7,2,.5,0,.9-.7,1-1.4,.1,.3,.3,.5,.5,.6,.7,.3,1.6-.5,2-1.7,0,0,0,0,0,0,.1,.2,.3,.4,.5,.5,.7,.3,1.7-.5,2.1-1.8,0,0,0,0,0,0,.1,.2,.2,.3,.4,.4,.7,.3,1.6-.4,2.1-1.7,.2-.5,.3-1,.2-1.5,.9,.3,1.7,.1,2-.5,.3-.6,0-1.4-.7-2,0,0,0,0,0,0,.3,0,.5-.1,.8-.3,1.1-.5,1.8-1.6,1.5-2.5"/>
      <path class="cls-8" d="M182.1,77.1c-1.5-.4-2.9-.8-4.2-.9-.2,0-.3,0-.4,0-.1,0-.2,0-.3,0,0,0,0,0,0,0,0,0,0,0,0,0-.4,0-.8,0-1.1,0s-.1,0-.2,0c-.3,0-.7,0-1,0-.2,0-.4,0-.5,0-3.1,3.4-7.1,8.5-9,14.5-.2,0-.2-.2-.4-.2,.2-3,.8-7.8,4-12.2-4.8,3-8.7,8-10.1,10.1,0,0-3.3,2.8,5.6,2.2,2.1-.1,4.5,.2,6.9,.8,2-4.5,5.9-11.8,10.7-14.3"/>
      <path class="cls-8" d="M198.2,89.4c-3.6,.9-8.9,2.7-14.8,6.5,2.9,1.4,5.5,2.8,7.6,4,2.4-1.8,5.6-3.6,9.4-5-.5-2-1.3-3.9-2.2-5.6"/>
      <path class="cls-8" d="M200.8,96.7c-2.2,.5-5.2,1.7-8.7,3.8,.4,.2,.8,.4,1.1,.7,6,3.5,9.1,8.9,7.9-2.4,0-.7-.2-1.4-.3-2"/>
      <path class="cls-8" d="M194.3,84.2c-1.4-1.4-2.9-2.6-4.5-3.6-3.9,1.7-10.9,5.2-16.9,11.3,2.5,.7,5.2,1.7,7.7,2.8,2.9-3.8,7.5-8.3,13.8-10.5"/>
      <path class="cls-5" d="M182.1,77.1c-4.8,2.5-8.7,9.9-10.7,14.3,.5,.1,1,.3,1.5,.4,6-6,13.1-9.6,16.9-11.3-2.5-1.6-5.2-2.7-7.7-3.5"/>
      <path class="cls-5" d="M194.3,84.2c-6.2,2.2-10.8,6.6-13.8,10.5,1,.4,1.9,.9,2.9,1.3,5.9-3.8,11.3-5.7,14.8-6.5-1.1-2-2.4-3.7-3.9-5.2"/>
      <path class="cls-5" d="M200.4,95c-3.8,1.4-7,3.2-9.4,5,.4,.2,.7,.4,1.1,.6,3.5-2.2,6.5-3.3,8.7-3.8-.1-.6-.2-1.2-.4-1.7"/>
      <path class="cls-5" d="M165.3,90.6c1.9-5.9,5.9-11.1,9-14.5h0c-1.9,.3-3.7,1.1-5.4,2.1-3.2,4.3-4.1,9.3-4.3,12.4,.2,0,.5,0,.7,0"/>
      <path class="cls-7" d="M184.8,121.2c0-.1-.1-.3-.2-.4,.3-.6,.2-1.5-.2-2.4-.2-.4-.4-.7-.7-1,.2-.4,.3-.8,.3-1.3,.1-1.2-.3-2.3-.9-2.5,.5-.8,.6-1.6,.2-2.1-.4-.6-1.4-.5-2.2,.2,0,0,0,0,0-.1,0-.1,0-.2,0-.3,.3-1.4,0-2.7-.8-2.9-.1,0-.3,0-.5,0-.2-.7-1-1.2-1.9-1.4-.4,0-.9,0-1.2,0,0-.1,0-.3-.1-.4-.4-1.3-1.3-2.1-2-1.8,0,0-.1,0-.2,.1-.4-.5-1.3-.7-2.2-.3-.3,.1-.5,.3-.7,.4,0,0,0-.1,0-.2,0-1.4-.8-2.5-1.6-2.5-.2,0-.4,0-.5,.2-.5-.6-1.4-.7-2.4-.2-.4,.2-.7,.5-1,.8-.5-1.2-1.4-1.9-2-1.5-.5,.2-.7,.9-.7,1.7,0,0,0-.1,0-.2-.5-1.2-1.5-1.8-2.1-1.4-.2,.1-.3,.3-.4,.5-.5-.3-1.3-.3-2,.2-.4,.2-.7,.6-1,.9-.5-1-1.4-1.6-2-1.3-.6,.3-.8,1.4-.5,2.5,0,0,0,0,0,0-.7-1.1-1.7-1.5-2.4-1-.5,.4-.6,1.3-.3,2.2-.8-.9-1.9-1.3-2.4-.7-.6,.6-.4,1.8,.3,2.8,0,0-.2,0-.3,0-1.2-.2-2.2,.3-2.3,1.2,0,.3,0,.7,.3,1-.4,0-.7,0-.9,.2-.6,.6-.5,1.8,.2,2.9-.3,.4-.6,1-.7,1.8-.1,.9,0,1.8,.4,2.3-.5,.3-.8,.8-.7,1.3,0,.7,.7,1.2,1.5,1.4-.3,.2-.6,.5-.6,.9-.1,.9,.7,1.8,1.9,2,0,0,.2,0,.2,0-.2,.3-.2,.5-.2,.8,0,.9,1.1,1.6,2.3,1.4,0,0,0,0,0,0-.2,.3-.3,.7-.3,1,.1,.9,1.2,1.4,2.4,1.1,.2,0,.4-.1,.5-.2-.3,.8-.3,1.5,0,2,.5,.5,1.3,.4,2.1-.3,.3,.7,1.1,1.1,2,1.1,.4,0,.8-.1,1.2-.3,0,0,0,.2,0,.3,.4,1.3,1.3,2.2,2,1.9,.3-.1,.6-.4,.7-.9,0,.1,0,.2,.2,.3,.6,1.1,1.6,1.6,2.2,1.1,.1-.1,.3-.3,.3-.5,.1,.4,.3,.7,.6,.8,.5,.2,1.2-.2,1.6-1,0,.1,0,.2,.1,.3,.5,.7,1.6,.6,2.5-.3,.2-.2,.4-.4,.6-.7,.3,1.2,1,2.1,1.7,2,.5,0,.9-.7,1-1.4,.1,.3,.3,.5,.5,.6,.7,.3,1.6-.5,2-1.7,0,0,0,0,0,0,.1,.2,.3,.4,.5,.5,.7,.3,1.7-.5,2.1-1.8,0,0,0,0,0,0,.1,.2,.2,.3,.4,.4,.7,.3,1.6-.4,2.1-1.7,.2-.5,.3-1,.2-1.5,.9,.3,1.7,.1,2-.5,.3-.6,0-1.4-.7-2,0,0,0,0,0,0,.3,0,.5-.1,.8-.3,1.1-.5,1.8-1.6,1.5-2.5"/>
      <path class="cls-8" d="M167.6,100.1c-1.5-.4-2.9-.8-4.2-.9-.2,0-.3,0-.4,0-.1,0-.2,0-.3,0,0,0,0,0,0,0,0,0,0,0,0,0-.4,0-.8,0-1.1,0s-.1,0-.2,0c-.3,0-.7,0-1,0-.2,0-.4,0-.5,0-3.1,3.4-7.1,8.5-9,14.5-.2,0-.2-.2-.4-.2,.2-3,.8-7.8,4-12.2-4.8,3-8.7,8-10.1,10.1,0,0-3.3,2.8,5.6,2.2,2.1-.1,4.5,.2,6.9,.8,2-4.5,5.9-11.8,10.7-14.3"/>
      <path class="cls-8" d="M183.8,112.4c-3.6,.9-8.9,2.7-14.8,6.5,2.9,1.4,5.5,2.8,7.6,4,2.4-1.8,5.6-3.6,9.4-5-.5-2-1.3-3.9-2.2-5.6"/>
      <path class="cls-8" d="M186.3,119.7c-2.2,.5-5.2,1.7-8.7,3.8,.4,.2,.8,.4,1.1,.7,6,3.5,9.1,8.9,7.9-2.4,0-.7-.2-1.4-.3-2"/>
      <path class="cls-8" d="M179.8,107.2c-1.4-1.4-2.9-2.6-4.5-3.6-3.9,1.7-10.9,5.2-16.9,11.3,2.5,.7,5.2,1.7,7.7,2.8,2.9-3.8,7.5-8.3,13.8-10.5"/>
      <path class="cls-5" d="M167.6,100.1c-4.8,2.5-8.7,9.9-10.7,14.3,.5,.1,1,.3,1.5,.4,6-6,13.1-9.6,16.9-11.3-2.5-1.6-5.2-2.7-7.7-3.5"/>
      <path class="cls-5" d="M179.8,107.2c-6.2,2.2-10.8,6.6-13.8,10.5,1,.4,1.9,.9,2.9,1.3,5.9-3.8,11.3-5.7,14.8-6.5-1.1-2-2.4-3.7-3.9-5.2"/>
      <path class="cls-5" d="M185.9,118c-3.8,1.4-7,3.2-9.4,5,.4,.2,.7,.4,1.1,.6,3.5-2.2,6.5-3.3,8.7-3.8-.1-.6-.2-1.2-.4-1.7"/>
      <path class="cls-5" d="M150.8,113.6c1.9-5.9,5.9-11.1,9-14.5h0c-1.9,.3-3.7,1.1-5.4,2.1-3.2,4.3-4.1,9.3-4.3,12.4,.2,0,.5,0,.7,0"/>
    </g>
  </g>
</svg>