<?xml version="1.0" encoding="UTF-8"?>
<svg id="_レイヤー_2" data-name="レイヤー 2" xmlns="http://www.w3.org/2000/svg" viewBox="0 0 1081 249.3">
  <defs>
    <style>
      .cls-1 {
        letter-spacing: .1em;
      }

      .cls-2 {
        fill: #f9dd96;
      }

      .cls-3 {
        fill: #f1b22d;
      }

      .cls-4 {
        fill: #eaa51c;
      }

      .cls-5 {
        fill: #ebcb32;
      }

      .cls-6 {
        fill: #e9a828;
      }

      .cls-7 {
        fill: #f39a43;
      }

      .cls-8, .cls-9 {
        fill: #edad23;
      }

      .cls-10 {
        fill: #e73c71;
      }

      .cls-11, .cls-12 {
        fill: #65bbb1;
      }

      .cls-13 {
        fill: #221815;
      }

      .cls-14 {
        fill: #1c68ac;
      }

      .cls-15 {
        letter-spacing: 0em;
      }

      .cls-16 {
        letter-spacing: 0em;
      }

      .cls-17 {
        letter-spacing: .2em;
      }

      .cls-18 {
        letter-spacing: .1em;
      }

      .cls-19 {
        fill: #fff;
        font-family: Toppan-BunkyuMidashiGoStdN-EB-83pv-RKSJ-H, 'Toppan BunkyuMidashiGoStdN';
        font-size: 52.8px;
      }

      .cls-12, .cls-20, .cls-9 {
        fill-rule: evenodd;
      }

      .cls-20 {
        fill: #efefef;
      }
    </style>
  </defs>
  <g id="_レイヤー_1-2" data-name="レイヤー 1">
    <g>
      <path class="cls-14" d="M1011.2,107.5c0,19.3,15.6,32.5,34.9,32.5s34.9-10.7,34.9-30-15.6-30-34.9-30-34.9,8.2-34.9,27.5"/>
      <path class="cls-4" d="M1015.1,103.5s0,0,0,0c0,0,0,0,0,0,0,0,0,0,0,0"/>
      <path class="cls-6" d="M1067.7,111s-.2,.1-.2,.1c0,.1,.4,.2,.4,.3,0,.1,0,.3,0,.4,0,.1,0,.3,.1,.4,0,.2-.2,.4-.2,.5,0,.1,.3,.2,.3,.3,0,.3-.1,.6-.2,.9-2,.8-4,1.6-6,2.3-2,.7-4.1,1.3-6.2,1.9-2,.6-4.1,1.2-6.2,1.8-2.1,.6-4.1,1.2-6.2,1.8-2.1,.6-4.1,1.3-6.1,2-2,.7-4.1,1.3-6.1,2-.5,.2-1,.2-1.4,.3-.2,0-.3,.4-.5,.5-.1,0-.3,0-.5,0,0,0,0,0,0,0-2.3,.5-3.2-.6-3.6-3.7-.2-1.5,.3-2.6,1-3.4,0,0,.1,0,.1,0,0,0,0,0,0,0,.3-.3,.6-.7,1-1,0,0,0-.2,0-.3,.4-.2,.9-.2,1.3-.4,.1,0,.3,0,.4-.1,.4-.2,.7-.5,1.1-.6,.1,0,.3-.1,.4-.2,.5-.2,1,0,1.5-.2,2.2-.7,4.3-1.5,6.5-2.1,2.2-.6,4.3-1.5,6.6-2.1,2.2-.6,4.5-1.1,6.7-1.6,2.2-.5,4.5-.9,6.7-1.4,2.3-.4,4.5-.8,6.8-1.2,.8,.7,1.6,1.4,2.1,2.4,0,0-.2,0-.2,0,0,0,0,0,0,.1,0,0,.3,0,.3,0"/>
      <path class="cls-6" d="M1067.2,99.8c-.2,1.1-.3,1.1-.7,2-.4,.2-3,1.3-6.6,2.5-1.9,.7-4.2,1.5-6.6,2.3-2.1,.7-4.4,1.3-6.7,2-2.2,.7-4.5,1.5-6.6,2.1-2.4,.8-4.7,1.4-6.7,1.9-3.7,1.1-6.4,2-6.8,1.8-1.1-1.6-1-2.3-1.6-3.6-.2-.4-1-2.1-.5-3.3,.2-.6,.5-2,1-2.3,0,0,0-.1,0-.1,0,0,0,0,0,0,2-.7,4.2-1,6.4-1.4,2.1-.4,4.2-.8,6.4-1.1,2.2-.3,4.3-.5,6.4-.9,1.4-.3,4-1.2,6.8-2,2.2-.6,4.6-1.3,6.8-1.9,3.1-.8,5.8-1.5,6.9-1.5,.4,.7,1.8,2.6,2.1,3.4"/>
      <path class="cls-2" d="M1025.5,105.6s0,0,0,0c0,0,0,0,0,0,0,0,0,0,0,0"/>
      <path class="cls-6" d="M1062.4,90.7c0,0-.1,.2,0,.3,0,.1,.3,.2,.3,.3,0,.1,.2,.3,.2,.4,0,.1-.2,.3-.2,.4,0,.2,0,.4,0,.6,0,0,0,.2,0,.2,0,.3,.1,.7,0,1-2,.8-4,1.6-6,2.2-2,.7-4.1,1.3-6.2,1.9-2,.6-4.1,1.3-6.2,1.9-2.1,.6-4.1,1.2-6.2,1.8-2.1,.6-4.2,.9-6.3,1.6-2.1,.7-4.1,1.5-6.1,2.2-.5,.2-.8,.6-1.2,.7-.2,0-.4,0-.6,0-.1,0-.3,0-.5,0,0,0,0,0,0,0-2.3,.4-3.1-.5-3.5-3.6-.6-4,3.5-5.2,6.8-6.3,2.2-.7,4.4-1.1,6.6-1.8,2.2-.6,4.4-1.2,6.7-1.8,2.2-.6,4.4-1.2,6.7-1.7,2.2-.5,4.5-1.1,6.7-1.5,2.3-.4,4.5-1,6.8-1.4,.8,.7,1.3,1.7,1.8,2.7,0,0,.2,0,.2,0"/>
      <path class="cls-5" d="M1068.9,101.3c0,.1,.2,.2,.2,.3,.1,.3,.4,.6,.5,.9-1.5,1.5-3.2,2.9-4.8,4.3-1.6,1.4-3.2,2.9-4.8,4.3-1.6,1.4-3.2,2.9-4.8,4.3-1.6,1.4-3.3,2.8-4.9,4.2-1.6,1.4-3.3,2.8-4.9,4.2-1.6,1.4-3.3,2.8-4.8,4.3-.4,.4-.7,.7-1.1,.9-.1,.1-.2,.3-.3,.4-.1,.1-.2,.4-.3,.5,0,0,0,0,0,0-1.9,1.4-3.1,.7-4.7-1.9-.8-1.2-.7-2.3-.3-3.4,0,0-.3,0-.3,0,0,0,0,0,0,0,.1-.4,.5-.8,.8-1.2,0,0,.1-.1,.2-.2,.2-.3,.5-.7,.8-1,0-.1,.3,0,.4-.2,.3-.3,.5-.6,.9-.9,0,0,.2-.2,.3-.3,.4-.3,.6-.8,1-1.1,1.7-1.5,3.4-3.1,5.2-4.6,1.7-1.5,3.5-3,5.3-4.4,1.8-1.4,3.7-2.7,5.5-4.1,1.8-1.4,3.6-2.8,5.5-4.1,1.9-1.3,3.8-2.7,5.7-3.9,1,.3,2,.8,2.8,1.5,0,0,0,0,0,0,0,0,.1,0,.2,0,0,0,.1,0,.2,0,0,0,0,0,0,0,.1,.1,.2,.2,.3,.3,0,0,.2,.2,.2,.2,0,.1,0,.4,.1,.5,0,.1,.2,.3,.2,.4"/>
      <path class="cls-5" d="M1067.1,93.8c-.4,.2-2.7,1.4-6.2,2.8-1.9,.8-4,1.7-6.4,2.6-2.1,.8-4.2,1.7-6.4,2.5-2.2,.8-4.4,1.6-6.5,2.4-2.3,.9-4.5,1.8-6.4,2.5-3.6,1.3-6,1.9-6.4,1.8-1-1.1-1.4-1.3-1.9-2.2-.2-.3-.8-1.6-.3-2.6,.2-.5,.6-1.5,1.2-1.8,0,0,0-.2,0-.2h0c2-.7,4.1-1.1,6.1-1.7,2.1-.6,4.1-1.1,6.2-1.6,2.1-.5,4.1-1.4,6.1-1.9,1.4-.4,3.9-1.2,6.6-2.2,2.2-.7,4.6-1.3,6.7-2,3-1,5.6-1.9,6.7-2.1,.4,.5,1.5,1.7,1.7,2.3-.1,.9-.3,.8-.8,1.6"/>
      <path class="cls-3" d="M1027.9,101.6s0,0,0,0c0,0,0,0,0,0,0,0,0,0,0,0"/>
      <path class="cls-14" d="M876.6,27.5c0,19.3-15.6,32.5-34.9,32.5s-34.9-10.7-34.9-30S822.4,0,841.7,0s34.9,8.2,34.9,27.5"/>
      <path class="cls-4" d="M872.6,23.5s0,0,0,0c0,0,0,0,0,0,0,0,0,0,0,0"/>
      <path class="cls-6" d="M820.4,31.1s-.2,0-.2,0c0,.1,.1,.4,0,.5,0,.1-.2,.2-.3,.3,0,.1,0,.3-.1,.4,0,.2-.3,.3-.3,.5,0,.1,.3,.2,.3,.4,0,.3-.1,.7,0,1,2,.8,4,1.4,6.1,2.1,2,.7,4.1,1.4,6.1,2,2,.6,4.1,1.3,6.2,1.9,2.1,.6,4.1,1.2,6.2,1.8,2.1,.6,4.2,1.1,6.2,1.8,2.1,.7,4.1,1.4,6.1,2.2,.5,.2,.9,.4,1.3,.6,.2,0,.5-.2,.6-.2,.1,0,.3,.1,.4,.2,0,0,0,0,0,0,2.3,.5,2.9-.5,3.4-3.5,.2-1.5-.1-2.5-.9-3.3,0,0,.1,0,.1,0,0,0,0,0,0,0-.3-.3-.8-.6-1.2-.8,0,0-.2,0-.3,0-.4-.2-.6-.7-1-.9-.1,0-.3-.1-.4-.2-.4-.2-.8-.1-1.2-.3-.1,0-.3,0-.4-.1-.5-.2-.9-.5-1.3-.7-2.2-.7-4.4-1.4-6.6-2-2.2-.6-4.5-1-6.7-1.6-2.2-.6-4.4-1.1-6.7-1.6-2.2-.5-4.5-1-6.7-1.4-2.3-.4-4.5-.9-6.7-1.3-.8,.7-1.4,1.4-1.9,2.4,0,0-.2,0-.2,0,0,0,0,0,0,0,0,0,.2,.2,.2,.2"/>
      <path class="cls-6" d="M820.7,19.7c.2,1.1,.2,1,.7,2,.4,.2,2.9,1,6.5,2.3,1.9,.7,4.2,1.4,6.6,2.3,2.1,.7,4.3,1.7,6.5,2.4,2.2,.7,4.5,1.5,6.6,2.2,2.4,.8,4.7,1.6,6.6,2.2,3.7,1.1,6.3,1.5,6.7,1.3,1.1-1.6,1.4-2.1,2-3.3,.2-.4,.7-2.1,.3-3.3-.2-.6-.4-2.1-.9-2.4,0,0,0,.1,0,.1,0,0,0,0,0,0-2-.7-4.1-1.4-6.2-1.9-2.1-.4-4.3-.7-6.4-1-2.2-.3-4.3-.8-6.4-1.2-1.4-.3-4-.8-6.9-1.6-2.2-.6-4.7-1.3-6.8-1.8-3.1-.8-5.7-1.4-6.8-1.4-.4,.7-1.7,2.4-1.9,3.1"/>
      <path class="cls-2" d="M862.2,25.5s0,0,0,0c0,0,0,0,0,0,0,0,0,0,0,0"/>
      <path class="cls-6" d="M825.4,10.7c0,0-.3,0-.3,.2,0,.1,0,.3,0,.4,0,.1,0,.3,0,.4,0,.1-.3,.2-.3,.3,0,.2,0,.4,0,.6,0,0,0,.2,0,.3,0,.3,.1,.6,.2,.9,2,.8,4,1.4,6.1,2.1,2,.7,4.1,1.3,6.1,2,2,.6,4.1,1.1,6.2,1.7,2.1,.6,4.1,1.2,6.2,1.8,2.1,.6,4,1.5,6.1,2.2,2.1,.7,4.1,1.2,6.1,2,.5,.2,1,0,1.4,.2,.2,0,.4,.2,.5,.3,.1,0,.3,.2,.4,.3,0,0,0,0,0,0,2.3,.4,3-.6,3.5-3.6,.6-4-3.5-5-6.8-6.1-2.2-.7-4.3-1.7-6.5-2.3-2.2-.6-4.4-1.3-6.6-1.9-2.2-.6-4.5-1-6.7-1.5-2.2-.5-4.5-.8-6.8-1.3-2.3-.4-4.5-.6-6.7-1-.8,.7-1.7,1.1-2.2,2.1,0,0,.2,0,.2,0"/>
      <path class="cls-5" d="M818.7,21.2c0,.1,0,.2-.2,.4-.1,.3-.1,.5-.2,.9,1.5,1.5,2.9,3.2,4.5,4.6,1.6,1.4,3.2,2.9,4.8,4.3,1.6,1.4,3.3,2.7,5,4.1,1.6,1.4,3.3,2.7,4.9,4.1,1.6,1.4,3.2,2.8,4.8,4.3,1.6,1.4,3.1,3,4.6,4.5,.4,.4,.7,.7,1,1,.1,.1,.3,0,.5,.2,.1,.1,.4,.1,.5,.2,0,0,0,0,0,0,1.9,1.4,3,.8,4.6-1.8,.8-1.2,1-2.4,.7-3.5,0,0-.3,0-.3,0,0,0,0,0,0,0-.2-.4-.2-.9-.5-1.3,0,0,0-.1-.1-.2-.2-.3-.5-.7-.8-1,0-.1,0-.3-.2-.4-.3-.3-.6-.6-.9-.9,0,0-.2-.2-.3-.3-.4-.3-.9-.5-1.2-.9-1.7-1.5-3.4-3.1-5.1-4.6-1.7-1.5-3.6-2.9-5.3-4.3-1.8-1.4-3.5-2.9-5.4-4.3-1.8-1.4-3.8-2.6-5.6-4-1.9-1.3-3.8-2.6-5.7-3.9-1,.3-2,.5-2.8,1.2,0,0,0,0,0,0,0,0,0,.2,0,.2,0,0,0,.1,0,.1,0,0,0,0,0,0-.1,0-.2,.2-.3,.3,0,0-.1,.2-.2,.3,0,.1-.4,0-.5,.2,0,.1-.2,.3-.2,.4"/>
      <path class="cls-5" d="M820.3,14c.4,.2,3,1.1,6.5,2.5,1.9,.8,4.1,1.6,6.4,2.5,2.1,.8,4.2,1.6,6.4,2.5,2.2,.8,4.3,1.8,6.4,2.5,2.3,.9,4.6,1.6,6.5,2.2,3.6,1.3,6.2,2.4,6.6,2.3,1-1.1,.9-1.8,1.4-2.6,.2-.3,.8-1.3,.3-2.3-.2-.5-.3-1.8-.8-2.1,0,0,0,.2,0,.2h0c-2-.9-4-1.7-6-2.3-2-.6-4.1-1.1-6.2-1.6-2.1-.5-4.2-.7-6.3-1.2-1.4-.4-3.9-1.2-6.6-2.2-2.2-.7-4.4-1.8-6.5-2.5-3-1-5.6-1.7-6.7-1.8-.4,.5-1.8,1.6-2,2.2,0,.9,.2,1,.7,1.8"/>
      <path class="cls-3" d="M859.9,21.6s0,0,0,0c0,0,0,0,0,0,0,0,0,0,0,0"/>
      <path class="cls-14" d="M1001.5,114.8c0,38.5-28.6,59.2-67.1,59.2s-75.3-28.6-75-67.1c.3-49.9,41.8-69.7,80.3-69.7s61.8,39.2,61.8,77.7"/>
      <path class="cls-7" d="M984.3,101.1c0,.8,0,1.6,0,2.4,0,26.4-23.6,47.8-52.6,47.8s-52.6-21.4-52.6-47.8,23.6-47.8,52.6-47.8,24.7,4.2,33.8,11.2c0,0,4.3-4.4,4.3-4.4,.5-.5-9.4-5.4-9.9-5.6-4.6-1.9-9.3-3.6-14.1-4.9-9.4-2.5-19.4-3.6-29-1.3-14,3.2-25.5,12.8-36,22.5-4.3,3.9-8.7,8.3-10,14-1.2,5.6,1,11.3,.1,16.9-.9,5.4-.9,10.2-.4,15.7,1.3,15.4,19.8,32.4,33.4,37.8,15.9,6.3,36.9,6.5,52.9,.8,3.7-1.3,7.7-2.3,11-4.7,2.3-1.7,3.5-4.2,4.9-6.6,1.7-2.7,3.7-4.3,6.2-6.1,8.2-5.9,13.4-15.5,14.4-25.5,.3-2.5,.2-5,0-7.5,0-1.2,.7-5.1,0-6-1-1.5-7.4-.8-9.2-1"/>
      <path class="cls-5" d="M964.9,66.9c-.1-1.2-1.7-1.9-2.8-2.6-2.9-2-5.9-3.8-9.1-5.3-6.6-3.2-13.8-5.3-21.2-5.3-29.1,0-54.6,23.4-54.6,49.8s25.6,49.8,54.6,49.8,54.6-21.4,54.6-47.8c0-1.3-1.8-4.2-2.8-4.5-1.3-.4-3.4,.1-4.8,.1-1.7,0-3.4,0-5.1,0-6.6-.1-13.2-.6-19.8-1.2-4.3-.4-8.8-.3-13-1.2-1.4-.3-3.2-1-3.8-2.4-.8-1.8,.7-2.7,2-3.6,6.6-5.2,12.1-11.5,18.5-16.8,1.4-1.1,2.8-2.2,4-3.5,1.1-1.2,3-3.3,3.3-4.8,0-.2,0-.3,0-.5"/>
      <path class="cls-10" d="M901.9,116.4c-2.8,0-5.4,.7-7.2,2.5-1.8,1.8-2.7,4.4-2.7,7.2s.8,5.4,2.7,7.2c1.8,1.8,4.5,2.5,7.2,2.5s5.4-.7,7.2-2.5c1.8-1.8,2.7-4.4,2.7-7.2s-.8-5.4-2.7-7.2c-1.8-1.8-4.5-2.5-7.2-2.5"/>
      <path class="cls-10" d="M971.9,103.5c-2.8,0-5.4,.7-7.2,2.5-1.8,1.8-2.7,4.4-2.7,7.2s.8,5.4,2.7,7.2c1.8,1.8,4.5,2.5,7.2,2.5s5.4-.7,7.2-2.5c1.8-1.8,2.7-4.4,2.7-7.2s-.8-5.4-2.7-7.2c-1.8-1.8-4.5-2.5-7.2-2.5"/>
      <path class="cls-10" d="M906.2,66.3c-2.8,0-5.4,.7-7.2,2.5-1.8,1.8-2.7,4.4-2.7,7.2s.8,5.4,2.7,7.2c1.8,1.8,4.5,2.5,7.2,2.5s5.4-.7,7.2-2.5c1.8-1.8,2.7-4.4,2.7-7.2s-.8-5.4-2.7-7.2c-1.8-1.8-4.5-2.5-7.2-2.5"/>
      <path class="cls-10" d="M936,100.1c-2.8,0-5.4,.7-7.2,2.5-1.8,1.8-2.7,4.4-2.7,7.2s.8,5.4,2.7,7.2c1.8,1.8,4.5,2.5,7.2,2.5s5.4-.7,7.2-2.5c1.8-1.8,2.7-4.4,2.7-7.2s-.8-5.4-2.7-7.2c-1.8-1.8-4.5-2.5-7.2-2.5"/>
      <path class="cls-12" d="M919.8,106.7c-3.3,0-6.5,.9-8.7,3.1-2.2,2.2-3.1,5.3-3.1,8.6s.9,6.5,3.1,8.6c2.2,2.1,5.3,3.1,8.7,3.1s6.5-.9,8.7-3.1c2.2-2.2,3.1-5.3,3.1-8.6s-.9-6.5-3.1-8.6c-2.2-2.1-5.3-3.1-8.7-3.1m0,18.2c-1.7,0-3.2-1.1-4.3-2.2-1.2-1.1-2.3-2.5-2.3-4.3s1.1-3.2,2.3-4.3c1.2-1.1,2.6-2.2,4.3-2.2s3.2,1.1,4.3,2.2c1.2,1.1,2.3,2.5,2.3,4.3s-1.1,3.2-2.3,4.3c-1.1,1.1-2.6,2.2-4.3,2.2"/>
      <path class="cls-12" d="M964.4,119.4c-3.3,0-6.5,.9-8.7,3.1-2.2,2.2-3.1,5.3-3.1,8.6s.9,6.5,3.1,8.6c2.2,2.1,5.3,3.1,8.7,3.1s6.5-.9,8.7-3.1c2.2-2.2,3.1-5.3,3.1-8.6s-.9-6.5-3.1-8.6c-2.2-2.1-5.3-3.1-8.7-3.1m0,18.2c-1.7,0-3.2-1.1-4.3-2.2-1.2-1.1-2.3-2.5-2.3-4.3s1.1-3.2,2.3-4.3c1.2-1.1,2.6-2.2,4.3-2.2s3.2,1.1,4.3,2.2c1.2,1.1,2.3,2.5,2.3,4.3s-1.1,3.2-2.3,4.3c-1.1,1.1-2.6,2.2-4.3,2.2"/>
      <path class="cls-12" d="M919.8,68.6c-3.3,0-6.5,.9-8.7,3.1-2.2,2.2-3.1,5.3-3.1,8.6s.9,6.5,3.1,8.6c2.2,2.1,5.3,3.1,8.7,3.1s6.5-.9,8.7-3.1c2.2-2.2,3.1-5.3,3.1-8.6s-.9-6.5-3.1-8.6c-2.2-2.1-5.3-3.1-8.7-3.1m0,18.2c-1.7,0-3.2-1.1-4.3-2.2-1.2-1.1-2.3-2.5-2.3-4.3s1.1-3.2,2.3-4.3c1.2-1.1,2.6-2.2,4.3-2.2s3.2,1.1,4.3,2.2c1.2,1.1,2.3,2.5,2.3,4.3s-1.1,3.2-2.3,4.3c-1.1,1.1-2.6,2.2-4.3,2.2"/>
      <path class="cls-10" d="M940.3,117.7c4.1,0,7.6,2.1,10.3,4.7,2.7,2.6,4.9,6.1,4.9,10.2s-2.2,7.5-4.9,10.1c-2.7,2.6-6.2,4.7-10.3,4.7s-7.6-2.1-10.3-4.7c-2.7-2.6-4.9-6.1-4.9-10.1s2.2-7.5,4.9-10.2c2.7-2.6,6.2-4.7,10.3-4.7"/>
      <path class="cls-10" d="M896.1,85.1c4.1,0,7.6,2.1,10.3,4.7,2.7,2.6,4.9,6.1,4.9,10.2s-2.2,7.5-4.9,10.1c-2.7,2.6-6.2,4.7-10.3,4.7s-7.6-2.1-10.3-4.7c-2.7-2.6-4.9-6.1-4.9-10.1s2.2-7.5,4.9-10.2c2.7-2.6,6.2-4.7,10.3-4.7"/>
      <path class="cls-10" d="M938.5,54.1c-4.1,0-8,1.1-10.7,3.7-2.7,2.6-3.9,6.5-3.9,10.6s1.2,7.9,3.9,10.6c2.7,2.6,6.6,3.7,10.7,3.7s8-1.1,10.7-3.7c2.7-2.6,3.9-6.5,3.9-10.6s-1.2-7.9-3.9-10.6c-2.7-2.6-6.6-3.7-10.7-3.7"/>
      <path class="cls-11" d="M960.6,108.4c-.2-.3,0-.8-.2-1-.2-.2-.7-.1-1-.3-.7-.5-1.3-1.1-2.2-1.2-.8,0-1.6,.5-2.4,.7-2.2,.7-4.1,1.5-5.4,3-1.3,1.5-1.9,3.5-2.7,5.6-.2,.5-1.4,3.2-2.1,6-.8,3.1-1.2,6-.9,6.1,2.2,.4,4.6,.8,6.8,.2,2.2-.6,4.1-2,5.8-3.5,1.7-1.5,3.4-3.1,4.3-5.2,.9-2.1,.9-4.4,.9-6.7,0-.6,.3-1.4,.2-2-.2-.6-.8-1.1-1.1-1.7"/>
      <path class="cls-11" d="M928.9,90.5c-.2-.3,0-.8-.2-1-.2-.2-.7-.1-1-.3-.7-.5-1.3-1.1-2.2-1.2-.8,0-1.6,.5-2.4,.7-2.2,.7-4.1,1.5-5.4,3-1.3,1.5-1.9,3.5-2.7,5.6-.2,.5-1.4,3.2-2.1,6-.8,3.1-1.2,6-.9,6.1,2.2,.4,4.6,.8,6.8,.2,2.2-.6,4.1-2,5.8-3.5,1.7-1.5,3.4-3.1,4.3-5.2,.9-2.1,.9-4.4,.9-6.7,0-.6,.3-1.4,.2-2-.2-.6-.8-1.1-1.1-1.7"/>
      <path class="cls-11" d="M902.2,72.2c-.2-.3,0-.8-.2-1-.2-.2-.7-.1-1-.3-.7-.5-1.3-1.1-2.2-1.2-.8,0-1.6,.5-2.4,.7-2.2,.7-4.1,1.5-5.4,3-1.3,1.5-1.9,3.5-2.7,5.6-.2,.5-1.4,3.2-2.1,6-.8,3.1-1.2,6-.9,6.1,2.2,.4,4.6,.8,6.8,.2,2.2-.6,4.1-2,5.8-3.5,1.7-1.5,3.4-3.1,4.3-5.2,.9-2.1,.9-4.4,.9-6.7,0-.6,.3-1.4,.2-2-.2-.6-.8-1.1-1.1-1.7"/>
      <path class="cls-11" d="M909.9,127c.2-.3,.7-.2,.9-.5,.2-.2,.1-.7,.4-.9,.7-.5,1.6-.4,2.5-.4,.8,0,1.7-.4,2.5-.1,2.2,.7,3.6,2.2,5,3.7,1.3,1.5,2.7,3.1,3.5,5.2,.2,.5,.5,3.4,1.2,6.3,.8,3.1,1.7,6.3,1.4,6.4-2.2,.4-4.5,0-6.7-.7-2.2-.6-4.5-1.3-6.2-2.7-1.7-1.5-2.7-3.6-3.7-5.7-.9-2.1-1.8-4.3-1.7-6.6,0-.6,.5-1.3,.7-1.9,.2-.6,0-1.4,.3-2"/>
      <path class="cls-11" d="M926.7,66.3c.2-.3,.7-.2,.9-.5,.2-.2,.1-.7,.4-.9,.7-.5,1.6-.4,2.5-.4,.8,0,1.7-.4,2.5-.1,2.2,.7,3.6,2.2,5,3.7,1.3,1.5,2.7,3.1,3.5,5.2,.2,.5,.5,3.4,1.2,6.3,.8,3.1,1.7,6.3,1.4,6.4-2.2,.4-4.5,0-6.7-.7-2.2-.6-4.5-1.3-6.2-2.7-1.7-1.5-2.7-3.6-3.7-5.7-.9-2.1-1.8-4.3-1.7-6.6,0-.6,.5-1.3,.7-1.9,.2-.6,0-1.4,.3-2"/>
      <path class="cls-14" d="M825.5,102.2c-5.4,41.9-34.5,54.7-67.8,54.7s-50.6-24.6-53-54.7c-3.4-43.4,35.7-58.4,69.1-58.4s55.6,28.5,51.7,58.4"/>
      <path class="cls-11" d="M812.4,105.3c.4-2.6,2.5-2.3,4.9-4.9,3.2-3.4,2-6.1-1.2-8.4-1-.7,1.8-6.5,1.6-8.5-.5-4-5.2-1.6-6.7-3.4-1.3-1.5,.2-5.5-1.3-7.1-3.8-4-6.6,.3-9.6-2.2-2.4-2-4.6-4.4-7.3-5.9-2.6-1.4-5.4-1.3-8.4-1.3-4.2,0-6.8-2.6-10.3-4.3-1.9-.9-4.1-1.1-6.2-.3-4.8-1.4-7-7.7-11.7-9.6-2.4-.9-5.5-.8-8.1,1.9,.8,3.2,1,8.4,.5,10.7-.6,3.4-3.2,4.7-5,3.4-2.8-2.1-4-6.5-6.3-9.3-.8,.7-1.3,2.2-1.9,3.6,1.4,1.4,2.7,3.1,2.6,5.7,0,1.9-.9,3.4-2.2,2.7-1.6-.7-3-2.6-4.4-3.8-.7-.7-1.4-1.3-2-2.1-.6,.3-1.2,1-2,2.6-.8,1.6-.9,3.2-.9,4.7,.6,.6,1.1,1.3,1.6,2,.7,1.1,2.9,3.7,2.1,5.9-.8,2-2.3,1.3-3.2,.9-1.8-.9-3.6-1.9-5.4-2.8-.8,.2-1.6,.7-2.3,2-2.1,3.7,1.8,4.5-.2,7.3-1.4,2-3.5,2.3-3.9,5.4-.1,.9,0,1.5,.1,2.1,1.3-.1,2.5-.2,3.8-.4,5.2-1.1,6.7-1.4,7.5,0,1.3,2.2-5.8,5.1-6.9,5.7-2,1-3.9,1.6-5.9,2.6-.6,.6-1.1,1.2-1.2,1.8-1.4,6.8,3.2,3.7,3.8,6.7,.5,2.2-1.8,6-.6,8.4,1.8,3.8,4.6,.4,6.9,2,.8,.5-1.1,7.1,.3,8.8,1.6,2,6.4-.7,7,.4,.8,1.5,.9,3.1,1.5,4.7,.9,2.5,2.2,4,4.3,4.7,2.2,.7,5.8,5.8,8.3,5.4,1.8-.3,3.2-2.5,4.3-3.1,1.7-.9,2.7,.1,3.4,4,.3,1.8,1.7,4.3,2.9,4.9,2.3,1.2,3.9-2.3,7.1-5.1,2.5-2.2,5.4,.8,8.3,.2,2.6-.5,3.4-5.2,5.7-4.5,2.7,.8,7.4,3.6,10.6,0,2.4-2.8,2.7-7.1,5.2-9.9,2.1-2.3,4.9-3.1,7.2-4.2,3.2-1.5,5.5-7.4,8.9-7.6,3.8-.3,5.5-1.8,7-5.5,1-2.5-2.7-3.1-2.2-6.8"/>
      <path class="cls-6" d="M808.1,107.6c0,0,0-.1,0-.2,0-.2-.2-.4-.4-.6-2.3-2.2-1.2-2.7,0-5.2,.9-2.1,1.5-4.3,1.7-6.6,.4-4.6-.6-9.3-2.6-13.5-1-2.1-2.3-4.1-3.8-5.9-7.3-8.9-19-13-30.4-14.7-6.8-1-15.8-2.7-20.5,3.6-.4,.6-.8,1.2-1,1.9-.9-.2-2.3-.5-2.9-.7-1-.3-2.9,1.5-2.1,4.3,.8,2.7,3.1,1.1,5,0,0,.3,.2,.5,.3,.8,2.9,6.1,11.4,4.1,16.2,5.3,6.4,1.6,12.5,5,17.4,10.3,2.3,2.5,4.3,5.4,5.9,8.7,1.5,3.2,2.1,7.2,4.1,10.1,1.9,2.6,4.7,3.1,7.3,2.1,.2,1.1,.5,2.2,1,3.2,.1,.3,.3,.6,.5,.8,.6,.4,1.4,.2,2-.1,1.2-.6,2.7-1.8,2.3-3.4,0,0,0-.1,0-.2"/>
      <path class="cls-5" d="M763.2,61c-3,2.2-4.9,6.3-3.5,10.4,.2,.7,1.1,.6,1.1-.2,0-3.7,1.2-6.5,3.1-9.4,.6-.9-.4-1.1-.7-.9"/>
      <path class="cls-5" d="M770,61.6c-3,2.2-4.9,6.3-3.5,10.4,.2,.7,1.1,.6,1.1-.2,0-3.7,1.2-6.5,3.1-9.4,.6-.9-.4-1.1-.7-.9"/>
      <path class="cls-5" d="M776.8,64c-2.9,1.2-5,5.9-4.2,9.3,.1,.5,.7,.4,.8-.1,.2-1.9,.6-4,1.7-5.5,.9-1.2,2.3-2,3.4-2.9,.4-.3,.3-1.1,0-1.1-.6,0-1.2,.3-1.6,.4"/>
      <path class="cls-5" d="M783.7,67.9c-2.9,1.2-5,5.9-4.2,9.3,.1,.5,.7,.4,.8-.1,.2-1.9,.6-4,1.7-5.5,.9-1.2,2.3-2,3.4-2.9,.4-.3,.3-1.1,0-1.1-.6,0-1.2,.3-1.6,.4"/>
      <path class="cls-5" d="M789.9,73.6c-2.9,1.2-5,5.9-4.2,9.3,.1,.5,.7,.4,.8-.1,.2-1.9,.6-4,1.7-5.5,.9-1.2,2.3-2,3.4-2.9,.4-.3,.3-1.1,0-1.1-.6,0-1.2,.3-1.6,.4"/>
      <path class="cls-5" d="M795,80.5c-2.9,1.2-5,5.9-4.2,9.3,.1,.5,.7,.4,.8-.1,.2-1.9,.6-4,1.7-5.5,.9-1.2,2.3-2,3.4-2.9,.4-.3,.3-1.1,0-1.1-.6,0-1.2,.3-1.6,.4"/>
      <path class="cls-5" d="M798.5,88.9c-2.9,1.2-5,5.9-4.2,9.3,.1,.5,.7,.4,.8-.1,.2-1.9,.6-4,1.7-5.5,.9-1.2,2.3-2,3.4-2.9,.4-.3,.3-1.1,0-1.1-.6,0-1.2,.3-1.6,.4"/>
      <path class="cls-6" d="M779.9,125.2c0,0,0-.1,0-.2,0-.2-.1-.5-.3-.7-.3-.7-.9-1.6-1.4-2.4,0,0,.1,0,.2-.1,.4-.4,.8-.8,1.1-1.2,.9-1.1,1.5-2.4,2-3.7,1.3-3.7,1.3-8,.8-11.6-1.3-7.7-4.8-15-9.4-20.4-10.2-12.2-23.9-16.6-33.3-15.4-1,.1-2.2,.4-3.3,.9-1,.4-2,1-2.9,1.8-.5,.5-1,1-1.3,1.7-.9-.4-2.2-.9-2.7-1.3-.9-.5-3.2,.9-2.9,3.9,.3,2.9,3.2,1.4,4.9,1.2-.3,4.7,8.3,7.2,11.8,7.9,1.8,.4,3.7,.7,5.3,1.5,1.6,.8,2.9,2,4.2,3.2,2.9,2.7,5.8,5.6,7.4,9.2,1,2.2,1.5,4.5,1.9,6.9,.6,2.8,1.1,5.5,1.7,8.3,.7,3.3,1.8,7.1,5,8.1,1.3,.4,4,0,5.1,1,.8,.7,.7,2.6,.9,3.7,0,.3,.2,.6,.4,.9,.5,.5,1.3,.4,1.9,.3,1.3-.3,3-1.2,3-2.9,0,0,0-.1,0-.2"/>
      <path class="cls-5" d="M744.9,70.7c-3.4,1.5-6,5.2-5.5,9.5,0,.7,1,.8,1.1,0,.7-3.7,2.5-6.2,4.9-8.6,.8-.8-.2-1.1-.5-1"/>
      <path class="cls-5" d="M751.6,72.6c-3.4,1.5-6,5.2-5.5,9.5,0,.7,1,.8,1.1,0,.7-3.7,2.5-6.2,4.9-8.6,.8-.8-.2-1.1-.5-1"/>
      <path class="cls-5" d="M757.7,76.3c-3.1,.7-6.1,4.8-5.9,8.3,0,.5,.6,.5,.8,0,.5-1.8,1.4-3.8,2.7-5.1,1.1-1,2.6-1.5,3.9-2.2,.4-.2,.5-1,.1-1.1-.6-.1-1.3,0-1.6,0"/>
      <path class="cls-5" d="M763.7,81.4c-3.1,.7-6.1,4.8-5.9,8.3,0,.5,.6,.5,.8,0,.5-1.8,1.4-3.8,2.7-5.1,1.1-1,2.6-1.5,3.9-2.2,.4-.2,.5-1,.1-1.1-.6-.1-1.3,0-1.6,0"/>
      <path class="cls-5" d="M768.8,88.2c-3.1,.7-6.1,4.8-5.9,8.3,0,.5,.6,.5,.8,0,.5-1.8,1.4-3.8,2.7-5.1,1.1-1,2.6-1.5,3.9-2.2,.4-.2,.5-1,.1-1.1-.6-.1-1.3,0-1.6,0"/>
      <path class="cls-5" d="M772.4,96c-3.1,.7-6.1,4.8-5.9,8.3,0,.5,.6,.5,.8,0,.5-1.8,1.4-3.8,2.7-5.1,1.1-1,2.6-1.5,3.9-2.2,.4-.2,.5-1,.1-1.1-.6-.1-1.3,0-1.6,0"/>
      <path class="cls-5" d="M774.2,104.9c-3.1,.7-6.1,4.8-5.9,8.3,0,.5,.6,.5,.8,0,.5-1.8,1.4-3.8,2.7-5.1,1.1-1,2.6-1.5,3.9-2.2,.4-.2,.5-1,.1-1.1-.6-.1-1.3,0-1.6,0"/>
      <path class="cls-6" d="M789.7,135.4c0,0-.1,0-.2,0-.2,0-.5,0-.7-.1-.8-.2-1.7-.6-2.7-.9,0,0,0,.1,0,.2-.3,.5-.6,.9-.9,1.3-.9,1.1-2,2-3.2,2.8-3.3,2-7.5,3-11.2,3.2-7.8,.4-15.7-1.6-21.9-4.9-14.1-7.4-21.2-19.9-22-29.4,0-1,0-2.2,.2-3.4,.2-1.1,.6-2.2,1.1-3.2,.4-.6,.8-1.2,1.3-1.7-.5-.8-1.4-1.9-1.8-2.4-.7-.8,.3-3.3,3.2-3.6,2.8-.3,1.4,2.2,2.4,3.5,.7,.8,1.9,.4,2.9,.6,1.3,.2,2.6,.8,3.7,1.6,2.2,1.6,3.7,4,4.8,6.5,1.2,2.5,2.1,5,3.4,7.4,3,5.2,8.3,9,14.1,10.4,6.8,1.6,13.7-.3,20.4,1.2,3.1,.7,4.7,3.1,4.8,5.9,1-.3,2.2-.5,3.3-.4,.3,0,.6,0,.9,.2,.6,.4,.7,1.2,.7,1.8,0,1.3-.6,3.1-2.2,3.5,0,0-.1,0-.2,0"/>
      <path class="cls-5" d="M729,113.7c.8-3.6,3.9-6.9,8.2-7.4,.7,0,1,.8,.3,1.1-3.5,1.4-5.5,3.7-7.4,6.5-.6,.9-1.1,0-1.1-.3"/>
      <path class="cls-5" d="M732.2,119.8c.8-3.6,3.9-6.9,8.2-7.4,.7,0,1,.8,.3,1.1-3.5,1.4-5.5,3.7-7.4,6.5-.6,.9-1.1,0-1.1-.3"/>
      <path class="cls-5" d="M737.1,125.1c0-3.2,3.5-6.9,6.9-7.5,.5,0,.6,.5,.2,.7-1.7,.9-3.4,2.2-4.4,3.7-.8,1.3-.9,2.9-1.4,4.2-.1,.5-.9,.7-1.1,.4-.3-.6-.3-1.2-.3-1.6"/>
      <path class="cls-5" d="M743.3,129.9c0-3.2,3.5-6.9,6.9-7.5,.5,0,.6,.5,.2,.7-1.7,.9-3.4,2.2-4.4,3.7-.8,1.3-.9,2.9-1.4,4.2-.1,.5-.9,.7-1.1,.4-.3-.6-.3-1.2-.3-1.6"/>
      <path class="cls-5" d="M751,133.4c0-3.2,3.5-6.9,6.9-7.5,.5,0,.6,.5,.2,.7-1.7,.9-3.4,2.2-4.4,3.7-.8,1.3-.9,2.9-1.4,4.2-.1,.5-.9,.7-1.1,.4-.3-.6-.3-1.2-.3-1.6"/>
      <path class="cls-5" d="M759.4,135.3c0-3.2,3.5-6.9,6.9-7.5,.5,0,.6,.5,.2,.7-1.7,.9-3.4,2.2-4.4,3.7-.8,1.3-.9,2.9-1.4,4.2-.1,.5-.9,.7-1.1,.4-.3-.6-.3-1.2-.3-1.6"/>
      <path class="cls-5" d="M768.5,135.2c0-3.2,3.5-6.9,6.9-7.5,.5,0,.6,.5,.2,.7-1.7,.9-3.4,2.2-4.4,3.7-.8,1.3-.9,2.9-1.4,4.2-.1,.5-.9,.7-1.1,.4-.3-.6-.3-1.2-.3-1.6"/>
      <path class="cls-9" d="M996.3,33.6l40.6-6.4-1.3,35.4h-.1c.6,3.9-5.6,5.9-13.4,7.1-7,1.1-13,1.7-14.5-1.5,0-.2-.4-.8-.5-1.1l-10.9-33.5Z"/>
      <path class="cls-13" d="M1030.1,3.4c-1.2-1.1-2.8-.5-4.2-.4-2.6,.2-4.2,.8-6.7,.7-1,0-3.8,.1-4.5,1.2,0,0,0,.2-.1,.3-.1,.2-.2,.5-.2,.8l-.6,18.2c0,.4,.3,.8,.7,.9,.8,.2,1.6,.3,2.4,.1,.7-.1,1.4-.4,2.1-.7,.3-.2,.5-.4,.5-.8l.6-15,10-2.1c1.2-1.4,.8-2.6,0-3.2"/>
      <path class="cls-20" d="M1039.2,25.8l-1.1-7.2-45.6,7.2,1.5,9.7,45.6-7.2c-.1-.9-.3-1.7-.5-2.5"/>
      <path class="cls-14" d="M713.2,174.1c-7.3,21.3-48.7,28.3-77.1,18.6-28.5-9.7-38.2-32.4-31-53.8,7.3-21.3,41.2-33.2,69.7-23.5,28.5,9.7,45.7,37.4,38.4,58.7"/>
      <path class="cls-8" d="M693.8,143.9c-9.6-3.6-37-6-46.4,9.6-5.8,9.5-2.3,23.3,8.7,27.9,18.6,7.7,51.8,5.1,49.5-21-.6-7.3-4.7-13.9-11.8-16.5m-6.7,16c-2,3-23.2,3.6-22.4-.9,.6-1,1.7-1.2,2.8-1.6,2.7-.9,22.4-1.6,19.6,2.5"/>
      <path class="cls-10" d="M693.8,143.9c-6.3-2.3-20.1-4.1-31.6-.8-.9,.3-1.7,.6-2.5,.8-5.1,1.9-9.5,4.9-12.3,9.6-1.5,2.5-2.4,5.2-2.6,8.1,0,.4,.2,.8,.3,1.2,.8,1.8,3,1.7,4,3.2,.9,1.4,.3,3.5,.9,5.1,.6,1.6,2,2.7,3.6,3.6,2.1,1.2,3.5,1,5.8,.2,2.1-.8,4.1-1.2,6.4-1.4,1.1,0,2.1-.2,3,.2,.9,.4,1.5,1.1,2.5,1.2,2.5,.3,3.4-2.3,5.8-2.5,2.2-.2,4,.6,5.3,2,1.7,1.8,2.2,3,5.2,2.6,3.1-.4,6.4-1.9,7.6-4.4,.7-1.3,.5-4.7,2.1-5.3,1.1-.4,2.4,.5,3.4-.6,.6-.7,.3-2,.3-2.8,0-.8-.1-2.3,.5-3,.7-.7,2-.6,2.9-.8,.5-.1,.8-.3,1.1-.5-.8-7-4.8-13.3-11.7-15.8m-6.7,16c-2,3-23.2,3.6-22.4-.9,.6-1,1.7-1.2,2.8-1.6,2.7-.9,22.4-1.6,19.6,2.5"/>
      <path class="cls-8" d="M677.6,151.5c-10.8,0-14.6,2.7-14.9,4.9-.4,2.7,1.9,3.3,2.2,3.5-.2-.3-.3-.6-.3-1,.6-1,1.7-1.2,2.8-1.6,2.7-.9,22.4-1.6,19.6,2.5,0,.1-.2,.3-.4,.4,1.9-.6,4-1.4,4.4-3.2,.7-3.3-8.4-5.5-13.5-5.5"/>
      <path class="cls-8" d="M642.8,117.8c-9.7,3.3-32.4,18.8-29.8,36.8,1.6,11,13,19.5,24.4,16.1,19.3-5.8,43.3-28.9,25-47.6-5.1-5.3-12.4-7.8-19.6-5.3m4.9,16.6c.3,3.6-15.7,17.4-17.9,13.5-.2-1.1,.6-2,1.2-3,1.5-2.4,16.3-15.4,16.7-10.5"/>
      <path class="cls-11" d="M642.8,117.8c-6.3,2.2-18.2,9.5-24.9,19.3-.5,.7-1,1.5-1.4,2.3-2.7,4.7-4.2,9.8-3.5,15.2,.4,2.9,1.5,5.6,3.1,7.9,.3,.3,.7,.5,1,.7,1.8,.9,3.4-.6,5.1,0,1.6,.5,2.5,2.5,3.9,3.3,1.4,.9,3.2,.9,5.1,.6,2.4-.4,3.3-1.4,4.6-3.5,1.1-1.9,2.4-3.5,4.1-5.1,.8-.8,1.5-1.4,2.5-1.7,.9-.3,1.8,0,2.7-.6,2.2-1.3,1.1-4,2.9-5.7,1.6-1.5,3.5-2,5.4-1.8,2.4,.3,3.6,1,5.7-1.3,2.1-2.2,3.8-5.5,3.2-8.2-.3-1.5-2.6-4-1.7-5.5,.6-1,2.2-1.2,2.3-2.6,0-.9-1.1-1.7-1.5-2.4-.5-.7-1.6-1.7-1.5-2.6,.1-.9,1.2-1.7,1.7-2.5,.3-.4,.4-.8,.5-1.1-5.1-4.9-12.1-7.2-19.1-4.8m4.9,16.6c.3,3.6-15.7,17.4-17.9,13.5-.2-1.1,.6-2,1.2-3,1.5-2.4,16.3-15.4,16.7-10.5"/>
      <path class="cls-8" d="M635.1,134c-8.4,6.8-9.6,11.3-8.4,13.2,1.4,2.3,3.5,1.3,4,1.3-.4,0-.7-.3-.8-.6-.2-1.1,.6-2,1.2-3,1.5-2.5,16.3-15.4,16.7-10.5,0,.2,0,.4,0,.6,1.1-1.7,2.2-3.7,1.4-5.3-1.6-3-10,1.1-13.9,4.3"/>
    </g>
    <g>
      <text class="cls-19" transform="translate(15.4 167.6) rotate(-15.8)"><tspan class="cls-16" x="0" y="0">子</tspan><tspan class="cls-15" x="57" y="-10.1">ど</tspan><tspan class="cls-18" x="111.9" y="7.6">も</tspan><tspan class="cls-17" x="171" y="0">食</tspan><tspan class="cls-1" x="234.3" y="6.5">堂</tspan><tspan class="cls-16" x="0" y="69.7">と</tspan><tspan class="cls-1" x="57" y="63.8">は</tspan></text>
      <polygon class="cls-5" points="289.8 43.6 289.8 25.1 299.5 25.1 289.8 43.6"/>
      <polygon class="cls-11" points="294.6 57.3 313.1 48.5 315.7 57.3 294.6 57.3"/>
    </g>
  </g>
</svg>