<?xml version="1.0" encoding="UTF-8"?>
<svg id="_レイヤー_2" data-name="レイヤー 2" xmlns="http://www.w3.org/2000/svg" viewBox="0 0 713.1 264">
  <defs>
    <style>
      .cls-1 {
        fill: #f9dd96;
      }

      .cls-2 {
        fill: #f1b22d;
      }

      .cls-3 {
        fill: #eaa51c;
      }

      .cls-4 {
        fill: #ebcb32;
      }

      .cls-5 {
        fill: #fff;
      }

      .cls-6 {
        fill: #e9a828;
      }

      .cls-7 {
        fill: #f39a43;
      }

      .cls-8, .cls-9 {
        fill: #edad23;
      }

      .cls-10 {
        fill: #e73c71;
      }

      .cls-11, .cls-12 {
        fill: #65bbb1;
      }

      .cls-13 {
        fill: #221815;
      }

      .cls-14 {
        fill: #1c68ac;
      }

      .cls-12, .cls-15, .cls-9 {
        fill-rule: evenodd;
      }

      .cls-15 {
        fill: #efefef;
      }
    </style>
  </defs>
  <g id="_レイヤー_1-2" data-name="レイヤー 1">
    <g>
      <path class="cls-5" d="m22.7,131.5l.4-.6,4.5-1.3c3.4-3.1,6.2-6.1,7.8-8.2l-22.4,6.3-10.4,3.1-.6-.3-2-7.2.3-.6,10.5-2.8,26.3-7.4,5.7-1.8,5.5,3.5c.5.3.8.7.9,1.2,0,.3,0,.5-.1.8-3.7,5.7-9,12.1-15.6,18.8l1.2,4.2,13.9-3.9,10.4-3.1.6.3,2.1,7.3-.3.6-10.5,2.8-13.9,3.9,1.3,4.6,3.7,12c2,7-1.6,9.5-11.8,12.4-1.3.4-1.4.3-1.8-.2l-5.9-7.4c4-1.1,6-1.8,8.2-2.6,1.3-.5,1.6-.9,1.2-2.4l-3.9-13.9-14.4,4.1-10.4,3.1-.6-.3-2.1-7.3.3-.6,10.5-2.8,14.4-4.1-2.9-10.3Z"/>
      <path class="cls-5" d="m122,130.9c-5.7,2.1-11.7,4-19.6,6.3-15.1,4.3-23.6,1.7-26.4-8.1-1.6-5.7,1.5-12.5,6.9-19.1-4.3-3.5-9.2-8.1-13.4-12.3v-.7c0,0,6.4-6.1,6.4-6.1h.7c4.2,4.3,8.8,8.6,13,12.1,4.9-4.5,10.5-9,16.2-13.1h.7c0,0,6,7.2,6,7.2v.6c-5.1,3.4-10,7.1-13.2,9.7-.8,1.1-1.1,2.1-.8,3.6.5,2.6-1.4,4.8-3.4,5.4-1.7.5-3.3.2-4.8-.5-4.1,4.2-5.5,7.5-4.7,10.4,1.2,4.2,6.8,3.6,14.2,1.5,5.5-1.6,11.6-3.7,19-6.7l.6.2,2.8,8.9-.2.7Zm-19.4-47.1l2.6-3.2.6-.2c2.9,1.3,5.7,2.9,8.3,4.8v.6c.1,0-2.6,3.4-2.6,3.4l-.6.2c-2.7-2-5-3.6-8.1-5v-.6Zm4.7-5.6l2.5-3.2.6-.2c2.9,1.3,5.4,2.7,8,4.7v.6c.1,0-2.5,3.3-2.5,3.3l-.6.2c-2.7-2-4.9-3.4-8-4.8v-.6Z"/>
      <path class="cls-5" d="m150.1,114.4c0,.8,0,1.6.2,2.5.4,1.4,1.7,1.2,5.2.2-.5-3.7-.8-6.3-1.2-9.1-4.5,1-8.3,1.7-11.8,2.2l-.5-.5-1.6-7.4.4-.5c4.1-.5,8-1.2,12.4-2.4-.5-3.6-1-7.3-1.5-10.5l.5-.5,9-1.5.6.4c.4,2.7.7,5.9,1,9.1,2.9-.9,5.6-2.1,8.4-3.3l.6.2,2.6,7.3-.4.7c-3.1,1.3-6.7,2.6-10.3,3.7.3,3.1.7,6.2,1.1,9,4-1.4,8.2-3.2,12.5-5.3l.7.2,2.9,7.1-.2.6c-5.2,2.4-9.9,4.4-14.4,6,.4,2.5.6,4.6,1.4,7.2.9,3.1,2.7,3.9,7.4,2.6,8.4-2.4,10.3-4.7,9.5-7.2-.4-1.3-1.6-3.1-5.4-5.5l6.8-4.6c.6-.4,1.1-.3,1.5,0,5.9,3.5,7.5,6.3,8.4,9.2,1.8,6.3-2.1,12.4-18.2,16.9-12.3,3.5-17.2-.5-19-6.9-1-3.6-1.4-6.2-1.8-8.9-8.5,1.9-12.4,1.3-13.8-3.8-.4-1.5-.6-3.1-.3-5.4l.4-.4,6.6-2.2.5.4Z"/>
      <path class="cls-5" d="m251.4,75.9l2.3,8,1.7,5.4c.2-.2.2-.4.4-.6l.6-.2,7.4,3.5v.6c-2.4,3.2-5.2,6.2-8.1,8.8,4.5.4,9.6-.2,15.4-1.2l-2.7,8.5c-.2.5-.9.7-1.4.7-7,.6-13.5.1-18.8-1.6-2.5-.8-4.8-1.9-7.1-3.3l1,5.3c.2.8,0,1.2-.7,1.5-7,3.6-15.7,7.8-25.1,12.1h-.6s-4.8-6.5-4.8-6.5l.3-.7c3.3-1.3,6.4-2.5,9.3-3.7l-7.2-25.7-1.2-3.9-3,2.5c-.4.3-.7.5-.9.6-.3,0-.6,0-.8-.2l-7.5-5.1c11-7.2,17.9-15,22.8-24.1l.6-.4,8.6-.3.4.6c-.1.3-.3.7-.5,1,8,3.1,17.5,5,28.6,4.4l-2.3,8.9c-.2.6-.2.9-.5,1-.2,0-.4,0-.7,0-2.1-.1-4.3-.4-6.4-.8l1.3,4.9Zm-26.4-5.6l.3-.6,7.7-2.2.6.3,1.4,4.9,5-1.4,4.6-1.4c-5.7-1.3-11.3-3-16.6-5.4-2.9,4.8-6.4,9.1-10.3,13l2.7-.7,6.2-1.7-1.4-4.8Zm-3.7,12.6l.9,3,21-5.9-.9-3-21,5.9Zm2.4,8.5l.9,3.3,21-5.9-.9-3.3-21,5.9Zm2.6,9.2l2.4,8.3c3.7-1.6,7.3-3.4,11-5.1-2.2-1.5-4.2-3.3-6.1-5.3l-7.2,2Zm15.8-4.5c1.8,1.3,3.7,2.5,5.8,3.4,1.9-2,3.7-4.1,5.2-6.3l-6.4,1.7-4.5,1.3Z"/>
      <path class="cls-5" d="m298.2,44.2l.2-.5,8.5-2.4.5.3,2.8,9.7,7.5-2.1-4.8-.7c1.1-2.9,2.1-6.1,2.7-9l.6-.4,8.3.8.3.6c-.8,2.9-1.9,5.6-2.9,7.6l1.3-.4,10.5-3.2.6.3,1.2,4.8.8,3,2.4,7.3-9.2,2.6-2.3-8.2-37.9,10.7,2.3,8.2-9,2.6-1.8-7.4-.8-3-1.5-4.7.3-.6,10.3-2.7.9-.2c-2-1.7-4.9-3.8-6.4-4.6v-.7c0,0,5.4-5,5.4-5l.6-.2c1.7.7,5.8,3.5,7.8,5.2v.6c0,0-4.3,3.8-4.3,3.8l8.1-2.3-2.8-9.7Zm7.4,37.8l-8.7,2.7-.6-.3-1.6-6.4-1.5-5.3-1.6-5,.3-.6,9.2-2.4,15.1-4.3,9-2.8.6.3,1.4,5.6,1.4,4.8,2,6.3-.3.6-8.5,2.2-3.8,1.1,1,3.4,5.7-1.6,10.4-3.1.6.3,1.8,6.3-.3.6-10.5,2.8-5.6,1.6,1,3.5,13.8-3.9,10.4-3.1.6.3,1.9,6.7-.3.6-10.5,2.8-36,10.2-10.4,3.1-.6-.3-1.9-6.7.3-.6,10.5-2.8,13.5-3.8-1-3.5-5.5,1.6-10.4,3.1-.6-.3-1.8-6.3.3-.6,10.5-2.8,5.5-1.6-1-3.4-3.5,1Zm14.4-10.7l-1.4-4.9-16.9,4.8,1.4,4.9,16.9-4.8Z"/>
      <path class="cls-5" d="m81,244.8c-5.7,2.1-11.7,4-19.6,6.3-15.1,4.3-23.6,1.7-26.4-8.1-1.6-5.7,1.5-12.5,6.9-19.1-4.3-3.5-9.2-8.1-13.4-12.3v-.7c0,0,6.4-6.1,6.4-6.1h.7c4.2,4.3,8.8,8.6,13,12.1,4.9-4.5,10.5-9,16.2-13.1h.7c0,0,6,7.2,6,7.2v.6c-5.1,3.4-10,7.1-13.2,9.7-.8,1.1-1.1,2.1-.8,3.6.5,2.6-1.4,4.8-3.4,5.4-1.7.5-3.3.2-4.8-.5-4.1,4.2-5.5,7.5-4.7,10.4,1.2,4.2,6.8,3.6,14.2,1.5,5.5-1.6,11.6-3.7,19-6.7l.6.2,2.8,8.9-.2.7Z"/>
      <path class="cls-5" d="m91.9,180.9l8.9-1.2.5.5c.9,3.7,1.3,7.9,1.6,14.9.2,6.1,1.3,13.4,2.7,18.4.4,1.3.8,2.5,1.5,3.8.7,1.2,1.1,1.2,1.9-.3.9-1.6,1.5-3.1,2-4.8l2.2.5c-.5,7.7-.3,10.4.6,14.7.7,2.8-.6,4.7-3,5.4-2,.6-4.2-.2-5.7-1.4-2.8-2.2-5.8-6.7-7.8-13.9-1.7-6.1-3.5-15.1-4-22.7-.3-4.9-.8-9.5-1.8-13.3l.4-.4Zm57.9,36.8c-2.9-2-5.7-3.5-8.1-4.4.5,6.2-3.1,9.9-9.8,11.8-6.5,1.8-13.4.7-15.3-6.2-2-6.9,3.5-11.8,9.2-13.4,1.8-.6,2.5-.6,4-.9-1.3-3.9-2.6-8.1-4.1-12.7-4.2,1.5-8.8,3-13,4.2l-.6-.4-2.4-7.6.3-.5c4.6-1.3,8.9-2.6,13.1-4.1-1-3.1-2-6.6-3-10.1l.3-.7,8.3-2.3.6.4c.9,3.2,1.7,6.4,2.6,9.4,2.5-1,5-2.2,7.4-3.2h.7c0,.1,3.3,7.4,3.3,7.4l-.2.6c-2.4,1.2-5.4,2.5-8.6,3.7,1.7,5.6,3.4,10.9,5.1,15.5,5.5.7,9.8,2.4,13.8,4.5v.7c.1,0-2.9,7.9-2.9,7.9l-.7.3Zm-22.2-5c-2.5.7-3.5,2.1-3.2,3.4.3,1.1,1.5,1.9,4.6,1,3.4-1,3.7-2.3,2.8-5-1.2,0-2.2,0-4.2.6Z"/>
    </g>
    <g>
      <path class="cls-14" d="m643.3,174.6c0,19.3,15.6,32.5,34.9,32.5s34.9-10.7,34.9-30-15.6-30-34.9-30-34.9,8.2-34.9,27.5"/>
      <path class="cls-3" d="m647.2,170.6s0,0,0,0c0,0,0,0,0,0,0,0,0,0,0,0"/>
      <path class="cls-6" d="m699.8,178s-.2.1-.2.1c0,.1.4.2.4.3,0,.1,0,.3,0,.4,0,.1,0,.3.1.4,0,.2-.2.4-.2.5,0,.1.3.2.3.3,0,.3-.1.6-.2.9-2,.8-4,1.6-6,2.3-2,.7-4.1,1.3-6.2,1.9-2,.6-4.1,1.2-6.2,1.8-2.1.6-4.1,1.2-6.2,1.8-2.1.6-4.1,1.3-6.1,2-2,.7-4.1,1.3-6.1,2-.5.2-1,.2-1.4.3-.2,0-.3.4-.5.5-.1,0-.3,0-.5,0,0,0,0,0,0,0-2.3.5-3.2-.6-3.6-3.7-.2-1.5.3-2.6,1-3.4,0,0,.1,0,.1,0,0,0,0,0,0,0,.3-.3.6-.7,1-1,0,0,0-.2,0-.3.4-.2.9-.2,1.3-.4.1,0,.3,0,.4-.1.4-.2.7-.5,1.1-.6.1,0,.3-.1.4-.2.5-.2,1,0,1.5-.2,2.2-.7,4.3-1.5,6.5-2.1,2.2-.6,4.3-1.5,6.6-2.1,2.2-.6,4.5-1.1,6.7-1.6,2.2-.5,4.5-.9,6.7-1.4,2.3-.4,4.5-.8,6.8-1.2.8.7,1.6,1.4,2.1,2.4,0,0-.2,0-.2,0,0,0,0,0,0,.1,0,0,.3,0,.3,0"/>
      <path class="cls-6" d="m699.3,166.8c-.2,1.1-.3,1.1-.7,2-.4.2-3,1.3-6.6,2.5-1.9.7-4.2,1.5-6.6,2.3-2.1.7-4.4,1.3-6.7,2-2.2.7-4.5,1.5-6.6,2.1-2.4.8-4.7,1.4-6.7,1.9-3.7,1.1-6.4,2-6.8,1.8-1.1-1.6-1-2.3-1.6-3.6-.2-.4-1-2.1-.5-3.3.2-.6.5-2,1-2.3,0,0,0-.1,0-.1,0,0,0,0,0,0,2-.7,4.2-1,6.4-1.4,2.1-.4,4.2-.8,6.4-1.1,2.2-.3,4.3-.5,6.4-.9,1.4-.3,4-1.2,6.8-2,2.2-.6,4.6-1.3,6.8-1.9,3.1-.8,5.8-1.5,6.9-1.5.4.7,1.8,2.6,2.1,3.4"/>
      <path class="cls-1" d="m657.6,172.6s0,0,0,0c0,0,0,0,0,0,0,0,0,0,0,0"/>
      <path class="cls-6" d="m694.5,157.8c0,0-.1.2,0,.3,0,.1.3.2.3.3,0,.1.2.3.2.4,0,.1-.2.3-.2.4,0,.2,0,.4,0,.6,0,0,0,.2,0,.2,0,.3.1.7,0,1-2,.8-4,1.6-6,2.2-2,.7-4.1,1.3-6.2,1.9-2,.6-4.1,1.3-6.2,1.9-2.1.6-4.1,1.2-6.2,1.8-2.1.6-4.2.9-6.3,1.6-2.1.7-4.1,1.5-6.1,2.2-.5.2-.8.6-1.2.7-.2,0-.4,0-.6,0-.1,0-.3,0-.5,0,0,0,0,0,0,0-2.3.4-3.1-.5-3.5-3.6-.6-4,3.5-5.2,6.8-6.3,2.2-.7,4.4-1.1,6.6-1.8,2.2-.6,4.4-1.2,6.7-1.8,2.2-.6,4.4-1.2,6.7-1.7,2.2-.5,4.5-1.1,6.7-1.5,2.3-.4,4.5-1,6.8-1.4.8.7,1.3,1.7,1.8,2.7,0,0,.2,0,.2,0"/>
      <path class="cls-4" d="m701,168.4c0,.1.2.2.2.3.1.3.4.6.5.9-1.5,1.5-3.2,2.9-4.8,4.3-1.6,1.4-3.2,2.9-4.8,4.3-1.6,1.4-3.2,2.9-4.8,4.3-1.6,1.4-3.3,2.8-4.9,4.2-1.6,1.4-3.3,2.8-4.9,4.2-1.6,1.4-3.3,2.8-4.8,4.3-.4.4-.7.7-1.1.9-.1.1-.2.3-.3.4-.1.1-.2.4-.3.5,0,0,0,0,0,0-1.9,1.4-3.1.7-4.7-1.9-.8-1.2-.7-2.3-.3-3.4,0,0-.3,0-.3,0,0,0,0,0,0,0,.1-.4.5-.8.8-1.2,0,0,.1-.1.2-.2.2-.3.5-.7.8-1,0-.1.3,0,.4-.2.3-.3.5-.6.9-.9,0,0,.2-.2.3-.3.4-.3.6-.8,1-1.1,1.7-1.5,3.4-3.1,5.2-4.6,1.7-1.5,3.5-3,5.3-4.4,1.8-1.4,3.7-2.7,5.5-4.1,1.8-1.4,3.6-2.8,5.5-4.1,1.9-1.3,3.8-2.7,5.7-3.9,1,.3,2,.8,2.8,1.5,0,0,0,0,0,0,0,0,.1,0,.2,0,0,0,.1,0,.2,0,0,0,0,0,0,0,.1.1.2.2.3.3,0,0,.2.2.2.2,0,.1,0,.4.1.5,0,.1.2.3.2.4"/>
      <path class="cls-4" d="m699.2,160.9c-.4.2-2.7,1.4-6.2,2.8-1.9.8-4,1.7-6.4,2.6-2.1.8-4.2,1.7-6.4,2.5-2.2.8-4.4,1.6-6.5,2.4-2.3.9-4.5,1.8-6.4,2.5-3.6,1.3-6,1.9-6.4,1.8-1-1.1-1.4-1.3-1.9-2.2-.2-.3-.8-1.6-.3-2.6.2-.5.6-1.5,1.2-1.8,0,0,0-.2,0-.2h0c2-.7,4.1-1.1,6.1-1.7,2.1-.6,4.1-1.1,6.2-1.6,2.1-.5,4.1-1.4,6.1-1.9,1.4-.4,3.9-1.2,6.6-2.2,2.2-.7,4.6-1.3,6.7-2,3-1,5.6-1.9,6.7-2.1.4.5,1.5,1.7,1.7,2.3-.1.9-.3.8-.8,1.6"/>
      <path class="cls-2" d="m660,168.7s0,0,0,0c0,0,0,0,0,0,0,0,0,0,0,0"/>
      <path class="cls-14" d="m508.7,94.5c0,19.3-15.6,32.5-34.9,32.5s-34.9-10.7-34.9-30,15.6-30,34.9-30,34.9,8.2,34.9,27.5"/>
      <path class="cls-3" d="m504.7,90.5s0,0,0,0c0,0,0,0,0,0,0,0,0,0,0,0"/>
      <path class="cls-6" d="m452.5,98.1s-.2,0-.2,0c0,.1.1.4,0,.5,0,.1-.2.2-.3.3,0,.1,0,.3-.1.4,0,.2-.3.3-.3.5,0,.1.3.2.3.4,0,.3-.1.7,0,1,2,.8,4,1.4,6.1,2.1,2,.7,4.1,1.4,6.1,2,2,.6,4.1,1.3,6.2,1.9,2.1.6,4.1,1.2,6.2,1.8,2.1.6,4.2,1.1,6.2,1.8,2.1.7,4.1,1.4,6.1,2.2.5.2.9.4,1.3.6.2,0,.5-.2.6-.2.1,0,.3.1.4.2,0,0,0,0,0,0,2.3.5,2.9-.5,3.4-3.5.2-1.5-.1-2.5-.9-3.3,0,0,.1,0,.1,0,0,0,0,0,0,0-.3-.3-.8-.6-1.2-.8,0,0-.2,0-.3,0-.4-.2-.6-.7-1-.9-.1,0-.3-.1-.4-.2-.4-.2-.8-.1-1.2-.3-.1,0-.3,0-.4-.1-.5-.2-.9-.5-1.3-.7-2.2-.7-4.4-1.4-6.6-2-2.2-.6-4.5-1-6.7-1.6-2.2-.6-4.4-1.1-6.7-1.6-2.2-.5-4.5-1-6.7-1.4-2.3-.4-4.5-.9-6.7-1.3-.8.7-1.4,1.4-1.9,2.4,0,0-.2,0-.2,0,0,0,0,0,0,0,0,0,.2.2.2.2"/>
      <path class="cls-6" d="m452.9,86.8c.2,1.1.2,1,.7,2,.4.2,2.9,1,6.5,2.3,1.9.7,4.2,1.4,6.6,2.3,2.1.7,4.3,1.7,6.5,2.4,2.2.7,4.5,1.5,6.6,2.2,2.4.8,4.7,1.6,6.6,2.2,3.7,1.1,6.3,1.5,6.7,1.3,1.1-1.6,1.4-2.1,2-3.3.2-.4.7-2.1.3-3.3-.2-.6-.4-2.1-.9-2.4,0,0,0,.1,0,.1,0,0,0,0,0,0-2-.7-4.1-1.4-6.2-1.9-2.1-.4-4.3-.7-6.4-1-2.2-.3-4.3-.8-6.4-1.2-1.4-.3-4-.8-6.9-1.6-2.2-.6-4.7-1.3-6.8-1.8-3.1-.8-5.7-1.4-6.8-1.4-.4.7-1.7,2.4-1.9,3.1"/>
      <path class="cls-1" d="m494.3,92.5s0,0,0,0c0,0,0,0,0,0,0,0,0,0,0,0"/>
      <path class="cls-6" d="m457.5,77.7c0,0-.3,0-.3.2,0,.1,0,.3,0,.4,0,.1,0,.3,0,.4,0,.1-.3.2-.3.3,0,.2,0,.4,0,.6,0,0,0,.2,0,.3,0,.3.1.6.2.9,2,.8,4,1.4,6.1,2.1,2,.7,4.1,1.3,6.1,2,2,.6,4.1,1.1,6.2,1.7,2.1.6,4.1,1.2,6.2,1.8,2.1.6,4,1.5,6.1,2.2,2.1.7,4.1,1.2,6.1,2,.5.2,1,0,1.4.2.2,0,.4.2.5.3.1,0,.3.2.4.3,0,0,0,0,0,0,2.3.4,3-.6,3.5-3.6.6-4-3.5-5-6.8-6.1-2.2-.7-4.3-1.7-6.5-2.3-2.2-.6-4.4-1.3-6.6-1.9-2.2-.6-4.5-1-6.7-1.5-2.2-.5-4.5-.8-6.8-1.3-2.3-.4-4.5-.6-6.7-1-.8.7-1.7,1.1-2.2,2.1,0,0,.2,0,.2,0"/>
      <path class="cls-4" d="m450.8,88.2c0,.1,0,.2-.2.4-.1.3-.1.5-.2.9,1.5,1.5,2.9,3.2,4.5,4.6,1.6,1.4,3.2,2.9,4.8,4.3,1.6,1.4,3.3,2.7,5,4.1,1.6,1.4,3.3,2.7,4.9,4.1,1.6,1.4,3.2,2.8,4.8,4.3,1.6,1.4,3.1,3,4.6,4.5.4.4.7.7,1,1,.1.1.3,0,.5.2.1.1.4.1.5.2,0,0,0,0,0,0,1.9,1.4,3,.8,4.6-1.8.8-1.2,1-2.4.7-3.5,0,0-.3,0-.3,0,0,0,0,0,0,0-.2-.4-.2-.9-.5-1.3,0,0,0-.1-.1-.2-.2-.3-.5-.7-.8-1,0-.1,0-.3-.2-.4-.3-.3-.6-.6-.9-.9,0,0-.2-.2-.3-.3-.4-.3-.9-.5-1.2-.9-1.7-1.5-3.4-3.1-5.1-4.6-1.7-1.5-3.6-2.9-5.3-4.3-1.8-1.4-3.5-2.9-5.4-4.3-1.8-1.4-3.8-2.6-5.6-4-1.9-1.3-3.8-2.6-5.7-3.9-1,.3-2,.5-2.8,1.2,0,0,0,0,0,0,0,0,0,.2,0,.2,0,0,0,.1,0,.1,0,0,0,0,0,0-.1,0-.2.2-.3.3,0,0-.1.2-.2.3,0,.1-.4,0-.5.2,0,.1-.2.3-.2.4"/>
      <path class="cls-4" d="m452.4,81c.4.2,3,1.1,6.5,2.5,1.9.8,4.1,1.6,6.4,2.5,2.1.8,4.2,1.6,6.4,2.5,2.2.8,4.3,1.8,6.4,2.5,2.3.9,4.6,1.6,6.5,2.2,3.6,1.3,6.2,2.4,6.6,2.3,1-1.1.9-1.8,1.4-2.6.2-.3.8-1.3.3-2.3-.2-.5-.3-1.8-.8-2.1,0,0,0,.2,0,.2h0c-2-.9-4-1.7-6-2.3-2-.6-4.1-1.1-6.2-1.6-2.1-.5-4.2-.7-6.3-1.2-1.4-.4-3.9-1.2-6.6-2.2-2.2-.7-4.4-1.8-6.5-2.5-3-1-5.6-1.7-6.7-1.8-.4.5-1.8,1.6-2,2.2,0,.9.2,1,.7,1.8"/>
      <path class="cls-2" d="m492,88.6s0,0,0,0c0,0,0,0,0,0,0,0,0,0,0,0"/>
      <path class="cls-14" d="m633.6,181.8c0,38.5-28.6,59.2-67.1,59.2s-75.3-28.6-75-67.1c.3-49.9,41.8-69.7,80.3-69.7s61.8,39.2,61.8,77.7"/>
      <path class="cls-7" d="m616.4,168.1c0,.8,0,1.6,0,2.4,0,26.4-23.6,47.8-52.6,47.8s-52.6-21.4-52.6-47.8,23.6-47.8,52.6-47.8,24.7,4.2,33.8,11.2c0,0,4.3-4.4,4.3-4.4.5-.5-9.4-5.4-9.9-5.6-4.6-1.9-9.3-3.6-14.1-4.9-9.4-2.5-19.4-3.6-29-1.3-14,3.2-25.5,12.8-36,22.5-4.3,3.9-8.7,8.3-10,14-1.2,5.6,1,11.3.1,16.9-.9,5.4-.9,10.2-.4,15.7,1.3,15.4,19.8,32.4,33.4,37.8,15.9,6.3,36.9,6.5,52.9.8,3.7-1.3,7.7-2.3,11-4.7,2.3-1.7,3.5-4.2,4.9-6.6,1.7-2.7,3.7-4.3,6.2-6.1,8.2-5.9,13.4-15.5,14.4-25.5.3-2.5.2-5,0-7.5,0-1.2.7-5.1,0-6-1-1.5-7.4-.8-9.2-1"/>
      <path class="cls-4" d="m597,134c-.1-1.2-1.7-1.9-2.8-2.6-2.9-2-5.9-3.8-9.1-5.3-6.6-3.2-13.8-5.3-21.2-5.3-29.1,0-54.6,23.4-54.6,49.8s25.6,49.8,54.6,49.8,54.6-21.4,54.6-47.8c0-1.3-1.8-4.2-2.8-4.5-1.3-.4-3.4.1-4.8.1-1.7,0-3.4,0-5.1,0-6.6-.1-13.2-.6-19.8-1.2-4.3-.4-8.8-.3-13-1.2-1.4-.3-3.2-1-3.8-2.4-.8-1.8.7-2.7,2-3.6,6.6-5.2,12.1-11.5,18.5-16.8,1.4-1.1,2.8-2.2,4-3.5,1.1-1.2,3-3.3,3.3-4.8,0-.2,0-.3,0-.5"/>
      <path class="cls-10" d="m534,183.4c-2.8,0-5.4.7-7.2,2.5-1.8,1.8-2.7,4.4-2.7,7.2s.8,5.4,2.7,7.2c1.8,1.8,4.5,2.5,7.2,2.5s5.4-.7,7.2-2.5c1.8-1.8,2.7-4.4,2.7-7.2s-.8-5.4-2.7-7.2c-1.8-1.8-4.5-2.5-7.2-2.5"/>
      <path class="cls-10" d="m604,170.5c-2.8,0-5.4.7-7.2,2.5-1.8,1.8-2.7,4.4-2.7,7.2s.8,5.4,2.7,7.2c1.8,1.8,4.5,2.5,7.2,2.5s5.4-.7,7.2-2.5c1.8-1.8,2.7-4.4,2.7-7.2s-.8-5.4-2.7-7.2c-1.8-1.8-4.5-2.5-7.2-2.5"/>
      <path class="cls-10" d="m538.3,133.4c-2.8,0-5.4.7-7.2,2.5-1.8,1.8-2.7,4.4-2.7,7.2s.8,5.4,2.7,7.2c1.8,1.8,4.5,2.5,7.2,2.5s5.4-.7,7.2-2.5c1.8-1.8,2.7-4.4,2.7-7.2s-.8-5.4-2.7-7.2c-1.8-1.8-4.5-2.5-7.2-2.5"/>
      <path class="cls-10" d="m568.1,167.2c-2.8,0-5.4.7-7.2,2.5-1.8,1.8-2.7,4.4-2.7,7.2s.8,5.4,2.7,7.2c1.8,1.8,4.5,2.5,7.2,2.5s5.4-.7,7.2-2.5c1.8-1.8,2.7-4.4,2.7-7.2s-.8-5.4-2.7-7.2c-1.8-1.8-4.5-2.5-7.2-2.5"/>
      <path class="cls-12" d="m551.9,173.8c-3.3,0-6.5.9-8.7,3.1-2.2,2.2-3.1,5.3-3.1,8.6s.9,6.5,3.1,8.6c2.2,2.1,5.3,3.1,8.7,3.1s6.5-.9,8.7-3.1c2.2-2.2,3.1-5.3,3.1-8.6s-.9-6.5-3.1-8.6c-2.2-2.1-5.3-3.1-8.7-3.1m0,18.2c-1.7,0-3.2-1.1-4.3-2.2-1.2-1.1-2.3-2.5-2.3-4.3s1.1-3.2,2.3-4.3c1.2-1.1,2.6-2.2,4.3-2.2s3.2,1.1,4.3,2.2c1.2,1.1,2.3,2.5,2.3,4.3s-1.1,3.2-2.3,4.3c-1.1,1.1-2.6,2.2-4.3,2.2"/>
      <path class="cls-12" d="m596.5,186.5c-3.3,0-6.5.9-8.7,3.1-2.2,2.2-3.1,5.3-3.1,8.6s.9,6.5,3.1,8.6c2.2,2.1,5.3,3.1,8.7,3.1s6.5-.9,8.7-3.1c2.2-2.2,3.1-5.3,3.1-8.6s-.9-6.5-3.1-8.6c-2.2-2.1-5.3-3.1-8.7-3.1m0,18.2c-1.7,0-3.2-1.1-4.3-2.2-1.2-1.1-2.3-2.5-2.3-4.3s1.1-3.2,2.3-4.3c1.2-1.1,2.6-2.2,4.3-2.2s3.2,1.1,4.3,2.2c1.2,1.1,2.3,2.5,2.3,4.3s-1.1,3.2-2.3,4.3c-1.1,1.1-2.6,2.2-4.3,2.2"/>
      <path class="cls-12" d="m551.9,135.6c-3.3,0-6.5.9-8.7,3.1-2.2,2.2-3.1,5.3-3.1,8.6s.9,6.5,3.1,8.6c2.2,2.1,5.3,3.1,8.7,3.1s6.5-.9,8.7-3.1c2.2-2.2,3.1-5.3,3.1-8.6s-.9-6.5-3.1-8.6c-2.2-2.1-5.3-3.1-8.7-3.1m0,18.2c-1.7,0-3.2-1.1-4.3-2.2-1.2-1.1-2.3-2.5-2.3-4.3s1.1-3.2,2.3-4.3c1.2-1.1,2.6-2.2,4.3-2.2s3.2,1.1,4.3,2.2c1.2,1.1,2.3,2.5,2.3,4.3s-1.1,3.2-2.3,4.3c-1.1,1.1-2.6,2.2-4.3,2.2"/>
      <path class="cls-10" d="m572.4,184.8c4.1,0,7.6,2.1,10.3,4.7,2.7,2.6,4.9,6.1,4.9,10.2s-2.2,7.5-4.9,10.1c-2.7,2.6-6.2,4.7-10.3,4.7s-7.6-2.1-10.3-4.7c-2.7-2.6-4.9-6.1-4.9-10.1s2.2-7.5,4.9-10.2c2.7-2.6,6.2-4.7,10.3-4.7"/>
      <path class="cls-10" d="m528.2,152.1c4.1,0,7.6,2.1,10.3,4.7,2.7,2.6,4.9,6.1,4.9,10.2s-2.2,7.5-4.9,10.1c-2.7,2.6-6.2,4.7-10.3,4.7s-7.6-2.1-10.3-4.7c-2.7-2.6-4.9-6.1-4.9-10.1s2.2-7.5,4.9-10.2c2.7-2.6,6.2-4.7,10.3-4.7"/>
      <path class="cls-10" d="m570.6,121.1c-4.1,0-8,1.1-10.7,3.7-2.7,2.6-3.9,6.5-3.9,10.6s1.2,7.9,3.9,10.6c2.7,2.6,6.6,3.7,10.7,3.7s8-1.1,10.7-3.7c2.7-2.6,3.9-6.5,3.9-10.6s-1.2-7.9-3.9-10.6c-2.7-2.6-6.6-3.7-10.7-3.7"/>
      <path class="cls-11" d="m592.7,175.5c-.2-.3,0-.8-.2-1-.2-.2-.7-.1-1-.3-.7-.5-1.3-1.1-2.2-1.2-.8,0-1.6.5-2.4.7-2.2.7-4.1,1.5-5.4,3-1.3,1.5-1.9,3.5-2.7,5.6-.2.5-1.4,3.2-2.1,6-.8,3.1-1.2,6-.9,6.1,2.2.4,4.6.8,6.8.2,2.2-.6,4.1-2,5.8-3.5,1.7-1.5,3.4-3.1,4.3-5.2.9-2.1.9-4.4.9-6.7,0-.6.3-1.4.2-2-.2-.6-.8-1.1-1.1-1.7"/>
      <path class="cls-11" d="m561,157.5c-.2-.3,0-.8-.2-1-.2-.2-.7-.1-1-.3-.7-.5-1.3-1.1-2.2-1.2-.8,0-1.6.5-2.4.7-2.2.7-4.1,1.5-5.4,3-1.3,1.5-1.9,3.5-2.7,5.6-.2.5-1.4,3.2-2.1,6-.8,3.1-1.2,6-.9,6.1,2.2.4,4.6.8,6.8.2,2.2-.6,4.1-2,5.8-3.5,1.7-1.5,3.4-3.1,4.3-5.2.9-2.1.9-4.4.9-6.7,0-.6.3-1.4.2-2-.2-.6-.8-1.1-1.1-1.7"/>
      <path class="cls-11" d="m534.3,139.2c-.2-.3,0-.8-.2-1-.2-.2-.7-.1-1-.3-.7-.5-1.3-1.1-2.2-1.2-.8,0-1.6.5-2.4.7-2.2.7-4.1,1.5-5.4,3-1.3,1.5-1.9,3.5-2.7,5.6-.2.5-1.4,3.2-2.1,6-.8,3.1-1.2,6-.9,6.1,2.2.4,4.6.8,6.8.2,2.2-.6,4.1-2,5.8-3.5,1.7-1.5,3.4-3.1,4.3-5.2.9-2.1.9-4.4.9-6.7,0-.6.3-1.4.2-2-.2-.6-.8-1.1-1.1-1.7"/>
      <path class="cls-11" d="m542,194.1c.2-.3.7-.2.9-.5.2-.2.1-.7.4-.9.7-.5,1.6-.4,2.5-.4.8,0,1.7-.4,2.5-.1,2.2.7,3.6,2.2,5,3.7,1.3,1.5,2.7,3.1,3.5,5.2.2.5.5,3.4,1.2,6.3.8,3.1,1.7,6.3,1.4,6.4-2.2.4-4.5,0-6.7-.7-2.2-.6-4.5-1.3-6.2-2.7-1.7-1.5-2.7-3.6-3.7-5.7-.9-2.1-1.8-4.3-1.7-6.6,0-.6.5-1.3.7-1.9.2-.6,0-1.4.3-2"/>
      <path class="cls-11" d="m558.8,133.3c.2-.3.7-.2.9-.5.2-.2.1-.7.4-.9.7-.5,1.6-.4,2.5-.4.8,0,1.7-.4,2.5-.1,2.2.7,3.6,2.2,5,3.7,1.3,1.5,2.7,3.1,3.5,5.2.2.5.5,3.4,1.2,6.3.8,3.1,1.7,6.3,1.4,6.4-2.2.4-4.5,0-6.7-.7-2.2-.6-4.5-1.3-6.2-2.7-1.7-1.5-2.7-3.6-3.7-5.7-.9-2.1-1.8-4.3-1.7-6.6,0-.6.5-1.3.7-1.9.2-.6,0-1.4.3-2"/>
      <path class="cls-14" d="m457.6,169.2c-5.4,41.9-34.5,54.7-67.8,54.7s-50.6-24.6-53-54.7c-3.4-43.4,35.7-58.4,69.1-58.4s55.6,28.5,51.7,58.4"/>
      <path class="cls-11" d="m444.5,172.3c.4-2.6,2.5-2.3,4.9-4.9,3.2-3.4,2-6.1-1.2-8.4-1-.7,1.8-6.5,1.6-8.5-.5-4-5.2-1.6-6.7-3.4-1.3-1.5.2-5.5-1.3-7.1-3.8-4-6.6.3-9.6-2.2-2.4-2-4.6-4.4-7.3-5.9-2.6-1.4-5.4-1.3-8.4-1.3-4.2,0-6.8-2.6-10.3-4.3-1.9-.9-4.1-1.1-6.2-.3-4.8-1.4-7-7.7-11.7-9.6-2.4-.9-5.5-.8-8.1,1.9.8,3.2,1,8.4.5,10.7-.6,3.4-3.2,4.7-5,3.4-2.8-2.1-4-6.5-6.3-9.3-.8.7-1.3,2.2-1.9,3.6,1.4,1.4,2.7,3.1,2.6,5.7,0,1.9-.9,3.4-2.2,2.7-1.6-.7-3-2.6-4.4-3.8-.7-.7-1.4-1.3-2-2.1-.6.3-1.2,1-2,2.6-.8,1.6-.9,3.2-.9,4.7.6.6,1.1,1.3,1.6,2,.7,1.1,2.9,3.7,2.1,5.9-.8,2-2.3,1.3-3.2.9-1.8-.9-3.6-1.9-5.4-2.8-.8.2-1.6.7-2.3,2-2.1,3.7,1.8,4.5-.2,7.3-1.4,2-3.5,2.3-3.9,5.4-.1.9,0,1.5.1,2.1,1.3-.1,2.5-.2,3.8-.4,5.2-1.1,6.7-1.4,7.5,0,1.3,2.2-5.8,5.1-6.9,5.7-2,1-3.9,1.6-5.9,2.6-.6.6-1.1,1.2-1.2,1.8-1.4,6.8,3.2,3.7,3.8,6.7.5,2.2-1.8,6-.6,8.4,1.8,3.8,4.6.4,6.9,2,.8.5-1.1,7.1.3,8.8,1.6,2,6.4-.7,7,.4.8,1.5.9,3.1,1.5,4.7.9,2.5,2.2,4,4.3,4.7,2.2.7,5.8,5.8,8.3,5.4,1.8-.3,3.2-2.5,4.3-3.1,1.7-.9,2.7.1,3.4,4,.3,1.8,1.7,4.3,2.9,4.9,2.3,1.2,3.9-2.3,7.1-5.1,2.5-2.2,5.4.8,8.3.2,2.6-.5,3.4-5.2,5.7-4.5,2.7.8,7.4,3.6,10.6,0,2.4-2.8,2.7-7.1,5.2-9.9,2.1-2.3,4.9-3.1,7.2-4.2,3.2-1.5,5.5-7.4,8.9-7.6,3.8-.3,5.5-1.8,7-5.5,1-2.5-2.7-3.1-2.2-6.8"/>
      <path class="cls-6" d="m440.2,174.7c0,0,0-.1,0-.2,0-.2-.2-.4-.4-.6-2.3-2.2-1.2-2.7,0-5.2.9-2.1,1.5-4.3,1.7-6.6.4-4.6-.6-9.3-2.6-13.5-1-2.1-2.3-4.1-3.8-5.9-7.3-8.9-19-13-30.4-14.7-6.8-1-15.8-2.7-20.5,3.6-.4.6-.8,1.2-1,1.9-.9-.2-2.3-.5-2.9-.7-1-.3-2.9,1.5-2.1,4.3.8,2.7,3.1,1.1,5,0,0,.3.2.5.3.8,2.9,6.1,11.4,4.1,16.2,5.3,6.4,1.6,12.5,5,17.4,10.3,2.3,2.5,4.3,5.4,5.9,8.7,1.5,3.2,2.1,7.2,4.1,10.1,1.9,2.6,4.7,3.1,7.3,2.1.2,1.1.5,2.2,1,3.2.1.3.3.6.5.8.6.4,1.4.2,2-.1,1.2-.6,2.7-1.8,2.3-3.4,0,0,0-.1,0-.2"/>
      <path class="cls-4" d="m395.3,128.1c-3,2.2-4.9,6.3-3.5,10.4.2.7,1.1.6,1.1-.2,0-3.7,1.2-6.5,3.1-9.4.6-.9-.4-1.1-.7-.9"/>
      <path class="cls-4" d="m402.1,128.6c-3,2.2-4.9,6.3-3.5,10.4.2.7,1.1.6,1.1-.2,0-3.7,1.2-6.5,3.1-9.4.6-.9-.4-1.1-.7-.9"/>
      <path class="cls-4" d="m408.9,131.1c-2.9,1.2-5,5.9-4.2,9.3.1.5.7.4.8-.1.2-1.9.6-4,1.7-5.5.9-1.2,2.3-2,3.4-2.9.4-.3.3-1.1,0-1.1-.6,0-1.2.3-1.6.4"/>
      <path class="cls-4" d="m415.8,134.9c-2.9,1.2-5,5.9-4.2,9.3.1.5.7.4.8-.1.2-1.9.6-4,1.7-5.5.9-1.2,2.3-2,3.4-2.9.4-.3.3-1.1,0-1.1-.6,0-1.2.3-1.6.4"/>
      <path class="cls-4" d="m422,140.6c-2.9,1.2-5,5.9-4.2,9.3.1.5.7.4.8-.1.2-1.9.6-4,1.7-5.5.9-1.2,2.3-2,3.4-2.9.4-.3.3-1.1,0-1.1-.6,0-1.2.3-1.6.4"/>
      <path class="cls-4" d="m427.1,147.5c-2.9,1.2-5,5.9-4.2,9.3.1.5.7.4.8-.1.2-1.9.6-4,1.7-5.5.9-1.2,2.3-2,3.4-2.9.4-.3.3-1.1,0-1.1-.6,0-1.2.3-1.6.4"/>
      <path class="cls-4" d="m430.6,155.9c-2.9,1.2-5,5.9-4.2,9.3.1.5.7.4.8-.1.2-1.9.6-4,1.7-5.5.9-1.2,2.3-2,3.4-2.9.4-.3.3-1.1,0-1.1-.6,0-1.2.3-1.6.4"/>
      <path class="cls-6" d="m412,192.2c0,0,0-.1,0-.2,0-.2-.1-.5-.3-.7-.3-.7-.9-1.6-1.4-2.4,0,0,.1,0,.2-.1.4-.4.8-.8,1.1-1.2.9-1.1,1.5-2.4,2-3.7,1.3-3.7,1.3-8,.8-11.6-1.3-7.7-4.8-15-9.4-20.4-10.2-12.2-23.9-16.6-33.3-15.4-1,.1-2.2.4-3.3.9-1,.4-2,1-2.9,1.8-.5.5-1,1-1.3,1.7-.9-.4-2.2-.9-2.7-1.3-.9-.5-3.2.9-2.9,3.9.3,2.9,3.2,1.4,4.9,1.2-.3,4.7,8.3,7.2,11.8,7.9,1.8.4,3.7.7,5.3,1.5,1.6.8,2.9,2,4.2,3.2,2.9,2.7,5.8,5.6,7.4,9.2,1,2.2,1.5,4.5,1.9,6.9.6,2.8,1.1,5.5,1.7,8.3.7,3.3,1.8,7.1,5,8.1,1.3.4,4,0,5.1,1,.8.7.7,2.6.9,3.7,0,.3.2.6.4.9.5.5,1.3.4,1.9.3,1.3-.3,3-1.2,3-2.9,0,0,0-.1,0-.2"/>
      <path class="cls-4" d="m377,137.8c-3.4,1.5-6,5.2-5.5,9.5,0,.7,1,.8,1.1,0,.7-3.7,2.5-6.2,4.9-8.6.8-.8-.2-1.1-.5-1"/>
      <path class="cls-4" d="m383.7,139.6c-3.4,1.5-6,5.2-5.5,9.5,0,.7,1,.8,1.1,0,.7-3.7,2.5-6.2,4.9-8.6.8-.8-.2-1.1-.5-1"/>
      <path class="cls-4" d="m389.8,143.3c-3.1.7-6.1,4.8-5.9,8.3,0,.5.6.5.8,0,.5-1.8,1.4-3.8,2.7-5.1,1.1-1,2.6-1.5,3.9-2.2.4-.2.5-1,.1-1.1-.6-.1-1.3,0-1.6,0"/>
      <path class="cls-4" d="m395.8,148.4c-3.1.7-6.1,4.8-5.9,8.3,0,.5.6.5.8,0,.5-1.8,1.4-3.8,2.7-5.1,1.1-1,2.6-1.5,3.9-2.2.4-.2.5-1,.1-1.1-.6-.1-1.3,0-1.6,0"/>
      <path class="cls-4" d="m400.9,155.2c-3.1.7-6.1,4.8-5.9,8.3,0,.5.6.5.8,0,.5-1.8,1.4-3.8,2.7-5.1,1.1-1,2.6-1.5,3.9-2.2.4-.2.5-1,.1-1.1-.6-.1-1.3,0-1.6,0"/>
      <path class="cls-4" d="m404.5,163c-3.1.7-6.1,4.8-5.9,8.3,0,.5.6.5.8,0,.5-1.8,1.4-3.8,2.7-5.1,1.1-1,2.6-1.5,3.9-2.2.4-.2.5-1,.1-1.1-.6-.1-1.3,0-1.6,0"/>
      <path class="cls-4" d="m406.3,172c-3.1.7-6.1,4.8-5.9,8.3,0,.5.6.5.8,0,.5-1.8,1.4-3.8,2.7-5.1,1.1-1,2.6-1.5,3.9-2.2.4-.2.5-1,.1-1.1-.6-.1-1.3,0-1.6,0"/>
      <path class="cls-6" d="m421.8,202.4c0,0-.1,0-.2,0-.2,0-.5,0-.7-.1-.8-.2-1.7-.6-2.7-.9,0,0,0,.1,0,.2-.3.5-.6.9-.9,1.3-.9,1.1-2,2-3.2,2.8-3.3,2-7.5,3-11.2,3.2-7.8.4-15.7-1.6-21.9-4.9-14.1-7.4-21.2-19.9-22-29.4,0-1,0-2.2.2-3.4.2-1.1.6-2.2,1.1-3.2.4-.6.8-1.2,1.3-1.7-.5-.8-1.4-1.9-1.8-2.4-.7-.8.3-3.3,3.2-3.6,2.8-.3,1.4,2.2,2.4,3.5.7.8,1.9.4,2.9.6,1.3.2,2.6.8,3.7,1.6,2.2,1.6,3.7,4,4.8,6.5,1.2,2.5,2.1,5,3.4,7.4,3,5.2,8.3,9,14.1,10.4,6.8,1.6,13.7-.3,20.4,1.2,3.1.7,4.7,3.1,4.8,5.9,1-.3,2.2-.5,3.3-.4.3,0,.6,0,.9.2.6.4.7,1.2.7,1.8,0,1.3-.6,3.1-2.2,3.5,0,0-.1,0-.2,0"/>
      <path class="cls-4" d="m361.1,180.7c.8-3.6,3.9-6.9,8.2-7.4.7,0,1,.8.3,1.1-3.5,1.4-5.5,3.7-7.4,6.5-.6.9-1.1,0-1.1-.3"/>
      <path class="cls-4" d="m364.3,186.9c.8-3.6,3.9-6.9,8.2-7.4.7,0,1,.8.3,1.1-3.5,1.4-5.5,3.7-7.4,6.5-.6.9-1.1,0-1.1-.3"/>
      <path class="cls-4" d="m369.2,192.1c0-3.2,3.5-6.9,6.9-7.5.5,0,.6.5.2.7-1.7.9-3.4,2.2-4.4,3.7-.8,1.3-.9,2.9-1.4,4.2-.1.5-.9.7-1.1.4-.3-.6-.3-1.2-.3-1.6"/>
      <path class="cls-4" d="m375.4,196.9c0-3.2,3.5-6.9,6.9-7.5.5,0,.6.5.2.7-1.7.9-3.4,2.2-4.4,3.7-.8,1.3-.9,2.9-1.4,4.2-.1.5-.9.7-1.1.4-.3-.6-.3-1.2-.3-1.6"/>
      <path class="cls-4" d="m383.2,200.4c0-3.2,3.5-6.9,6.9-7.5.5,0,.6.5.2.7-1.7.9-3.4,2.2-4.4,3.7-.8,1.3-.9,2.9-1.4,4.2-.1.5-.9.7-1.1.4-.3-.6-.3-1.2-.3-1.6"/>
      <path class="cls-4" d="m391.5,202.3c0-3.2,3.5-6.9,6.9-7.5.5,0,.6.5.2.7-1.7.9-3.4,2.2-4.4,3.7-.8,1.3-.9,2.9-1.4,4.2-.1.5-.9.7-1.1.4-.3-.6-.3-1.2-.3-1.6"/>
      <path class="cls-4" d="m400.6,202.2c0-3.2,3.5-6.9,6.9-7.5.5,0,.6.5.2.7-1.7.9-3.4,2.2-4.4,3.7-.8,1.3-.9,2.9-1.4,4.2-.1.5-.9.7-1.1.4-.3-.6-.3-1.2-.3-1.6"/>
      <path class="cls-9" d="m628.4,100.6l40.6-6.4-1.3,35.4h-.1c.6,3.9-5.6,5.9-13.4,7.1-7,1.1-13,1.7-14.5-1.5,0-.2-.4-.8-.5-1.1l-10.9-33.5Z"/>
      <path class="cls-13" d="m662.2,70.4c-1.2-1.1-2.8-.5-4.2-.4-2.6.2-4.2.8-6.7.7-1,0-3.8.1-4.5,1.2,0,0,0,.2-.1.3-.1.2-.2.5-.2.8l-.6,18.2c0,.4.3.8.7.9.8.2,1.6.3,2.4.1.7-.1,1.4-.4,2.1-.7.3-.2.5-.4.5-.8l.6-15,10-2.1c1.2-1.4.8-2.6,0-3.2"/>
      <path class="cls-15" d="m671.3,92.8l-1.1-7.2-45.6,7.2,1.5,9.7,45.6-7.2c-.1-.9-.3-1.7-.5-2.5"/>
      <path class="cls-14" d="m345.3,241.1c-7.3,21.3-48.7,28.3-77.1,18.6-28.5-9.7-38.2-32.4-31-53.8,7.3-21.3,41.2-33.2,69.7-23.5,28.5,9.7,45.7,37.4,38.4,58.7"/>
      <path class="cls-8" d="m325.9,210.9c-9.6-3.6-37-6-46.4,9.6-5.8,9.5-2.3,23.3,8.7,27.9,18.6,7.7,51.8,5.1,49.5-21-.6-7.3-4.7-13.9-11.8-16.5m-6.7,16c-2,3-23.2,3.6-22.4-.9.6-1,1.7-1.2,2.8-1.6,2.7-.9,22.4-1.6,19.6,2.5"/>
      <path class="cls-10" d="m325.9,210.9c-6.3-2.3-20.1-4.1-31.6-.8-.9.3-1.7.6-2.5.8-5.1,1.9-9.5,4.9-12.3,9.6-1.5,2.5-2.4,5.2-2.6,8.1,0,.4.2.8.3,1.2.8,1.8,3,1.7,4,3.2.9,1.4.3,3.5.9,5.1.6,1.6,2,2.7,3.6,3.6,2.1,1.2,3.5,1,5.8.2,2.1-.8,4.1-1.2,6.4-1.4,1.1,0,2.1-.2,3,.2.9.4,1.5,1.1,2.5,1.2,2.5.3,3.4-2.3,5.8-2.5,2.2-.2,4,.6,5.3,2,1.7,1.8,2.2,3,5.2,2.6,3.1-.4,6.4-1.9,7.6-4.4.7-1.3.5-4.7,2.1-5.3,1.1-.4,2.4.5,3.4-.6.6-.7.3-2,.3-2.8,0-.8-.1-2.3.5-3,.7-.7,2-.6,2.9-.8.5-.1.8-.3,1.1-.5-.8-7-4.8-13.3-11.7-15.8m-6.7,16c-2,3-23.2,3.6-22.4-.9.6-1,1.7-1.2,2.8-1.6,2.7-.9,22.4-1.6,19.6,2.5"/>
      <path class="cls-8" d="m309.7,218.6c-10.8,0-14.6,2.7-14.9,4.9-.4,2.7,1.9,3.3,2.2,3.5-.2-.3-.3-.6-.3-1,.6-1,1.7-1.2,2.8-1.6,2.7-.9,22.4-1.6,19.6,2.5,0,.1-.2.3-.4.4,1.9-.6,4-1.4,4.4-3.2.7-3.3-8.4-5.5-13.5-5.5"/>
      <path class="cls-8" d="m274.9,184.8c-9.7,3.3-32.4,18.8-29.8,36.8,1.6,11,13,19.5,24.4,16.1,19.3-5.8,43.3-28.9,25-47.6-5.1-5.3-12.4-7.8-19.6-5.3m4.9,16.6c.3,3.6-15.7,17.4-17.9,13.5-.2-1.1.6-2,1.2-3,1.5-2.4,16.3-15.4,16.7-10.5"/>
      <path class="cls-11" d="m274.9,184.8c-6.3,2.2-18.2,9.5-24.9,19.3-.5.7-1,1.5-1.4,2.3-2.7,4.7-4.2,9.8-3.5,15.2.4,2.9,1.5,5.6,3.1,7.9.3.3.7.5,1,.7,1.8.9,3.4-.6,5.1,0,1.6.5,2.5,2.5,3.9,3.3,1.4.9,3.2.9,5.1.6,2.4-.4,3.3-1.4,4.6-3.5,1.1-1.9,2.4-3.5,4.1-5.1.8-.8,1.5-1.4,2.5-1.7.9-.3,1.8,0,2.7-.6,2.2-1.3,1.1-4,2.9-5.7,1.6-1.5,3.5-2,5.4-1.8,2.4.3,3.6,1,5.7-1.3,2.1-2.2,3.8-5.5,3.2-8.2-.3-1.5-2.6-4-1.7-5.5.6-1,2.2-1.2,2.3-2.6,0-.9-1.1-1.7-1.5-2.4-.5-.7-1.6-1.7-1.5-2.6.1-.9,1.2-1.7,1.7-2.5.3-.4.4-.8.5-1.1-5.1-4.9-12.1-7.2-19.1-4.8m4.9,16.6c.3,3.6-15.7,17.4-17.9,13.5-.2-1.1.6-2,1.2-3,1.5-2.4,16.3-15.4,16.7-10.5"/>
      <path class="cls-8" d="m267.2,201c-8.4,6.8-9.6,11.3-8.4,13.2,1.4,2.3,3.5,1.3,4,1.3-.4,0-.7-.3-.8-.6-.2-1.1.6-2,1.2-3,1.5-2.5,16.3-15.4,16.7-10.5,0,.2,0,.4,0,.6,1.1-1.7,2.2-3.7,1.4-5.3-1.6-3-10,1.1-13.9,4.3"/>
    </g>
    <polygon class="cls-4" points="345.1 22.9 345.1 0 357.1 0 345.1 22.9"/>
    <polygon class="cls-11" points="351.1 39.9 373.9 28.9 377.1 39.9 351.1 39.9"/>
  </g>
</svg>