<svg viewBox="0 0 621.3 345" xmlns="http://www.w3.org/2000/svg" xmlns:xlink="http://www.w3.org/1999/xlink"><filter id="a" filterUnits="userSpaceOnUse"><feOffset dx="4" dy="4"/><feGaussianBlur result="blur" stdDeviation="0"/><feFlood flood-opacity=".8"/><feComposite in2="blur" operator="in"/><feComposite in="SourceGraphic"/></filter><filter id="b" filterUnits="userSpaceOnUse"><feOffset dx="4.6" dy="4.6"/><feGaussianBlur result="blur-2" stdDeviation="0"/><feFlood flood-opacity=".8"/><feComposite in2="blur-2" operator="in"/><feComposite in="SourceGraphic"/></filter><g fill="#221815"><path d="m179 294.6c.7-1.5 1.9-3.4 3.2-4.7 4.6-5.4 12-8.7 12-17.6s-1.1-9.5-6.6-9.5-6.7 2.2-6.7 5.3 1.5 1.1 2.7 1.1c1.8 0 3.1 1.3 3.1 3s-1.7 3.2-3.8 3.2c-3.1 0-4.3-2.5-4.3-5.1 0-5.2 4.6-8.4 9.9-8.4s12.5 3.5 12.5 10.4c0 11-10.9 10.7-17.4 17.2h16.3l.8-4.6h.8c-.9 3.6-1.2 8-1.3 10.9h-21.8l.5-1.2z"/><path d="m216.8 296.2c-4.8 0-11.5-5-11.5-17.1s6.7-17.1 11.5-17.1 11.5 5 11.5 17.1-6.7 17.1-11.5 17.1zm-4.6-11.7c0 5.4 0 10.8 4.6 10.8s4.6-5.5 4.6-10.8v-10.8c0-5.4 0-10.8-4.6-10.8s-4.6 5.5-4.6 10.8z"/><path d="m231.9 294.6c.7-1.5 1.9-3.4 3.2-4.7 4.6-5.4 12-8.7 12-17.6s-1.1-9.5-6.6-9.5-6.7 2.2-6.7 5.3 1.5 1.1 2.7 1.1c1.8 0 3.1 1.3 3.1 3s-1.7 3.2-3.8 3.2c-3.1 0-4.3-2.5-4.3-5.1 0-5.2 4.6-8.4 9.9-8.4s12.5 3.5 12.5 10.4c0 11-10.9 10.7-17.4 17.2h16.3l.8-4.6h.8c-.9 3.6-1.2 8-1.3 10.9h-21.8l.5-1.2z"/><path d="m262.5 276.8h3.2c5.6 0 6.9-2.5 6.9-7.5s-1.1-6.5-4.9-6.5-5.3 1.2-5.3 2.7.5.7 1.2.8c1.2.1 2.9.8 2.9 3.1s-1.4 3.4-3.4 3.4-3.5-2-3.5-3.9c0-5 4.9-6.9 9-6.9s10.5 2.7 10.5 7.6-5.6 7.2-9.6 7.5c6 0 10.8 3.3 10.8 9.2s-6.9 9.9-12.6 9.9-9.9-1.1-9.9-6.9 1.4-4.2 3.8-4.2 3.4 1.5 3.4 3.4-1.3 3.4-3.3 3.4-1 0-1 .7c0 2 3.9 2.7 6.2 2.7 6.2 0 6.6-4.4 6.6-9.4s-1.3-8.2-7.4-8.2h-3.7v-.9z"/><path d="m289.5 288.7c2.1 0 3.9 1.7 3.9 3.9s-1.7 3.9-3.9 3.9-3.9-1.7-3.9-3.9 1.7-3.9 3.9-3.9z"/><path d="m302.1 276.8h3.2c5.6 0 6.9-2.5 6.9-7.5s-1.1-6.5-4.9-6.5-5.3 1.2-5.3 2.7.5.7 1.2.8c1.2.1 2.9.8 2.9 3.1s-1.4 3.4-3.4 3.4-3.5-2-3.5-3.9c0-5 4.9-6.9 9-6.9s10.5 2.7 10.5 7.6-5.6 7.2-9.6 7.5c6 0 10.8 3.3 10.8 9.2s-6.9 9.9-12.6 9.9-9.9-1.1-9.9-6.9 1.4-4.2 3.8-4.2 3.4 1.5 3.4 3.4-1.3 3.4-3.3 3.4-1 0-1 .7c0 2 3.9 2.7 6.2 2.7 6.2 0 6.6-4.4 6.6-9.4s-1.3-8.2-7.4-8.2h-3.7v-.9z"/><path d="m329.2 288.7c2.1 0 3.9 1.7 3.9 3.9s-1.7 3.9-3.9 3.9-3.9-1.7-3.9-3.9 1.7-3.9 3.9-3.9z"/><path d="m337.7 294.6c.7-1.5 1.9-3.4 3.2-4.7 4.6-5.4 12-8.7 12-17.6s-1.1-9.5-6.6-9.5-6.7 2.2-6.7 5.3 1.5 1.1 2.7 1.1c1.8 0 3.1 1.3 3.1 3s-1.7 3.2-3.8 3.2c-3.1 0-4.3-2.5-4.3-5.1 0-5.2 4.6-8.4 9.9-8.4s12.5 3.5 12.5 10.4c0 11-10.9 10.7-17.4 17.2h16.3l.8-4.6h.8c-.9 3.6-1.2 8-1.3 10.9h-21.8l.5-1.2z"/><path d="m368.6 294.9h4.8v-24.4c0-1.5-.3-2-1.5-2s-1.1.2-2.5 1l-3.9 2.1-.4-.9c4.6-2.6 9.8-5.9 11.9-8.4h3.3v32.6h4.4v.9h-16v-.9z"/><path d="m404.4 285.6c-2.2.4-4.5 1.1-6.8 2.1 0 .2-.2.3-.3.5-1.5 2.8-2.5 5.5-3 8-.1.6-.3.9-.7.9s-.5-.1-.7-.4c-.2-.2-.3-.4-.3-.7s.1-.9.4-1.9c.3-.9.5-1.8.8-2.5.1-.3.4-1 1-2.3.1-.3.3-.6.4-1-.2 0-.5.2-.9.4-.2 0-.3.1-.5.1-.3 0-.5-.2-.5-.7s.1-.6.4-.7c.2-.1.6-.3 1.1-.5.6-.2 1-.4 1.4-.5.2-.4.6-1.1 1.2-2.3.1-.2.5-.8 1.1-1.8 1.7-2.9 2.9-5 3.4-6.2.5-1.1.8-1.7.9-1.9.2-.3.5-.4.8-.4.5 0 .7.2.7.7 0 1.1-1.5 4.1-4.6 9-.5.8-.9 1.5-1.1 2.1l.8-.2c2.2-.6 4.1-1.2 5.9-1.6 1.2-2.3 2.7-4.7 4.5-7.5.3-.5.5-.8.5-.9.3-.5.5-.7.8-.7s.4.1.6.3c.1.2.2.4.2.6 0 .4-.2.9-.6 1.6 0 .2-.5.9-1.3 2-1.4 2.1-2.2 3.5-2.6 4.2h.7c.8 0 1.3.2 1.3.6s-.1.5-.4.7c-.2.2-.4.3-.7.3h-.6c-.3 0-.6 0-1.1.1-2.3 4-3.7 7.5-4.4 10.6-.2.7-.4 1-.8 1s-.5-.2-.8-.5c-.2-.2-.2-.5-.2-.8 0-1 1.3-4.3 3.9-9.8z"/><path d="m413.5 285.1c.9 0 1.3.5 1.3 1.6s-.7 3.2-2 5.4c-1.4 2.3-2.8 3.5-4.1 3.5s-1.1-.3-1.4-.9c-.1-.3-.2-.6-.2-1 0-1.4.5-2.8 1.4-4.4.9-1.5 1.9-2.6 3.1-3.4.7-.5 1.3-.7 1.9-.7zm-1.7 6c-.3-.2-.4-.4-.4-.5s.2-.3.5-.7c1-1.1 1.4-1.9 1.4-2.6s0-.2 0-.3c0-.2-.2-.2-.4-.2-.3 0-.8.3-1.5 1-.9.9-1.5 1.7-1.9 2.6-.5 1-.8 1.9-.8 2.6s0 .3.1.5.3.3.5.3c.5 0 1.1-.4 1.6-1.1.3-.3.5-.6.6-1s.2-.5.2-.5z"/><path d="m417.6 290.1c-.3.8-.6 1.5-.7 2-.2.5-.2.9-.2 1.1s.1.4.4.4c.4 0 .9-.4 1.5-1.1.3-.4.7-1 1.3-1.9.2-.4.5-.5.7-.5s.4.1.4.4c0 .5-.5 1.4-1.6 2.8-1.1 1.5-2.1 2.2-3 2.2s-.7-.2-1-.5c-.2-.2-.3-.5-.3-.9 0-.6.2-1.4.5-2.5s.9-2.3 1.6-3.8c1.8-3.8 3.7-7 5.6-9.5 1.5-2 2.8-3 3.8-3s.6.1.8.4c.2.2.3.5.3.8 0 1.5-1.3 4-4 7.4-1.2 1.5-2.6 3.1-4.3 4.6-.4.4-1 .9-1.8 1.6zm1.1-2.5c2.2-1.9 4.2-4.3 5.9-7.2.9-1.5 1.4-2.5 1.4-3s-.1-.4-.3-.4c-.6 0-1.6 1.2-3.2 3.5-1.3 1.9-2.5 4.2-3.8 7z"/><path d="m426.1 285.8c.2 0 .3 0 .4.2 0 .1.1.2.1.4s-.2.5-.5 1c-1.1 1.7-1.9 3.1-2.4 4.2s-.9 2.3-1.3 3.5c-.2.5-.4.8-.8.8s-.4 0-.5-.3c-.1-.1-.2-.3-.2-.4 0-.3.3-1.4 1-3.2.5-1.4 1.4-3 2.6-4.7.4-.6.7-.9.9-1.1s.4-.3.6-.3zm3-5.9c.5 0 .7.2.7.7s-.2.9-.7 1.5c-.4.5-.9.8-1.3.8s-.4 0-.5-.2c-.1-.1-.2-.3-.2-.5 0-.5.3-1.1.8-1.6.4-.4.8-.6 1.1-.6z"/><path d="m432.7 286.1c1.1-2.2 2.1-4.2 3-5.8s1.5-2.6 1.9-3c.4-.5.7-.7 1-.7s.3 0 .5.2c.1.1.2.3.2.4 0 .2-.2.7-.5 1.2-1.5 2.5-3 5-4.2 7.6-1.5 3-2.2 5.2-2.2 6.7s.1 1.1.4 1.4c0 0 .2.2.6.5v.3s0 .4-.2.6-.3.3-.5.3-.5-.1-.8-.4c-.4-.4-.7-.9-.8-1.5 0-.2 0-.7-.1-1.3-1.1 2-2.2 3-3.2 3s-1.1-.3-1.4-1c-.2-.4-.4-.9-.4-1.5 0-1.7.6-3.3 1.8-5s2.5-2.5 3.9-2.5.8.1 1.2.4zm-.5 1.3c-.3-.2-.5-.3-.7-.3-.9 0-1.7.5-2.5 1.6-1.1 1.4-1.6 2.8-1.6 4.1s0 .3 0 .4c.1.3.3.4.6.4.4 0 .8-.4 1.4-1.1.7-1 1.4-2.1 2-3.4.2-.4.4-.9.6-1.3v-.3c.1 0 .2-.2.2-.2z"/><path d="m439.5 292.8c-.4.6-.7 1.1-1 1.6-.7.8-1.3 1.2-2 1.2s-1-.3-1.3-.8c-.2-.4-.3-.8-.3-1.2 0-1.2.4-2.5 1.1-3.9.8-1.6 1.8-2.8 3-3.6.8-.6 1.5-.8 2.2-.8s.8.1 1.1.4c.3.2.4.5.4.8s0 .6-.3 1c.2.2.2.4.2.6s-.1.6-.4 1.1-.6 1.2-.9 2.1-.5 1.6-.5 2.2.1.8.4 1.1c0 0 .3.2.7.4.3.1.4.4.4.7s0 .4-.2.5-.3.2-.6.2c-.6 0-1.1-.3-1.5-.8-.3-.4-.5-.9-.5-1.6s0-.6 0-1.1zm2-5.2c-.1-.2-.3-.4-.4-.5s-.3-.2-.5-.2c-.8 0-1.7.7-2.6 2.1-1 1.6-1.6 2.9-1.6 4s0 .5.2.6c.1.1.3.2.5.2.5 0 1.1-.5 1.8-1.6.4-.6.9-1.5 1.4-2.6.4-.8.6-1.3.8-1.5 0-.1.2-.3.5-.5z"/><path d="m448.9 290.9c-.9 1.1-1.7 1.9-2.3 2.5-1.1 1.1-2 1.6-2.8 1.6s-.6-.1-.9-.4c-.2-.2-.2-.5-.2-.8 0-1.1.7-2.7 2-4.6 1.4-1.9 2.4-2.9 3-2.9s.3 0 .4.2c.1.1.2.3.2.4 0 .2 0 .4-.2.6s-.5.6-1 1.2c-.6.6-1.2 1.3-1.7 2-.6.8-.9 1.4-.9 1.8s.1.3.3.3c.4 0 1.2-.6 2.4-1.7.7-.7 1.3-1.3 1.7-1.8 0-.1.5-.6 1.1-1.5.6-.8 1-1.3 1.1-1.4.3-.4.6-.6.9-.6s.3 0 .5.2c.1.1.2.3.2.5 0 .3-.2.8-.6 1.5-.5.9-1 1.7-1.4 2.5-.7 1.2-1.2 2.3-1.5 3.2.7-.4 1.3-.9 1.9-1.5 1-1 1.5-1.7 1.8-2.1.2-.4.4-.6.6-.6s.4.1.4.4c0 .6-.5 1.4-1.4 2.5-1.1 1.3-2.6 2.5-4.2 3.4-.9 2.1-1.7 3.9-2.5 5.3-1.5 2.6-3 3.9-4.6 3.9s-1.2-.2-1.6-.7c-.3-.4-.5-.9-.5-1.5 0-1.7 1.2-3.4 3.5-5.1.7-.5 1.7-1.1 3-1.9.5-.3 1-.6 1.3-.7.2-.5.5-1.1.9-1.9.4-.9.8-1.7 1.1-2.4zm-2.9 6.3c-1.1.6-2.3 1.4-3.5 2.5s-1.8 2.1-1.8 3.1 0 .4.2.5c.2.2.4.3.6.3.8 0 1.7-.8 2.6-2.5.2-.3.6-1.2 1.3-2.8.1-.3.3-.7.5-1.1z"/><path d="m160.1 331.3c-.2.7-1.3 5.7-1.3 6 0 .8.7.8.8.8 1.2 0 1.8-1.3 1.8-2.9s-.1-2.8-1.4-4.1c-1.1-1.1-2.9-1.8-4.7-1.8-3.6 0-6.4 2.4-6.4 6.3s2.1 6.2 6.8 6.2 4.7-1.3 5.5-1.9l1.3 1.5c-1.2.9-3.1 2.4-6.7 2.4-6 0-8.8-4-8.8-8.1s3.3-8.3 8.4-8.3 7.9 2.8 7.9 7.5-1.8 5.2-4.2 5.2-2-.7-2.3-1.1c-1 1.1-2.1 1.1-2.6 1.1-3.3 0-3.4-2.9-3.4-3.6 0-2.8 2-5.4 4.5-5.4s2.1.8 2.5 1.3c.1-.4.1-.6.2-1h2.1zm-7 5.3c0 1.2.9 1.6 1.3 1.6 1.3 0 2.4-1.8 2.4-3.5s-1.1-1.6-1.5-1.6c-1.5.2-2.3 2.6-2.3 3.5z"/><path d="m178.3 339.7c4.1-1.8 6.9-5.3 8-6.7h-7.3v-2.3h8.5v-4.2c-.1 0 1.9 0 1.9 0 .7 0 .8 0 .8.3s0 .2-.2.3c-.2.2-.2.2-.2.4v3.2h4.7v2.3h-4.6l.2 8.2c0 2.4-1.3 3-4.7 2.9l-1-2.5c.4 0 1 .1 1.7.1 1.5 0 1.7-.3 1.6-1.3v-5.5c-3.3 4.1-6.6 6-7.8 6.7l-1.7-2.1z"/><path d="m206.5 330.5v-2.2h14.5c.3 0 .5 0 1.1-.5l1.8 2.1c-.7.5-.8.6-1.6 1.8-2.2 3.2-3.4 4.3-4.4 5.3l-1.8-1.5c2.2-1.9 3.3-3.6 4.2-5h-13.7zm1.5 12.1c5-3.6 5.4-6.6 5.5-11.4h2.2c.6.1.7.2.7.4s0 .2-.3.3c-.2.2-.3.2-.3.7 0 1.3-.5 4.1-1 5.5-1.3 3.1-2.9 4.5-4.6 6l-2.3-1.5z"/><path d="m240.3 335.6c-1.6-1.3-3.2-1.9-4.3-2.3l1.1-2.1c.7.2 2.8 1 4.5 2.4l-1.3 2.1zm-3.3 6.3c7.1-2.6 10.8-6.5 13.2-10.6l1.6 2.1c-3.6 5.7-7.6 7.9-12.1 10.4-.3.1-.3.2-.4.5 0 .1 0 .3-.3.3s-.4-.3-.5-.4l-1.5-2.2zm5.6-11.3c-1.1-.8-2.6-1.6-4.4-2.2l1.2-2c1.4.4 3 1.1 4.5 2.2z"/><path d="m277.9 343.2c-1.2-1.8-2.9-3.7-5.4-5.8-1.4 1.6-3.3 3.8-7.6 5.8l-1.8-1.8c2.4-1 7.9-3.5 10.8-10.9h-8.4v-2.3h8.8c.5 0 1 0 1.9-.7l1.7 2.1c-1 .4-1.1.7-1.4 1.3 0 .2-.8 1.9-2.5 4.5 3.5 2.6 5.1 4.8 5.8 5.8l-1.8 2z"/><path d="m305.3 341.3v2.3h-10.8c.4-3.3 1.5-5.1 5.1-7.5 2.4-1.6 3-2.5 3-3.8s-.5-2.5-2.4-2.5-2.5 2-2.6 3.4h-2.6c0-1.4.2-5.7 5.2-5.7s5 2.9 5 4.8-1.8 4.1-4.2 5.6c-2.5 1.7-2.9 2.3-3.4 3.5h7.6z"/><path d="m320.3 343.5h-2.6v-11.1h-4.1v-1.8c3.1 0 3.7-.9 4.4-2.9h2.3z"/><path d="m353.9 331.1c-1.4-1.2-2-1.7-2.7-2.3-.5.6-1.4 1.6-2.3 2.4h5v1.9h-2v1.4h2.8v2h-2.8v4.9c.8-.2 1.6-.4 2.4-.6v1.9c.2 0 1-.3 1.2-.3v-15.4h9v8.3h-3.8c0 .8.3 2 .5 2.6.8-.8 1.5-1.7 1.9-2.5l1.7 1.3c.3.2.3.3.3.4s0 .1-.2.1c-.4 0-.5 0-.7.2-.3.4-1.5 1.8-2.2 2.4 1 1.5 1.8 2.3 3.4 3.4l-1.8 1.6c-1.2-.9-2.5-1.8-3.6-4-1-2-1.2-3.5-1.5-5.6h-1.2v6.5c.6-.2 1.7-.6 2.5-.9v1.9c-1.4.6-3.1 1.2-4.7 1.8-.1 0-.4.2-.5.3-.3.4-.3.4-.4.4-.2 0-.3-.3-.3-.6l-.3-1.8c-1.8.5-2.2.6-5.9 1.6-.2 0-.3 0-.6.4 0 0-.2.2-.3.2s-.2-.1-.2-.5l-.4-2.3c2-.2 2.8-.3 3.3-.4v-5.3h-3v-2h3v-1.4h-1.4v-1.4c-.2.1-.7.5-1 .7l-1.5-1.6c2.2-1.3 3.5-3.2 4.3-4.6l2 .4c.5.1.5.1.5.2s0 .1-.4.4c.8.8 1.8 1.7 2.7 2.4l-1.3 1.5zm-5.2 6.1c.2.8.6 2.3.7 3.6l-1.9.4c0-1.2-.3-2.4-.8-3.5l1.9-.5zm6.2.4s.3 0 .3.2-.3.2-.4.3c0 .2-.3.9-.5 1.2-.3.6-.4.9-.5 1.2l-1.6-.5c.5-1.2.7-1.8 1-2.9l1.7.6zm7.5-8.9h-4.8v1.4h4.8zm0 3.1h-4.8v1.5h4.8z"/><path d="m374.8 331.1c1.4.4 2.8 1.3 3.8 2.1l-1.2 1.8c-.9-.8-2.5-1.7-3.8-2.1zm5.2 6.7c-.8 1.8-1.4 3.1-2.7 5-.5.8-.6.9-.6 1s0 .3 0 .3c0 .1 0 .2-.1.2s-.3-.1-.7-.4l-1.6-1.2c1.8-1.9 3.5-5.2 4-6.3l1.8 1.3zm-3.8-12.2c1.7 1 2.8 2 3.3 2.5l-1.5 1.8c-.9-1-2-1.8-3.3-2.6zm15.5 15.3c0 3.4-.9 3.6-3.9 3.7l-1.2-2.5h1.9c.5 0 1-.1 1-1.3v-12h-9.2v-2.1h13.2v2.1h-1.8v12zm-8.5.2h-2.1v-9.9h6.2v7.7h-4.1zm2.2-4.3v-3.8h-2.2v3.8z"/><path d="m412.7 341.8c1.4-.4 5.7-1.6 5.7-6.5s-4.1-5.5-5.4-5.7c-.3 2.6-.9 6.2-2.7 10.3-.2.5-1.3 2.9-2.5 2.9s-4.5-1.9-4.5-6.2 3.8-9 9.3-9 8.2 3.2 8.2 7.8-4.9 7.9-6.5 8.5l-1.6-2zm-7.2-5.3c0 1.9 1.1 3.3 1.9 3.3s.9-.9 1.1-1.5c1.1-2.7 1.9-5.6 2.1-8.5-4.6 1.6-5.1 5.2-5.1 6.7z"/><path d="m438.9 325.7h2.5c.2 0 .4.1.4.3s0 0-.2.3v.3 1.3h7.8v2.2h-14.6v2.5c0 6.1-.9 9-2 11.4l-2.3-.6c1.6-3.6 2.1-6 2.1-11.1s-.1-3.8-.2-4.5h6.6v-2.3zm8.4 18.8c-.2-.7-.5-1.4-.8-2-1.8.4-4.6 1-10 1.8-.6 0-.7.2-.9.4-.1.1-.2.2-.3.2s-.2-.2-.3-.5l-.5-2.4c.6 0 1.6-.2 2.1-.2 1.8-4.9 2.4-8.9 2.7-10.8l2.5.5c.2 0 .5.1.5.4s-.2.3-.4.4c-.3.2-.4.4-.5.9-.5 1.8-1.6 5.5-2.4 8.3 3-.4 4.8-.7 6.5-1.1-1.1-2.1-1.7-3.1-2.9-4.9l1.9-1.2c2.3 3.3 3.5 5.7 4.8 9.1l-2.2 1.2z"/><path d="m461.7 332.7h-2.3v-2h2.3v-4.4l2.1.2c.2 0 .5 0 .5.2s0 .1-.3.3c-.1.1-.1.2-.1.4v3.4h2.3v2h-2.3v4.6c1.6-.5 2-.6 2.4-.8l-.2 1.9c1.2-1.3 1.7-2.1 2-2.7h-2.6v-1.6h12.1v1.6h-7.3c-.2.3-.3.4-.5.8h7.7c-.2 2.9-.8 6.4-1.7 7.3-.6.6-1.6.8-3.1.9l-.6-2.2c1.3 0 2.1 0 2.5-.9.2-.5.6-2 .8-3.4h-.7c-.6 1.4-1.9 4-5.4 6.7l-1.6-1.1c2.9-1.8 4.3-4.1 5.2-5.6h-1c-1.6 2.9-4.6 5.1-5.5 5.7l-1.6-1.2c1.6-.8 3.5-2.4 5.2-4.6h-1.2c-1 1.3-1.9 2.1-3.1 3.1l-1.5-1.2c.7-.4 1.2-.8 2.1-1.7-.5.2-5.6 2.1-5.7 2.1 0 0-.3.5-.4.5s-.2-.4-.3-.5l-.5-2.2c.5 0 .9-.2 2.4-.5v-5.2zm5.5-6h8.9v6.7h-8.9zm6.9 2.6v-1.1h-5v1.1zm0 2.5v-1.1h-5v1.1z"/></g><g style="filter:url(#a);fill:#fff;stroke-linecap:round;stroke-linejoin:round;stroke:#221815;stroke-width:1.5"><path d="m64.1 220c-14.1 11.1-27.3 4.8-43.7-16.1-19.3-24.6-26.3-44.1-12.2-55.2 14.2-11.2 32 .9 50.8 24.9 15.9 20.3 19.4 35.2 5.2 46.4zm-53.5-68.1c-3.5 2.8 1.8 11.7 24.6 40.7 14.3 18.1 19.7 23.1 23.3 20.3 3.7-2.9 0-9.3-14.2-27.5-22.7-29.2-30.1-36.4-33.8-33.6z"/><path d="m97.9 190.1c.2-.1 1.1-.8 1.3-.9.6-.4 1.4.3 2 1.2.5 1 .8 2.1.1 2.5-2.7 1.4-6.8 3.5-10.6 5.7-3.4 1.9-6.5 4-9.1 5.5-.6.4-1.4-.4-2-1.4s-.8-1.9-.1-2.3c.1 0 1-.4 1.2-.5.8-.5-.5-3.1-1.6-5.2-5.7-10.2-11.2-20.2-16.3-29.3-3.8-6.8-7.4-13.2-10.7-18.6-2.7-4.5-3.4-5.2-4.5-4.6-.5.3-.8.6-1 .7-.7.4-1.4-.3-2-1.2-.6-1.1-.8-2.2 0-2.6 1.7-.9 4.1-2 6.5-3.2 1.7-1 3.5-2.5 5.5-3.5 2.6-1.5 3.9-.5 6.9 4.8 2.1 3.7 3.9 7.9 6.8 13.2.5 1 1.3 1.2 1.7.9.5-.3.6-.9 0-1.9-8.1-15.3-8.4-23.5-1.2-27.6 8-4.5 14.7 1.7 23.6 17.4 7.2 12.7 14 26.2 18.3 33.7 2.6 4.7 4.3 6.6 5.8 5.7.2-.1.6-.5.7-.6.6-.4 1.4.4 2 1.4.5.8.8 1.9.1 2.3-2.3 1.1-5.2 2.3-8 3.9-2.1 1.2-3.9 2.8-6.2 4.1s-4.8-1.2-10.4-11.3c-6-10.6-12.9-24.1-17.4-32-1.8-3.2-4.2-6.2-6-5.2-2 1.1-1.8 4.2 3.6 14.8 3.1 6.2 6.2 11.8 9.3 17.4 2.4 4.3 4.9 8.6 7.6 12.9 1.9 3.2 3.3 4.1 4.1 3.7z"/><path d="m140.8 175.9c-10.1 4.2-22.4.3-33.7-26.9-11.7-28-7.6-41.5 3.7-46.2 12.9-5.4 21.2 3.9 26.8 17.2 3.6 8.6 4 15.5-6.7 19.9-5 2.1-7 4.1-5 8.9 2 4.7 5.8 6.5 11.2 4.2 5.7-2.4 9.5-7.8 5.8-16.7-.5-1.3-.3-1.9 0-2.1.5-.2 1.1.1 1.6 1.4 9.8 23.4 9.1 34.8-3.8 40.1zm-23-44.9c1.2 2.9 2.3 5.4 3.1 6.9.9 1.6 1.8 1.8 2.5 1.5 1.6-.7 4.4-4.8-3.3-23.2-3.3-7.9-5.4-10.4-7.6-9.5-3.1 1.3-1.4 8.6 5.2 24.3z"/><path d="m182.6 158.4c-4.5 1.2-10.9 3.4-13 3.9-.6.1-1.2-.4-1.6-1.9-.4-1.6 0-2.3.5-2.4.3 0 1.3 0 1.6-.1 1.8-.5 1.6-2.8 0-9.1-2-8.4-4.9-20.3-8-32.3-2.4-9.3-5-18.6-7.2-26.4-1.2-4.2-2.5-8.4-4.3-8-.6.2-1.3.8-1.7.9-.7.2-1.3-.7-1.7-2-.3-1.3 0-2.4.5-2.5 4.1-1.1 8.1-1.8 12.7-3 4.9-1.3 9.1-2.8 13.5-3.9 16.4-4.2 27.8 14.1 35.6 44.1 6.2 23.9 2.7 35.6-13.6 39.8-2.3.6-9 1.6-13.5 2.8zm8.7-37c-9.8-37.9-13.7-46.2-17.6-45.2-2.1.6-2.2 4.1-1.1 9.4 1.7 7.8 4 16.8 6.3 25.8 3.2 12.4 6.5 24.4 8.9 33 1.8 6.2 3.2 8.4 5.2 7.7 5.1-1.5 4.5-6.4-1.7-30.6z"/><path d="m224.7 59.1c1.3 7.4-.8 10.6-8.2 12s-10.5-1.1-11.8-8.6c-1.5-8.7 2.5-13.1 7.9-14 5.3-.9 10.6 1.8 12.1 10.6zm-18.7 17.3c3.3-.6 6.5-.3 10.5-1 2.8-.5 5.3-1.8 8-2.2 1.2-.2 1.8.8 2.2 3.4.5 2.7 3.5 23.1 5.4 34.5.7 4.3 2.7 15.7 4 23 1.2 6.8 1.8 8.6 2.8 8.4.5 0 .8-.4 1.3-.5.8-.1 1.3.7 1.5 1.8.2 1.4 0 2.4-.8 2.5-2 .3-7.7.8-11.7 1.5-3.6.6-6.6 1.7-9.9 2.3-.7.1-1.2-.5-1.5-2.1-.2-1.4 0-2.1.7-2.2.4 0 .8.1 1.3 0 .8-.1.5-2.6 0-5.6-1.7-11-3.6-23.2-5.6-35.1-1.1-6.4-2.4-13.2-3.5-18.8-1-5.1-1.7-6.1-2.8-5.9-.7.1-1.1.3-1.4.4-.7.1-1.1-.9-1.2-2-.2-1.1-.2-2.2.5-2.3z"/><path d="m261.9 139.7c.2 0 1.3-.3 1.6-.3.7 0 1.2.8 1.3 1.9s-.2 2.2-.9 2.3c-3 .2-7.6.5-12 .9-3.9.4-7.5 1-10.5 1.3-.7 0-1.1-1-1.2-2.1s0-2.1.8-2.2h1.3c1 0 .8-3 .6-5.4-1.1-11.6-2.1-23-3.2-33.4-.8-7.8-1.5-15-2.3-21.3-.7-5.2-1-6.1-2.2-6-.5 0-.9.2-1.2.3-.8 0-1.2-.8-1.3-1.9-.1-1.2.1-2.4 1-2.4 1.9-.2 4.5-.2 7.2-.3 2-.2 4.2-.8 6.4-1.1 2.9-.3 3.7 1.1 4.3 7.2.4 4.2.4 8.8.9 14.8.1 1.1.7 1.6 1.2 1.5.5 0 .9-.6.9-1.7-1.3-17.3 1.8-24.9 10.1-25.7 9.2-.9 12.8 7.4 14.5 25.5 1.4 14.5 2.3 29.6 3.1 38.2.5 5.3 1.3 7.7 3 7.6.2 0 .7-.2.9-.2.7 0 1.1 1 1.2 2.1 0 1 0 2.1-.8 2.2-2.5.1-5.7 0-8.9.3-2.4.2-4.7 1-7.3 1.3s-3.9-3.1-5-14.5c-1.2-12.2-2.1-27.3-3-36.3-.4-3.7-1.3-7.3-3.4-7.1-2.3.2-3.3 3.1-2.7 15 .3 6.9.9 13.3 1.5 19.7.5 4.9 1 9.8 1.7 14.9.4 3.7 1.3 5.1 2.3 5z"/><path d="m284.2 67c3.3 0 6.5.6 10.5.5 2.8 0 5.5-1 8.2-1.1 1.3 0 1.7 1.1 1.7 3.7 0 2.7.2 23.4.5 34.9.1 4.4.5 15.9.7 23.3.3 6.9.5 8.8 1.6 8.7.5 0 .9-.3 1.3-.3.8 0 1.2.9 1.2 2 0 1.4-.3 2.3-1.1 2.4-2 0-7.8-.3-11.7-.2-3.7.1-6.8.7-10.1.8-.7 0-1.1-.7-1.2-2.3 0-1.4.3-2.1 1-2.1.4 0 .7.3 1.3.2.8 0 .8-2.5.8-5.5 0-11.1-.2-23.5-.6-35.6-.2-6.5-.5-13.5-.8-19.1-.3-5.2-.8-6.3-2-6.3-.7 0-1.1.2-1.4.2-.7 0-.9-1.1-.9-2.2s0-2.2.8-2.2zm20.9-14.5c.2 7.5-2.3 10.4-9.8 10.7s-10.3-2.6-10.5-10.1c-.3-8.8 4.4-12.6 9.8-12.8s10.2 3.3 10.5 12.2z"/><path d="m330.5 137.5h1.6c.7 0 1.1 1 1 2.1 0 1.1-.5 2.2-1.2 2.2-3-.3-7.6-.6-12-.8-3.9-.2-7.6 0-10.6-.2-.7 0-1-1.1-.9-2.2 0-1.1.4-2 1.1-2 .1 0 1.1.2 1.2.2 1 0 1.2-2.8 1.4-5.3.5-11.7 1.1-23 1.5-33.5.3-7.8.6-15.1.7-21.4 0-5.2-.1-6.2-1.4-6.2-.5 0-1 0-1.3 0-.8 0-1.1-1-1-2.1 0-1.2.5-2.3 1.3-2.3 1.9 0 4.5.5 7.2.7 2 0 4.3-.2 6.5-.1 3 .1 3.6 1.7 3.3 7.7-.2 4.3-.9 8.8-1.1 14.8 0 1.1.5 1.7 1 1.7s1-.5 1.1-1.6c1.1-17.3 5.3-24.4 13.5-24.1 9.2.4 11.6 9.1 10.9 27.2-.6 14.5-1.9 29.6-2.2 38.3-.2 5.4.2 7.8 1.9 7.9.2 0 .7-.1.9-.1.7 0 1 1.1.9 2.2 0 1-.4 2-1.1 2-2.5-.2-5.7-.8-8.9-.9-2.4 0-4.8.4-7.4.3-2.7-.1-3.4-3.6-2.9-15.1.5-12.2 1.7-27.3 2-36.3.1-3.7-.3-7.4-2.4-7.5-2.3 0-3.7 2.6-4.7 14.5-.6 6.8-1 13.3-1.2 19.7-.2 4.9-.3 9.9-.4 15 0 3.7.6 5.2 1.6 5.3z"/><path d="m379.6 163.8c.1-1.1.7-2 1.5-1.9 1.5.2 3.1 2.3 5.1 2.6 1.7.2 2.5-1.2 2.7-2.6.4-2.9-2.3-4.5-6.2-5-7.1-.9-14.7 4.7-22.1 3.8-7-.9-8.7-8.3-6.9-21.4 1.7-13.2 6.6-19.5 12.1-18.8 1.8.2 3.2.6 4.7.8.7 0 1.2-.8 1.3-1.8s-.1-2-.9-2.1c-8.4-1.7-11-10.4-9.2-24.1 2.3-17.7 9.6-25.9 21.3-24.4 5.4.7 9 3.1 11.5 3.4 1.1.1 1.5-.5 1.6-1.6s-.2-2-1.4-2.3c-4.8-1.2-7.2-5-6.3-11.8.8-6 4.1-9.8 9.8-9.1 6.2.8 9.4 7.5 8.2 16.9-.9 6.9-3.6 11.3-7.5 10.8-1.8-.2-3.3-.7-3.6-.7-.8-.1-1.2.7-1.3 1.6-.1.8.2 1.5.9 2.1 3.9 1.8 8.1 9.4 6.3 23.4-2.3 17.4-8.7 24.2-23.1 22.3-11.3-1.5-13.6.2-14.1 3.8-.3 2 .2 3.6 2.6 3.9 4.5.6 15.4-3.7 22.1-2.8s9.3 7.2 7.8 19c-1.9 14.8-5.4 20.5-11.8 19.6-4.1-.5-5.6-1.8-5.3-4zm-1-70.6c-1.8 13.5-2.8 22.9.7 23.4 2.6.3 3.9-2.8 5.6-16 2.7-20.8 2.6-26.8-.2-27.2-2.1-.3-4.2 4.4-6.2 19.8z"/><path d="m472.6 77.7c1.9.5 1.6 2.5.8 5.5-1.6 5.5-3.5 11.6-5.1 17.8-1.8 6.9-3.6 17.2-4.3 19.7-.5 2-1.4 3.2-2.3 3-6.6-1.7-3.5-17.2-1.1-30.8 1.4-7.9 2.2-12.8.4-13.2-1.3-.3-2.3 1.5-3.2 4.9-17.4 67-16.9 70.1-13.5 71 1.4.4 2.5-.2 3.5 0 .6.2.9 1.1.6 2.6-.4 1.5-.9 2.5-1.8 2.2-2.7-.7-10.6-3.1-16.1-4.5-5.4-1.4-13.4-3.2-15.9-3.9-1-.3-.9-1.4-.6-2.8.4-1.5 1.1-2.1 1.8-1.9 1 .3 1.7 1.3 3.1 1.7 3.2.8 5.3-1.6 22.7-68.6.9-3.3.8-5.5-.5-5.8-1.8-.5-3.5 4.2-6 11.6-4.5 13-9.4 28.2-16 26.5-.9-.2-1-1.7-.5-3.7.7-2.5 4-12.4 5.8-19.4 1.6-6.2 3-12.4 4.3-18 .8-2.9 1.5-4.9 3.4-4.4 6.7 2 13.3 4.6 20.2 6.4 6.5 1.7 13.6 2.7 20.4 4.2z"/><path d="m506.7 127.7c-3.6 9.6-7.9 20.2-9.2 23.7-1.5 3.9-2 6-.6 6.5 1.3.5 2.5-1.4 3.5-4.1s2.1-7.9 3-10.3c.5-1.4 1.3-2.2 1.9-1.9 1.2.4.5 3-2.9 12-7.1 18.9-11 24.5-18.5 21.6-7.5-2.8-4.8-11.5-1.7-20.5.4-1.6.4-2.3 0-2.5-.6-.2-1.1.3-1.8 1.8-3.2 8.2-10 16.2-18.5 13-7.4-2.8-7.7-11.3-3.6-21.9 5.2-13.9 12.7-15.2 20.3-13.8 8.8 1.4 12-3.2 16.1-13.9 4-10.7 2.1-15.1-3.5-17.2-1.5-.6-2.3.3-2.7 1.5-.3.9-.3 2 .5 2.5 3.2 2.1 2.9 7.1.6 13.2-3.5 9.4-8.9 11.6-13.8 9.8-5-1.9-7-6.7-3.1-17 4.1-10.8 12.9-17.2 26.5-12 13.8 5.2 12.8 15.6 7.5 29.6zm-30.5 14.9c-1.8 4.9-.9 6.7.8 7.4 2.8 1.1 7.1-3.1 9.8-10.4 1.3-3.5 1.4-5 .1-5.5-3-1.1-8.3 1.9-10.8 8.5z"/><path d="m554.7 122.3c8.7 4.5 6 15.6-6.7 40.3-12.9 25-23.1 32.3-32.3 27.5-8.9-4.6-6.5-15.6-12.1-18.4-2.1-1.1-3.9-.3-5 1.9-.7 1.3-1.2 2.9-1.5 3.6-.6 1.2-1.4 1.6-2.1 1.2-.8-.4-.7-1.5-.2-2.4.8-1.6 10.8-19.6 20.9-39.1 4.9-9.5 10.2-19.9 15.5-30.6 2.3-4.5 3-6.6 1.7-7.3-.4-.2-1.7-.4-2.1-.6-.7-.3-.8-1 0-2.6.8-1.5 1.5-1.8 2.2-1.5 7.7 4 13.8 3.1 18.2 5.4 1.6.8 1.2 2.5-.2 5.2-4 7.7-13.3 20-20 33-.6 1.1-.7 2 0 2.3.7.4 1.2-.3 1.7-1 9.2-16.3 14.9-20.3 22.2-16.5zm-20.6 30.7c6.5-12.7 7.7-16.6 5.6-17.7-2.2-1.1-5.7 2.2-11.5 13.4l-10.4 20.1c-4.3 8.4-6.1 13.1-3.8 14.3 2.7 1.4 6.1-2.9 20.1-30.1z"/><path d="m530.9 194.9c.6-.9 1.4-1.7 2-1.3 0 0 .3.4.7.6 1 .6 2.5-1.3 5.2-5.3 6.5-9.8 12.9-19.5 19.2-29.3 6.1-9.3 12.2-18.9 18-28.2 3-4.8 4.1-7 2.8-7.8-.4-.3-1.8-.5-2.2-.7-.6-.4-.4-1.3.3-2.4 1-1.5 1.7-1.8 2.3-1.5 7.6 4.9 14 4.8 18.2 7.6 1.3.8.8 2.4-.6 4.5-3.2 5-12.6 18.3-25 37.5-6.9 10.7-15.8 24.5-20.3 31.7-1.8 2.9-2.4 4.2-1.6 4.7.3.2.9.3 1.1.4.6.4.6 1.2-.3 2.4-.7 1-1.4 1.7-2.1 1.2-1.5-1-6.3-4.4-9.5-6.5-3.8-2.4-7.6-4.6-8.7-5.3-.6-.4-.2-1.4.3-2.3z"/><path d="m564 223.2c-8.5-6.9-10.8-19.6 7.7-42.4 19.1-23.6 32.9-26.4 42.4-18.7 10.8 8.8 6.6 20.6-2.5 31.8-5.9 7.3-11.7 10.8-20.7 3.5-4.2-3.4-6.9-4.2-10.2-.2-3.2 3.9-3 8.2 1.6 11.9 4.8 3.9 11.4 4.7 17.5-2.8.9-1.1 1.6-1.2 1.9-.9.4.3.4 1-.5 2.1-16 19.7-26.3 24.5-37.1 15.7zm28.6-41.5c-2 2.5-3.7 4.6-4.6 6-1 1.5-.7 2.4 0 2.9 1.4 1.1 6.3 1.6 18.9-13.9 5.4-6.6 6.5-9.7 4.8-11.2-2.6-2.1-8.2 2.9-19 16.1z"/></g><path d="m40.1 64.8 7-3.9 1 1.8-5.2 2.8 9.4 17.1-1.8 1-10.4-18.9z" fill="#fff"/><path d="m67 66.7c0 4.2-.6 5.8-1.9 6.5-2 1-5.2-1.6-7.2-5.7-.7-1.4-1.2-2.9-1.4-4-.1-.5-.7-2.6-.8-3.1h2.7c.3 0 .7 0 .8.1s0 .3-.2.6c-.1.2.2 3 1.5 5.6 1.4 2.8 2.9 3.7 3.6 3.4.7-.4.7-2.7.6-4.1l2.4.6zm6.8-1.8c-2.3-4.4-5.2-6.3-6.9-7.3l1.8-2c3.3 1.8 5.9 5.1 7.5 7.7z" fill="#fff"/><path d="m85.2 44.7h.8v.2s-.3.4-.3.5.4 2.4.4 2.7c2-1.5 2.5-2.2 2.9-2.7l1.1 2.3c-1 1.1-2.1 1.9-3.6 2.9.8 6.6.6 10.4.5 13.2h-2.8c.9-4.8.3-9.8 0-11.8-1.2.6-1.8 1-3.2 1.5l-1.1-2.3c.5-.1 1.2-.3 2.1-.7.8-.3 1.4-.7 1.8-.9-.5-2.6-.7-3.5-1.1-4.6l2.5-.4zm11.6 5.2c-1.1.2-2.5.6-3.6 1-.3.1-1.7.7-2.8 1.6l-1-2.3c.5-.3 3-1.4 3.4-1.6 1.9-.8 2.5-.9 2.9-1l1 2.3zm3.6 7.9c-1 .7-2.6 1.4-3.3 1.7-3.9 1.7-5.9 1.8-6.9-.5-.3-.6-.5-1.4-.6-2l2.4-.4c0 .2 0 .5.1.9.3.8 1 1.1 3.4.1 2.1-.9 3.1-1.7 3.7-2.2l1.2 2.5z" fill="#fff"/><path d="m109.2 35.3c.3 0 .7 0 .8.1v.2c0 .1-.2.4-.3.5 0 .1.3 2.3.3 2.7.8-.5 2.3-1.6 3-2.6l.9 2.4c-.9.9-2.3 1.9-3.7 2.7.3 4 .5 8.5 0 13.1h-2.8c1.3-4.5.8-10.3.6-11.9-1 .4-2.5 1.1-3.3 1.4l-.9-2.4c.6 0 1.2-.3 1.8-.5.8-.3 1.5-.6 2.3-1-.3-2-.4-3.1-1-4.6l2.5-.2zm14.6 13.8c-.5.3-1.4.8-3.5 1.5-4.6 1.7-6 1.2-6.7-.8-.3-.8-.4-1.7-.5-2.1l2.3-.3c0 .2 0 .5.1.9.3.9.9 1.1 3.6.1 1.4-.5 2.4-1 3.6-1.9l1.1 2.5zm-3.3-8c-.7 0-2.1.3-3.7.9-1.4.5-2.3 1.1-2.8 1.4l-.9-2.4c.6-.2 3-1.3 3.5-1.5 1.6-.6 2.4-.7 3-.8l.9 2.3zm-4.3-4.7c-1-.7-1.9-1.1-2.8-1.4l.7-1.3c1.3.3 2.2.9 2.9 1.4l-.7 1.3zm1.9-2.1c-1.1-.8-1.9-1.1-2.6-1.4l.8-1.3c.6.2 1.8.6 2.7 1.4z" fill="#fff"/><path d="m140.3 27.5c-1.4 1.2-1.9 1.6-3.4 2.7.4.4.6.7 1.3 1.5 1.5-1.2 2.6-2.1 3.6-3.4l1.3 2.2c-1.1 1.1-1.8 1.7-3.3 2.9 1.7 1.6 2.4 2.2 4.4 3.3l-1 2.3c-3.2-1-5.5-.3-6-.1-1.4.4-2.7 1.6-2.3 2.9.5 1.5 2.5 1.2 4.2.7 1.5-.5 2.6-1.1 4.1-1.9l.8 2.4c-.7.4-1.9.9-3.5 1.5-4.1 1.3-6.9 1.1-7.8-1.8-.9-2.8 1-4.7 3.7-5.5 1.5-.5 2.7-.5 3.7-.5-.7-.5-1.3-.9-2.2-1.9-2.1 1.3-3.7 2.2-7 3.3l-1.5-1.9c.5-.1 1.1-.2 1.9-.5 2.1-.7 4.3-2 5.1-2.5-.5-.5-.6-.7-1.4-1.6-2.1 1.2-3.4 1.7-5.3 2.4l-1.4-2c.4 0 .9-.2 1.8-.4 1.5-.5 2.8-1.2 3.6-1.6-.6-.8-1.8-2.2-2.3-2.8l2.4-.8c.7-.2.8-.3.9 0 0 0-.1.5 0 .6 0 .2.9 1.4 1.1 1.7 1.3-.9 2.3-1.7 3.3-3.2l1.3 2.1z" fill="#fff"/><path d="m169.5 34.9c-1.3-.7-2.7-1.1-4.6-1.3.1.4.2.6.3.8.5 1.9-1.3 2.9-3 3.4-1.9.5-5.4.8-6.1-1.7-.5-1.9 1.2-3.6 3.8-4.3.6-.2 1.2-.3 1.6-.3-.5-1.2-.6-1.6-.9-2.3-2.8.8-5.6 1.7-6 0-.4-1.4 1.1-2.8 1.9-3.4l1.4.7c-.5.4-.9.8-.9 1.1s.7.2.9.2c.5 0 .6-.1 2-.5-.6-2.3-.7-2.6-.8-3-.9.3-4.4 1.4-5.8 2.1l-.8-2.3c.6-.1 5-1.5 6-1.8-.1-.5-.8-2.6-.9-3l2.4-.3c.8-.1.8-.1.9 0 0 .1-.4.6-.4.7 0 .2 0 .4.3 1.9 3.6-1.1 4.6-1.4 6-1.9l.5 2.5c-.5 0-1.2.2-3.4.7-1.3.4-2 .6-2.7.8.2.7.4 1.8.7 3 2.3-.9 3.8-1.7 5-2.4l.6 2.4c-1.7.9-4.6 1.9-5 2 .4 1.2.7 1.9 1.1 2.9 2.1 0 4.2.3 6.4 1.2l-.8 2.4zm-9.3-1.1c-1.1.3-2 .9-1.8 1.5.2.7 1.6.7 2.8.4 1.7-.5 1.6-.9 1.5-1.4 0-.2-.1-.4-.3-.9-.8 0-1.6.2-2.2.3z" fill="#fff"/><path d="m185.8 12.3c.9 0 1 0 1.1.2s0 .2-.2.3c-.2.2-.2.3.3 2.7 2.1-.6 4.2-1.2 6.3-1.9l.5 2.5c-.8.2-3.3.7-3.8.8-.9.2-1.7.4-2.6.7l.7 2.9c.6.6 1.2 1.2 1.5 2.7.3 1.3.4 2.8 0 4.7-.5 2.2-1.3 3.5-2.3 4.8l-2.7-.6c2.3-2.3 2.6-3.8 2.9-5.3-.2.5-.6 1.1-1.8 1.4-1.6.3-3.4-.6-3.9-3.1s.7-4.6 2.9-5.1c.4 0 .6 0 .8-.1l-.3-1.5c-6.2 1.9-7.5 2.4-8.2 2.7l-.9-2.6c2.2-.5 3.7-.9 8.5-2.2-.4-1.4-.7-2.2-1.2-3.7l2.4-.2zm-1.7 12c0 .3.5 1.8 1.6 1.5.5-.1 1.4-.7 1.1-2.2-.3-1.4-.9-1.7-1.7-1.6s-1.2 1.2-1 2.2z" fill="#fff"/><path d="m210.7 28.4-7.9 1.4-.4-2.1 5.8-1-3.3-19.2 2.1-.4z" fill="#fff"/><path d="m230.5 23.5c-1.1-2.3-1.9-5.1-2.2-7.6-.3-2.4-.2-5.2 0-6.5 0-.5.2-3.6.2-3.7l2.1.5c.7.2.7.3.7.4s-.1.2-.3.5c-.2.2-1 4-.4 8.4.2 1.5.4 2.5.6 3.1 0-.3.6-1.6.7-1.9l1.6.7c-.6 1.8-.9 3.3-1.1 5.4l-1.8.6zm15.2-3.6c-1-.7-1.7-1-2.8-1.4.1 1.3.3 3.1-3.3 3.5-3.4.4-4.5-1.2-4.7-2.5s.7-3.3 4-3.7h1c-.3-1.3-.5-2.7-.9-5.2-1.8.4-2.8.6-4.3.8l-.3-2.4c.4 0 1.4-.1 2.2-.2 1-.1 1.6-.3 2.1-.4-.2-1.7-.5-2.9-.8-4.3l2.2-.2c.3 0 .9 0 .9.2q0 .1-.2.4c-.1.2-.1.3 0 .5 0 .4.3 2.6.3 2.7.7-.2 1.8-.7 2.6-1.2l.5 2.3c-.9.4-.9.4-2.8 1.1.3 2.8.6 4.3 1.1 6 1.7.4 2.9.8 4.2 1.4l-.8 2.4zm-6.9-1.9c-1.1.1-1.8.7-1.7 1.3.1.9 1.5.8 1.8.8 1.6-.2 1.5-1.2 1.4-2-.2 0-.8-.2-1.5 0z" fill="#fff"/><path d="m253.1 2.5c.8.4 2.4 1.1 3.6 2.1l-1.3 2c-1.4-1-2.7-1.6-3.5-2zm4.3 6.9c-.6.4-1.4 1-3.3 2.1-.2.1-.3.2-.3.6 0 .1 0 .2-.2.2s-.4-.2-.5-.4l-1.1-1.9c.9-.3 2.6-1 5-2.6l.5 2zm6.5 11.2-2.5.2-.4-4.5c-.9 1-2.1 2-3 2.5-1.5 1.1-2.9 1.9-3.4 2.2l-1.8-1.8c2.5-1.1 5.2-2.7 6.6-4.3l-6.8.6-.2-2 8.3-.7v-1.7c-.1 0 2.2 0 2.2 0 .5 0 .7 0 .7.2 0 .1 0 .2-.4.4-.2.1-.1.2 0 .8l8.5-.7.2 2-6.9.6c2.2 1.7 6.2 2.7 7.3 3l-1.6 2.1c-4.8-1.8-6.5-3.2-7.2-3.9l.4 4.9zm-5.9-9.4-.7-8.5 2.2-.2c0-.4 0-1.3.1-1.6h2.6c.2 0 .3 0 .3.1s-.4.4-.5.5-.2.5-.3.7l3.4-.3.7 8.5-7.8.7zm5.1-7.2-3.6.3v1.6c.1 0 3.8-.3 3.8-.3v-1.6zm.1 3.3-3.6.3v1.6c.1 0 3.8-.3 3.8-.3v-1.6zm2-2.8c1-.9 2-2 2.9-3.5l1.9 1.1c.2.1.4.2.4.4 0 .1 0 .2-.2.2-.5 0-.5 0-.8.4-.8 1.1-1.5 1.9-2.4 2.8l-1.9-1.4zm1.6 1.9c2.2.9 3.7 1.9 4.4 2.4l-1.3 2c-.6-.5-2.1-1.6-4.2-2.5l1.1-1.8z" fill="#fff"/><path d="m295.7 11.6c-1.6 4-4.5 6.9-8.3 7.1-4.6.2-4.9-3.6-5-5.9 0-1.4-.1-8.2-.2-9.7 0-1-.1-2.2-.2-2.7l2.9.4c.5 0 .7 0 .7.3v.2s-.2.2-.3.2c-.3.3-.7 6.7-.6 10.6 0 2.3.4 4.2 2.8 4.1 3.8-.2 5.4-4.2 6.1-6z" fill="#fff"/><path d="m312.5 11.9c-1.9 3.8-3.2 5-4.5 4.9-2.3 0-4-3.7-3.9-8.3 0-1.6.2-3.1.5-4.2 0-.5.6-2.6.7-3.1l2.4 1.2c.2.1.6.3.6.5 0 .1-.2.3-.5.5-.2.1-1.2 2.7-1.2 5.7 0 3.1.9 4.6 1.6 4.6.8 0 1.8-2.1 2.4-3.4l1.9 1.7zm6.9 1.4c0-4.9-1.8-8-2.9-9.6l2.5-1c2.2 3.1 3 7.2 3.3 10.3l-2.8.3z" fill="#fff"/><path d="m332.6 16.8c0 1.3-1.1 2.3-2.4 2.2-1.3 0-2.3-1.1-2.2-2.4 0-1.3 1.2-2.3 2.4-2.2 1.3 0 2.3 1.1 2.2 2.4zm-4-.2c0 .9.7 1.7 1.6 1.7s1.7-.7 1.7-1.6-.7-1.7-1.6-1.7-1.7.6-1.7 1.6z" fill="#fff"/><path d="m359 10.1c-.8.2-4.1 1.3-4.8 1.5v4.6l-2.6-.2c.3-3 .3-3 .3-3.6-.9.4-3.3 1.4-3.4 3.2-.1 1.7 1.8 1.9 3.1 2 .8 0 2.8 0 6-.4l-.2 2.5c-1.4.1-3.1.3-5.2.1-2.6-.2-6.4-.7-6.2-3.9.2-3.3 3.7-4.7 5.9-5.7-.1-.6-.4-1.7-1.7-1.7-2.1-.1-4.2 2.4-5.3 4l-2-1.5c2.8-2.5 4.3-4.7 5-5.9-.3 0-2.2 0-3.2-.1l-.2-2.4c1 .2 2 .3 3 .3h1.6c.4-.9.9-2 1.1-3l2.2.5c.8.2.8.3.8.4s0 .2-.5.4c0 0-.8 1.3-.9 1.5 1.2 0 3.5-.4 4.8-.8l-.4 2.4c-1.8.3-4.5.5-5.6.5-.5.8-.9 1.4-1.3 1.9.4-.1 1-.3 2-.3 2.1.1 2.7 1.4 2.9 2.8.6-.2 2.5-.9 4.2-1.9l.7 2.5z" fill="#fff"/><path d="m373.1 12.6v.2c.8 2.2 1.9 4.1 3.2 5.4l-2 1.7c-.9-1-1.8-2.3-2.4-4-1.2 2.2-2.7 3.8-4.8 5.2l-1.9-1.7c3.5-2 5-4.7 5.7-7l-4.3-.5.2-2.1 4.5.5c0-.5.3-1.3.5-3.8h-1.1c-.6 1-1.1 1.9-1.9 2.8l-2.1-1.1c1.2-1.5 2.4-3.8 3.2-6.9l2 .7c.3 0 .8.3.8.5 0 .1 0 .1-.5.4-.4.2-.6 1-.7 1.5l5.4.6-.2 2.1-2.7-.3c0 .7-.3 2.5-.5 3.8l3.2.3-.2 2.1zm11.6 9.3-2.4-.3.2-1.9-3.7-.4-.3 2.8-2.3-.3 1.9-17.5 8.4.9-1.8 16.6zm-.8-14.7-3.7-.4-1.1 10.4 3.7.4z" fill="#fff"/><path d="m398.6 21.2c6.4.5 7.6-2.2 7.7-3.5.3-1.9-1.3-3.1-2.6-3.3s-2.4 0-5.5.7c-1.2.3-2.6.5-3.7.6l-.7-2.3c1.4 0 2.8 0 4.1-.3 4.3-.8 4.8-.9 6.2-.6 2.7.4 4.6 2.6 4.1 5.5-.8 5.1-6.8 5.4-9 5.4l-.8-2.3z" fill="#fff"/><path d="m436.1 15.4c-5.9-.2-10.5 3.3-11.2 6.7-.7 3.7 3.5 5 5.1 5.4l-1.4 2.5c-1.5-.6-7.4-2.9-6.4-8.3.8-3.9 4-5.6 6.4-6.8-1.5-.1-8-.7-9.3-.8v-2.6c1.9.3 10 1.6 17 1.3l-.4 2.6z" fill="#fff"/><path d="m453.1 28.4c-.4 0-1.2-.2-2-.4-1.1-.3-1.7-.5-2.2-.7-.3.6-.6 1.3-.8 2-.5 1.9.7 3.1 2.4 3.5 2.8.7 4.7-.9 5.2-2.7.3-1.2 0-2.1-.4-3.6l2.4-.7c.5 1.8.7 3.5.3 5.2-.7 3-3.7 5.1-8 4-4.1-1-4.8-4-4.3-6 .2-1 .7-1.8 1.2-2.8-.5-.2-2-1-2.8-1.6l1.1-2.4c.6.5 1.3 1.2 2.9 2 .5-1 1.4-2.3 1.8-2.9-1.2-.6-2.1-1-3.3-1.7l1-2.5c.6.5 1.3 1.1 3.6 2.2.7-1 2.1-3.2 2.5-4.2l2.1 1.7c.2.1.5.4.5.6 0 .1-.2.1-.5.2-.2 0-1.9 2.2-2.2 2.6.2 0 .8.3 1.3.4.7.2 1.3.2 1.9.3l-1.2 2.3c-1.6-.4-2.3-.7-3.3-1-.9 1.3-1.3 2-1.8 2.9.4.1 1 .3 1.9.5 1.3.3 2.1.3 2.5.4l-1.3 2.3z" fill="#fff"/><path d="m469.2 33c1.8-4.2 2.8-6 4.5-8l1.9 1.6c-1.8 2.1-2.5 3.6-3 4.6 1.2-.4 3.5-1.1 6-.4 3.1.9 4.4 3.5 3.5 6.3-1.7 5.9-9.2 3.9-12.1 3.1l-.2-2.7c.4.2 1.1.4 1.8.6 1.1.3 7 1.9 8.1-1.8.6-2.1-1-3.1-1.9-3.4-1.2-.4-2.8-.2-4 .2-1.4.4-2.2 1-3.2 1.6l-1.6-1.8zm10.4-4.8c-1.4-1.9-2.8-3.1-4.5-4.3l1.6-1.9c1.7 1.1 3.3 2.4 4.9 4.4l-1.9 1.9z" fill="#fff"/><path d="m499.2 42.7c-3 3-4.6 3.7-5.9 3.3-2.2-.7-2.6-4.8-1.1-9.1.5-1.5 1.2-2.8 1.8-3.8.2-.4 1.4-2.3 1.6-2.7l2 1.9c.2.2.5.5.4.7 0 .1-.2.2-.6.3-.2 0-2 2.2-3 5-1 2.9-.6 4.7 0 4.9.8.3 2.4-1.4 3.3-2.5l1.3 2.2zm6.1 3.5c1.5-4.7.8-8.1.3-10l2.7-.2c1.1 3.7.6 7.8-.1 10.8l-2.8-.6z" fill="#fff"/><path d="m527.6 40c.2.1.6.5.5.6 0 0 0 .1-.1.2 0 0-.5 0-.5.1 0 0-1.4 1.9-1.6 2.2 2.4.3 3.3.2 3.9 0l-.9 2.4c-1.5 0-2.9-.1-4.6-.5-4.1 5.2-6.9 7.8-8.9 9.7l-2.1-1.9c4.1-2.8 7.2-6.8 8.5-8.4-1.3-.4-2-.6-3.3-1.1l.9-2.5c.5.3 1 .6 2 1 .8.3 1.5.5 1.9.6 1.5-2.1 2-3 2.4-4l2 1.5zm1.5 20c-1.2-.2-2.8-.9-3.6-1.1-4-1.6-5.4-2.9-4.5-5.2.3-.6.6-1.3 1-1.9l2 1.4c-.2.2-.4.4-.5.7-.3.8 0 1.5 2.3 2.5 2.1.9 3.4 1 4.2 1.1l-.9 2.6zm3-8.1c-1-.6-2.2-1.4-3.3-1.8-.3-.1-1.7-.7-3.1-.9l.9-2.3c.6.2 3.1 1.1 3.6 1.3 1.9.8 2.4 1.1 2.8 1.4z" fill="#fff"/><path d="m546.2 61.5c-3.3 2.7-4.9 3.2-6.2 2.7-2.1-.9-2.1-5-.2-9.2.7-1.5 1.5-2.7 2.1-3.6.3-.4 1.6-2.2 1.9-2.6l1.8 2c.2.2.4.5.4.7 0 .1-.3.2-.6.2-.2 0-2.2 2-3.4 4.7-1.3 2.8-1 4.6-.4 4.9.7.3 2.5-1.2 3.6-2.2l1.1 2.3zm5.8 4.1c1.9-4.6 1.6-8 1.2-9.9h2.7c.7 3.8-.1 7.9-1.2 10.8l-2.7-.8z" fill="#fff"/><path d="m565.5 77 1.3-2.6 2.6 1.3-1.3 2.6zm7.8-14.9 2.6 1.3-2.1 4.1-4.3 6.6-1.2-.6 2.9-7.3z" fill="#fff"/><g style="filter:url(#b);fill:#fff;stroke-width:1.7;stroke-linecap:round;stroke-linejoin:round;stroke:#221815"><path d="m229.7 230.9c0-.8.6-1.3 1.3-1.3s1.5.3 1.9.3c2.1 0 2.5-1.4 2.7-5.4.2-5.3.4-12.7.4-20.3s-.2-11.9-.4-17c-.2-2.7-.3-5.3-2.4-5.3s-1.6.3-2.1.3c-.8 0-1.3-.6-1.3-1.3s.6-1.4 1.3-1.4c6.1 0 11.9.3 18.7.3s23.6-.3 27.8-.3 2.3.6 2.3 2-.3 3.9-.3 7.7.4 8 .4 9.4-.4 1.5-1.7 1.5c-9.2 0-9.7-18-18.3-18s-3.3 2.6-3.4 5.3c-.3 6.2-.6 13.3-.6 19.3s.4 2.6 1.9 2.6c4.8 0 7.3-9.3 13-9.3s1.4.5 1.4 1.5c0 1.4-.6 5.6-.6 9.8s.5 8.1.5 10.3-.6 1.3-1.4 1.3c-5.3 0-7.9-11.2-13-11.2s-1.9.5-1.9 2.4c0 3.3.2 7.4.3 10.3.2 4 1 5.4 3.8 5.4s3.5-.2 5-.2 1.3.6 1.3 1.3-.4 1.3-1.3 1.3c-3.2 0-12.2-.5-18.5-.5s-12.9.5-15.5.5-1.3-.6-1.3-1.4z"/><path d="m283.7 229.8c2.1 0 2.5-1.4 2.7-5.4.2-5.8.4-13.9.4-22.3s-.2-10.4-.4-15c-.2-2.7-.3-5.3-2.4-5.3s-1.6.3-2.1.3c-.8 0-1.3-.6-1.3-1.3s.6-1.4 1.3-1.4c5 0 9.8.3 15.3.3 7.9 0 26.6-.3 31.6-.3s2.5.8 2.5 1.9-.3 4.2-.3 7.8.4 7.7.4 9.2-.6 1.8-1.8 1.8c-8.7 0-10.4-18-18.8-18s-3.3 2.6-3.5 5.3c-.4 4.4-.5 9.4-.6 14.5 0 .8.4 1.3 1.2 1.3 4 0 6.2-8.8 10.6-8.8s1.3.3 1.3 1.7-.5 3.9-.5 9 .3 7.8.3 9.9-.8 1.3-1.8 1.1c-4.8-1.2-5.4-10.3-9.8-10.3s-1.3.6-1.3 1.7c0 6.3 0 12.7.3 17.1.3 3.7.8 5 3 5 9.1 0 10.7-18.8 20.3-18.8s1.6.7 1.6 1.6c0 1.5-.5 5.5-.5 9.2s.5 7.1.5 8.8-.8 2-2.1 2c-6.1 0-21.6-.5-32.5-.5s-12.9.5-15.5.5-1.3-.6-1.3-1.4.6-1.3 1.3-1.3 1.5.3 1.9.3z"/><path d="m337.2 232.7c-.8 0-1.4-.4-1.4-1.3 0-1.9.6-7.3.6-10.9s-.6-6.5-.6-8.2.5-2.2 2.1-2.2c7.9 0 14.6 20.7 23.6 20.7s4.7-1.3 4.7-4.6-3-7.2-11.9-10.6c-11.1-4.2-17.8-10.2-17.8-20.1s6-17.4 20.9-17.4 14.1 4.9 17.6 4.9 2.8-.7 2.8-1.9-.3-1.3-.3-1.9.6-1.3 1.3-1.3c1 0 1.3.4 1.3 1.8 0 3.3-.3 6.8-.3 10.8s.3 5.7.3 7.2-.7 1.9-1.9 1.9c-8.4 0-12.7-18.8-21.3-18.8s-4.9 1.7-4.9 4.5 2 6.2 10.3 9.5c12.6 5.1 20 10.4 20 22s-8.2 16.9-20.5 16.9-15.6-6.8-20-6.8-3.3 1.1-3.3 2.7.2 1.3.2 1.9-.5 1.3-1.3 1.3z"/><path d="m407.1 222.3c0 6.6-4 10.5-11.9 10.5s-11.8-4-11.8-10.5 4.6-12.5 11.8-12.5 11.9 4.8 11.9 12.5z"/></g><path d="m177.1 303.6h251.4" fill="none" stroke="#221815" stroke-miterlimit="10"/></svg>