<svg id="グループ_123" data-name="グループ 123" xmlns="http://www.w3.org/2000/svg" xmlns:xlink="http://www.w3.org/1999/xlink" width="1500" height="557.248" viewBox="0 0 1500 557.248">
  <defs>
    <filter id="FES." x="665.736" y="285.924" width="185.978" height="91.978" filterUnits="userSpaceOnUse">
      <feOffset dx="4.559" dy="4.559" input="SourceAlpha"/>
      <feGaussianBlur result="blur"/>
      <feFlood flood-opacity="0.749"/>
      <feComposite operator="in" in2="blur"/>
      <feComposite in="SourceGraphic"/>
    </filter>
  </defs>
  <rect id="長方形_2" data-name="長方形 2" width="1500" height="556.88" fill="#65bbb1"/>
  <path id="パス_81" data-name="パス 81" d="M3784.373,0V182.288H3602.084" transform="translate(-3602.084)" fill="#e73c71"/>
  <rect id="長方形_10" data-name="長方形 10" width="102.635" height="102.635" transform="translate(182.288)" fill="#7f2583"/>
  <rect id="長方形_11" data-name="長方形 11" width="51.318" height="51.318" fill="#fff"/>
  <g id="グループ_17" data-name="グループ 17" transform="translate(-3602.084)">
    <g id="グループ_16" data-name="グループ 16">
      <rect id="長方形_12" data-name="長方形 12" width="68.868" height="68.868" transform="translate(3887.008 102.635)" fill="#ebcb32"/>
    </g>
    <circle id="楕円形_3" data-name="楕円形 3" cx="24.834" cy="24.834" r="24.834" transform="translate(3896.608 112.235)" fill="#65bbb1"/>
  </g>
  <rect id="長方形_13" data-name="長方形 13" width="58.308" height="58.308" transform="translate(1133.92 498.941)" fill="#e73c71"/>
  <path id="パス_82" data-name="パス 82" d="M5102.084,386.021V488.657H4999.449" transform="translate(-3602.084)" fill="#ebcb32"/>
  <path id="パス_83" data-name="パス 83" d="M4859.467,557.248a58.308,58.308,0,0,1,116.615,0" transform="translate(-3602.084)" fill="#fff"/>
  <circle id="楕円形_4" data-name="楕円形 4" cx="34.034" cy="34.034" r="34.034" transform="translate(1431.932 274.521)" fill="#7f2583"/>
  <path id="パス_84" data-name="パス 84" d="M5102.084,177.026H4957.7V321.413" transform="translate(-3602.084)" fill="#e73c71"/>
  <g id="グループ_23" data-name="グループ 23" transform="translate(-3602.084)">
    <g id="グループ_18" data-name="グループ 18">
      <text id="_2023.3.21" data-name="2023.3.21" transform="translate(4217.096 413.074)" fill="#221815" font-size="47.571" font-family="Helvetica"><tspan x="0" y="0">2023.3.21</tspan></text>
      <text id="Holiday" transform="translate(4433.285 413.911)" fill="#221815" font-size="32.636" font-family="FreestyleScript-Regular, Freestyle Script"><tspan x="0" y="0">Holiday</tspan></text>
    </g>
    <text id="_オアシス21_銀河の広場" data-name="@オアシス21 銀河の広場" transform="translate(4352.869 460.826)" fill="#221815" font-size="21.676" font-family="Helvetica" letter-spacing="0.3em"><tspan x="-162.084" y="0">@</tspan><tspan y="0" font-family="HiraginoSans-W3, Hiragino Sans">オアシス</tspan><tspan y="0">21 </tspan><tspan y="0" font-family="HiraginoSans-W3, Hiragino Sans">銀河の広場</tspan></text>
    <g id="グループ_20" data-name="グループ 20">
      <g id="グループ_19" data-name="グループ 19">
        <path id="パス_85" data-name="パス 85" d="M4104.133,337.332c-14.109,11.071-27.273,4.817-43.723-16.141-19.333-24.631-26.349-44.089-12.241-55.161,14.225-11.163,31.968.925,50.792,24.908C4114.9,311.248,4118.358,326.169,4104.133,337.332Zm-53.5-68.169c-3.542,2.779,1.773,11.7,24.641,40.717,14.3,18.1,19.726,23.1,23.268,20.321,3.657-2.87.034-9.279-14.153-27.474C4061.691,273.575,4054.287,266.293,4050.628,269.163Z" fill="#fff" stroke="#221815" stroke-linecap="round" stroke-linejoin="round" stroke-width="1.5"/>
        <path id="パス_86" data-name="パス 86" d="M4137.848,307.335c.193-.109,1.09-.772,1.347-.917.642-.363,1.436.292,1.976,1.25s.759,2.094.117,2.455c-2.7,1.368-6.755,3.5-10.612,5.674-3.406,1.922-6.484,3.976-9.12,5.463-.642.363-1.439-.449-1.979-1.406s-.756-1.939-.114-2.3c.129-.072,1.033-.424,1.16-.5.836-.471-.453-3.055-1.6-5.244-5.674-10.2-11.213-20.165-16.343-29.255-3.847-6.817-7.426-13.156-10.659-18.585-2.694-4.472-3.359-5.2-4.452-4.584-.45.254-.768.592-1.026.737-.707.4-1.436-.294-1.976-1.25-.607-1.077-.826-2.215-.055-2.65,1.671-.943,4.056-1.974,6.5-3.2,1.736-.979,3.526-2.463,5.453-3.549,2.572-1.451,3.892-.462,6.863,4.8,2.092,3.708,3.87,7.909,6.84,13.171.541.956,1.26,1.181,1.709.927s.567-.95.09-1.943c-8.119-15.287-8.355-23.512-1.157-27.574,8.034-4.534,14.665,1.659,23.575,17.446,7.156,12.677,14,26.16,18.256,33.7,2.633,4.664,4.3,6.563,5.776,5.729.193-.109.575-.483.7-.556.642-.362,1.439.45,1.979,1.407.473.837.756,1.939.113,2.3-2.253,1.114-5.218,2.315-8.046,3.911-2.057,1.161-3.909,2.837-6.158,4.109-2.313,1.306-4.772-1.249-10.442-11.3-6.009-10.644-12.92-24.091-17.375-31.984-1.822-3.229-4.159-6.168-5.959-5.153-1.992,1.125-1.8,4.169,3.624,14.829,3.054,6.161,6.162,11.818,9.335,17.439,2.43,4.306,4.925,8.575,7.551,12.928C4135.627,306.854,4137.013,307.806,4137.848,307.335Z" fill="#fff" stroke="#221815" stroke-linecap="round" stroke-linejoin="round" stroke-width="1.5"/>
        <path id="パス_87" data-name="パス 87" d="M4180.828,293.2c-10.15,4.236-22.368.257-33.685-26.865-11.688-28.009-7.624-41.461,3.683-46.181,12.874-5.372,21.236,3.935,26.79,17.243,3.595,8.618,3.97,15.457-6.724,19.919-4.973,2.076-7,4.113-4.992,8.929,1.957,4.689,5.762,6.524,11.211,4.25,5.653-2.36,9.523-7.844,5.821-16.715-.528-1.268-.332-1.945.077-2.116.477-.2,1.1.137,1.626,1.4C4194.419,276.516,4193.7,287.828,4180.828,293.2Zm-23.036-44.851c1.216,2.915,2.342,5.421,3.114,6.885.891,1.562,1.784,1.785,2.533,1.473,1.635-.683,4.392-4.809-3.276-23.187-3.28-7.858-5.45-10.375-7.561-9.494C4149.537,225.306,4151.235,232.633,4157.792,248.349Z" fill="#fff" stroke="#221815" stroke-linecap="round" stroke-linejoin="round" stroke-width="1.5"/>
        <path id="パス_88" data-name="パス 88" d="M4222.6,275.678c-4.5,1.164-10.938,3.4-13.011,3.932-.571.148-1.243-.388-1.621-1.85-.413-1.6-.049-2.257.522-2.4.286-.074,1.283-.049,1.64-.141,1.787-.462,1.56-2.815.087-9.1-2.023-8.413-4.868-20.3-7.963-32.266-2.406-9.307-4.955-18.576-7.2-26.365-1.243-4.217-2.486-8.435-4.272-7.973-.644.166-1.255.75-1.684.861-.714.185-1.312-.654-1.656-1.983s-.084-2.389.487-2.537c4.073-1.054,8.144-1.823,12.717-3.005,4.931-1.275,9.115-2.783,13.545-3.928,16.364-4.232,27.809,14.084,35.578,44.131,6.189,23.931,2.656,35.624-13.637,39.837C4233.843,273.479,4227.1,274.514,4222.6,275.678Zm8.656-36.989c-9.8-37.891-13.711-46.24-17.569-45.242-2.143.554-2.213,4.118-1.087,9.358,1.708,7.785,3.975,16.844,6.278,25.752,3.2,12.364,6.54,24.407,8.917,33.012,1.831,6.193,3.235,8.383,5.2,7.733C4238.1,267.838,4237.508,262.886,4231.251,238.689Z" fill="#fff" stroke="#221815" stroke-linecap="round" stroke-linejoin="round" stroke-width="1.5"/>
        <path id="パス_89" data-name="パス 89" d="M4264.65,176.434c1.286,7.443-.792,10.589-8.187,12s-10.526-1.109-11.812-8.552c-1.5-8.661,2.527-13.119,7.909-14.048C4257.869,164.922,4263.13,167.637,4264.65,176.434Zm-18.656,17.3c3.273-.566,6.54-.294,10.467-.971,2.763-.478,5.314-1.754,8-2.222,1.237-.214,1.787.806,2.232,3.377.468,2.707,3.465,23.094,5.428,34.462.748,4.33,2.712,15.7,4.047,22.994,1.242,6.753,1.787,8.61,2.805,8.435.51-.088.826-.422,1.263-.5.8-.138,1.327.746,1.513,1.829.235,1.353.035,2.363-.765,2.5-1.964.339-7.73.777-11.656,1.456-3.637.628-6.6,1.7-9.871,2.261-.727.126-1.208-.488-1.488-2.112q-.349-2.029.74-2.218c.364-.063.775.145,1.284.057.8-.138.452-2.586.009-5.576-1.674-11-3.56-23.217-5.618-35.126-1.1-6.361-2.363-13.25-3.467-18.774-1.034-5.117-1.657-6.124-2.821-5.923-.654.113-1.067.323-1.358.374-.727.125-1.06-.932-1.246-2.015s-.229-2.191.5-2.316Z" fill="#fff" stroke="#221815" stroke-linecap="round" stroke-linejoin="round" stroke-width="1.5"/>
        <path id="パス_90" data-name="パス 90" d="M4301.839,257.01c.221-.021,1.309-.267,1.6-.3.734-.073,1.2.848,1.305,1.941s-.152,2.222-.886,2.3c-3.025.161-7.592.475-12,.911-3.892.385-7.537,1.021-10.548,1.319-.734.072-1.137-.991-1.245-2.085s.091-2.079.825-2.151c.147-.015,1.115.027,1.263.013.954-.1.817-2.979.646-5.446-1.077-11.623-2.127-22.973-3.155-33.359-.772-7.79-1.489-15.032-2.258-21.3-.662-5.179-.976-6.113-2.226-5.99-.513.051-.94.231-1.234.26-.808.08-1.2-.847-1.305-1.941-.122-1.23.137-2.359,1.019-2.444,1.909-.189,4.507-.17,7.237-.3,1.984-.2,4.219-.831,6.422-1.051,2.939-.291,3.748,1.147,4.344,7.16.419,4.236.351,8.8.947,14.81.109,1.093.677,1.589,1.191,1.538s.9-.641.866-1.741c-1.265-17.263,1.837-24.883,10.061-25.7,9.181-.908,12.75,7.433,14.537,25.471,1.435,14.486,2.263,29.584,3.116,38.194.527,5.329,1.285,7.738,2.974,7.571.221-.021.721-.209.868-.224.735-.072,1.136.992,1.245,2.085.094.957-.091,2.079-.826,2.152-2.51.11-5.709.012-8.94.332-2.351.232-4.72,1.019-7.29,1.273-2.644.261-3.863-3.068-5-14.547-1.205-12.163-2.107-27.253-3-36.273-.365-3.69-1.318-7.321-3.375-7.118-2.276.225-3.328,3.09-2.664,15.03.309,6.869.872,13.3,1.508,19.722.487,4.92,1.048,9.832,1.695,14.874C4300,255.674,4300.884,257.105,4301.839,257.01Z" fill="#fff" stroke="#221815" stroke-linecap="round" stroke-linejoin="round" stroke-width="1.5"/>
        <path id="パス_91" data-name="パス 91" d="M4324.146,184.3c3.319-.1,6.516.638,10.5.524,2.8-.079,5.51-.981,8.24-1.056,1.254-.036,1.655,1.052,1.729,3.66.079,2.745.153,23.35.484,34.881.126,4.392.456,15.923.742,23.333.272,6.861.548,8.777,1.58,8.748.517-.016.878-.3,1.321-.313.811-.023,1.208.927,1.239,2.025.04,1.373-.3,2.344-1.113,2.368-1.993.056-7.763-.328-11.746-.215-3.689.106-6.772.743-10.092.838-.738.021-1.126-.655-1.174-2.3q-.059-2.06,1.048-2.091c.369-.01.746.254,1.262.239.812-.023.815-2.5.8-5.518-.1-11.125-.23-23.486-.576-35.565-.185-6.452-.46-13.45-.768-19.074-.3-5.212-.772-6.3-1.953-6.264-.664.019-1.1.169-1.4.177-.738.021-.917-1.072-.948-2.171s.084-2.2.822-2.221Zm20.924-14.47c.216,7.55-2.287,10.369-9.809,10.721s-10.263-2.592-10.48-10.142c-.252-8.785,4.363-12.626,9.823-12.782C4339.99,157.478,4344.814,160.912,4345.07,169.834Z" fill="#fff" stroke="#221815" stroke-linecap="round" stroke-linejoin="round" stroke-width="1.5"/>
        <path id="パス_92" data-name="パス 92" d="M4370.5,254.8c.222.009,1.333-.084,1.628-.072.739.03,1.069,1,1.024,2.1s-.456,2.181-1.194,2.151c-3.018-.259-7.584-.579-12.009-.757-3.909-.157-7.608-.031-10.631-.152-.737-.029-.988-1.139-.944-2.237s.377-2.046,1.115-2.017c.147.006,1.1.182,1.248.188.959.038,1.221-2.837,1.394-5.3.542-11.661,1.074-23.048,1.493-33.477.313-7.821.6-15.094.711-21.412.062-5.221-.121-6.19-1.375-6.24-.515-.021-.963.1-1.258.086-.812-.032-1.068-1-1.024-2.1.049-1.235.462-2.318,1.347-2.287,1.918.077,4.488.455,7.211.7,1.991.08,4.294-.24,6.506-.147,2.95.118,3.552,1.655,3.31,7.692-.171,4.254-.868,8.762-1.111,14.8-.044,1.1.45,1.668.967,1.688s.98-.51,1.1-1.6c1.137-17.272,5.263-24.391,13.523-24.059,9.219.37,11.6,9.124,10.873,27.238-.584,14.545-1.854,29.613-2.2,38.258-.215,5.352.2,7.842,1.9,7.911.222.008.743-.108.891-.1.737.029.988,1.139.944,2.237-.038.96-.377,2.046-1.114,2.016-2.5-.237-5.657-.776-8.9-.906-2.36-.1-4.815.356-7.4.253-2.654-.107-3.4-3.573-2.939-15.1.49-12.213,1.686-27.283,2.049-36.34.15-3.7-.292-7.434-2.357-7.516-2.286-.092-3.724,2.6-4.719,14.516-.644,6.847-.976,13.293-1.235,19.742-.2,4.941-.323,9.884-.38,14.967C4368.865,253.222,4369.541,254.761,4370.5,254.8Z" fill="#fff" stroke="#221815" stroke-linecap="round" stroke-linejoin="round" stroke-width="1.5"/>
        <path id="パス_93" data-name="パス 93" d="M4419.6,281.1c.143-1.09.707-1.985,1.512-1.879,1.537.2,3.116,2.347,5.092,2.606,1.683.221,2.539-1.19,2.716-2.552.376-2.859-2.317-4.459-6.2-4.967-7.1-.932-14.688,4.721-22.08,3.752-7.025-.922-8.657-8.338-6.942-21.409,1.733-13.207,6.578-19.5,12.14-18.766,1.829.24,3.2.558,4.739.76.732.1,1.222-.81,1.348-1.763s-.116-1.954-.921-2.059c-8.418-1.658-10.987-10.444-9.2-24.059,2.323-17.7,9.576-25.889,21.285-24.354,5.415.71,9.044,3.125,11.459,3.442,1.1.144,1.48-.5,1.623-1.588a1.8,1.8,0,0,0-1.416-2.263c-4.758-1.178-7.165-4.956-6.272-11.764.787-5.99,4.121-9.847,9.829-9.1,6.221.816,9.441,7.47,8.209,16.865-.911,6.944-3.642,11.295-7.52,10.787a33.9,33.9,0,0,1-3.55-.743c-.805-.106-1.205.673-1.33,1.626a2.038,2.038,0,0,0,.92,2.059c3.865,1.754,8.15,9.379,6.309,23.4-2.287,17.427-8.686,24.206-23.1,22.315-11.27-1.478-13.569.159-14.051,3.836-.269,2.042.194,3.626,2.609,3.943,4.464.585,15.441-3.653,22.1-2.78,6.733.883,9.331,7.179,7.776,19.025-1.947,14.84-5.368,20.485-11.808,19.641C4420.779,284.58,4419.312,283.279,4419.6,281.1Zm-1.005-70.627c-1.768,13.479-2.782,22.9.731,23.363,2.561.336,3.868-2.816,5.6-16.023,2.735-20.832,2.551-26.812-.156-27.166C4422.646,190.369,4420.613,195.088,4418.593,210.474Z" fill="#fff" stroke="#221815" stroke-linecap="round" stroke-linejoin="round" stroke-width="1.5"/>
        <path id="パス_94" data-name="パス 94" d="M4512.581,194.935c1.857.483,1.552,2.532.792,5.456-1.6,5.545-3.471,11.585-5.1,17.831-1.8,6.911-3.641,17.216-4.3,19.741-.519,1.994-1.364,3.193-2.293,2.951-6.571-1.71-3.523-17.235-1.065-30.786,1.433-7.857,2.178-12.772.393-13.236-1.286-.335-2.305,1.528-3.169,4.851-17.427,66.984-16.867,70.11-13.51,70.983,1.428.372,2.494-.2,3.494.057.642.168.934,1.1.554,2.557s-.871,2.47-1.8,2.228c-2.713-.706-10.644-3.054-16.144-4.484-5.429-1.413-13.355-3.192-15.926-3.861-1-.26-.937-1.379-.557-2.841s1.087-2.129,1.8-1.943c1,.26,1.651,1.28,3.078,1.652,3.215.836,5.3-1.6,22.725-68.585.864-3.323.812-5.465-.475-5.8-1.785-.465-3.53,4.19-6,11.635-4.458,13.03-9.4,28.205-16.04,26.477-.927-.242-1.01-1.682-.492-3.676.657-2.525,4-12.44,5.8-19.351,1.625-6.247,3-12.416,4.311-18.035.76-2.924,1.494-4.861,3.35-4.379,6.717,2.032,13.3,4.6,20.152,6.379C4498.662,192.448,4505.726,193.435,4512.581,194.935Z" fill="#fff" stroke="#221815" stroke-linecap="round" stroke-linejoin="round" stroke-width="1.5"/>
        <path id="パス_95" data-name="パス 95" d="M4546.664,244.982c-3.636,9.636-7.936,20.2-9.245,23.665-1.454,3.854-1.954,6.014-.573,6.535,1.313.495,2.5-1.4,3.521-4.1s2.1-7.868,3.021-10.308c.533-1.414,1.287-2.157,1.908-1.922,1.174.443.53,2.987-2.864,11.981-7.126,18.887-11.041,24.455-18.5,21.642s-4.81-11.5-1.741-20.471c.443-1.594.41-2.34-.073-2.522-.622-.235-1.141.3-1.791,1.819-3.241,8.17-10.045,16.171-18.469,12.993-7.388-2.787-7.663-11.256-3.64-21.92,5.237-13.876,12.669-15.181,20.335-13.757,8.847,1.429,12.028-3.241,16.052-13.9s2.059-15.074-3.533-17.184c-1.519-.572-2.252.325-2.689,1.481a2.183,2.183,0,0,0,.468,2.525c3.161,2.073,2.914,7.117.636,13.156-3.538,9.378-8.949,11.594-13.782,9.771-5.041-1.9-7-6.75-3.12-17.028,4.073-10.792,12.865-17.162,26.536-12.005C4552.932,220.635,4551.948,230.978,4546.664,244.982Zm-30.544,14.9c-1.842,4.882-.877,6.714.849,7.365,2.83,1.068,7.069-3.057,9.832-10.381,1.309-3.468,1.428-5.038.115-5.533C4523.879,250.183,4518.64,253.2,4516.12,259.878Z" fill="#fff" stroke="#221815" stroke-linecap="round" stroke-linejoin="round" stroke-width="1.5"/>
        <path id="パス_96" data-name="パス 96" d="M4594.647,239.552c8.657,4.468,6.049,15.639-6.672,40.291-12.91,25.018-23.06,32.3-32.308,27.526-8.919-4.6-6.5-15.564-12.076-18.441-2.1-1.083-3.906-.316-5.04,1.881-.692,1.342-1.185,2.942-1.5,3.552-.63,1.221-1.4,1.594-2.125,1.222-.787-.407-.739-1.464-.235-2.44.818-1.587,10.789-19.622,20.864-39.148,4.912-9.519,10.2-19.927,15.482-30.646,2.263-4.549,3.009-6.637,1.7-7.314-.393-.2-1.7-.412-2.09-.615-.656-.338-.8-1.03.021-2.616.755-1.465,1.53-1.838,2.185-1.5,7.673,3.96,13.836,3.122,18.164,5.356,1.574.812,1.212,2.48-.174,5.165-3.966,7.688-13.318,20.016-19.993,32.952-.566,1.1-.682,1.966-.092,2.271.722.372,1.231-.292,1.674-.991C4581.582,239.765,4587.3,235.762,4594.647,239.552ZM4574.1,270.208c6.549-12.692,7.654-16.6,5.556-17.686-2.164-1.118-5.686,2.165-11.479,13.393l-10.39,20.136c-4.346,8.421-6.088,13.085-3.792,14.27C4556.678,301.709,4560.052,297.423,4574.1,270.208Z" fill="#fff" stroke="#221815" stroke-linecap="round" stroke-linejoin="round" stroke-width="1.5"/>
        <path id="パス_97" data-name="パス 97" d="M4570.924,312.152c.6-.922,1.444-1.683,2-1.322a4.391,4.391,0,0,0,.669.6c.99.642,2.521-1.311,5.2-5.3,6.549-9.83,12.886-19.47,19.237-29.265,6.051-9.334,12.19-18.939,18.043-28.237,3-4.765,4.1-7,2.8-7.843-.434-.281-1.848-.543-2.158-.743-.556-.362-.418-1.254.33-2.406.97-1.5,1.715-1.834,2.273-1.472,7.554,4.9,14.017,4.832,18.227,7.562,1.3.843.85,2.351-.569,4.541-3.213,4.955-12.6,18.347-25,37.476-6.947,10.717-15.775,24.47-20.283,31.694-1.806,2.922-2.367,4.194-1.563,4.716.31.2.893.252,1.079.372.557.361.555,1.178-.267,2.446-.672,1.037-1.442,1.683-2.124,1.244-1.548-1-6.29-4.407-9.51-6.495-3.777-2.449-7.58-4.588-8.694-5.311C4570.051,314.041,4570.4,312.959,4570.924,312.152Z" fill="#fff" stroke="#221815" stroke-linecap="round" stroke-linejoin="round" stroke-width="1.5"/>
        <path id="パス_98" data-name="パス 98" d="M4604.006,340.509c-8.54-6.928-10.828-19.571,7.684-42.4,19.116-23.571,32.885-26.372,42.4-18.654,10.832,8.787,6.6,20.564-2.48,31.763-5.882,7.253-11.724,10.824-20.722,3.525-4.183-3.394-6.939-4.215-10.226-.162-3.2,3.947-3.012,8.167,1.573,11.886,4.757,3.859,11.419,4.666,17.474-2.8.865-1.066,1.554-1.213,1.9-.935.4.326.4,1.031-.466,2.1C4625.136,344.565,4614.838,349.3,4604.006,340.509Zm28.565-41.548c-1.989,2.453-3.662,4.633-4.585,6.006-.953,1.526-.726,2.417-.1,2.929,1.376,1.116,6.316,1.586,18.858-13.879,5.364-6.613,6.55-9.718,4.774-11.159C4648.943,280.766,4643.3,285.735,4632.571,298.961Z" fill="#fff" stroke="#221815" stroke-linecap="round" stroke-linejoin="round" stroke-width="1.5"/>
      </g>
    </g>
    <g id="グループ_22" data-name="グループ 22">
      <g id="グループ_21" data-name="グループ 21">
        <path id="パス_99" data-name="パス 99" d="M4088.9,196.362l-8.153-14.784,6.707-3.7.577,1.047-5.659,3.122,7.575,13.736Z" fill="#fff"/>
        <path id="パス_100" data-name="パス 100" d="M4096.454,177.125c.048.206-.119.44-.4.6a37.9,37.9,0,0,0,2.11,5.343c.373.765.776,1.491,1.139,2.132,1.958,3.4,4.421,4.835,6,4.04.828-.4.878-3.036.5-5.716a8.008,8.008,0,0,0,1.633.307c.405,3.256.311,6.115-1.386,6.991-2.607,1.319-5.977-.983-8.2-4.815-.444-.756-.888-1.615-1.34-2.546a54.618,54.618,0,0,1-2.394-5.717Zm18.394,2.954a11.48,11.48,0,0,0-9-5.246l.367-1.56a12.637,12.637,0,0,1,9.928,5.586Z" fill="#fff"/>
        <path id="パス_101" data-name="パス 101" d="M4130.1,163.823a28.778,28.778,0,0,1-5.983,3.975,60.719,60.719,0,0,1,1.763,14.877l-1.767.078a49.263,49.263,0,0,0-1.535-14.225c-.415.2-3.242,1.432-3.885,1.681l-.635-1.43c.348-.123.792-.313,1.279-.52.191-.081,2.307-.983,2.848-1.238-.365-1.445-.785-3.017-1.208-4.362l2.27-.718c.079.243-.146.538-.433.686.269.985.545,2.218.9,3.59a26.628,26.628,0,0,0,5.421-3.71Zm-.965,5.012a27.474,27.474,0,0,1,7.223-4.353l.613,1.439a25.994,25.994,0,0,0-6.917,4.073Zm12.6,6.684c-.626.292-1.273.593-1.929.872a23.024,23.024,0,0,1-5.215,1.672,3.2,3.2,0,0,1-3.594-1.92,5.561,5.561,0,0,1,0-3.628l1.5.009a4.229,4.229,0,0,0-.1,2.819c.711,1.672,2.5,1.409,6.352-.232.783-.334,1.578-.7,2.334-1.094Z" fill="#fff"/>
        <path id="パス_102" data-name="パス 102" d="M4154.145,154.445a28.77,28.77,0,0,1-6.169,3.68,60.711,60.711,0,0,1,1.039,14.945l-1.768-.008a49.243,49.243,0,0,0-.844-14.282c-.423.181-3.307,1.272-3.962,1.49l-.564-1.459c.353-.106.806-.274,1.3-.457.194-.072,2.353-.87,2.9-1.1-.294-1.461-.637-3.051-1-4.415l2.3-.606c.066.245-.172.529-.466.663.222,1,.437,2.242.73,3.63a26.631,26.631,0,0,0,5.593-3.443Zm-1.207,4.959a27.469,27.469,0,0,1,7.425-4l.543,1.468a25.991,25.991,0,0,0-7.107,3.731Zm1.028-8.891a17.24,17.24,0,0,1,4.084,1.825l-.543.986a16.093,16.093,0,0,0-4.006-1.879Zm11.214,16.063c-.817.376-1.707.754-2.592,1.081a20.591,20.591,0,0,1-4.647,1.229,3.2,3.2,0,0,1-3.5-2.092,5.548,5.548,0,0,1,.18-3.623l1.5.082a4.24,4.24,0,0,0-.236,2.81c.631,1.705,2.414,1.486,5.931.186.949-.351,1.926-.762,2.757-1.167Zm-8.958-18.516a15.681,15.681,0,0,1,4.056,1.811l-.543.986a17.942,17.942,0,0,0-3.977-1.865Z" fill="#fff"/>
        <path id="パス_103" data-name="パス 103" d="M4184.835,147.594a34.392,34.392,0,0,1-6.19,3.461,8.521,8.521,0,0,0,4.711,2.294l-.481,1.528c-.356-.056-1.009-.138-1.48-.254a9.628,9.628,0,0,0-2.692.492c-.307.1-.607.217-.885.329l-.69-1.109a15.656,15.656,0,0,1,2.484-.691,11.6,11.6,0,0,1-2.519-1.928,58.123,58.123,0,0,1-5.806,2.084c-1.075.341-2.281.723-3.275,1.015l-.46-1.375c.993-.291,2.273-.672,3.368-1.021,1.8-.57,3.575-1.133,5.3-1.851-.457-.6-1.2-1.741-1.78-2.645-.85.367-1.822.724-2.721,1.009-1.184.376-2.7.856-3.742,1.139l-.432-1.36c1.337-.352,2.785-.811,3.727-1.11.79-.25,1.675-.579,2.487-.91-.517-.945-1.119-2.082-1.684-3.254l2.265-.695c.083.263-.065.479-.439.67.43.9.9,1.861,1.351,2.661a24.1,24.1,0,0,0,5.473-3.137l.805,1.241a27.918,27.918,0,0,1-5.569,3.143,27.59,27.59,0,0,0,1.745,2.608,33,33,0,0,0,6.382-3.618Zm-.177,12.824c-1.179.47-2.612.973-4.783,1.662-3.559,1.106-6.683.842-7.426-1.65-.388-1.3.313-3.044,1.488-4.285l1.307.695c-1.056,1.083-1.509,2.241-1.246,3.074.5,1.557,2.64,1.625,5.432.763,1.645-.522,3.349-1.159,4.8-1.742Z" fill="#fff"/>
        <path id="パス_104" data-name="パス 104" d="M4191.05,140.926c1.4-.278,3.245-.771,4.756-1.175,1-.267,2.127-.592,3.055-.863-.308-1.061-.662-2.3-.87-3.077l2.273-.488c.05.272-.115.459-.474.627.072.361.551,2.066.652,2.444a45.176,45.176,0,0,0,7.144-2.838l.592,1.413a47.1,47.1,0,0,1-7.35,2.868c.379,1.328.768,2.7,1.181,4.065a38.682,38.682,0,0,0,6.033-2.541l.564,1.4a43.887,43.887,0,0,1-6.213,2.493l1.169,3.663a25.563,25.563,0,0,1,7.458,1.72l-.615,1.617a22.432,22.432,0,0,0-6.383-1.794c.1.356.225.75.3,1.038.541,2.117-.4,3.677-3.087,4.4-2.822.754-5.2.151-5.754-1.937-.57-2.133,1.537-3.958,4.025-4.622a10.037,10.037,0,0,1,2.405-.357c-.278-.95-.631-2.093-.974-3.287-.705.212-1.5.448-2.144.62-3.8,1.015-5.025.7-5.37-.588-.224-.844.236-1.7,1.414-3l1.25.4c-.851.822-1.254,1.454-1.134,1.9.177.666,1.257.521,4.079-.233.488-.131,1-.267,1.482-.42l-1.231-4.075c-.944.3-2.055.6-3.054.864-1.422.38-3.444.92-4.789,1.232Zm11.313,9.379a9.653,9.653,0,0,0-2.583.31c-1.689.45-3.215,1.6-2.86,2.929.351,1.311,2.078,1.54,4.011,1.023,1.755-.468,2.214-1.424,1.8-2.979Z" fill="#fff"/>
        <path id="パス_105" data-name="パス 105" d="M4225.421,132.619c-.131-.49-.735-2.923-.9-3.474l2.333-.418c.017.184-.091.443-.48.6.059.269.118.539.68,2.887,2.743-.7,5.626-1.4,7.306-1.791l.34,1.55c-1.919.374-4.627,1.015-7.281,1.691.43,1.742.83,3.35,1.168,4.57a7.842,7.842,0,0,1,.788,2.3,9.921,9.921,0,0,1,.252,2.228c-.006,2.757-1.43,5.494-5.039,7.933a12.731,12.731,0,0,0-1.426-1.028c3.166-1.99,4.6-4.258,4.691-6.515l-.022.005a2.889,2.889,0,0,1-2.052,1.7,3.924,3.924,0,0,1-4.637-3.1,4.233,4.233,0,0,1,3.122-5.087,3.4,3.4,0,0,1,2.241.238c-.084-.382-.459-1.877-.715-2.833-2.327.558-9.37,2.362-10.281,2.609l-.37-1.472,5.092-1.259Zm2.158,7.79c-.193-.876-.641-2.92-2.932-2.417a2.775,2.775,0,0,0-2.048,3.439,2.575,2.575,0,0,0,3.066,2.058A2.48,2.48,0,0,0,4227.579,140.409Z" fill="#fff"/>
        <path id="パス_106" data-name="パス 106" d="M4247.2,129.006l2.878,16.632-7.546,1.3-.207-1.2,6.367-1.1-2.671-15.431Z" fill="#fff"/>
        <path id="パス_107" data-name="パス 107" d="M4269.328,141.2c-.917-1.552-1.625-4.916-2.007-7.9a58.487,58.487,0,0,1-.129-10.81l2.267.15c-.015.234-.223.423-.54.487a44.225,44.225,0,0,0-.067,10,27.406,27.406,0,0,0,.756,4.285c.327-1.433.96-3.74,1.3-4.873l1.149.827c-.555,1.647-1.708,5.319-1.571,6.391a3.136,3.136,0,0,0,.368,1.065Zm4.078-14.176c1.919-.222,3.838-.444,5.736-.826-.342-1.95-.626-3.629-.887-5.312l2.313-.226c.006.232-.176.44-.532.555.21,1.458.444,2.935.712,4.662a20.335,20.335,0,0,0,4.354-1.483l.409,1.57a22.238,22.238,0,0,1-4.5,1.41c.415,2.521.869,5.175,1.125,6.626a16.956,16.956,0,0,1,5.024,2.3l-.7,1.573a13.844,13.844,0,0,0-4.029-2.128c.226,1.942.138,4.155-3.284,4.593-2.669.341-4.612-.709-4.868-2.717-.3-2.326,1.921-3.653,4.019-3.922a7.961,7.961,0,0,1,2.206.02c-.252-1.428-.7-3.806-1.1-6.027-.7.136-1.656.281-2.318.366l-3.467.443Zm7.4,8.167a7.751,7.751,0,0,0-2.31-.122c-1.392.177-2.993.892-2.81,2.329.163,1.277,1.613,1.741,3.279,1.528,1.688-.215,2.2-1.115,1.966-2.94Z" fill="#fff"/>
        <path id="パス_108" data-name="パス 108" d="M4291.233,128.728c1.317-.8,3.236-2.141,5.157-3.456l.543,1.247c-1.633,1.175-3.352,2.4-4.442,3.165a.459.459,0,0,1-.2.432Zm1.084-9.092a15.177,15.177,0,0,1,4,3.357l-1.084,1.107a15,15,0,0,0-3.917-3.5Zm20.18,11.647-8.091.679a19.657,19.657,0,0,0,8.907,4.1,6.294,6.294,0,0,0-.922,1.393,21.392,21.392,0,0,1-9.438-4.932l.519,6.187-1.558.131-.528-6.279a22.271,22.271,0,0,1-8.348,6.677,7.229,7.229,0,0,0-1.162-1.195,21.131,21.131,0,0,0,7.923-5.7l-7.907.663-.115-1.375,9.466-.794-.171-2.04,2.026-.055c-.008.186-.136.312-.432.359l.135,1.605,9.58-.8Zm-7.015-11.805.736,8.777-8.595.722-.736-8.778,2.934-.246c.189-.778.385-1.741.488-2.442l1.939.276c-.035.142-.188.247-.44.268-.12.5-.295,1.155-.5,1.773Zm-1.2,3.885-.21-2.5-5.615.471.209,2.5Zm.315,3.759-.214-2.544-5.614.471.213,2.544Zm2.374-3.061a30.023,30.023,0,0,1,5.554,2.927l-.841,1.247a29.9,29.9,0,0,0-5.543-3.066Zm-.778-1.851a28.994,28.994,0,0,0,3.381-4.276l1.664.853c-.06.12-.214.2-.493.18a36.858,36.858,0,0,1-3.338,3.95Z" fill="#fff"/>
        <path id="パス_109" data-name="パス 109" d="M4323.749,116.979c-.035.277-.235.446-.691.534-.074,2.674-.054,8.773.087,12.174.141,3.423,1.909,5.008,4.805,4.889,2.8-.116,5.595-1.635,8.092-4.707a9.187,9.187,0,0,0,1.09,1.313,12.469,12.469,0,0,1-9.137,5.049c-4.182.172-6.419-2.152-6.6-6.5-.119-2.9-.205-10.027-.161-12.86Z" fill="#fff"/>
        <path id="パス_110" data-name="パス 110" d="M4346.184,118.364c-.049.206-.3.342-.625.36a37.933,37.933,0,0,0-.51,5.72c-.01.851.026,1.68.062,2.416.226,3.913,1.784,6.3,3.554,6.3.92.011,2.146-2.319,3.006-4.884a8.01,8.01,0,0,0,1.321,1.005c-1.1,3.092-2.462,5.6-4.371,5.626-2.921.009-4.9-3.557-5.166-7.977-.059-.874-.07-1.841-.056-2.875a54.619,54.619,0,0,1,.423-6.181Zm15.111,10.885a11.472,11.472,0,0,0-5.686-8.719l1.028-1.229a12.628,12.628,0,0,1,6.366,9.441Z" fill="#fff"/>
        <path id="パス_111" data-name="パス 111" d="M4373.706,133.864a3.221,3.221,0,1,1-3.079-3.356A3.229,3.229,0,0,1,4373.706,133.864Zm-.828-.036a2.38,2.38,0,1,0-2.492,2.264A2.376,2.376,0,0,0,4372.878,133.828Z" fill="#fff"/>
        <path id="パス_112" data-name="パス 112" d="M4400.4,127.05a.313.313,0,0,1-.141.036.574.574,0,0,1-.335-.159c-1.781.461-4.389,1.238-6.347,1.941q.016.8-.047,1.795c-.047.734-.123,1.559-.227,2.451l-1.681-.017c.122-.822.236-1.874.294-2.769.022-.345.042-.666.036-.92-2.675,1.1-4.885,2.5-4.974,3.874-.086,1.331,1.456,2.075,4.623,2.28a51.616,51.616,0,0,0,5.775.142l-.077,1.539c-1.362.05-3.43-.037-5.795-.19-4.406-.284-6.288-1.465-6.137-3.806.131-2.019,2.918-3.8,6.471-5.3-.044-1.454-.641-2.207-1.559-2.266-1.675-.108-3.48.72-5.694,2.881-.688.67-1.64,1.508-2.685,2.339l-1.052-1.2c2.425-1.871,4.707-3.66,6.329-8.095l-1.286-.06-3.833-.247.1-1.492c1.4.113,3.027.218,3.969.279l1.561.078a30.087,30.087,0,0,0,.831-3.242l2.232.421c-.061.226-.253.352-.6.376-.22.907-.478,1.7-.737,2.51a31.439,31.439,0,0,0,7.98-.822l.176,1.555a34.737,34.737,0,0,1-8.689.731,16.722,16.722,0,0,1-1.9,3.771l.024,0a6.121,6.121,0,0,1,3.791-1.254c1.56.1,2.474,1.289,2.653,3.167,1.984-.747,4.477-1.531,6.359-2.124Z" fill="#fff"/>
        <path id="パス_113" data-name="パス 113" d="M4412.791,122.967l-.421,3.911c-.04.367-.085.778-.15,1.165l4.186.452-.158,1.464-4.3-.465a19.141,19.141,0,0,1-.6,2.088c.981,1.193,3.3,4.359,3.885,5.163l-1.165,1.147c-.623-1.085-2.221-3.433-3.287-4.914a12.524,12.524,0,0,1-5.344,5.763,5.372,5.372,0,0,0-.908-1.232,11.791,11.791,0,0,0,5.928-8.175l-4.9-.53.158-1.464,5.01.542c.067-.409.109-.8.151-1.187l.42-3.888-2.036-.221a16.173,16.173,0,0,1-2.328,3.775,8.506,8.506,0,0,0-1.058-.924,21.58,21.58,0,0,0,3.586-7.48l1.78.655c-.063.155-.23.207-.5.177-.249.806-.544,1.608-.863,2.406l6.657.719-.156,1.442Zm5.47-2,8.463.914-1.98,18.321-1.555-.168.175-1.624-5.4-.583-.2,1.876-1.51-.163Zm-.137,15.4,5.4.583,1.488-13.769-5.4-.583Z" fill="#fff"/>
        <path id="パス_114" data-name="パス 114" d="M4433.563,129.918c.423-.029,1.3-.128,2.106-.237a34.319,34.319,0,0,1,8.477-.361c3.069.468,5.571,2.524,5.006,6.23-.762,5-6,6.088-12.142,5.64a11.136,11.136,0,0,0-.243-1.456c5.4.428,10.161-.429,10.757-4.339.433-2.842-1.4-4.378-3.817-4.723a28.569,28.569,0,0,0-7.869.5c-.55.1-1.15.22-1.531.278a.572.572,0,0,1-.423.331Z" fill="#fff"/>
        <path id="パス_115" data-name="パス 115" d="M4458.632,127.826c1.706.268,15.805,2.029,18.742,2.587l-.312,1.7c-.289-.08-.56-.134-.83-.188a6.63,6.63,0,0,0-4.087.387c-3.788,1.36-7.78,4.345-8.356,7.257-.626,3.159,1.213,5.471,6.668,7.3L4469.4,148.3c-6.226-2.2-8.145-5.062-7.349-9.078.631-3.182,4.532-6.42,9.176-8.2-2.423-.315-9.273-1.133-12.238-1.439a.7.7,0,0,1-.569.263Z" fill="#fff"/>
        <path id="パス_116" data-name="パス 116" d="M4493.813,145.186a54.714,54.714,0,0,1-5.4-1.041c-.259.766-.539,1.62-.644,2.044-.876,3.575,1.42,4.446,3.5,4.956,3.507.859,5.5.281,6-1.774a7.262,7.262,0,0,0-.824-4.559A12.255,12.255,0,0,0,4498,144.6a8.681,8.681,0,0,1,.85,5.419c-.92,3.752-5.257,3.281-7.96,2.618-2.145-.526-5.948-1.624-4.672-6.829a17.818,17.818,0,0,1,.654-2.09c-1.86-.527-4.848-1.378-4.284-3.679.246-1.005,1.058-1.8,2.606-2.416l1.013.983c-1.13.362-1.891.957-2.04,1.56-.29,1.184,1.487,1.667,3.173,2.128.524-1.459,1.157-3.174,1.785-4.867a16.032,16.032,0,0,1-4.389-2.379l.757-1.354a15.256,15.256,0,0,0,4.172,2.3c.525-1.363,1.032-2.755,1.478-3.9l2.253.86c-.133.251-.417.348-.825.271-.386.9-.867,2.085-1.358,3.314.638.2,1.324.4,2.039.572.849.208,1.726.4,2.546.529l-.429,1.458c-.68-.12-1.445-.284-2.205-.47-.871-.214-1.737-.449-2.507-.686-.635,1.621-1.257,3.292-1.787,4.772a42.811,42.811,0,0,0,5.282.964Z" fill="#fff"/>
        <path id="パス_117" data-name="パス 117" d="M4513.515,142.525a.657.657,0,0,1-.684.207c-1.136,3.213-2.373,5.87-2.818,6.243l.023.006a15.656,15.656,0,0,1,8.917-.327c3.4,1,5,3.364,4.051,6.44-1.259,4.041-5.144,4.864-13.787,2.707a6.831,6.831,0,0,0-.124-1.618c7.8,1.932,11.256,1.583,12.25-1.553.645-2.112-.458-3.826-3.039-4.585-4.082-1.2-8.486.166-9.422,1.066l-1.287-1.169c.566-.29,2.5-4.012,3.814-8.323Zm1.633-4.17a37.019,37.019,0,0,1,7.99,4.458l-1,1.36a37.381,37.381,0,0,0-7.883-4.5Z" fill="#fff"/>
        <path id="パス_118" data-name="パス 118" d="M4536.549,147.679c-.111.181-.4.229-.707.145a37.928,37.928,0,0,0-2.286,5.271c-.278.8-.506,1.6-.7,2.314-1.018,3.786-.293,6.545,1.39,7.1.869.3,2.767-1.526,4.392-3.69a8,8,0,0,0,.938,1.371c-2.016,2.59-4.105,4.545-5.924,3.964-2.776-.911-3.531-4.922-2.392-9.2.221-.849.515-1.77.854-2.748a55.136,55.136,0,0,1,2.349-5.736Zm10.918,15.1a11.478,11.478,0,0,0-2.65-10.071l1.362-.843a12.631,12.631,0,0,1,3.07,10.971Z" fill="#fff"/>
        <path id="パス_119" data-name="パス 119" d="M4569.734,162.037a28.764,28.764,0,0,1-7.041-1.406,60.7,60.7,0,0,1-9.247,11.778l-1.306-1.192a49.2,49.2,0,0,0,8.948-11.154c-.435-.15-3.3-1.274-3.936-1.551l.559-1.461c.333.159.782.338,1.273.534.191.077,2.326.932,2.889,1.133.761-1.281,1.573-2.69,2.222-3.941l2.113,1.094c-.115.226-.482.277-.79.179-.5.888-1.178,1.955-1.892,3.181a26.663,26.663,0,0,0,6.456,1.2Zm-.013,16.49c-.649-.234-1.319-.478-1.981-.743a23,23,0,0,1-4.871-2.495,3.193,3.193,0,0,1-1.191-3.894,5.552,5.552,0,0,1,2.563-2.566l1.058,1.068a4.224,4.224,0,0,0-2.057,1.925c-.676,1.686.776,2.763,4.661,4.318.79.316,1.609.62,2.425.872Zm-4.207-13.621a27.407,27.407,0,0,1,8.186,2.013l-.581,1.451a26,26,0,0,0-7.772-1.995Z" fill="#fff"/>
        <path id="パス_120" data-name="パス 120" d="M4584.822,166.319a.627.627,0,0,1-.718.076,37.669,37.669,0,0,0-2.783,5.023c-.355.773-.658,1.545-.923,2.233-1.378,3.669-.923,6.484.7,7.2.836.383,2.9-1.251,4.727-3.247a7.98,7.98,0,0,0,.8,1.454c-2.256,2.381-4.523,4.125-6.277,3.372-2.674-1.176-3.038-5.238-1.49-9.386.3-.823.683-1.71,1.114-2.651a54.627,54.627,0,0,1,2.891-5.48Zm9.4,16.074a11.471,11.471,0,0,0-1.665-10.275l1.438-.707a12.629,12.629,0,0,1,2,11.21Z" fill="#fff"/>
        <path id="パス_121" data-name="パス 121" d="M4606.022,193.244a1.427,1.427,0,1,1,.574,1.985A1.463,1.463,0,0,1,4606.022,193.244Zm2.321-2.966,5.514-11.339,1.959,1.02-6.126,11.02Z" fill="#fff"/>
      </g>
    </g>
    <g transform="matrix(1, 0, 0, 1, 3602.08, 0)" filter="url(#FES.)">
      <text id="FES.-2" data-name="FES." transform="translate(756.45 349.63)" fill="#fff" stroke="#221815" stroke-linecap="round" stroke-linejoin="round" stroke-width="1.71" font-size="84.117" font-family="OhnoBlazeface-24Point, Ohno Blazeface"><tspan x="-88.786" y="0">FES.</tspan></text>
    </g>
    <line id="線_17" data-name="線 17" x2="251.349" transform="translate(4217.096 420.925)" fill="none" stroke="#221815" stroke-miterlimit="10" stroke-width="0.96"/>
  </g>
</svg>
