<?xml version="1.0" encoding="UTF-8"?>
<svg id="_レイヤー_2" data-name="レイヤー 2" xmlns="http://www.w3.org/2000/svg" viewBox="0 0 61.8 49.4">
  <defs>
    <style>
      .cls-1 {
        fill: #fff;
      }
    </style>
  </defs>
  <g id="_レイヤー_1-2" data-name="レイヤー 1">
    <path class="cls-1" d="M61.8,6.2c-2.3,1-4.7,1.6-7.2,1.9,2.6-1.5,4.6-3.9,5.6-6.9-2.5,1.4-5.2,2.4-8,2.9C49.9,1.6,46.7,0,43,0c-6.9-.1-12.6,5.4-12.7,12.4,0,1,0,1.9,.3,2.9C20.1,14.6,11,9.4,4.9,1.7c-1.1,1.8-1.8,4-1.8,6.3,0,4.4,2.1,8.2,5.4,10.5-2.1,0-4-.7-5.7-1.7,0,0,0,.1,0,.2,0,6.1,4.2,11.2,9.9,12.5-1.1,.3-2.2,.4-3.3,.4-.8,0-1.6-.1-2.4-.3,1.5,5,6.1,8.7,11.6,8.9-4.3,3.3-9.8,5.2-15.7,5.2-1,0-2,0-3-.2,5.5,3.6,12.1,5.8,19.2,5.9,23.1,.3,36-18.6,36.3-35.2,0-.5,0-1.1,0-1.6,2.5-1.7,4.6-3.9,6.4-6.4h0Z"/>
  </g>
</svg>