<?xml version="1.0" encoding="UTF-8"?>
<svg id="_レイヤー_2" data-name="レイヤー 2" xmlns="http://www.w3.org/2000/svg" viewBox="0 0 357.3 313.4">
  <defs>
    <style>
      .cls-1 {
        fill: #ebcb32;
      }

      .cls-2 {
        fill: #7f2583;
      }

      .cls-3 {
        fill: #65bbb1;
      }

      .cls-4 {
        fill: #3caba7;
      }
    </style>
  </defs>
  <g id="_レイヤー_1-2" data-name="レイヤー 1">
    <g>
      <path class="cls-3" d="m349.6,59.3c-7.8-20.8-21.6-38.9-41.3-50.3-29.4-16.9-70.6-8.4-95,13.6-13,11.7-23.9,28-41,31.6-19.9,4.2-38.1-10.3-56.5-19-12.3-5.8-25.8-9.2-39.4-9.9-16.3-.8-35.1,4.1-42.3,18.8-9,18.5,5.5,40.8.9,60.8-3.8,16.5-19.4,27.3-27.9,42-12.4,21.6-7.5,50.3,7.8,69.9,15.4,19.6,39.4,30.9,63.8,35.7,12.8,2.5,26.2,3.4,38.7-.4,9.5-2.9,17.9-8.4,25.7-14.6,16.3-13,29.9-29.2,45.9-42.6,16-13.4,35.7-24.2,56.5-23.4,26.5,1,53.5,20.3,77.3,8.7,9.8-4.8,16.7-14.1,21.8-23.8,15.1-28.8,16.8-65.9,5.1-97.1"/>
      <path class="cls-4" d="m318.2,149.7c-9.2-27.4-64.5-22-94.3-19.5-28.5,2.4-57,10.3-76.7,25.9-15.2,12.1-24.1,27.8-32.6,43.1-6.5,11.7-13.1,23.5-19.6,35.2-1.7,3.1-3.4,6.2-3.4,9.5,0,5.1,3.9,9.3,9.2,12.7,5.6-.1,11.2-.7,16.6-1.9,9.5-2.2,17.9-6.3,25.7-10.9,16.3-9.7,29.9-21.8,45.9-31.8,16-10,35.7-18.1,56.5-17.5,25.5.7,51.6,14.1,74.7,7.4,4-17.4,3.7-35.4-2-52.1"/>
      <path class="cls-2" d="m248.7,222.2c18.5-22,19.3-54.3,11.4-81.6-8-29.5-23.4-61.9-51.2-77.7-6.9-3.3-12.5,6.3-6.1,10.6,5.8,3.6,10.7,8.5,15,13.9,21.3,26.2,38.3,84.1,17.1,113.7-.5.8-1.1,1.5-1.7,2.3-13.8-14.7-29.7-27.6-45.9-38.5-12.8-8.8-26.3-16-39.6-23.6-3.5-1.9-7.5-4.7-10.7-6.9-21.6-15.2-39.4-38.3-42.9-65-.3-6.9-10.3-6.8-10.6,0,.6,29.5,16.9,56.8,38.1,76.5,1.9,2,5.2,4.5,7.3,6.3,2.1,1.9,5.3,4.3,7.7,5.9,2.3,1.6,4.6,3.2,6.9,4.8-7.2.8-14.6.8-21.7,0-14.5-1.6-28.2-7.3-39.3-16.9-4.3-3.5-9.9,2.3-6.3,6.5,22,25.3,58.5,33,90.7,27.5,28.6,22.5,54.2,49.2,65.5,83.4,3.3,10.5,4.3,20.9,3.8,31.3.4,10.7,9.5,19,20.2,18.6,10.7-.4,19-9.5,18.6-20.2-1.1-26.6-11.1-50.3-26-71"/>
      <path class="cls-1" d="m224.7,43.1c-3.1,8.7,1.5,18.3,10.2,21.3,8.7,3.1,18.3-1.5,21.3-10.2,3.1-8.7-1.5-18.3-10.2-21.3-8.7-3.1-18.3,1.5-21.3,10.2"/>
      <path class="cls-1" d="m112.7,195.6c-1.8,5,.9,10.5,5.9,12.3,5,1.8,10.5-.9,12.3-5.9,1.8-5-.9-10.5-5.9-12.3-5-1.8-10.5.9-12.3,5.9"/>
    </g>
  </g>
</svg>