<?xml version="1.0" encoding="UTF-8"?>
<svg id="_レイヤー_2" data-name="レイヤー 2" xmlns="http://www.w3.org/2000/svg" viewBox="0 0 290.7 235.7">
  <defs>
    <style>
      .cls-1 {
        fill: #f9dd96;
      }

      .cls-2 {
        fill: #f1b22d;
      }

      .cls-3 {
        fill: #ebcb32;
      }

      .cls-4 {
        fill: #e9a828;
      }

      .cls-5 {
        fill: #f39a43;
      }

      .cls-6 {
        fill: #e73c71;
      }

      .cls-7, .cls-8 {
        fill: #65bbb1;
      }

      .cls-9 {
        fill: #221815;
      }

      .cls-10 {
        fill: #1c68ac;
      }

      .cls-8, .cls-11, .cls-12 {
        fill-rule: evenodd;
      }

      .cls-11 {
        fill: #efefef;
      }

      .cls-12 {
        fill: #edad23;
      }
    </style>
  </defs>
  <g id="_レイヤー_1-2" data-name="レイヤー 1">
    <g>
      <path class="cls-10" d="m69.9,42.3c0,19.3-15.6,32.5-34.9,32.5S0,64.1,0,44.8,15.6,14.8,34.9,14.8s34.9,8.2,34.9,27.5"/>
      <path class="cls-4" d="m13.6,45.9s-.2,0-.2,0c0,.1.1.4,0,.5,0,.1-.2.2-.3.3,0,.1,0,.3-.1.4,0,.2-.3.3-.3.5,0,.1.3.2.3.4,0,.3-.1.7,0,1,2,.8,4,1.4,6.1,2.1,2,.7,4.1,1.4,6.1,2,2,.6,4.1,1.3,6.2,1.9,2.1.6,4.1,1.2,6.2,1.8,2.1.6,4.2,1.1,6.2,1.8,2.1.7,4.1,1.4,6.1,2.2.5.2.9.4,1.3.6.2,0,.5-.2.6-.2.1,0,.3.1.4.2,0,0,0,0,0,0,2.3.5,2.9-.5,3.4-3.5.2-1.5-.1-2.5-.9-3.3,0,0,.1,0,.1,0,0,0,0,0,0,0-.3-.3-.8-.6-1.2-.8,0,0-.2,0-.3,0-.4-.2-.6-.7-1-.9-.1,0-.3-.1-.4-.2-.4-.2-.8-.1-1.2-.3-.1,0-.3,0-.4-.1-.5-.2-.9-.5-1.3-.7-2.2-.7-4.4-1.4-6.6-2-2.2-.6-4.5-1-6.7-1.6-2.2-.6-4.4-1.1-6.7-1.6-2.2-.5-4.5-1-6.7-1.4-2.3-.4-4.5-.9-6.7-1.3-.8.7-1.4,1.4-1.9,2.4,0,0-.2,0-.2,0,0,0,0,0,0,0,0,0,.2.2.2.2"/>
      <path class="cls-4" d="m14,34.6c.2,1.1.2,1,.7,2,.4.2,2.9,1,6.5,2.3,1.9.7,4.2,1.4,6.6,2.3,2.1.7,4.3,1.7,6.5,2.4,2.2.7,4.5,1.5,6.6,2.2,2.4.8,4.7,1.6,6.6,2.2,3.7,1.1,6.3,1.5,6.7,1.3,1.1-1.6,1.4-2.1,2-3.3.2-.4.7-2.1.3-3.3-.2-.6-.4-2.1-.9-2.4,0,0,0,.1,0,.1,0,0,0,0,0,0-2-.7-4.1-1.4-6.2-1.9-2.1-.4-4.3-.7-6.4-1-2.2-.3-4.3-.8-6.4-1.2-1.4-.3-4-.8-6.9-1.6-2.2-.6-4.7-1.3-6.8-1.8-3.1-.8-5.7-1.4-6.8-1.4-.4.7-1.7,2.4-1.9,3.1"/>
      <path class="cls-1" d="m55.5,40.3s0,0,0,0c0,0,0,0,0,0,0,0,0,0,0,0"/>
      <path class="cls-4" d="m18.6,25.5c0,0-.3,0-.3.2,0,.1,0,.3,0,.4,0,.1,0,.3,0,.4,0,.1-.3.2-.3.3,0,.2,0,.4,0,.6,0,0,0,.2,0,.3,0,.3.1.6.2.9,2,.8,4,1.4,6.1,2.1,2,.7,4.1,1.3,6.1,2,2,.6,4.1,1.1,6.2,1.7,2.1.6,4.1,1.2,6.2,1.8,2.1.6,4,1.5,6.1,2.2,2.1.7,4.1,1.2,6.1,2,.5.2,1,0,1.4.2.2,0,.4.2.5.3.1,0,.3.2.4.3,0,0,0,0,0,0,2.3.4,3-.6,3.5-3.6.6-4-3.5-5-6.8-6.1-2.2-.7-4.3-1.7-6.5-2.3-2.2-.6-4.4-1.3-6.6-1.9-2.2-.6-4.5-1-6.7-1.5-2.2-.5-4.5-.8-6.8-1.3-2.3-.4-4.5-.6-6.7-1-.8.7-1.7,1.1-2.2,2.1,0,0,.2,0,.2,0"/>
      <path class="cls-3" d="m11.9,36c0,.1,0,.2-.2.4-.1.3-.1.5-.2.9,1.5,1.5,2.9,3.2,4.5,4.6,1.6,1.4,3.2,2.9,4.8,4.3,1.6,1.4,3.3,2.7,5,4.1,1.6,1.4,3.3,2.7,4.9,4.1,1.6,1.4,3.2,2.8,4.8,4.3,1.6,1.4,3.1,3,4.6,4.5.4.4.7.7,1,1,.1.1.3,0,.5.2.1.1.4.1.5.2,0,0,0,0,0,0,1.9,1.4,3,.8,4.6-1.8.8-1.2,1-2.4.7-3.5,0,0-.3,0-.3,0,0,0,0,0,0,0-.2-.4-.2-.9-.5-1.3,0,0,0-.1-.1-.2-.2-.3-.5-.7-.8-1,0-.1,0-.3-.2-.4-.3-.3-.6-.6-.9-.9,0,0-.2-.2-.3-.3-.4-.3-.9-.5-1.2-.9-1.7-1.5-3.4-3.1-5.1-4.6-1.7-1.5-3.6-2.9-5.3-4.3-1.8-1.4-3.5-2.9-5.4-4.3-1.8-1.4-3.8-2.6-5.6-4-1.9-1.3-3.8-2.6-5.7-3.9-1,.3-2,.5-2.8,1.2,0,0,0,0,0,0,0,0,0,.2,0,.2,0,0,0,.1,0,.1,0,0,0,0,0,0-.1,0-.2.2-.3.3,0,0-.1.2-.2.3,0,.1-.4,0-.5.2,0,.1-.2.3-.2.4"/>
      <path class="cls-3" d="m13.6,28.8c.4.2,3,1.1,6.5,2.5,1.9.8,4.1,1.6,6.4,2.5,2.1.8,4.2,1.6,6.4,2.5,2.2.8,4.3,1.8,6.4,2.5,2.3.9,4.6,1.6,6.5,2.2,3.6,1.3,6.2,2.4,6.6,2.3,1-1.1.9-1.8,1.4-2.6.2-.3.8-1.3.3-2.3-.2-.5-.3-1.8-.8-2.1,0,0,0,.2,0,.2h0c-2-.9-4-1.7-6-2.3-2-.6-4.1-1.1-6.2-1.6-2.1-.5-4.2-.7-6.3-1.2-1.4-.4-3.9-1.2-6.6-2.2-2.2-.7-4.4-1.8-6.5-2.5-3-1-5.6-1.7-6.7-1.8-.4.5-1.8,1.6-2,2.2,0,.9.2,1,.7,1.8"/>
      <path class="cls-2" d="m53.2,36.4s0,0,0,0c0,0,0,0,0,0,0,0,0,0,0,0"/>
    </g>
    <g>
      <path class="cls-12" d="m184.1,30.9l40.6-6.4-1.3,35.4h-.1c.6,3.9-5.6,5.9-13.4,7.1-7,1.1-13,1.7-14.5-1.5,0-.2-.4-.8-.5-1.1l-10.9-33.5Z"/>
      <path class="cls-9" d="m217.9.7c-1.2-1.1-2.8-.5-4.2-.4-2.6.2-4.2.8-6.7.7-1,0-3.8.1-4.5,1.2,0,0,0,.2-.1.3-.1.2-.2.5-.2.8l-.6,18.2c0,.4.3.8.7.9.8.2,1.6.3,2.4.1.7-.1,1.4-.4,2.1-.7.3-.2.5-.4.5-.8l.6-15,10-2.1c1.2-1.4.8-2.6,0-3.2"/>
      <path class="cls-11" d="m227,23.1l-1.1-7.2-45.6,7.2,1.5,9.7,45.6-7.2c-.1-.9-.3-1.7-.5-2.5"/>
    </g>
    <g>
      <path class="cls-10" d="m220.9,131.4c0,19.3,15.6,32.5,34.9,32.5s34.9-10.7,34.9-30-15.6-30-34.9-30-34.9,8.2-34.9,27.5"/>
      <path class="cls-4" d="m277.4,134.9s-.2.1-.2.1c0,.1.4.2.4.3,0,.1,0,.3,0,.4,0,.1,0,.3.1.4,0,.2-.2.4-.2.5,0,.1.3.2.3.3,0,.3-.1.6-.2.9-2,.8-4,1.6-6,2.3-2,.7-4.1,1.3-6.2,1.9-2,.6-4.1,1.2-6.2,1.8-2.1.6-4.1,1.2-6.2,1.8-2.1.6-4.1,1.3-6.1,2-2,.7-4.1,1.3-6.1,2-.5.2-1,.2-1.4.3-.2,0-.3.4-.5.5-.1,0-.3,0-.5,0,0,0,0,0,0,0-2.3.5-3.2-.6-3.6-3.7-.2-1.5.3-2.6,1-3.4,0,0,.1,0,.1,0,0,0,0,0,0,0,.3-.3.6-.7,1-1,0,0,0-.2,0-.3.4-.2.9-.2,1.3-.4.1,0,.3,0,.4-.1.4-.2.7-.5,1.1-.6.1,0,.3-.1.4-.2.5-.2,1,0,1.5-.2,2.2-.7,4.3-1.5,6.5-2.1,2.2-.6,4.3-1.5,6.6-2.1,2.2-.6,4.5-1.1,6.7-1.6,2.2-.5,4.5-.9,6.7-1.4,2.3-.4,4.5-.8,6.8-1.2.8.7,1.6,1.4,2.1,2.4,0,0-.2,0-.2,0,0,0,0,0,0,.1,0,0,.3,0,.3,0"/>
      <path class="cls-4" d="m276.9,123.7c-.2,1.1-.3,1.1-.7,2-.4.2-3,1.3-6.6,2.5-1.9.7-4.2,1.5-6.6,2.3-2.1.7-4.4,1.3-6.7,2-2.2.7-4.5,1.5-6.6,2.1-2.4.8-4.7,1.4-6.7,1.9-3.7,1.1-6.4,2-6.8,1.8-1.1-1.6-1-2.3-1.6-3.6-.2-.4-1-2.1-.5-3.3.2-.6.5-2,1-2.3,0,0,0-.1,0-.1,0,0,0,0,0,0,2-.7,4.2-1,6.4-1.4,2.1-.4,4.2-.8,6.4-1.1,2.2-.3,4.3-.5,6.4-.9,1.4-.3,4-1.2,6.8-2,2.2-.6,4.6-1.3,6.8-1.9,3.1-.8,5.8-1.5,6.9-1.5.4.7,1.8,2.6,2.1,3.4"/>
      <path class="cls-1" d="m235.2,129.5s0,0,0,0c0,0,0,0,0,0,0,0,0,0,0,0"/>
      <path class="cls-4" d="m272.1,114.6c0,0-.1.2,0,.3,0,.1.3.2.3.3,0,.1.2.3.2.4,0,.1-.2.3-.2.4,0,.2,0,.4,0,.6,0,0,0,.2,0,.2,0,.3.1.7,0,1-2,.8-4,1.6-6,2.2-2,.7-4.1,1.3-6.2,1.9-2,.6-4.1,1.3-6.2,1.9-2.1.6-4.1,1.2-6.2,1.8-2.1.6-4.2.9-6.3,1.6-2.1.7-4.1,1.5-6.1,2.2-.5.2-.8.6-1.2.7-.2,0-.4,0-.6,0-.1,0-.3,0-.5,0,0,0,0,0,0,0-2.3.4-3.1-.5-3.5-3.6-.6-4,3.5-5.2,6.8-6.3,2.2-.7,4.4-1.1,6.6-1.8,2.2-.6,4.4-1.2,6.7-1.8,2.2-.6,4.4-1.2,6.7-1.7,2.2-.5,4.5-1.1,6.7-1.5,2.3-.4,4.5-1,6.8-1.4.8.7,1.3,1.7,1.8,2.7,0,0,.2,0,.2,0"/>
      <path class="cls-3" d="m278.6,125.2c0,.1.2.2.2.3.1.3.4.6.5.9-1.5,1.5-3.2,2.9-4.8,4.3-1.6,1.4-3.2,2.9-4.8,4.3-1.6,1.4-3.2,2.9-4.8,4.3-1.6,1.4-3.3,2.8-4.9,4.2-1.6,1.4-3.3,2.8-4.9,4.2-1.6,1.4-3.3,2.8-4.8,4.3-.4.4-.7.7-1.1.9-.1.1-.2.3-.3.4-.1.1-.2.4-.3.5,0,0,0,0,0,0-1.9,1.4-3.1.7-4.7-1.9-.8-1.2-.7-2.3-.3-3.4,0,0-.3,0-.3,0,0,0,0,0,0,0,.1-.4.5-.8.8-1.2,0,0,.1-.1.2-.2.2-.3.5-.7.8-1,0-.1.3,0,.4-.2.3-.3.5-.6.9-.9,0,0,.2-.2.3-.3.4-.3.6-.8,1-1.1,1.7-1.5,3.4-3.1,5.2-4.6,1.7-1.5,3.5-3,5.3-4.4,1.8-1.4,3.7-2.7,5.5-4.1,1.8-1.4,3.6-2.8,5.5-4.1,1.9-1.3,3.8-2.7,5.7-3.9,1,.3,2,.8,2.8,1.5,0,0,0,0,0,0,0,0,.1,0,.2,0,0,0,.1,0,.2,0,0,0,0,0,0,0,.1.1.2.2.3.3,0,0,.2.2.2.2,0,.1,0,.4.1.5,0,.1.2.3.2.4"/>
      <path class="cls-3" d="m276.8,117.7c-.4.2-2.7,1.4-6.2,2.8-1.9.8-4,1.7-6.4,2.6-2.1.8-4.2,1.7-6.4,2.5-2.2.8-4.4,1.6-6.5,2.4-2.3.9-4.5,1.8-6.4,2.5-3.6,1.3-6,1.9-6.4,1.8-1-1.1-1.4-1.3-1.9-2.2-.2-.3-.8-1.6-.3-2.6.2-.5.6-1.5,1.2-1.8,0,0,0-.2,0-.2h0c2-.7,4.1-1.1,6.1-1.7,2.1-.6,4.1-1.1,6.2-1.6,2.1-.5,4.1-1.4,6.1-1.9,1.4-.4,3.9-1.2,6.6-2.2,2.2-.7,4.6-1.3,6.7-2,3-1,5.6-1.9,6.7-2.1.4.5,1.5,1.7,1.7,2.3-.1.9-.3.8-.8,1.6"/>
      <path class="cls-2" d="m237.6,125.6s0,0,0,0c0,0,0,0,0,0,0,0,0,0,0,0"/>
    </g>
    <g>
      <path class="cls-10" d="m175.8,176.6c0,38.5-28.6,59.2-67.1,59.2s-75.3-28.6-75-67.1c.3-49.9,41.8-69.7,80.3-69.7s61.8,39.2,61.8,77.7"/>
      <path class="cls-5" d="m158.6,162.8c0,.8,0,1.6,0,2.4,0,26.4-23.6,47.8-52.6,47.8s-52.6-21.4-52.6-47.8,23.6-47.8,52.6-47.8,24.7,4.2,33.8,11.2c0,0,4.3-4.4,4.3-4.4.5-.5-9.4-5.4-9.9-5.6-4.6-1.9-9.3-3.6-14.1-4.9-9.4-2.5-19.4-3.6-29-1.3-14,3.2-25.5,12.8-36,22.5-4.3,3.9-8.7,8.3-10,14-1.2,5.6,1,11.3.1,16.9-.9,5.4-.9,10.2-.4,15.7,1.3,15.4,19.8,32.4,33.4,37.8,15.9,6.3,36.9,6.5,52.9.8,3.7-1.3,7.7-2.3,11-4.7,2.3-1.7,3.5-4.2,4.9-6.6,1.7-2.7,3.7-4.3,6.2-6.1,8.2-5.9,13.4-15.5,14.4-25.5.3-2.5.2-5,0-7.5,0-1.2.7-5.1,0-6-1-1.5-7.4-.8-9.2-1"/>
      <path class="cls-3" d="m139.1,128.7c-.1-1.2-1.7-1.9-2.8-2.6-2.9-2-5.9-3.8-9.1-5.3-6.6-3.2-13.8-5.3-21.2-5.3-29.1,0-54.6,23.4-54.6,49.8s25.6,49.8,54.6,49.8,54.6-21.4,54.6-47.8c0-1.3-1.8-4.2-2.8-4.5-1.3-.4-3.4.1-4.8.1-1.7,0-3.4,0-5.1,0-6.6-.1-13.2-.6-19.8-1.2-4.3-.4-8.8-.3-13-1.2-1.4-.3-3.2-1-3.8-2.4-.8-1.8.7-2.7,2-3.6,6.6-5.2,12.1-11.5,18.5-16.8,1.4-1.1,2.8-2.2,4-3.5,1.1-1.2,3-3.3,3.3-4.8,0-.2,0-.3,0-.5"/>
      <path class="cls-6" d="m76.1,178.2c-2.8,0-5.4.7-7.2,2.5-1.8,1.8-2.7,4.4-2.7,7.2s.8,5.4,2.7,7.2c1.8,1.8,4.5,2.5,7.2,2.5s5.4-.7,7.2-2.5c1.8-1.8,2.7-4.4,2.7-7.2s-.8-5.4-2.7-7.2c-1.8-1.8-4.5-2.5-7.2-2.5"/>
      <path class="cls-6" d="m146.1,165.2c-2.8,0-5.4.7-7.2,2.5-1.8,1.8-2.7,4.4-2.7,7.2s.8,5.4,2.7,7.2c1.8,1.8,4.5,2.5,7.2,2.5s5.4-.7,7.2-2.5c1.8-1.8,2.7-4.4,2.7-7.2s-.8-5.4-2.7-7.2c-1.8-1.8-4.5-2.5-7.2-2.5"/>
      <path class="cls-6" d="m80.4,128.1c-2.8,0-5.4.7-7.2,2.5-1.8,1.8-2.7,4.4-2.7,7.2s.8,5.4,2.7,7.2c1.8,1.8,4.5,2.5,7.2,2.5s5.4-.7,7.2-2.5c1.8-1.8,2.7-4.4,2.7-7.2s-.8-5.4-2.7-7.2c-1.8-1.8-4.5-2.5-7.2-2.5"/>
      <path class="cls-6" d="m110.3,161.9c-2.8,0-5.4.7-7.2,2.5-1.8,1.8-2.7,4.4-2.7,7.2s.8,5.4,2.7,7.2c1.8,1.8,4.5,2.5,7.2,2.5s5.4-.7,7.2-2.5c1.8-1.8,2.7-4.4,2.7-7.2s-.8-5.4-2.7-7.2c-1.8-1.8-4.5-2.5-7.2-2.5"/>
      <path class="cls-8" d="m94,168.5c-3.3,0-6.5.9-8.7,3.1-2.2,2.2-3.1,5.3-3.1,8.6s.9,6.5,3.1,8.6c2.2,2.1,5.3,3.1,8.7,3.1s6.5-.9,8.7-3.1c2.2-2.2,3.1-5.3,3.1-8.6s-.9-6.5-3.1-8.6c-2.2-2.1-5.3-3.1-8.7-3.1m0,18.2c-1.7,0-3.2-1.1-4.3-2.2-1.2-1.1-2.3-2.5-2.3-4.3s1.1-3.2,2.3-4.3c1.2-1.1,2.6-2.2,4.3-2.2s3.2,1.1,4.3,2.2c1.2,1.1,2.3,2.5,2.3,4.3s-1.1,3.2-2.3,4.3c-1.1,1.1-2.6,2.2-4.3,2.2"/>
      <path class="cls-8" d="m138.6,181.2c-3.3,0-6.5.9-8.7,3.1-2.2,2.2-3.1,5.3-3.1,8.6s.9,6.5,3.1,8.6c2.2,2.1,5.3,3.1,8.7,3.1s6.5-.9,8.7-3.1c2.2-2.2,3.1-5.3,3.1-8.6s-.9-6.5-3.1-8.6c-2.2-2.1-5.3-3.1-8.7-3.1m0,18.2c-1.7,0-3.2-1.1-4.3-2.2-1.2-1.1-2.3-2.5-2.3-4.3s1.1-3.2,2.3-4.3c1.2-1.1,2.6-2.2,4.3-2.2s3.2,1.1,4.3,2.2c1.2,1.1,2.3,2.5,2.3,4.3s-1.1,3.2-2.3,4.3c-1.1,1.1-2.6,2.2-4.3,2.2"/>
      <path class="cls-8" d="m94,130.4c-3.3,0-6.5.9-8.7,3.1-2.2,2.2-3.1,5.3-3.1,8.6s.9,6.5,3.1,8.6c2.2,2.1,5.3,3.1,8.7,3.1s6.5-.9,8.7-3.1c2.2-2.2,3.1-5.3,3.1-8.6s-.9-6.5-3.1-8.6c-2.2-2.1-5.3-3.1-8.7-3.1m0,18.2c-1.7,0-3.2-1.1-4.3-2.2-1.2-1.1-2.3-2.5-2.3-4.3s1.1-3.2,2.3-4.3c1.2-1.1,2.6-2.2,4.3-2.2s3.2,1.1,4.3,2.2c1.2,1.1,2.3,2.5,2.3,4.3s-1.1,3.2-2.3,4.3c-1.1,1.1-2.6,2.2-4.3,2.2"/>
      <path class="cls-6" d="m114.6,179.5c4.1,0,7.6,2.1,10.3,4.7,2.7,2.6,4.9,6.1,4.9,10.2s-2.2,7.5-4.9,10.1c-2.7,2.6-6.2,4.7-10.3,4.7s-7.6-2.1-10.3-4.7c-2.7-2.6-4.9-6.1-4.9-10.1s2.2-7.5,4.9-10.2c2.7-2.6,6.2-4.7,10.3-4.7"/>
      <path class="cls-6" d="m70.3,146.8c4.1,0,7.6,2.1,10.3,4.7,2.7,2.6,4.9,6.1,4.9,10.2s-2.2,7.5-4.9,10.1c-2.7,2.6-6.2,4.7-10.3,4.7s-7.6-2.1-10.3-4.7c-2.7-2.6-4.9-6.1-4.9-10.1s2.2-7.5,4.9-10.2c2.7-2.6,6.2-4.7,10.3-4.7"/>
      <path class="cls-6" d="m112.7,115.8c-4.1,0-8,1.1-10.7,3.7-2.7,2.6-3.9,6.5-3.9,10.6s1.2,7.9,3.9,10.6c2.7,2.6,6.6,3.7,10.7,3.7s8-1.1,10.7-3.7c2.7-2.6,3.9-6.5,3.9-10.6s-1.2-7.9-3.9-10.6c-2.7-2.6-6.6-3.7-10.7-3.7"/>
      <path class="cls-7" d="m134.8,170.2c-.2-.3,0-.8-.2-1-.2-.2-.7-.1-1-.3-.7-.5-1.3-1.1-2.2-1.2-.8,0-1.6.5-2.4.7-2.2.7-4.1,1.5-5.4,3-1.3,1.5-1.9,3.5-2.7,5.6-.2.5-1.4,3.2-2.1,6-.8,3.1-1.2,6-.9,6.1,2.2.4,4.6.8,6.8.2,2.2-.6,4.1-2,5.8-3.5,1.7-1.5,3.4-3.1,4.3-5.2.9-2.1.9-4.4.9-6.7,0-.6.3-1.4.2-2-.2-.6-.8-1.1-1.1-1.7"/>
      <path class="cls-7" d="m103.1,152.2c-.2-.3,0-.8-.2-1-.2-.2-.7-.1-1-.3-.7-.5-1.3-1.1-2.2-1.2-.8,0-1.6.5-2.4.7-2.2.7-4.1,1.5-5.4,3-1.3,1.5-1.9,3.5-2.7,5.6-.2.5-1.4,3.2-2.1,6-.8,3.1-1.2,6-.9,6.1,2.2.4,4.6.8,6.8.2,2.2-.6,4.1-2,5.8-3.5,1.7-1.5,3.4-3.1,4.3-5.2.9-2.1.9-4.4.9-6.7,0-.6.3-1.4.2-2-.2-.6-.8-1.1-1.1-1.7"/>
      <path class="cls-7" d="m76.4,134c-.2-.3,0-.8-.2-1-.2-.2-.7-.1-1-.3-.7-.5-1.3-1.1-2.2-1.2-.8,0-1.6.5-2.4.7-2.2.7-4.1,1.5-5.4,3-1.3,1.5-1.9,3.5-2.7,5.6-.2.5-1.4,3.2-2.1,6-.8,3.1-1.2,6-.9,6.1,2.2.4,4.6.8,6.8.2,2.2-.6,4.1-2,5.8-3.5,1.7-1.5,3.4-3.1,4.3-5.2.9-2.1.9-4.4.9-6.7,0-.6.3-1.4.2-2-.2-.6-.8-1.1-1.1-1.7"/>
      <path class="cls-7" d="m84.2,188.8c.2-.3.7-.2.9-.5.2-.2.1-.7.4-.9.7-.5,1.6-.4,2.5-.4.8,0,1.7-.4,2.5-.1,2.2.7,3.6,2.2,5,3.7,1.3,1.5,2.7,3.1,3.5,5.2.2.5.5,3.4,1.2,6.3.8,3.1,1.7,6.3,1.4,6.4-2.2.4-4.5,0-6.7-.7-2.2-.6-4.5-1.3-6.2-2.7-1.7-1.5-2.7-3.6-3.7-5.7-.9-2.1-1.8-4.3-1.7-6.6,0-.6.5-1.3.7-1.9.2-.6,0-1.4.3-2"/>
      <path class="cls-7" d="m100.9,128.1c.2-.3.7-.2.9-.5.2-.2.1-.7.4-.9.7-.5,1.6-.4,2.5-.4.8,0,1.7-.4,2.5-.1,2.2.7,3.6,2.2,5,3.7,1.3,1.5,2.7,3.1,3.5,5.2.2.5.5,3.4,1.2,6.3.8,3.1,1.7,6.3,1.4,6.4-2.2.4-4.5,0-6.7-.7-2.2-.6-4.5-1.3-6.2-2.7-1.7-1.5-2.7-3.6-3.7-5.7-.9-2.1-1.8-4.3-1.7-6.6,0-.6.5-1.3.7-1.9.2-.6,0-1.4.3-2"/>
    </g>
  </g>
</svg>