<?xml version="1.0" encoding="UTF-8"?>
<svg id="_レイヤー_2" data-name="レイヤー 2" xmlns="http://www.w3.org/2000/svg" viewBox="0 0 164.7 196.6">
  <defs>
    <style>
      .cls-1 {
        stroke: #52b6a7;
      }

      .cls-1, .cls-2, .cls-3 {
        stroke-width: 1.5px;
      }

      .cls-1, .cls-2, .cls-3, .cls-4 {
        fill: none;
        stroke-linecap: round;
        stroke-linejoin: round;
      }

      .cls-5 {
        fill: #fff;
      }

      .cls-6 {
        fill: #edad23;
      }

      .cls-7 {
        fill: #e84572;
      }

      .cls-8 {
        fill: #e73c71;
      }

      .cls-9, .cls-10 {
        fill: #7f2583;
      }

      .cls-11 {
        fill: #65bbb1;
      }

      .cls-12 {
        fill: #1e65a9;
      }

      .cls-13 {
        fill: #221815;
      }

      .cls-14 {
        fill: #1c68ac;
      }

      .cls-10, .cls-15 {
        fill-rule: evenodd;
      }

      .cls-15 {
        fill: #efefef;
      }

      .cls-2 {
        stroke: #e84572;
      }

      .cls-3, .cls-4 {
        stroke: #221815;
      }

      .cls-4 {
        stroke-width: 3px;
      }
    </style>
  </defs>
  <g id="_レイヤー_1-2" data-name="レイヤー 1">
    <g>
      <path class="cls-11" d="M109.7,97.1l-1.1-5.9c19.6-3.6,27.4-9.9,30.5-14.5,2.6-3.8,2.1-6.8,2.1-6.8l5.8-1.2c.1,.5,1,5.5-3,11.4-5.4,8.1-17,13.8-34.4,17.1"/>
      <path class="cls-11" d="M97.9,88.7l-1.1-5.9c.2,0,20.1-3.9,36.3-15.9l3.5,4.8c-17.4,12.8-37.9,16.8-38.8,16.9"/>
      <path class="cls-13" d="M109.7,91l-.9-4.6c-.5-2.5-2.9-4.2-5.5-3.7-2.5,.5-4.2,2.9-3.7,5.5l.9,4.6,1.2,6.1,9.2-1.8-1.2-6.1Z"/>
      <path class="cls-13" d="M96.8,82.7l-.9-4.6c-.5-2.5-2.9-4.2-5.5-3.7-2.5,.5-4.2,2.9-3.7,5.5l.9,4.6,1.2,6.1,9.2-1.8-1.2-6.1Z"/>
      <path class="cls-12" d="M119.9,20.7c0-4.6,1.2-8.9,3-13.2,.8-2,2.3-6.4-.7-7.4-2.7-.9-7.4,1.1-11,11.9,0,0-6.5,17.4-4.2,33.4"/>
      <path class="cls-12" d="M119.9,20.7c2.1-8.1,9.4-7.4,11.9-3.6,3-5.2,9-4.6,11.3-1.5,.8-.8,1.8-1.3,3-1.6,5.1-1.2,10.2,1.7,12.4,6.4,5.9,13.2,10.5,33.8-.1,45.9-14,15.8-42.7,11.4-49.1-9.7-2.4-7.8-3.6-17.8-1.9-25.7,.7-3.5,6.4-15.8,12.6-10.2"/>
      <polyline class="cls-3" points="120.1 48.4 125.2 48.8 120.7 45.9"/>
      <polyline class="cls-3" points="144.7 42.8 141.7 47.4 146.1 45"/>
      <path class="cls-5" d="M134.5,48.7c-.9,2.7,.5,5.7,3.3,6.7,2.7,.9,5.7-.5,6.7-3.3,.9-2.7-.5-5.7-3.3-6.7-2.7-.9-5.7,.5-6.7,3.3"/>
      <path class="cls-13" d="M135.6,51.3c-.5,1.4,.3,2.9,1.6,3.3,1.4,.5,2.9-.3,3.3-1.6,.5-1.4-.3-2.9-1.6-3.3-1.4-.5-2.9,.3-3.3,1.6"/>
      <path class="cls-5" d="M122.9,48.7c-.9,2.7,.5,5.7,3.3,6.7,2.7,.9,5.7-.5,6.7-3.3,.9-2.7-.5-5.7-3.3-6.7-2.7-.9-5.7,.5-6.7,3.3"/>
      <path class="cls-13" d="M124,51.3c-.5,1.4,.3,2.9,1.6,3.3,1.4,.5,2.9-.3,3.3-1.6,.5-1.4-.3-2.9-1.6-3.3-1.4-.5-2.9,.3-3.3,1.6"/>
      <polyline class="cls-3" points="139.6 58.9 134.5 62.2 128.8 58.5"/>
      <path class="cls-14" d="M118.5,24.9c-1.9,5.7-1,11.3,2,16.5,1.3,2.4,3.6,4.4,6.3,4.8,2.7,.4,5.6-.9,6.2-3.6"/>
      <path class="cls-1" d="M118.5,24.9c-1.9,5.7-1,11.3,2,16.5,1.3,2.4,3.6,4.4,6.3,4.8,2.7,.4,5.6-.9,6.2-3.6"/>
      <path class="cls-14" d="M130.3,19.2c-2.7,4.3-3.3,10-2.3,14.9,1,4.6,5,11.4,10.5,9.7,3.4-1.1,4-3.9,4-5.4"/>
      <path class="cls-1" d="M130.3,19.2c-2.7,4.3-3.3,10-2.3,14.9,1,4.6,5,11.4,10.5,9.7,3.4-1.1,4-3.9,4-5.4"/>
      <path class="cls-13" d="M119.7,12.3c0,1.8-1.5,3.3-3.3,3.3s-3.3-1.5-3.3-3.3,1.5-3.3,3.3-3.3,3.3,1.5,3.3,3.3"/>
      <polygon class="cls-13" points="117.8 12.5 109.8 4.6 107.5 16.6 117.8 12.5"/>
      <polygon class="cls-13" points="115.3 12.3 123.3 20.2 125.6 8.2 115.3 12.3"/>
      <path class="cls-9" d="M96.2,62.3c-6.6,15.4,13.1,23.6,26,22.6,7.6-.6,12.5-8.3,10.8-15.3-2.7-11.3-19.8-15.3-26.4-15.1-4.9,.2-8.6,3.4-10.5,7.7m23.8,5.7c.6,.4,1.3,.8,1.4,1.5-.4,2.9-13.2-1.7-13.8-3.9-.9-3.1,10.9,1.3,12.4,2.4"/>
      <path class="cls-7" d="M96.3,62c.1,.2,.3,.3,.5,.5,.5,.3,1.3,.5,1.6,1.1,.3,.5-.1,1.4-.3,1.9-.1,.5-.6,1.2-.4,1.8,.4,.8,1.4,.6,1.9,1,.9,.7,.1,2.7,.3,3.6,.3,1.8,2,3.3,3.8,4.2,1.8,.8,2.3,.2,3.7-.6,1.1-.6,2.3-.7,3.6-.2,1.5,.6,1.4,2.4,3.1,2.7,.6,.1,1.2-.2,1.8-.2,.7,0,1.2,.2,1.9,.5,1.3,.6,2.5,1.2,3.6,2.1,1.2,1,2,1.3,3.5,1,1.2-.2,2.2-.7,2.9-1.5,.6-.8,.7-2.2,1.6-2.9,.9-.8,2.2-.2,3.1-1.2,.2-.2,.3-.4,.4-.7,.4-1.8,.4-3.6,0-5.4-.8-3.4-2.9-6.1-5.6-8.3-.4-.3-.9-.7-1.4-1-6.3-4.3-15.1-5.9-19.4-5.8-4.7,.2-8.4,3.2-10.3,7.3m23.6,6.1c.6,.4,1.3,.8,1.4,1.5-.4,2.9-13.2-1.7-13.8-3.9-.9-3.1,10.9,1.3,12.4,2.4"/>
      <path class="cls-9" d="M115,62.5c6.6,2.1,8.4,4.5,8.1,5.9-.3,1.7-1.8,1.6-2.1,1.7,.2-.1,.3-.3,.4-.6-.1-.7-.8-1.1-1.4-1.5-1.5-1.1-13.3-5.4-12.4-2.4,0,.1,0,.2,.2,.3-1.1-.7-2.2-1.7-2-2.8,.2-2.1,6.2-1.7,9.3-.7"/>
      <path class="cls-14" d="M151.3,54.7s-10.3,8-18.5,9.9c-8.2,1.9-3.1,13.9,13.1,6.7,0,0,4.5-2.3,7.4-5.6"/>
      <path class="cls-1" d="M151.3,54.7s-10.3,8-18.5,9.9c-8.2,1.9-3.1,13.9,13.1,6.7,0,0,4.5-2.3,7.4-5.6"/>
      <path class="cls-14" d="M141.1,19.1c-2.7,4.3-2.6,8.1-1.5,13,.6,3,2.2,6,4.5,8,3.1,2.7,8.2,2.3,9.1-2.2,.4-2.2,.7-4.6,.2-6.9-.2-1.1-.7-2.2-1.6-2.8-1.4-1-2.9-.4-3.5,1.1-.5,1.2-.6,2.6-.3,3.8,.2,.8,.5,1.8,1.2,2.4,1.4,1.3,2.1-.2,2.2-1.4,0-.5,.2-2.6-.8-2.2"/>
      <path class="cls-1" d="M141.1,19.1c-2.7,4.3-2.6,8.1-1.5,13,.6,3,2.2,6,4.5,8,3.1,2.7,8.2,2.3,9.1-2.2,.4-2.2,.7-4.6,.2-6.9-.2-1.1-.7-2.2-1.6-2.8-1.4-1-2.9-.4-3.5,1.1-.5,1.2-.6,2.6-.3,3.8,.2,.8,.5,1.8,1.2,2.4,1.4,1.3,2.1-.2,2.2-1.4,0-.5,.2-2.6-.8-2.2"/>
      <path class="cls-10" d="M58.5,44.3l26.1-3-1.8,22.6h0c.3,2.5-3.7,3.6-8.7,4.1-4.5,.5-8.3,.7-9.2-1.4,0-.1-.2-.5-.3-.7l-6-21.7Z"/>
      <path class="cls-13" d="M84.1,23.6c-.4-.8-1.6-1.4-2.7-1,0,0,0,0,0,0l-9.5,5.9c0,0,0,0-.1,.1-.1,0-.2,.2-.4,.4l-4.8,9.2c-.1,.2,0,.5,.1,.7,.4,.3,.9,.6,1.4,.7,.4,.1,.9,.2,1.4,.1,.2,0,.4-.1,.5-.3l4.4-8.5,8.9-5.6c1.1-.5,1.1-1.3,.9-1.9"/>
      <path class="cls-15" d="M86.1,40.5l-.5-4.6-29.3,3.3,.7,6.3,29.3-3.3c0-.5-.1-1.1-.2-1.6"/>
      <path class="cls-13" d="M15.3,161.7c-.7-2.2-.4-4.5,.8-6.4,1.3-2.1,3.4-3.4,5.8-3.6l8.5-.9,14.2,3.4-22.1,3.4c-.7,0-1.1,.6-1.3,.8-.2,.3-.4,.8-.1,1.5l9.3,24.3-5.6,2.1-9.3-24.3c0-.1,0-.3-.1-.4"/>
      <path class="cls-7" d="M23.3,183l-4.4,1.6c-2.4,.9-3.7,3.6-2.8,6,.9,2.4,3.6,3.7,6,2.8l4.4-1.6,5.8-2.1-3.2-8.8-5.8,2.1Z"/>
      <path class="cls-7" d="M10.6,174.3l-1.5-4.4c-.8-2.4-3.5-3.7-5.9-2.9-2.4,.8-3.7,3.5-2.9,5.9l1.5,4.4,2,5.8,8.8-3.1-2-5.8Z"/>
      <path class="cls-13" d="M12.6,180.2l-2-5.6c.1,0,10.4-3.1,20.5-8.7,5.2-2.9,8.1-8,8.5-15.2,0-.6,0-1.1,.3-1.6l5.5,2.3c.2-.4,.2-.7,.2-.7v.3c-.7,11.7-6.7,17.4-11.6,20.1-10.7,5.9-21,8.9-21.4,9.1"/>
      <path class="cls-11" d="M58.1,153.6c-4.1,1.8-8.8,2.3-13.3,2.2-4.8,0-9.6-.7-14-2.6-7.3-3.2-12.6-9.8-16.6-16.7-3.6-6.2-6.4-12.9-7.3-20-.4-3.7-.3-7.5-.2-11.2,0-1.6,.1-3.3,.7-4.7,1.6-3.7,7-5.1,10.1-2.5,.4-2.5,2.2-4.7,4.5-5.5,2.3-.8,5.1-.3,6.9,1.4,0-2.4,1.4-4.7,3.6-5.9,2.1-1.1,4.8-1.1,6.9,.2,2.1,1.3,3.3,3.6,4.4,5.8,.5-3.5,1-7,1.5-10.5,.6-4.5,1.3-9,2.4-13.4,1-4,6.7-15,11.3-7.3,1.1,1.8,1.2,4.1,1.2,6.2-.2,18.3-7,36.7-2.9,54.6,.2,1,.5,2,1.1,2.8,1.5,2,4.6,2,6.7,.6,2-1.4,3.2-3.7,4-6.1,.5-1.5,.9-3,1.9-4.3,1-1.2,2.6-2.1,4.1-1.5,1.7,.6,2.3,2.7,2.4,4.6,.2,5-1.8,9.8-3.8,14.4-3.3,7.3-7.1,14.9-14.1,18.7-.5,.3-1,.5-1.6,.8"/>
      <path class="cls-3" d="M51.8,118.9c-1.5,3.1-4.9,2.9-4.9,2.9,0,0,3.5-2.3,2.3-5.1"/>
      <path class="cls-5" d="M49.8,124.1c.3,3.3-2,6.2-5.3,6.5-3.3,.3-6.2-2-6.5-5.3-.3-3.3,2-6.2,5.3-6.5,3.3-.3,6.2,2,6.5,5.3"/>
      <path class="cls-13" d="M49.5,123.3c.2,1.6-1,3.1-2.6,3.3-1.6,.2-3.1-1-3.3-2.6-.2-1.6,1-3.1,2.6-3.3,1.6-.2,3.1,1,3.3,2.6"/>
      <path class="cls-7" d="M37.3,124.2l10.4-4.4s-11.8-8.3-10.4,4.4"/>
      <path class="cls-3" d="M21,131.3c3.3,1.1,5.5-1.4,5.5-1.4,0,0-4.1,.8-5.2-2"/>
      <path class="cls-5" d="M38,128.7c.3,3.3-2,6.2-5.3,6.5-3.3,.3-6.2-2-6.5-5.3-.3-3.3,2-6.2,5.3-6.5,3.3-.3,6.2,2,6.5,5.3"/>
      <path class="cls-13" d="M37.8,127.9c.2,1.6-1,3.1-2.6,3.3-1.6,.2-3.1-1-3.3-2.6-.2-1.6,1-3.1,2.6-3.3,1.6-.2,3.1,1,3.3,2.6"/>
      <path class="cls-7" d="M25.5,128.8l12.9-5.2s-14.3-7.5-12.9,5.2"/>
      <path class="cls-7" d="M57.5,111c-2.7,14.9,16.2,18.1,27.3,14.6,6.5-2,9.3-9.8,6.5-15.6-4.6-9.4-20.5-9.5-26.1-7.9-4.2,1.1-6.9,4.7-7.6,8.9m22,.3c.6,.3,1.3,.4,1.5,1.1,.2,2.6-11.9,1.2-12.9-.7-1.4-2.5,9.8-1.1,11.4-.4"/>
      <path class="cls-14" d="M57.6,110.6c.1,.1,.3,.2,.6,.4,.5,.2,1.3,.2,1.6,.6,.3,.4,.2,1.3,.2,1.7,0,.5-.3,1.2,0,1.6,.5,.6,1.3,.2,1.9,.5,.9,.4,.6,2.3,1,3.1,.6,1.5,2.4,2.5,4.2,2.9,1.7,.4,2.1-.3,3.1-1.2,.9-.7,1.9-1.1,3.2-.9,1.4,.2,1.7,1.8,3.2,1.8,.6,0,1-.4,1.5-.6,.6-.2,1.1,0,1.8,0,1.3,.2,2.4,.6,3.6,1.1,1.3,.6,2,.8,3.3,.2,1-.4,1.8-1,2.2-1.9,.4-.9,.2-2.1,.8-2.9,.7-.8,1.9-.7,2.4-1.7,.1-.2,.2-.4,.3-.7,0-1.6-.4-3.3-1.1-4.8-1.4-2.8-3.8-4.8-6.6-6.1-.5-.2-.9-.4-1.4-.6-6.4-2.5-14.4-2.2-18.2-1.2-4.1,1.1-6.7,4.5-7.6,8.5m21.9,.6c.6,.3,1.3,.4,1.5,1.1,.2,2.6-11.9,1.2-12.9-.7-1.4-2.5,9.8-1.1,11.4-.4"/>
      <path class="cls-7" d="M74.1,107.4c6.2,.6,8.2,2.3,8.3,3.6,0,1.6-1.2,1.8-1.5,1.9,.1-.2,.2-.4,.2-.6-.3-.6-.9-.8-1.5-1.1-1.5-.7-12.8-2.1-11.4,.4,0,0,.1,.2,.2,.3-1.1-.4-2.2-1-2.4-2.1-.2-1.9,5.1-2.7,8-2.4"/>
      <path class="cls-11" d="M45.6,97.4c3.1,4.4,3,10.3,1.5,15.3-.8,2.7-2.3,5.8-4.9,7-2.5,1.2-5.8,.8-7.1-1.7"/>
      <path class="cls-2" d="M45.6,97.4c3.1,4.4,3,10.3,1.5,15.3-.8,2.7-2.3,5.8-4.9,7-2.5,1.2-5.8,.8-7.1-1.7"/>
      <path class="cls-11" d="M31.8,97.3c4.4,3.8,6.8,6.7,8,12.6,.9,4.5,.7,12.4-5,13.5-6.7,1.4-8.5-1.7-9.1-3.1"/>
      <path class="cls-2" d="M31.8,97.3c4.4,3.8,6.8,6.7,8,12.6,.9,4.5,.7,12.4-5,13.5-6.7,1.4-8.5-1.7-9.1-3.1"/>
      <path class="cls-11" d="M21.1,99.6c3.9,3.4,6.3,8.8,6.7,13.9,.4,4.8-1.5,12.1-7.3,12.7-4.6,.5-6.3-8-6.7-11.2-.2-1.9,.2-5.5,3-4.7,1.4,.4,1.9,2.1,2.2,3.3"/>
      <path class="cls-2" d="M21.1,99.6c3.9,3.4,6.3,8.8,6.7,13.9,.4,4.8-1.5,12.1-7.3,12.7-4.6,.5-6.3-8-6.7-11.2-.2-1.9,.2-5.5,3-4.7,1.4,.4,1.9,2.1,2.2,3.3"/>
      <path class="cls-13" d="M35.9,136.5s9.2,10,11.9-3.2l-11.9,3.2Z"/>
      <path class="cls-13" d="M55.4,138.8c.7-.6,2.1-.7,2.9,.2,0,0,0,0,0,0l6.6,9.6c0,0,0,.1,0,.2,0,.1,.1,.3,.2,.5l.7,10.8c0,.3-.2,.5-.4,.6-.5,.2-1.1,.2-1.6,.1-.5,0-.9-.2-1.4-.5-.2-.1-.3-.3-.3-.5l-.6-9.9-6.1-9.1c-.8-.9-.5-1.7,0-2.2"/>
      <path class="cls-10" d="M81.8,163.7l-31.1-1.7,3.6,29.7h0c-.2,3.3,4.6,4.4,10.6,4.7,5.4,.3,9.9,.2,10.8-2.6,0-.2,.2-.7,.3-.9l5.7-29.2Z"/>
      <path class="cls-15" d="M48.9,167.1l-.4-5.5,34.8-2.5,.5,7.4-34.9,2.6c0-.7,0-1.3,0-1.9"/>
      <path class="cls-4" d="M44.6,89.4s7.2-1,13,4.8"/>
      <path class="cls-14" d="M151.8,156.7c-4.4,12.9-29.4,17.1-46.5,11.2-17.2-5.9-23.1-19.6-18.7-32.4,4.4-12.9,24.9-20,42.1-14.2,17.2,5.9,27.6,22.6,23.2,35.4"/>
      <path class="cls-6" d="M140.2,138.4c-5.8-2.1-22.3-3.6-28,5.8-3.5,5.7-1.4,14.1,5.3,16.8,11.3,4.7,31.2,3.1,29.9-12.7-.4-4.4-2.8-8.4-7.1-9.9m-4.1,9.6c-1.2,1.8-14,2.2-13.5-.5,.3-.6,1-.7,1.7-1,1.7-.6,13.5-1,11.8,1.5"/>
      <path class="cls-8" d="M140.2,138.4c-3.8-1.4-12.1-2.5-19-.5-.5,.2-1,.3-1.5,.5-3.1,1.1-5.7,3-7.4,5.8-.9,1.5-1.4,3.2-1.6,4.9,0,.2,.1,.5,.2,.7,.5,1.1,1.8,1,2.4,2,.6,.9,.2,2.1,.5,3.1,.3,1,1.2,1.7,2.2,2.2,1.3,.7,2.1,.6,3.5,0,1.3-.5,2.5-.7,3.8-.8,.7,0,1.2,0,1.8,.1,.5,.2,.9,.6,1.5,.7,1.5,.2,2-1.4,3.5-1.5,1.3,0,2.4,.4,3.2,1.2,1,1.1,1.3,1.8,3.1,1.6,1.9-.2,3.9-1.1,4.6-2.6,.4-.8,.3-2.8,1.3-3.2,.7-.2,1.5,.3,2-.4,.4-.4,.2-1.2,.2-1.7,0-.5,0-1.4,.3-1.8,.4-.4,1.2-.3,1.7-.5,.3,0,.5-.2,.6-.3-.5-4.3-2.9-8-7.1-9.6m-4.1,9.6c-1.2,1.8-14,2.2-13.5-.5,.3-.6,1-.7,1.7-1,1.7-.6,13.5-1,11.8,1.5"/>
      <path class="cls-6" d="M130.4,143.1c-6.5,0-8.8,1.6-9,3-.2,1.6,1.1,2,1.4,2.1-.1-.2-.2-.4-.2-.6,.3-.6,1-.7,1.7-.9,1.7-.6,13.5-1,11.8,1.5,0,0-.2,.2-.3,.2,1.2-.4,2.4-.9,2.7-1.9,.4-2-5.1-3.3-8.1-3.3"/>
      <path class="cls-6" d="M109.4,122.7c-5.8,2-19.6,11.4-18,22.2,.9,6.7,7.9,11.8,14.7,9.7,11.7-3.5,26.1-17.4,15.1-28.7-3.1-3.2-7.5-4.7-11.8-3.2m3,10c.2,2.2-9.5,10.5-10.8,8.1-.1-.7,.3-1.2,.7-1.8,.9-1.5,9.8-9.3,10.1-6.3"/>
      <path class="cls-11" d="M109.4,122.7c-3.8,1.3-11,5.7-15,11.7-.3,.5-.6,.9-.9,1.4-1.6,2.8-2.6,5.9-2.1,9.2,.2,1.7,.9,3.4,1.9,4.8,.2,.2,.4,.3,.6,.4,1.1,.5,2-.3,3.1,0,1,.3,1.5,1.5,2.4,2,.9,.5,2,.5,3.1,.3,1.4-.3,2-.8,2.8-2.1,.7-1.2,1.5-2.1,2.4-3.1,.5-.5,.9-.9,1.5-1,.5-.2,1.1,0,1.6-.4,1.3-.8,.7-2.4,1.8-3.4,1-.9,2.1-1.2,3.3-1.1,1.5,.2,2.2,.6,3.4-.8,1.3-1.3,2.3-3.3,1.9-5-.2-.9-1.6-2.4-1-3.3,.4-.6,1.3-.7,1.4-1.6,0-.5-.6-1-.9-1.4-.3-.4-.9-1-.9-1.6,0-.6,.7-1,1-1.5,.2-.2,.3-.5,.3-.6-3.1-3-7.3-4.4-11.5-2.9m3,10c.2,2.2-9.5,10.5-10.8,8.1-.1-.7,.3-1.2,.7-1.8,.9-1.5,9.8-9.3,10.1-6.3"/>
      <path class="cls-6" d="M104.7,132.5c-5,4.1-5.8,6.8-5.1,8,.9,1.4,2.1,.8,2.4,.8-.2,0-.4-.2-.5-.4-.1-.7,.3-1.2,.7-1.8,.9-1.5,9.8-9.3,10.1-6.3,0,.1,0,.2,0,.4,.7-1,1.3-2.2,.8-3.2-.9-1.8-6,.7-8.4,2.6"/>
    </g>
  </g>
</svg>