<?xml version="1.0" encoding="UTF-8"?>
<svg id="_レイヤー_2" data-name="レイヤー 2" xmlns="http://www.w3.org/2000/svg" viewBox="0 0 629.2 420.1">
  <defs>
    <style>
      .cls-1 {
        fill: #f9dd96;
      }

      .cls-2 {
        fill: #0083c9;
      }

      .cls-3 {
        fill: #f1b22d;
      }

      .cls-4 {
        fill: #eaa51c;
      }

      .cls-5 {
        fill: #ebcb32;
      }

      .cls-6 {
        fill: #fff;
      }

      .cls-7 {
        fill: #e9a828;
      }

      .cls-8 {
        fill: #edab23;
      }

      .cls-9 {
        fill: #efefef;
      }

      .cls-10 {
        fill: #e73c71;
      }

      .cls-11 {
        fill: #65bbb1;
      }

      .cls-12 {
        fill: #1c68ac;
      }

      .cls-13 {
        fill: none;
        stroke: #e9c72c;
        stroke-linecap: round;
        stroke-linejoin: round;
        stroke-width: 2.3px;
      }
    </style>
  </defs>
  <g id="_レイヤー_1-2" data-name="レイヤー 1">
    <g>
      <g>
        <path class="cls-12" d="m256.1,238.5c11.4,44.4-21,91.2-72.4,104.4-51.4,13.2-105.1-14.8-113.8-59.9-10.8-56.4,24.4-87.8,75.8-101,51.4-13.2,99,12.1,110.4,56.5"/>
        <path class="cls-4" d="m95.8,323.5s0,0,0,0c0,0,0,0,.2,0,0,0,0,0-.1,0"/>
        <path class="cls-7" d="m140.1,252.7s-.2.1-.2.1c-.1-.2-.2-.4-.3-.6,0-.2,0-.5-.1-.6-.1-.2-.5-.1-.7-.3-.2-.2-.4-.3-.6-.5-.1-.1,0-.6,0-.7-.4-.3-1-.7-1.4-1-2.5,1.4-4.9,3.2-7.4,4.7-2.5,1.5-5.1,2.7-7.6,4.2-2.4,1.6-4.8,3.3-7.2,4.9-2.4,1.6-4.6,3.5-7,5.1-2.4,1.6-5.1,2.8-7.5,4.4-2.4,1.6-4.7,3.4-7.2,4.9-2.5,1.5-4.9,3.1-7.4,4.5-.7.4-1.4.6-2,1-.3.2-.4.4-.7.6-.2.1-.5.2-.7.3,0,0,0,0,0,0-2.9,2.3-2.3,4.2.9,7.8,1.5,1.7,3.1,2.6,4.9,2.5,0,0,0-.5,0-.5,0,0,0,.2,0,.2.7,0,1.6.1,2.3,0,.1,0,.1-.4.2-.4.6-.2,1.3-.4,1.9-.7.2-.1.4-.2.6-.3.6-.3,1-.8,1.6-1.1.2-.1.5,0,.7-.2.7-.4,1.4-.6,2.1-1,2.6-1.5,5-3.3,7.5-5,2.5-1.6,4.9-3.4,7.4-5.2,2.5-1.7,5-3.3,7.4-5.1,2.4-1.8,4.7-3.7,7.1-5.6,2.4-1.8,4.9-3.5,7.3-5.4,2.3-1.9,4.6-3.9,6.8-5.8,0-1.6,0-3.2-.7-4.8,0,0,0,0,0,0,0,0-.3,0-.3,0,0,0,.3-.3.3-.3"/>
        <path class="cls-7" d="m153,264.9c-1.5-.9-1.5-.7-3.1-1.2-.6.2-3.8,1.6-8.3,4.2-2.4,1.4-5.1,3.1-8,4.9-2.6,1.5-5.3,3.2-8,4.8-2.7,1.6-5.3,3.4-7.9,5.1-2.8,1.7-5.3,3.6-7.8,5.2-2.9,1.9-5.6,3.5-7.9,5.1-4.3,2.9-7.5,5-7.7,5.6.8,2.9,1.7,3.6,2.6,5.6.3.6,1.5,3.1,3.4,3.8,1,.3,2.8,1.3,3.7,1,0,0,0,0,0,0,0,0,.3.5.3.5,2.9-1.7,5.4-4.2,8.1-6.3,2.6-2.1,5.4-4.1,8-6.4,2.6-2.3,4.9-4.8,7.6-6.9,1.4-1.1,4-2.7,6.9-4.7,2.2-1.5,4.4-3.3,6.8-4.9,2.4-1.6,4.7-3.3,6.8-4.8,3.1-2.2,5.4-4,6.4-5.1-.4-1.2-1.1-4.4-1.7-5.5"/>
        <path class="cls-1" d="m104,308.9s0,0,0,0c0,0,0,0,.2,0,0,0,0,0-.1,0"/>
        <path class="cls-8" d="m148.3,296.1c3.2-2.5,5.5-4.4,6-4.8-.6.3-2.9,2.2-6,4.8"/>
        <path class="cls-7" d="m159.4,279.5c0-.1-.1-.3-.2-.4,0-.2-.3-.3-.4-.5-.1-.2,0-.5-.2-.7-.1-.1-.6,0-.7,0-.2-.2-.4-.4-.6-.7,0,0,0-.4,0-.5-.4-.3-.7-.5-1.2-.7-2.5,1.4-5.2,2.5-7.7,4-2.5,1.5-4.9,3.1-7.3,4.7-2.4,1.6-4.8,3.2-7.3,4.8-2.4,1.6-4.9,3.2-7.3,4.8-2.4,1.6-4.6,3.5-7.1,5.1-2.4,1.6-4.8,3.2-7.3,4.8-2.5,1.5-5,3-7.5,4.4-.7.4-1.5.4-2.1.8-.3.2-.5.3-.8.5-.2.1-.2.5-.4.7,0,0-.1-.1,0-.1-2.9,2.3-2.4,4.5.8,8.1,2.2,2.5,4.9,2.6,7.4,1.8,2.4-.8,4.6-2.7,6.9-4.1,2.6-1.6,5.2-3,7.7-4.7,2.5-1.6,5.2-3,7.7-4.7,2.5-1.7,4.7-3.8,7.1-5.6,2.4-1.8,5.1-3.3,7.4-5.1,2.4-1.9,4.6-3.9,6.9-5.8,2.3-1.9,4.6-3.9,6.9-5.8,0-1.6-.2-3.3-.8-4.8,0,0,.2,0,.2,0"/>
        <path class="cls-5" d="m153.1,261c0-.2-.2-.3-.3-.5-.2-.4-.3-.8-.5-1.2-2.9.2-5.7.5-8.6.9-2.9.3-5.7.7-8.6,1.2-2.8.4-5.7.7-8.6,1.2-2.8.5-5.7,1.1-8.6,1.5-2.9.5-5.8.7-8.6,1.2-2.9.5-5.7,1-8.6,1.4-2.9.4-5.8.8-8.6,1.1-.8,0-1.6-.1-2.3,0-.3,0-.5,0-.8,0-.3,0-.6.1-.9.2,0,0,.2.5.2.5-3.6.9-4.2,2.7-2.8,7.4.7,2.2,2.1,3.7,3.7,4.3,0,0,.1-.3.1-.3,0,0,0,0,0,0,.7.3,1.4.6,2.2.7.1,0,.2.2.4.2.7,0,1.4,0,2.1-.1.2,0,.5.1.7.1.7,0,1.3-.6,1.9-.7.2,0,.4.2.7.2.8,0,1.6.1,2.4,0,3-.4,5.9-.9,8.9-1.4,3-.5,5.9-1.3,8.8-1.9,3-.6,6-.7,8.9-1.4,2.9-.6,5.8-1.6,8.7-2.3,2.9-.7,5.8-1.6,8.7-2.4,2.9-.8,5.8-1.5,8.7-2.3.6-1.5,1-3,1.1-4.7,0,0,.3,0,.3,0,0,0-.3-.1-.3-.2,0,0,.4-.1.4-.2,0,0-.4,0-.5,0,0-.2.4-.5.4-.8,0-.2-.1-.3-.1-.5,0-.2-.4-.4-.4-.6,0-.2-.1-.5-.2-.7"/>
        <path class="cls-5" d="m160.7,262.5c0-.1,0-.4-.2-.5-.3-.4-.8-.3-1.2-.7-2.8.8-5.6,1.2-8.4,2.2-2.7,1-5.4,2.2-8.1,3.3-2.7,1-5.3,2.3-8,3.4-2.7,1.1-5.5,1.8-8.2,2.9-2.7,1.1-5.3,2.3-8,3.4-2.7,1.1-5.5,1.9-8.2,2.9-2.7,1-5.3,2.3-8.1,3.2-.8.2-1.6.2-2.2.4-.3.1-.6.2-.9.3-.2,0-.2.8-.4.9,0,0-.2-.4-.2-.4-3.3,1.7-3.4,3.9-.9,8.1,1.2,2,2.9,2.8,4.6,3,0,0,0,0,0,0,0,0,0,.2,0,.2.7.1,1.5-.1,2.3-.2.1,0,.2-.1.4-.1.6,0,1.3-.1,2-.3.2,0,.5.1.8,0,.6-.2,1.2-.4,1.8-.6.3,0,.5-.1.8-.2.7-.3,1.5-.4,2.1-.6,2.8-1,5.4-2.6,8.3-3.7,2.8-1.1,5.7-2,8.4-3.2,2.8-1.2,5.6-2.3,8.3-3.5,2.7-1.3,5.5-2.5,8.2-3.8,2.7-1.3,5.2-3.1,7.9-4.5,2.7-1.4,5.3-2.8,7.9-4.2.3-1.6.6-3,.3-4.6,0,0,0,0,0,0,0,0,0-.1-.1-.2,0,0,0,0,0-.1,0,0,.2,0,.2,0,0,0,0,0,0,0,0-.2-.4-.4-.5-.6,0-.2-.2-.3-.2-.5,0-.2-.2-.3-.3-.5-.1-.2.1-.7,0-.9"/>
        <path class="cls-5" d="m164.6,274.4c-1.6-.5-1.7-.1-3.4-.1-.6.4-3,2.8-6.7,6.4-2,1.9-4.3,4-6.8,6.5-2.1,2.1-4.6,4.1-6.9,6.4-2.2,2.2-4.2,4.7-6.4,6.9-2.3,2.3-4.8,4.3-6.8,6.5-2.4,2.5-4.6,4.8-6.5,6.9-3.5,3.9-5.5,6.6-5.5,7.3,1.5,2.7,2.1,3.3,3.5,5,.4.5,2.2,2.6,4.3,2.8,1.1.1,3.1.8,3.9.2,0,0,0,0,0,0,0,0,.2.2.2.2,2.4-2.4,4.4-5.2,6.4-7.9,2.1-2.7,4-5.5,6-8.3,2-2.8,4.3-5.4,6.3-8,1.1-1.4,2.8-4,5.1-6.6,1.7-1.9,3.8-4,5.7-6.1,1.9-2.2,3.9-4.3,5.6-6.2,2.5-2.9,4.4-5.3,5.1-6.6-.7-1.1-2.3-4.3-3.2-5.2"/>
        <path class="cls-1" d="m127.2,329s0,0,0,0c.1,0,0,0,.1,0,0,0,0,0-.1,0"/>
        <path class="cls-5" d="m160.3,270.4c-.6.2-3.9,1.7-8.4,4.1-2.4,1.3-5.1,2.9-8.1,4.5-2.6,1.4-5.4,2.8-8.2,4.3-2.7,1.5-5.3,3.3-8,4.8-2.8,1.5-5.5,3.2-8,4.6-3,1.7-5.7,3.2-8.1,4.6-4.5,2.6-7.6,4.3-7.9,4.8.3,2.3.9,2.9,1.4,4.4.2.5.9,2.2,2.6,2.7.9.2,2.3,1.3,3.2.9,0,0,.1.3.1.2h0c2.9-1.5,5.6-3.6,8.4-5.5,2.8-1.9,5.6-3.7,8.3-5.7,2.7-2,5.5-3.9,8.2-5.8,1.5-1,3.9-2.7,6.9-4.5,2.2-1.3,4.7-2.7,7.1-4.2,2.5-1.5,4.8-3.2,6.9-4.5,3.2-2,5.6-3.6,6.7-4.5-.2-.9-.3-3.5-.7-4.3-1.1-1-1.2-.9-2.6-1.1"/>
        <path class="cls-3" d="m111,310.1c0,0,0,0-.1,0,0,0,0,0,0,0,0,0,0,0,.1,0"/>
        <path class="cls-7" d="m227.2,291.1c-.4,3.1-1.1,5.7-2.7,7.8-1.6,2.1-3.7,4.2-7,4.8-3.2.6-6.6.6-9.8.8-3.3.2-6.5,0-9.8-.1-3.3,0-6.5,0-9.8-.2-3.3-.2-6.6,0-9.8-.2-3.3-.3-6.5-1-9.7-1.4-2.7-.3-5.4-.5-8.2-.5-2.7,0-5.4-.2-8.1-.4-2.7-.1-5.3-.5-8-1.2-3.1-.8-6.9-1.1-10-2.3-3.3-1.3-5.9-3.3-6-7.3,0-3.1.2-5.9.3-8.4.2-3.2.5-5.9,1.3-8.2.9-2.7,2.4-4.8,4.8-6.6,1.9-1.4,4.4-2.6,7.6-3.5,2.9-.8,6.2-1.8,9.6-2.5,3.1-.6,6.5-1.1,9.9-1.4,3.3-.4,6.6-.1,10-.2,3.4-.1,6.7-.9,10-.8,3.4.1,6.8.6,9.9,1.1,3.5.5,6.8,1.2,9.8,2.1,2,.6,4.5,2.1,7.3,3.4,2.4,1.1,5.1,1.9,7.4,3.2,2.7,1.5,5.2,3,6.8,4.3,4.7,3.6,3.1,5.6,4.3,11.4.5,2.1.2,4.3,0,6.5"/>
        <path class="cls-11" d="m214.5,260.8c5.9.1,6.1.8,10.9,4.3,4,2.9,4.9,6.5,2.5,7.4-2.4.9-3,1.6-3.5,3.3-.5,1.7-.6,4.2-6,4-5.4-.2-8.5,2.1-11.2,4.5-2.7,2.5-6.7,2.9-11,2.2-2.3-.4-4.9-1-7.5-1-2.3,0-4.5.8-7,2.4-5.4,3.3-9.4,1.4-11.9.2-1.4-.7-4-2.3-7.2-2.7-2.3-.3-4.9.2-7.5,1.4-6.1,2.8-10.2,2.1-11.4-.5-1.2-2.6-4.4-4.3-10.3-3.9-5.9.4-9.7-1.9-9.2-5.1.5-3.2-4-1.3-4.3-4-.2-1.9-.7-5.5,3.4-7.9,1.9-1.1,4.8-1.8,9-2.3,2-.2,5.1-.3,9.1-.4,2.7-.1,5.8-.6,9.1-.7,2.9,0,6,.4,9.2.3,3,0,6.1.1,9.2,0,3,0,6.1-.5,9.1-.5,3.1,0,6.2,0,9.2,0,3.2,0,6.3-.7,9.2-.7,3.4,0,6.5-.3,9.1-.4,5.6,0,4.6,0,9.1,0"/>
        <path class="cls-10" d="m134.6,268.1c2.6,2.2,5.8,3.3,9.2,4.1,4.1,1,8.2,1.7,12.3,2.7,3.3.8,6.5,1.2,9.9,1.4,3.3.2,6.7.2,10,.2,3.4,0,6.7.8,10,.9,3.3.2,6.6,0,9.9.3,3.3.2,6.6.4,9.9.4,3.3,0,6.6.4,9.9,0,2.3-.2,5.3-.2,7.1-1.8,1.3-1.2,1.9-3.9,2.2-7.2.2-2.5.9-5.3.8-7.9-.3-3.4-.8-6.4-1.6-7.8.3-.1-4.5,0-10.4-.2-3.1-.2-6.6-1-10.1-1.2-3.7-.2-7.3-.2-10.1-.6-3.2-.4-6.5-.3-9.7-.7-3.2-.4-6.3-1.7-9.5-2.2-3.2-.5-6.5-.6-9.6-1.2-2.6-.5-5.2-.8-7.7-1.4-2.5-.6-5-1.4-7.5-2-3.3-.8-6.6-1.8-10-2.4-4.9-.9-9.2.5-10,5-.4,2.3-.3,6.9.5,11.3.8,4.5,2.5,8.5,4.5,10.2"/>
        <path class="cls-5" d="m126.8,250.2c.8-2.3-2.3-3.8-2.8-6.2-.7-3.3,2.5-9.4,6-11.1-.1-.2,3.2,1.3,6.7,2.7,3,1.2,6,2.5,6.8,2.5,3.8.3,7.5,1.6,11.3,1.9,2.7.2,5.8.2,9.2.2,2.9,0,6-.5,9.2-.6,3,0,6.1,0,9.2-.2,3-.1,6.1-.4,9.2-.5,3.1-.2,6.2.2,9.2,0,3.1-.2,6.2-.2,9.2-.3,3.2-.1,6.3-.4,9.2-.4,3.4,0,3.1,0,5.8.1.7,0,1,.5.7.9,3.7,1.6,6.5,9.2,4.2,11.8-1.6,1.9-4.1,3.4-6.3,4.7-1.2.7-4.8.8-9,.9-2.9,0-6.2,0-9.1,0-4.2.1-7.6.8-8.7,1.8-3.2,2.7-1.2,5.3-.6,8.9.3,1.8.6,5.8-2.1,6.9-2.7,1.1-5.2,1.5-8.3-2.1-1.4-1.6-.4-5.9-.1-7.3.4-1.6,1.6-5,.2-6-3.9-3-5.4,2.3-6,4.2-.3.8,0,3.7-2,4.1-2.9.5-3.1-6.6-5.1-7.8-3.1-1.8-5.5-1.2-7.5-.2-2.4,1.3-4.4,3.9-7,3.1-4.5-1.4-6.7-3.9-7.9-6.3-1.7-3.4-1.6-7-5.4-7.9-1.8-.4-3.9.1-5.5,1-2.3,1.2-4.4,2.8-7,3.5-.6.1-1.7,1.1-1.9,1.9-.4,1.7.7,4.9-.7,6.3-1.6,1.5-3.6-2.5-3.6-4.9s.2-4.6.6-5.9"/>
        <path class="cls-10" d="m219.9,227.5c-5.2.4-2.4,2.3-9.8,4.1-2.7.7-6,2.2-10.2,2.6-3,.3-6.5.2-10.4.2-3.2,0-6.6-.3-10.4-.6-3.1-.2-6.1-.3-8.9-.6-3.2-.3-6.1-.6-8.8-.9-3.2-.4-6.2-.2-8.9-.6-3.3-.5-6.2-1.4-8.7-1.9-3.5-.7-6.3-2-8.6-2.7-6.1-1.9-7.2-8-8.5-3.1-.4,11.4-3.7,9.8,1,15.4,3,.8,5.9,1.8,9,2.5,3,.6,6.2.5,9.3,1,3.1.5,6.1,1.5,9.2,1.8,3.1.3,6.2.4,9.3.6,3.1.2,6.3,0,9.3.2,3.2,0,6.3-.1,9.3-.1,3.2,0,6.3.1,9.3,0,3.3-.1,6.4-.3,9.3-.5,3.5-.2,6.7.3,9.3,0,5.2-.6,8.2-2.3,8.8-2.8,1.1-1,3-6.5,3-9.4,0-3-.2-5.6-2.7-5.4"/>
        <path class="cls-7" d="m124.2,213.4c.6-1.3,1.2-2.6,2-3.7,2.7-4.1,6.6-7.4,10.8-10,4.6-2.8,8.9-4.2,14.2-5.4,11.3-2.6,22.9-3.7,34.5-3.2,10.5.4,21.3,2.3,30,8.1,3.6,2.4,6.7,5.4,9.2,8.8,1.1,1.5,2.2,3.2,2.7,5.1.6,2.1.4,4.3.3,6.4-.1,1.6-.2,3.3-.9,4.8-1.3,2.8-4.2,4.4-7.1,5.6-10.7,4.4-22.4,5.3-33.9,6-7.1.4-14.3.8-21.4,1.2-4.7.2-9.5.4-14.1-.2-4.5-.6-8.8-2-13.3-2.3-3.7-.3-7.9,0-10.8-2.4-1.3-1.1-2.2-2.7-2.8-4.3-1.7-4.6-1.2-9.9.7-14.5"/>
        <path class="cls-5" d="m185.9,217.4h0c.6-.4,1.4-.6,2.2-.4,1.4.2,2.7,1.2,3.4,2.6.2.4.6,1.1.3,1.8-.2.4-.5.7-1,.8-.2,0-.5.1-.8.1-.7,0-1.5,0-2.6-.4-1.3-.4-2.4-1.4-2.6-2.4-.2-.8.3-1.6,1.1-2.1"/>
        <path class="cls-5" d="m176.3,195.1c.6-.4,1.4-.6,2.2-.4,1.4.2,2.7,1.2,3.4,2.6.2.4.6,1.1.2,1.8-.2.4-.5.7-1,.9-.2,0-.5,0-.8.1-.7,0-1.5,0-2.6-.4-1.3-.4-2.3-1.4-2.5-2.4-.2-.8.2-1.6,1-2.1"/>
        <path class="cls-5" d="m206.5,204c.8-.2,1.6-.1,2.2.2h0c.9.4,1.3,1.2,1.3,2,0,1-1,2.2-2.2,2.7-1,.4-1.8.6-2.5.7-.3,0-.6,0-.8,0-.5-.1-.9-.4-1.1-.7-.4-.7-.1-1.5,0-1.9.6-1.4,1.8-2.6,3.1-3"/>
        <path class="cls-5" d="m165,206.6c1.3-.8,3.5-1.2,4.7-.8,1,.3,1.2.9,1.3,1.2.2,1.2-1.5,2.5-2.3,3-.5.3-1.1.5-1.8.6-.6,0-1.1,0-1.7-.2-1-.3-1.5-1-1.6-1.8,0-.8.4-1.5,1.3-2"/>
        <path class="cls-5" d="m155.4,198.3c0-.8.4-1.5,1.3-2,1.3-.8,3.5-1.2,4.7-.8,0,0,0,0,0,0,1,.3,1.2.9,1.3,1.2.2,1.2-1.5,2.6-2.2,3.1-.5.3-1.1.4-1.8.5-.6,0-1.1,0-1.7-.2-1-.3-1.6-1-1.6-1.8"/>
        <path class="cls-5" d="m169.2,217c1.2-.5,3.4-.4,4.8.2.9.4,1.5,1.1,1.5,1.9,0,.8-.5,1.5-1.4,1.9-.5.2-1,.4-1.6.4-.7,0-1.3,0-1.8-.3-.8-.4-2.7-1.5-2.6-2.8,0-.3.2-.9,1.1-1.3"/>
        <path class="cls-5" d="m142,202.8c1.2-.5,3.4-.4,4.8.3.9.4,1.5,1.1,1.5,1.9,0,.8-.5,1.5-1.4,1.9-.5.2-1.1.4-1.6.4-.7,0-1.3,0-1.8-.4-1-.5-2.8-1.6-2.7-2.8,0-.3.2-.9,1.2-1.4"/>
        <path class="cls-5" d="m193.2,198.2c0,1.2,1.6,2.2,2.7,2.7.5.3,1.2.4,1.8.4.6,0,1.1-.2,1.6-.4.9-.4,1.4-1.1,1.3-1.9,0-.8-.6-1.5-1.5-1.9-1.4-.6-3.6-.7-4.8-.2-1,.4-1.2,1-1.2,1.3m1.7-.6h0s0,0,0,0c0,0,0,0,0,0"/>
        <path class="cls-5" d="m188,209.4c-.3.1-.5.2-.8.2-.7,0-1.4-.2-2-.7-.8-.7-1.3-2.1-.8-3.2.4-.8,1.3-1.2,2.4-1.3,1.5,0,2.2.4,2.6.8.7.7.6,1.6.4,2.1-.5,1.1-1.1,1.7-1.9,2"/>
        <path class="cls-5" d="m156.5,214.3c1.5,0,2.2.4,2.6.8.7.7.6,1.6.4,2-.5,1.1-1.1,1.8-1.8,2.1-.3.1-.5.1-.8.2-.7,0-1.4-.2-2-.7-.8-.7-1.3-2-.8-3.1.4-.8,1.2-1.2,2.3-1.3"/>
      </g>
      <g>
        <path class="cls-12" d="m437,341.1c-1.9,41.1,39.6,76.5,92.6,78.9,53.1,2.5,97.6-28.9,99.5-70,1.9-41.1-39.6-76.5-92.6-78.9-53.1-2.5-97.6,28.9-99.5,70"/>
        <path class="cls-11" d="m452.2,322c0-.2.2-.5.2-.7.6-3.4-4.9-5.8-4.5-9.3.5-4.8,4.4-3.4,7.3-5.1,4.2-2.6,2.4-6,5.9-9.6,3.8-3.9,7.9,1.3,12.1.4,5-1.1,9.4-2.2,14.9-2.6,4.9-.3,5.1-13.2,13.2-11.4,8,1.8,13.9,9.8,22,10.9,4,.6,7.6,2.4,11.5,3,7.5,1.3,14.6-.6,22.1,2,10.7,3.7,21.5-3.4,32.6-.6,1.9.5,3.8,1.2,5,2.7,2.3,2.9-.2,5.4-2.3,7.2-1.8,1.5-4.5,3.5-4.4,6.1,0,2.5,2.6,4.3,5,4.2,2.6,0,5-1.6,7.5-2.4,2.6-.9,5.4-1.1,8.1-.6.8.1,1.6.4,2.2.8,2.1,1.6,1.1,4.9,0,7.3.3,1.3,1.5,2.2,2.8,2.5,1.3.4,2.6.4,3.9.9,2,.7,3.6,2.6,4,4.7.4,2.1-.3,4.4-1.9,5.9-.9.8-2.2,1.5-2.5,2.7-.3,1.2.4,2.4,1.4,3,1,.7,2.2.9,3.3,1.3,2.1.6,1.2,4.2,0,5.3-.9.9-2.3,1.3-3.3,2.2-3.2,2.8,3.1,6.5,1.4,10.1-.5,1-1.1,1.6-1.7,2-2.6,1.7-9.5-4.9-14.5-6.8-1.5-.6-3.7-.6-3.9.9,0,.5.2,1.1.5,1.5,1.5,2.6,24.3,17.4,11.1,19.8-1.5.3-3-.2-4.6-.2-6.7,0-3.8,12.7-12.7,10.2-2.3-.6-4.3-2.7-6.7-2.4-5.3.6-3.8,8.8-9.7,8.7-1.9,0-3.6-.9-5.2-1.9-5.6-3.3-8.1.7-13.3,2.8-6.2,2.4-14.8,5.2-21.6,2.8-3.9-1.4-6.8-6.7-11.1-6.8-5.9-.2-8.6,8.3-15.4,5.5-4.5-1.9-3.3-6.5-6.3-9.3-3-2.8-6.8-1.3-10-2.9-3.5-1.7-4.1-5.4-6.7-7.5-2.1-1.7-3.5-1.4-6.3-2-4.2-.8-10.5-.9-12.4-5.6-1.7-4.2,1.1-8.7-.9-13-1.9-4.3-5.6-6.8-8.6-10.2-2.8-3.2-4.2-9.4-8.1-11-3-1.3-7.6-4.3-7.1-8.2.6-4.7,6.7-4.1,8.1-7.4"/>
        <path class="cls-9" d="m491.6,257.2c0-.6.1-1.2.3-1.8,1.3-4.1,5.7-6.5,9.8-5.2,4.1,1.3,6.5,5.7,5.2,9.8-.3,1.1-.9,2.1-1.6,2.9l16.8,11.2-3.7,5.6-17-11.4c-1.8,3.1-5.5,4.7-9.1,3.6-4.1-1.3-6.5-5.7-5.2-9.8.7-2.3,2.5-4.1,4.6-4.9"/>
        <path class="cls-7" d="m568.2,303.2c-.2-14.5-9.9-27-20.5-34.6-8.7-6.2-20-4.2-29.9-1.4-3.2.9-5.6,2.2-7.4,4.3-2,2.3-2.3,5.4-1.2,8.3,1.6,4.3,1,11.1,2.2,15,4,13,15.9,17.9,28,17.8l29-9.3Z"/>
        <path class="cls-7" d="m600.2,328.2c-2.5-8.6-6.7-16.8-11.7-20-4.6-2.9-10.1-4.4-14.7-7.4-20.1-13-49.3-30.6-70.8-3.5-8.4,10.6-18.4,32.5-13.6,46.2,3.7,10.5,10.4,20.4,17.9,27.1,6.2,5.6,17.1,5.4,24.9,6.8,13.7,2.5,34.9,6.2,49-.9,10.6-5.3,20.4-16.9,21.4-31,.3-4.9-.6-11.2-2.3-17.3"/>
        <path class="cls-9" d="m463.6,279.7c.2-.6.5-1.1.8-1.6,2.4-3.6,7.2-4.7,10.9-2.3,3.6,2.4,4.7,7.2,2.3,10.9-.6,1-1.4,1.7-2.4,2.3l13.1,15.4-5.1,4.3-13.3-15.6c-2.6,2.5-6.6,3-9.7,1-3.6-2.4-4.7-7.2-2.3-10.9,1.3-2.1,3.5-3.2,5.7-3.5"/>
        <path class="cls-7" d="m487.8,294.2c-13.6-2-15.2,22.3-15.6,31.4-.6,12.7,2.4,24.1,9.3,34.1,5.6,8.1,17.3,15.6,27.3,12.1,12.5-4.4,19.5-26.9,19.5-39.3,0-13.9-11.3-24.6-21.6-30.7-5.9-3.5-12.1-6.6-18.9-7.6"/>
        <path class="cls-13" d="m512.3,305.6s24.8,15.6,9.1,44.1"/>
        <path class="cls-13" d="m520.2,285.2s22.5-9.9,41.4,9"/>
      </g>
      <g>
        <path class="cls-12" d="m281.7,325.7c0,25.9,21,43.6,46.9,43.6s46.9-14.4,46.9-40.3-21-40.3-46.9-40.3-46.9,11-46.9,37"/>
        <path class="cls-4" d="m287,320.3s0,0,0,0c0-.1,0,0,.1,0,0,0,0,0,0,0"/>
        <path class="cls-7" d="m357.6,330.3s-.3.1-.3.1c0,.2.5.2.6.4,0,.1-.1.4,0,.5,0,.2.1.4.1.5,0,.2-.3.5-.2.7,0,.2.4.3.4.4,0,.4-.2.8-.2,1.2-2.7,1.1-5.3,2.1-8.1,3.1-2.7.9-5.5,1.7-8.3,2.6-2.8.8-5.6,1.6-8.3,2.4-2.8.8-5.5,1.6-8.3,2.4-2.8.8-5.5,1.8-8.3,2.7-2.8.9-5.5,1.7-8.2,2.7-.7.2-1.3.3-1.8.5-.3,0-.4.6-.6.6-.2,0-.4,0-.6,0,0,0,0,0,0,0-3.1.6-4.3-.8-4.9-4.9-.3-1.9.4-3.4,1.4-4.5,0,0,.1,0,.1,0,0,0,0,0,0,0,.4-.5.8-1,1.4-1.3,0,0,0-.3.1-.3.5-.3,1.2-.2,1.8-.5.2,0,.4-.1.5-.2.5-.2.9-.7,1.5-.8.2,0,.4-.2.5-.3.6-.2,1.4-.1,2-.3,2.9-1,5.8-2,8.8-2.8,2.9-.9,5.8-2,8.8-2.8,3-.8,6-1.4,9-2.1,3-.7,6-1.3,9.1-1.9,3-.6,6.1-1.1,9.1-1.6,1,.9,2.2,1.9,2.9,3.2,0,0-.2.1-.2.1,0,0,0,.1,0,.2,0,0,.3,0,.4,0"/>
        <path class="cls-7" d="m357,315.3c-.2,1.4-.4,1.5-1,2.8-.6.3-4,1.7-8.8,3.4-2.6.9-5.6,2-8.8,3.1-2.9,1-5.9,1.7-9,2.7-3,1-6,2-8.9,2.9-3.2,1-6.4,1.8-9,2.6-5,1.5-8.6,2.7-9.1,2.4-1.5-2.2-1.4-3.1-2.2-4.8-.2-.5-1.3-2.8-.7-4.4.3-.8.6-2.7,1.4-3.1,0,0,0-.2,0-.2,0,0,0,0,0,0,2.7-.9,5.7-1.3,8.5-1.9,2.8-.6,5.7-1.1,8.6-1.5,2.9-.4,5.8-.6,8.6-1.2,1.9-.4,5.3-1.6,9.1-2.6,3-.8,6.2-1.8,9.2-2.5,4.2-1.1,7.8-2,9.3-2,.6.9,2.5,3.5,2.8,4.5"/>
        <path class="cls-1" d="m300.9,323s0,0,0,0c0-.1,0,0,.1,0,0,0,0,0,0,0"/>
        <path class="cls-7" d="m350.5,303.1c0,0-.2.3-.1.4,0,.2.4.2.5.4,0,.2.2.4.3.5,0,.1-.2.4-.2.5,0,.3,0,.5,0,.8,0,.1.1.2.1.3,0,.4.1.9,0,1.4-2.7,1-5.4,2.1-8.1,3-2.7.9-5.5,1.7-8.3,2.5-2.8.8-5.5,1.7-8.3,2.5-2.8.8-5.6,1.6-8.3,2.4-2.8.8-5.7,1.2-8.4,2.1-2.8.9-5.5,2-8.2,2.9-.7.2-1.1.8-1.7,1-.3,0-.6,0-.8,0-.2,0-.5,0-.6,0,0,0,0,0,0,0-3.1.6-4.2-.7-4.7-4.8-.8-5.4,4.7-7,9.2-8.5,2.9-1,6-1.5,8.9-2.4,2.9-.9,5.9-1.6,8.9-2.4,3-.8,5.9-1.6,9-2.3,3-.7,6-1.4,9-2,3-.6,6.1-1.4,9.1-1.9,1,.9,1.8,2.3,2.5,3.6,0,0,.2-.1.2-.1"/>
        <path class="cls-5" d="m359.3,317.3c0,.1.2.3.3.4.2.4.5.8.6,1.3-2,2-4.3,3.8-6.5,5.8-2.1,1.9-4.3,3.9-6.5,5.8-2.2,1.9-4.3,3.9-6.5,5.7-2.2,1.9-4.4,3.8-6.6,5.6-2.2,1.9-4.4,3.7-6.6,5.7-2.2,1.9-4.4,3.8-6.5,5.8-.5.5-1,.9-1.4,1.3-.2.2-.2.4-.4.5-.2.1-.3.5-.5.6,0,0,0,0,0,0-2.6,1.8-4.2.9-6.4-2.6-1.1-1.7-.9-3.1-.4-4.5,0,0-.4,0-.4,0,0,0,0,0,0,0,.2-.6.7-1.1,1-1.7,0,0,.2-.2.2-.2.3-.5.6-1,1-1.4.1-.1.4-.1.6-.3.4-.4.7-.9,1.1-1.3.1-.1.3-.2.4-.4.5-.5.8-1.1,1.3-1.5,2.2-2.1,4.6-4.1,6.9-6.1,2.3-2,4.7-4,7.1-5.9,2.4-1.9,5-3.7,7.4-5.5,2.5-1.8,4.9-3.8,7.4-5.6,2.5-1.8,5.1-3.6,7.6-5.3,1.3.4,2.6,1.1,3.8,2,0,0,0,0,0,0,0,0,.2,0,.2,0,0,0,.2,0,.2,0,0,0,0,0,0,0,.2.1.3.3.5.4,0,.1.2.2.3.3.1.2,0,.5.1.7.1.2.2.3.3.5"/>
        <path class="cls-5" d="m356.8,307.2c-.5.3-3.6,1.8-8.3,3.7-2.5,1-5.4,2.2-8.6,3.5-2.8,1.1-5.7,2.2-8.6,3.4-2.9,1.1-5.9,2.1-8.7,3.2-3.2,1.2-6.1,2.5-8.6,3.4-4.8,1.7-8.1,2.5-8.6,2.4-1.4-1.5-1.9-1.8-2.6-3-.2-.4-1.1-2.2-.4-3.5.3-.7.8-2,1.6-2.4,0,0,0-.3,0-.3v.2c2.7-1.1,5.5-1.7,8.3-2.5,2.8-.8,5.5-1.5,8.3-2.2,2.8-.7,5.5-1.8,8.2-2.6,1.9-.5,5.2-1.6,8.9-2.9,2.9-1,6.1-1.8,9-2.7,4-1.3,7.5-2.6,9-2.8.5.6,2,2.3,2.3,3.1-.2,1.2-.4,1.1-1,2.1"/>
        <path class="cls-3" d="m304.1,317.7s0,0,0,0c0,0,0,0,0,0,0,0,0,0,0,0"/>
      </g>
      <g>
        <path class="cls-12" d="m162.6,78.5c-7.2,56.3-46.3,73.4-91.1,73.4S3.4,118.9.3,78.5C-4.3,20.2,48.3,0,93.1,0s74.6,38.2,69.5,78.5"/>
        <path class="cls-11" d="m145,82.6c.5-3.5,3.3-3.1,6.6-6.6,4.3-4.6,2.8-8.2-1.7-11.3-1.4-1,2.4-8.8,2.1-11.5-.7-5.4-6.9-2.2-9-4.6-1.7-2.1.3-7.3-1.7-9.5-5.1-5.4-8.9.5-12.9-2.9-3.2-2.7-6.1-6-9.8-7.9-3.5-1.8-7.3-1.8-11.3-1.8-5.6,0-9.1-3.6-13.8-5.8-2.5-1.2-5.5-1.5-8.3-.4-6.4-1.8-9.3-10.4-15.7-12.8-3.2-1.2-7.4-1.1-10.9,2.6,1,4.2,1.3,11.3.7,14.4-.9,4.6-4.3,6.3-6.7,4.5-3.7-2.8-5.4-8.7-8.5-12.5-1,1-1.8,3-2.5,4.9,1.8,1.9,3.6,4.1,3.5,7.7,0,2.6-1.2,4.5-3,3.7-2.1-1-4.1-3.5-5.9-5.1-1-.9-1.9-1.8-2.7-2.8-.8.4-1.6,1.4-2.6,3.4-1.1,2.2-1.2,4.3-1.2,6.4.8.8,1.5,1.8,2.1,2.7,1,1.5,3.9,4.9,2.8,7.9-1.1,2.7-3.1,1.7-4.3,1.2-2.5-1.2-4.9-2.5-7.3-3.8-1,.2-2.1.9-3.1,2.7-2.8,4.9,2.4,6-.3,9.8-1.9,2.7-4.7,3-5.3,7.3-.2,1.2,0,2.1.2,2.8,1.7-.2,3.4-.2,5-.6,7-1.5,9-1.8,10.1,0,1.7,2.9-7.8,6.9-9.3,7.7-2.6,1.3-5.3,2.2-7.9,3.5-.8.8-1.4,1.6-1.6,2.4-1.8,9.1,4.3,5,5.2,9,.6,3-2.4,8.1-.9,11.2,2.5,5.1,6.1.6,9.3,2.8,1.1.7-1.4,9.5.4,11.8,2.1,2.7,8.6-1,9.4.5,1,2,1.3,4.1,2,6.3,1.1,3.4,3,5.3,5.8,6.3,3,1,7.8,7.8,11.1,7.2,2.5-.4,4.3-3.4,5.8-4.2,2.3-1.3,3.7.2,4.6,5.4.4,2.5,2.3,5.8,3.9,6.6,3.1,1.6,5.3-3.1,9.6-6.9,3.3-2.9,7.2,1.1,11.2.2,3.5-.7,4.6-7,7.7-6.1,3.6,1,10,4.8,14.2,0,3.3-3.8,3.6-9.5,7-13.3,2.8-3.1,6.6-4.2,9.7-5.6,4.3-2,7.4-9.9,11.9-10.2,5.1-.3,7.4-2.4,9.4-7.4,1.3-3.3-3.6-4.2-2.9-9.1"/>
        <path class="cls-7" d="m139.2,85.8c0,0,0-.1,0-.2,0-.3-.3-.6-.5-.8-3.1-3-1.6-3.6,0-7,1.3-2.8,2-5.8,2.3-8.8.6-6.2-.8-12.5-3.5-18.1-1.4-2.8-3.1-5.5-5.1-8-9.8-12-25.5-17.5-40.8-19.7-9.1-1.3-21.2-3.6-27.5,4.8-.6.8-1,1.6-1.3,2.5-1.2-.2-3.1-.6-4-.9-1.3-.5-3.9,2.1-2.8,5.8,1.1,3.6,4.2,1.5,6.8.1.1.4.3.7.4,1.1,3.9,8.2,15.3,5.5,21.8,7.2,8.6,2.2,16.9,6.8,23.4,13.8,3.1,3.4,5.8,7.3,7.9,11.6,2,4.3,2.8,9.7,5.5,13.5,2.5,3.5,6.4,4.1,9.8,2.8.2,1.4.6,3,1.3,4.3.1.4.4.8.7,1,.8.5,1.8.2,2.6-.2,1.6-.8,3.6-2.4,3.1-4.6,0,0,0-.1,0-.2"/>
        <path class="cls-5" d="m78.9,23.2c-4.1,2.9-6.5,8.5-4.8,14,.3.9,1.5.9,1.5-.2,0-5,1.7-8.8,4.2-12.6.8-1.2-.6-1.4-.9-1.2"/>
        <path class="cls-5" d="m88.1,23.9c-4.1,2.9-6.5,8.5-4.8,14,.3.9,1.5.9,1.5-.2,0-5,1.7-8.8,4.2-12.6.8-1.2-.6-1.4-.9-1.2"/>
        <path class="cls-5" d="m97.2,27.2c-3.9,1.7-6.7,7.9-5.6,12.4.2.7,1,.5,1-.2.2-2.6.9-5.4,2.3-7.4,1.2-1.7,3-2.7,4.5-3.9.5-.4.4-1.5-.1-1.5-.8,0-1.7.3-2.1.5"/>
        <path class="cls-5" d="m106.4,32.3c-3.9,1.7-6.7,7.9-5.6,12.4.2.7,1,.5,1-.2.2-2.6.9-5.4,2.3-7.4,1.2-1.7,3-2.7,4.5-3.9.5-.4.4-1.5-.1-1.5-.8,0-1.7.3-2.1.5"/>
        <path class="cls-5" d="m114.8,40c-3.9,1.7-6.7,7.9-5.6,12.4.2.7,1,.5,1-.2.2-2.6.9-5.4,2.3-7.4,1.2-1.7,3-2.7,4.5-3.9.5-.4.4-1.5-.1-1.5-.8,0-1.7.3-2.1.5"/>
        <path class="cls-5" d="m121.6,49.3c-3.9,1.7-6.7,7.9-5.6,12.4.2.7,1,.5,1-.2.2-2.6.9-5.4,2.3-7.4,1.2-1.7,3-2.7,4.5-3.9.5-.4.4-1.5-.1-1.5-.8,0-1.7.3-2.1.5"/>
        <path class="cls-5" d="m126.4,60.6c-3.9,1.7-6.7,7.9-5.6,12.4.2.7,1,.5,1-.2.2-2.6.9-5.4,2.3-7.4,1.2-1.7,3-2.7,4.5-3.9.5-.4.4-1.5-.1-1.5-.8,0-1.7.3-2.1.5"/>
        <path class="cls-7" d="m101.4,109.3c0,0,0-.1,0-.2,0-.3-.2-.6-.4-.9-.4-1-1.2-2.1-1.9-3.3,0,0,.2-.1.2-.2.5-.5,1-1,1.5-1.6,1.2-1.5,2.1-3.2,2.7-5,1.8-4.9,1.8-10.7,1-15.6-1.7-10.4-6.5-20.1-12.6-27.5-13.6-16.4-32.1-22.3-44.8-20.7-1.4.2-3,.6-4.5,1.2-1.4.6-2.8,1.4-3.9,2.4-.7.6-1.3,1.4-1.8,2.2-1.2-.5-2.9-1.2-3.7-1.7-1.2-.7-4.3,1.3-3.8,5.2.4,3.9,4.3,1.8,6.6,1.6-.4,6.4,11.2,9.7,15.8,10.7,2.4.5,4.9.9,7.2,2,2.2,1,4,2.7,5.7,4.3,3.9,3.7,7.8,7.5,10,12.4,1.3,2.9,2,6.1,2.6,9.2.8,3.7,1.5,7.4,2.3,11.1.9,4.4,2.4,9.5,6.7,10.8,1.8.6,5.4,0,6.8,1.3,1,1,1,3.5,1.1,5,0,.4.2.8.5,1.2.7.7,1.7.6,2.6.3,1.8-.4,4-1.7,4-3.9,0,0,0-.1,0-.2"/>
        <path class="cls-5" d="m54.4,36.2c-4.6,2.1-8,7-7.4,12.8.1,1,1.3,1.1,1.5,0,.9-4.9,3.3-8.3,6.5-11.5,1-1-.3-1.5-.7-1.3"/>
        <path class="cls-5" d="m63.3,38.7c-4.6,2.1-8,7-7.4,12.8.1,1,1.3,1.1,1.5,0,.9-4.9,3.3-8.3,6.5-11.5,1-1-.3-1.5-.7-1.3"/>
        <path class="cls-5" d="m71.6,43.7c-4.2.9-8.1,6.5-7.9,11.1,0,.7.8.7,1,0,.7-2.5,1.9-5.1,3.7-6.8,1.5-1.4,3.5-2,5.2-3,.6-.3.6-1.4.2-1.5-.8-.2-1.7,0-2.2.1"/>
        <path class="cls-5" d="m79.6,50.5c-4.2.9-8.1,6.5-7.9,11.1,0,.7.8.7,1,0,.7-2.5,1.9-5.1,3.7-6.8,1.5-1.4,3.5-2,5.2-3,.6-.3.6-1.4.2-1.5-.8-.2-1.7,0-2.2.1"/>
        <path class="cls-5" d="m86.4,59.7c-4.2.9-8.1,6.5-7.9,11.1,0,.7.8.7,1,0,.7-2.5,1.9-5.1,3.7-6.8,1.5-1.4,3.5-2,5.2-3,.6-.3.6-1.4.2-1.5-.8-.2-1.7,0-2.2.1"/>
        <path class="cls-5" d="m91.2,70.1c-4.2.9-8.1,6.5-7.9,11.1,0,.7.8.7,1,0,.7-2.5,1.9-5.1,3.7-6.8,1.5-1.4,3.5-2,5.2-3,.6-.3.6-1.4.2-1.5-.8-.2-1.7,0-2.2.1"/>
        <path class="cls-5" d="m93.7,82.1c-4.2.9-8.1,6.5-7.9,11.1,0,.7.8.7,1,0,.7-2.5,1.9-5.1,3.7-6.8,1.5-1.4,3.5-2,5.2-3,.6-.3.6-1.4.2-1.5-.8-.2-1.7,0-2.2.1"/>
        <path class="cls-7" d="m114.6,123.1c0,0-.1,0-.2,0-.3,0-.6,0-1-.2-1-.2-2.3-.7-3.6-1.2,0,0,0,.2-.1.3-.4.6-.8,1.2-1.3,1.8-1.2,1.5-2.7,2.7-4.3,3.7-4.4,2.7-10.1,4-15,4.2-10.5.5-21.1-2.2-29.5-6.6-18.9-9.9-28.4-26.7-29.6-39.5-.1-1.4,0-3,.2-4.6.3-1.5.8-3,1.5-4.3.5-.8,1.1-1.6,1.8-2.2-.7-1-1.8-2.6-2.4-3.3-.9-1,.3-4.4,4.3-4.8,3.7-.4,1.9,3,3.3,4.6,1,1.1,2.5.6,3.9.8,1.8.3,3.5,1,4.9,2.1,3,2.1,4.9,5.4,6.5,8.7,1.6,3.3,2.8,6.8,4.6,9.9,4,7,11.1,12.1,18.9,13.9,9.1,2.2,18.4-.4,27.4,1.6,4.2,1,6.3,4.2,6.4,7.9,1.4-.4,3-.6,4.4-.5.4,0,.9,0,1.2.3.8.5.9,1.6.9,2.5,0,1.8-.8,4.2-3,4.7,0,0-.1,0-.2,0"/>
        <path class="cls-5" d="m32.9,93.9c1.1-4.9,5.2-9.3,11-9.9,1,0,1.4,1.1.4,1.5-4.6,1.9-7.4,5-9.9,8.8-.8,1.2-1.5,0-1.5-.4"/>
        <path class="cls-5" d="m37.2,102.2c1.1-4.9,5.2-9.3,11-9.9,1,0,1.4,1.1.4,1.5-4.6,1.9-7.4,5-9.9,8.8-.8,1.2-1.5,0-1.5-.4"/>
        <path class="cls-5" d="m43.9,109.2c0-4.3,4.6-9.3,9.2-10,.7-.1.8.7.2,1-2.3,1.2-4.6,2.9-5.9,5-1.1,1.8-1.3,3.8-1.8,5.7-.2.7-1.2.9-1.4.5-.3-.8-.3-1.7-.3-2.2"/>
        <path class="cls-5" d="m52.2,115.6c0-4.3,4.6-9.3,9.2-10,.7-.1.8.7.2,1-2.3,1.2-4.6,2.9-5.9,5-1.1,1.8-1.3,3.8-1.8,5.7-.2.7-1.2.9-1.4.5-.3-.8-.3-1.7-.3-2.2"/>
        <path class="cls-5" d="m62.6,120.4c0-4.3,4.6-9.3,9.2-10,.7-.1.8.7.2,1-2.3,1.2-4.6,2.9-5.9,5-1.1,1.8-1.3,3.8-1.8,5.7-.2.7-1.2.9-1.4.5-.3-.8-.3-1.7-.3-2.2"/>
        <path class="cls-5" d="m73.8,122.9c0-4.3,4.6-9.3,9.2-10,.7-.1.8.7.2,1-2.3,1.2-4.6,2.9-5.9,5-1.1,1.8-1.3,3.8-1.8,5.7-.2.7-1.2.9-1.4.5-.3-.8-.3-1.7-.3-2.2"/>
        <path class="cls-5" d="m86.1,122.8c0-4.3,4.6-9.3,9.2-10,.7-.1.8.7.3,1-2.3,1.2-4.6,2.9-5.9,5-1.1,1.8-1.3,3.8-1.8,5.7-.2.7-1.2.9-1.4.5-.3-.8-.3-1.7-.3-2.2"/>
      </g>
      <g>
        <polygon class="cls-10" points="455.3 196.4 415.4 164.1 428.3 196.4 455.3 196.4"/>
        <polygon class="cls-6" points="379.6 84.2 355.6 138.2 355.6 96.2 379.6 84.2"/>
        <polygon class="cls-10" points="335.6 159.3 281.1 160.7 319.8 181.2 335.6 159.3"/>
        <polygon class="cls-2" points="318 28.2 295.7 88.8 321.5 66 318 28.2"/>
      </g>
    </g>
  </g>
</svg>