<?xml version="1.0" encoding="UTF-8"?>
<svg id="_レイヤー_2" data-name="レイヤー 2" xmlns="http://www.w3.org/2000/svg" viewBox="0 0 638.8 164.8">
  <defs>
    <style>
      .cls-1 {
        fill: #fff;
      }

      .cls-2 {
        fill: none;
        stroke: #fff;
        stroke-miterlimit: 10;
      }
    </style>
  </defs>
  <g id="_レイヤー_1-2" data-name="レイヤー 1">
    <g>
      <g>
        <path class="cls-1" d="m105.1,83.9c.1,2.1.2,4.2.4,6.3.8-1.8,1.3-3.6,1.8-5.3l.4-.2,4.1,2.8.2.5c-1.3,3.8-3.1,7.3-5.1,10.5.3,1.2.6,1.5.8,1.5.5,0,.9-.4,1.4-4.6l3.3,2.6c.5.5.8.7.7,1.3-.8,6.4-2.5,8.8-5.4,8.8s-3.7-.9-5.2-4.1c-1.4,1.5-3,2.8-4.6,4-.3.2-.6.4-.8.4s-.5-.1-.8-.4l-3.8-3.1c.9-.6,1.8-1.2,2.6-2h-2.9c0,0-4,0-4,0v3h-5.6l.2-9.8v-5l-.2-5.1.4-.4h4.8c0,.1,4.7.1,4.7.1h4.8c0-.1.3.2.3.2v4.9c-.1,0-.1,6.4-.1,6.4v3.5c1.1-1,2.1-2.1,3-3.2-.9-4.5-1.1-9.1-1.3-13.6h-17.4c0,.1-.3-.1-.3-.1v-4.8l.3-.4h3.2c-.5-1.6-1-3.4-1.7-5.1l.2-.4,4-1.5.4.3c.8,1.5,1.3,3.1,2,5.2l-.2.5-3.1,1.1h2.1s1.9,0,1.9,0c.6-2.4,1.1-4.7,1.5-7.1h.1c0,0-4.6,0-4.6,0h-5c0,.1-.3-.2-.3-.2v-3.5h-1.6c0,0,0,23.2,0,23.2l.2,17.6h-6.3l.2-10.3c-2.4.9-5.2,1.6-8.4,2.5l-.4-.2-1.7-5.6.2-.5c.8-.1,1.6-.2,2.4-.4v-26.4h-1.8c0,0-.3-.3-.3-.3v-5.3l.4-.2h5.7c0,.1,5.4.1,5.4.1h6.1c0-.1.4.2.4.2v3.9h4.6c0,.1,0-3.8,0-3.8l.3-.4h5.5l.3.4v4h4.3c0-.1.3.1.3.1v5l-.3.2h-4.9c0-.1,4.1,1.4,4.1,1.4l.2.5c-.6,2-1.1,3.7-1.6,5.2h3.5c-.1-4.5-.1-10-.1-17l.3-.4h5.5l.4.4v6.4l3.8-2.2h.3c1.7,2.9,2.3,4.5,3.1,7l-.2.5-4.6,2.8-.4-.2c-.6-2.3-1.2-4.3-2.1-6.4,0,3.1,0,6.2.1,9.3h7.2c0-.1.3.1.3.1v4.9l-.3.3h-7.1Zm-30.3-11.8v-4.6h-2.5v4.6h2.5Zm-2.5,5.4v4.8h2.5v-4.8h-2.5Zm0,10.2v5.3c.9-.2,1.7-.4,2.5-.6v-4.7h-2.5Zm19.8,2.4h-3.9v2h3.9v-2Zm-3.9,6.2v2.1h3.9v-2.1h-3.9Z"/>
        <path class="cls-1" d="m136.7,89.9c1.2-.4,2.4-.9,3.7-1.3v2.5c2-1,3.8-2.3,5.2-4h-5.6c0,0-.4-.2-.4-.2v-5.1l.4-.4h7.6c0,.1,17.3.1,17.3.1h7.8c0-.1.4.2.4.2v5.1l-.4.3h-7.8c0-.1-12.2-.1-12.2-.1-.3.5-.6,1-1,1.5h19.4c0-.1.4.2.4.2-.1,9-.8,14.5-1.7,16.6-1,2.2-3,3.2-7.9,3.2s-1-.1-1.2-.8l-2.1-5.2c-3,2.9-6.6,5-11,6.4-.2,0-.3.1-.5.1-.3,0-.5-.2-.9-.6l-3.4-3.6c7.5-2.5,12.3-5.3,15.7-11.4h-1.8c-3.8,5.5-8.5,7.9-14.1,9.8-.3.1-.5.1-.7.1-.3,0-.5-.1-.8-.4l-3.4-3.8c5.2-1.5,9.1-2.9,12.1-5.7h-2.6c-1.9,1.4-4.2,2.7-6.2,3.4-.2,0-.4,0-.5,0s-.5,0-.8-.4l-1.3-1.2c-3.1,1.4-6.9,2.9-11.8,4.3l-.4-.2-1.9-5.7.2-.5c2-.4,3.8-.9,5.6-1.4v-13h-4.8c0,.1-.3-.2-.3-.2v-5.5l.3-.3h4.9c0,.1,0-10.7,0-10.7l.3-.4h5.8l.4.3v10.9h4.4c0-.1.3.1.3.1v5.6l-.3.2h-4.4c0-.1,0,10.8,0,10.8Zm15.2-9.9h-7.2c0,.1-.4-.2-.4-.2l.2-5.7v-5.9l-.2-5.4.4-.4h7.2c0,.1,8.6.1,8.6.1h7.1c0-.1.5.2.5.2l-.2,5.4v5.9l.2,5.7-.4.3h-7.2c0-.1-8.6-.1-8.6-.1Zm9.2-12.9h-10v2h10v-2Zm-10,6.2v2.2h10v-2.2h-10Zm13.5,20.2c-1.4,3.2-3.2,6.2-5.6,8.6,1.2,0,2.3,0,3.3-.1,1,0,1.6-.4,1.8-1.5.2-.9.5-3.5.7-7h-.1Z"/>
        <path class="cls-1" d="m197.2,84c2.6-2.2,5-4.9,7-7.6,2.1-2.8,3.9-5.8,5.5-8.8h-10.4c0,.1-.4-.2-.4-.2v-5.8l.4-.4h8.1c0,.1,4.3.1,4.3.1v-9.5l.4-.4h6.1l.4.4v9.5h13.7c0-.1.3.2.3.2v5.8l-.3.4h-8.1c0-.1-3.3-.1-3.3-.1,3.1,6.2,7.2,11.4,13,16l-4.4,5.9c-.2.2-.4.4-.7.4s-.6-.2-.9-.5c-1.1-1.2-2.1-2.5-3-3.8v4.7l-.2.3-5.5-.2h-.5l.2,9.2h-7.3l.2-9.2h-.5l-5.7.2-.4-.3v-4.3c-1.1,1.4-2.2,2.7-3.4,3.9-.3.3-.6.4-.8.4s-.5-.1-.7-.4l-3.1-3.9v13.6h-7l.2-15.5v-5.6c-.6,1.5-1.2,2.4-1.9,3.7-.2.3-.4.5-.6.5s-.5-.2-.6-.6l-1.9-6.9c3.9-6.8,7-14.6,8.5-23.4l.4-.2,6.3,1.4.2.5c-1.2,4.6-2.4,8.6-3.8,12.1v18.4Zm14,.9h.5l.2-10.2c-1.6,3.6-3.5,7-5.9,10h5.1Zm12.9,0c-2.4-3.5-4.5-7.1-5.9-11.1l.2,11.2h5.7Z"/>
        <path class="cls-1" d="m253.1,93.7l.4.2c.6,2.3,1.1,4.5,1.4,7.2l-.2.4-2.9.7-.3-.3c-.2-2-.5-4.1-.9-6.1-.3,3.4-.8,6-1.3,7.9l-.4.2-3.6-.9v-.4c.5-3,1-6,1.2-9.2l.4-.3,3.5.6.2.4,2.4-.5Zm30.8-12.5h8c0-.1.4.2.4.2v4.2c-.1,0-.1,4.1-.1,4.1v4.4c.1,0-.2.5-.2.5l-5.7-.2h-.5c2.1,3.2,4.8,5.7,8.8,8l-3.7,5.5c-.2.3-.4.5-.5.5s-.4-.1-.7-.3c-3.2-2.4-6.4-5.9-8.3-9.5-2.1,4.2-5.6,7.3-9.2,9.6-.3.2-.5.3-.6.3s-.3-.1-.5-.4l-4.2-3.9c-.3,1-.6,1.6-1,2.1-.9,1-2.3,1.8-6,1.8h-1.2c-.6,0-.8-.1-1-.6l-2.2-5.7c1.4.1,3,.1,3.5.1,1.2,0,1.9-.2,2.3-.8.3-.4.5-1.2.6-3l-1.3.6h-.5c-.4-2-1.1-4.1-1.6-5.2l.2-.4,2-.8.4.2c.3.7.6,1.5.9,2.2,0-1,0-2.1,0-3.5h-14c0,.1-.4-.2-.4-.2l.2-6.4v-14.6l-.2-7.3.4-.4h4.9c0,.1,9.2.1,9.2.1h5.6c0-.1.4.1.4.1v5.1l-.4.3h-5.7c0-.1,0,2.5,0,2.5h4.1c0-.1.5.1.5.1v3c4.8-3.2,8.9-7.9,11.1-13.3h.5c0-.1,6,1.3,6,1.3v.4c0,.4-.2.8-.4,1.2,2.3,3.5,5.8,6.5,10.8,9.2l-4,5.1c-.2.3-.4.4-.6.4s-.4,0-.7-.3c-.4-.3-.8-.7-1.2-1v1.8l-.3.3h-3.8c0-.1,0,2.2,0,2.2Zm-27.6-10.5v-2.6h-2.6v2.6h2.6Zm0,7.6v-2.7h-2.6v2.7h2.6Zm-2.6,7.7h2.6v-2.9h-2.6v2.9Zm3.2,7.1l.4.2c.6,1.4,1.3,3.6,1.8,5.9l-.2.4-2.6.9-.4-.2c-.4-2.5-.9-4.4-1.5-6.1l.2-.4,2.3-.6Zm16.6-14.2l-.4-.3v-1.8c-.5.4-1,.8-1.5,1.1-.4.3-.8.4-1,.4s-.4,0-.7-.3l-3.5-3.7v1l-.4.3-4.2-.2v2.7h4.1c0-.1.5.1.5.1v4.6l-.4.3h-4.2c0-.1,0,2.7,0,2.7h6c0-.1.3.2.3.2-.1,8.7-.5,14-1.2,17.1,3.6-1.9,7.6-4.9,9-8.5v-.4c.1,0-.7,0-.7,0l-5.8.2-.4-.4.2-4.6v-8.2c-.1,0,.2-.3.2-.3h5.9c0,.1,1.9.1,1.9.1v-2.4h-4Zm1.6,6.9v4.3h2.1c.1-1.4.1-2.9.2-4.3h-2.2Zm9.6-11.7c-1.6-1.5-3-3.1-4.2-5-1.2,1.8-2.6,3.4-4.1,5h2.7c0,0,3.1,0,3.1,0h2.6Zm-.9,11.7c0,1.4-.1,2.9-.2,4.3h2.5v-4.3h-2.2Z"/>
        <path class="cls-1" d="m342.3,84.7c-1-1.7-2-3.2-3.4-4.7v-.5c.1,0,2.9-1.5,2.9-1.5h.5c1.7,1.8,3.2,3.8,4.4,6v.5c-.1,0-2.2,1.1-2.2,1.1-.7,8.9-3.5,16.9-8.9,23.6-4,5.1-9.6,8.9-17.2,12.2-.5.2-.7.3-1,.3s-.5-.2-1-.6l-6.1-4.9c8.6-2.9,14.1-6.3,18.2-11.3,3.2-3.9,5.3-8.2,6.3-13.1h-24.6c0,.1-.4-.1-.4-.1v-6.9l.4-.4h7.6c0,.1,24.6.1,24.6.1Zm2.2-7.3l2.8-1.5h.5c1.6,1.8,3,3.6,4.2,5.8v.5c0,0-3,1.5-3,1.5h-.5c-1.2-2.3-2.4-3.9-4.2-5.9v-.5Z"/>
        <path class="cls-1" d="m391.9,88.9h-29.8c0,.1-.4-.2-.4-.2v-7.2l.5-.3,7.2.2h22.3l7.7-.2.4.4v7.1l-.4.4h-7.5Z"/>
        <path class="cls-1" d="m447,102.4c-3.3-4.4-7.4-8.5-11.1-11.9-5.1,5.5-10.6,9.2-17.2,12.6-.5.2-.9.4-1.1.4s-.5-.1-.8-.4l-5.9-4.6c11.5-5.4,21.6-12.9,26.2-23.3h-19.4c0,.1-.4-.2-.4-.2v-6.8l.5-.3h7.5c0,.1,14.2.1,14.2.1l5.1-.2,3.1,3c.4.3.6.6.6.9s-.2.6-.5,1.2c-2.3,4.5-4.6,8.3-6.9,11.6,4.8,4,8.5,7.3,12.7,12v.5s-6,5.5-6,5.5h-.5Z"/>
        <path class="cls-1" d="m467.5,72.5l-1.6-6.6.2-.4c14-3.4,25.1-5.7,39.2-8.3l.5.2,1.4,6.7-.3.5c-5.6.4-10.4,1.4-13.5,3.9-4.7,3.8-7.2,8.3-7.2,13s1.9,5.9,4.9,6.8c2.8.9,6.8,1.1,12,1.1l.4.4-.4,7.6-.4.3c-6.2.1-11.7-.5-15.8-2.3-5-2.1-8.1-6.3-8.1-13.1s3.5-11.5,6.7-14.1c-4.9,1.2-10.3,2.6-17.4,4.6l-.5-.2Zm31.7.1l2.6-1.9h.5c1.9,1.5,3.6,3.2,5.1,5.3v.5s-2.8,1.9-2.8,1.9h-.5c-1.6-2-3-3.7-5-5.4v-.5Zm4.8-3.2l2.5-1.9h.5c1.9,1.5,3.5,3.1,5,5.1v.5c0,0-2.7,1.9-2.7,1.9h-.5c-1.6-2-2.9-3.5-4.9-5.2v-.5Z"/>
        <path class="cls-1" d="m529.2,64.6l6.8,1,.3.4c-.1,3-.7,6.1-2,11.3-1.2,4.5-1.9,10.2-1.9,14.1s0,2,.3,3.1c.2,1,.6,1.1,1.5.1s1.8-2,2.5-3.1l1.5.8c-2,5.6-2.4,7.6-2.6,11,0,2.2-1.4,3.3-3.3,3.4-1.6,0-3.1-1.1-4-2.2-1.6-2.2-2.9-6.2-2.9-11.9s.6-11.9,1.8-17.6c.8-3.7,1.4-7.2,1.5-10.2l.4-.2Zm35.1,39.2c-1.8-2.1-3.5-3.8-5-4.9-.9,4.7-4.4,6.7-9.7,6.7s-10-2.2-10-7.8,5-8,9.6-8c1.5,0,2,0,3.1.2-.1-3.2-.2-6.5-.4-10.2-3.5.2-7.1.3-10.5.4l-.4-.4v-6.1c-.1,0,.2-.3.2-.3,3.7,0,7.1-.1,10.5-.3-.1-2.5-.1-5.2-.1-8.1l.4-.5h6.6l.4.4c0,2.6,0,5.1,0,7.5,2-.2,4.2-.6,6.1-.9l.5.2.9,6.1-.3.4c-2,.4-4.5.7-7.2,1,0,4.5.2,8.8.5,12.5,4,1.6,6.8,3.8,9.2,6.2v.6s-4,5.2-4,5.2h-.6Zm-15.3-8.2c-2,0-3,.8-3,1.9s.8,1.7,3.1,1.7,3.3-1,3.1-3.1c-.9-.3-1.6-.5-3.2-.5Z"/>
      </g>
      <polyline class="cls-2" points="27.1 .2 .5 82.4 27.1 164.6"/>
      <polyline class="cls-2" points="611.7 164.6 638.3 82.4 611.7 .2"/>
    </g>
  </g>
</svg>