<?xml version="1.0" encoding="UTF-8"?>
<svg id="_レイヤー_2" data-name="レイヤー 2" xmlns="http://www.w3.org/2000/svg" viewBox="0 0 109 137.9">
  <defs>
    <style>
      .cls-1 {
        stroke: #221815;
      }

      .cls-1, .cls-2 {
        fill: none;
        stroke-linecap: round;
        stroke-linejoin: round;
        stroke-width: 1.4px;
      }

      .cls-2 {
        stroke: #52b6a7;
      }

      .cls-3 {
        fill: #fff;
      }

      .cls-4 {
        fill: #e84572;
      }

      .cls-5 {
        fill: #7f2583;
      }

      .cls-6 {
        fill: #65bbb1;
      }

      .cls-7 {
        fill: #1e65a9;
      }

      .cls-8 {
        fill: #221815;
      }

      .cls-9 {
        fill: #1c68ac;
      }
    </style>
  </defs>
  <g id="_レイヤー_1-2" data-name="レイヤー 1">
    <g>
      <path class="cls-6" d="m32.2,135.4l-1.5-8.2c27.3-5.1,38.2-13.8,42.5-20.3,3.6-5.3,2.9-9.5,2.9-9.5l8.2-1.7c.2.8,1.4,7.6-4.1,15.9-7.6,11.3-23.7,19.3-47.9,23.8"/>
      <path class="cls-6" d="m15.7,123.8l-1.5-8.2c.3,0,28-5.4,50.7-22.1l4.9,6.7c-24.3,17.9-52.9,23.4-54.1,23.6"/>
      <path class="cls-8" d="m32.2,127l-1.2-6.4c-.7-3.5-4.1-5.8-7.6-5.2-3.5.7-5.8,4.1-5.2,7.6l1.2,6.4,1.6,8.5,12.8-2.5-1.6-8.5Z"/>
      <path class="cls-8" d="m14.1,115.3l-1.2-6.4c-.7-3.5-4.1-5.8-7.6-5.2-3.5.7-5.8,4.1-5.2,7.6l1.2,6.4,1.6,8.5,12.8-2.5-1.6-8.5Z"/>
      <path class="cls-7" d="m46.4,28.9c-.1-6.5,1.7-12.5,4.1-18.4,1.2-2.8,3.2-8.9-1-10.3-3.8-1.3-10.4,1.5-15.4,16.7,0,0-9.1,24.3-5.8,46.6"/>
      <path class="cls-7" d="m46.4,28.9c3-11.3,13.1-10.3,16.6-5,4.2-7.2,12.6-6.5,15.7-2.1,1.1-1.1,2.6-1.8,4.2-2.2,7.1-1.7,14.3,2.3,17.3,8.9,8.2,18.4,14.7,47.2-.1,64-19.6,22.1-59.5,16-68.5-13.5-3.3-10.9-5-24.9-2.7-35.9,1-4.9,8.9-22.1,17.5-14.3"/>
      <polyline class="cls-1" points="46.6 67.5 53.8 68 47.5 64"/>
      <polyline class="cls-1" points="81.1 59.7 76.9 66.1 82.9 62.7"/>
      <path class="cls-3" d="m66.8,68c-1.3,3.8.7,8,4.6,9.3,3.8,1.3,8-.7,9.3-4.6,1.3-3.8-.7-8-4.6-9.3-3.8-1.3-8,.7-9.3,4.6"/>
      <path class="cls-8" d="m68.3,71.6c-.7,1.9.4,4,2.3,4.6,1.9.7,4-.4,4.6-2.3.7-1.9-.4-4-2.3-4.6-1.9-.7-4,.4-4.6,2.3"/>
      <path class="cls-3" d="m50.6,67.9c-1.3,3.8.7,8,4.6,9.3,3.8,1.3,8-.7,9.3-4.6,1.3-3.8-.7-8-4.6-9.3-3.8-1.3-8,.7-9.3,4.6"/>
      <path class="cls-8" d="m52.1,71.5c-.7,1.9.4,4,2.3,4.6,1.9.7,4-.4,4.6-2.3.7-1.9-.4-4-2.3-4.6-1.9-.7-4,.4-4.6,2.3"/>
      <polyline class="cls-1" points="74 82.2 66.8 86.8 58.8 81.6"/>
      <path class="cls-9" d="m44.5,34.7c-2.6,8-1.4,15.7,2.8,23.1,1.9,3.3,5,6.2,8.8,6.7,3.8.5,7.9-1.2,8.6-5"/>
      <path class="cls-2" d="m44.5,34.7c-2.6,8-1.4,15.7,2.8,23.1,1.9,3.3,5,6.2,8.8,6.7,3.8.5,7.9-1.2,8.6-5"/>
      <path class="cls-9" d="m61,26.8c-3.7,6-4.6,14-3.1,20.8,1.4,6.4,7,15.9,14.6,13.6,4.7-1.5,5.5-5.5,5.6-7.5"/>
      <path class="cls-2" d="m61,26.8c-3.7,6-4.6,14-3.1,20.8,1.4,6.4,7,15.9,14.6,13.6,4.7-1.5,5.5-5.5,5.6-7.5"/>
      <path class="cls-8" d="m46.1,17.1c0,2.6-2.1,4.6-4.6,4.6s-4.6-2.1-4.6-4.6,2.1-4.6,4.6-4.6,4.6,2.1,4.6,4.6"/>
      <polygon class="cls-8" points="43.5 17.4 32.3 6.4 29.1 23.1 43.5 17.4"/>
      <polygon class="cls-8" points="39.9 17.1 51.1 28.1 54.3 11.4 39.9 17.1"/>
      <path class="cls-5" d="m13.3,87c-9.2,21.5,18.3,32.9,36.3,31.5,10.6-.8,17.4-11.6,15.1-21.3-3.7-15.8-27.7-21.4-36.8-21-6.8.3-12,4.7-14.6,10.8m33.2,8c.8.6,1.8,1.1,2,2.1-.6,4-18.4-2.3-19.3-5.4-1.3-4.3,15.2,1.8,17.3,3.3"/>
      <path class="cls-4" d="m13.5,86.4c.2.2.4.5.8.7.7.5,1.8.8,2.2,1.5.4.7-.2,2-.4,2.7-.2.7-.8,1.7-.5,2.5.5,1.1,1.9.8,2.7,1.4,1.2,1,.2,3.8.4,5.1.3,2.5,2.8,4.6,5.3,5.8,2.5,1.2,3.2.2,5.1-.8,1.6-.8,3.3-1,5.1-.3,2,.8,2,3.3,4.3,3.8.9.2,1.6-.3,2.5-.3.9,0,1.7.2,2.7.6,1.9.8,3.5,1.7,5,2.9,1.7,1.4,2.8,1.9,4.9,1.5,1.6-.3,3.1-.9,4-2.1.9-1.2,1-3.1,2.2-4.1,1.3-1,3.1-.3,4.3-1.7.2-.3.4-.6.6-.9.5-2.5.6-5.1,0-7.6-1.1-4.7-4-8.5-7.8-11.6-.6-.5-1.3-.9-1.9-1.4-8.8-6-21.1-8.3-27.1-8-6.6.3-11.7,4.5-14.3,10.2m33,8.5c.8.6,1.8,1.1,2,2.1-.6,4-18.4-2.3-19.3-5.4-1.3-4.3,15.2,1.8,17.3,3.3"/>
      <path class="cls-5" d="m39.6,87.2c9.2,3,11.7,6.3,11.3,8.3-.4,2.4-2.5,2.3-2.9,2.4.3-.2.4-.5.5-.8-.2-1-1.1-1.5-2-2.1-2.1-1.5-18.6-7.6-17.3-3.3,0,.2.1.3.3.5-1.5-1-3-2.3-2.8-4,.3-3,8.7-2.3,13-.9"/>
      <path class="cls-9" d="m90.2,76.3s-14.4,11.2-25.8,13.8c-11.4,2.6-4.4,19.4,18.3,9.3,0,0,6.3-3.2,10.3-7.8"/>
      <path class="cls-2" d="m90.2,76.3s-14.4,11.2-25.8,13.8c-11.4,2.6-4.4,19.4,18.3,9.3,0,0,6.3-3.2,10.3-7.8"/>
      <path class="cls-9" d="m76,26.6c-3.7,6-3.6,11.3-2.1,18.2.9,4.1,3.1,8.4,6.3,11.2,4.4,3.7,11.5,3.2,12.6-3.1.6-3.1.9-6.5.2-9.6-.3-1.5-.9-3-2.2-3.9-2-1.3-4-.6-4.9,1.5-.7,1.7-.8,3.6-.4,5.4.3,1.2.7,2.5,1.6,3.4,1.9,1.8,2.9-.3,3.1-2,0-.7.3-3.7-1.2-3.1"/>
      <path class="cls-2" d="m76,26.6c-3.7,6-3.6,11.3-2.1,18.2.9,4.1,3.1,8.4,6.3,11.2,4.4,3.7,11.5,3.2,12.6-3.1.6-3.1.9-6.5.2-9.6-.3-1.5-.9-3-2.2-3.9-2-1.3-4-.6-4.9,1.5-.7,1.7-.8,3.6-.4,5.4.3,1.2.7,2.5,1.6,3.4,1.9,1.8,2.9-.3,3.1-2,0-.7.3-3.7-1.2-3.1"/>
    </g>
  </g>
</svg>