<?xml version="1.0" encoding="UTF-8"?>
<svg id="_レイヤー_2" data-name="レイヤー 2" xmlns="http://www.w3.org/2000/svg" viewBox="0 0 341.6 199.2">
  <defs>
    <style>
      .cls-1 {
        fill: #f9dd96;
      }

      .cls-2 {
        fill: #f1b22d;
      }

      .cls-3 {
        fill: #eaa51c;
      }

      .cls-4 {
        fill: #ebcb32;
      }

      .cls-5 {
        fill: #e9a828;
      }

      .cls-6 {
        fill: #f39a43;
      }

      .cls-7 {
        fill: #e73c71;
      }

      .cls-8, .cls-9 {
        fill: #65bbb1;
      }

      .cls-10 {
        fill: #221815;
      }

      .cls-11 {
        fill: #1c68ac;
      }

      .cls-9, .cls-12, .cls-13 {
        fill-rule: evenodd;
      }

      .cls-12 {
        fill: #efefef;
      }

      .cls-13 {
        fill: #edad23;
      }
    </style>
  </defs>
  <g id="_レイヤー_1-2" data-name="レイヤー 1">
    <g>
      <path class="cls-3" d="m302.6,171.1s0,0,0,0c0,0,0,0,0,0,0,0,0,0,0,0"/>
      <path class="cls-3" d="m185.6,64.9s0,0,0,0c0,0,0,0,0,0,0,0,0,0,0,0"/>
      <g>
        <path class="cls-11" d="m72.7,43.1c0,20.1-16.3,33.8-36.3,33.8S0,65.8,0,45.7,16.3,14.5,36.3,14.5s36.3,8.5,36.3,28.6"/>
        <path class="cls-5" d="m14.2,46.9s-.2-.1-.2,0c0,.1.1.4,0,.5,0,.1-.2.2-.3.3,0,.1,0,.3-.1.4,0,.2-.3.3-.3.5,0,.1.3.3.3.4,0,.3-.1.7,0,1,2.1.8,4.2,1.5,6.3,2.2,2.1.7,4.2,1.4,6.4,2.1,2.1.6,4.3,1.3,6.4,1.9,2.1.6,4.3,1.2,6.5,1.8,2.1.6,4.3,1.2,6.4,1.9,2.1.7,4.2,1.5,6.3,2.3.5.2.9.5,1.3.6.2,0,.5-.2.7-.2.2,0,.3.1.4.2,0,0,0,0,0,0,2.4.5,3-.5,3.5-3.7.2-1.5-.1-2.5-.9-3.4,0,0,.1,0,.1,0,0,0,0,0,0,0-.3-.4-.8-.6-1.3-.9,0,0-.2,0-.3,0-.4-.2-.7-.7-1.1-.9-.1,0-.3-.1-.4-.2-.4-.2-.9-.1-1.3-.3-.1,0-.3,0-.5-.1-.5-.2-.9-.6-1.4-.7-2.2-.8-4.5-1.4-6.8-2.1-2.3-.7-4.7-1-7-1.6-2.3-.6-4.6-1.2-7-1.7-2.3-.5-4.7-1-7-1.5-2.4-.5-4.7-.9-7-1.3-.8.7-1.4,1.5-1.9,2.5,0,0-.2,0-.2,0,0,0,0,0,0,.1,0,0,.2.2.2.2"/>
        <path class="cls-5" d="m14.6,35c.2,1.1.2,1.1.7,2.1.4.2,3,1.1,6.8,2.4,2,.7,4.4,1.5,6.8,2.4,2.2.8,4.5,1.7,6.8,2.5,2.3.8,4.7,1.6,6.9,2.3,2.5.8,4.8,1.7,6.9,2.3,3.9,1.1,6.5,1.6,6.9,1.4,1.1-1.7,1.5-2.2,2.1-3.5.2-.4.8-2.2.3-3.4-.2-.7-.4-2.2-1-2.5,0,0,0,.1,0,.1,0,0,0,0,0,0-2.1-.7-4.2-1.5-6.5-1.9-2.2-.4-4.4-.7-6.7-1-2.2-.3-4.4-.9-6.6-1.3-1.5-.3-4.2-.8-7.2-1.6-2.3-.6-4.8-1.3-7.1-1.9-3.2-.8-5.9-1.4-7.1-1.5-.4.7-1.8,2.4-2,3.2"/>
        <path class="cls-1" d="m57.7,41.1s0,0,0,0c0,0,0,0,0,0,0,0,0,0,0,0"/>
        <path class="cls-5" d="m19.4,25.7c0,0-.3,0-.3.2,0,.1,0,.3,0,.5,0,.1,0,.3,0,.5,0,.1-.3.2-.3.3,0,.2,0,.4,0,.6,0,0,0,.2,0,.3,0,.3.1.6.2,1,2.1.8,4.2,1.5,6.3,2.2,2.1.7,4.2,1.4,6.4,2,2.1.6,4.3,1.2,6.5,1.8,2.1.6,4.3,1.2,6.4,1.9,2.1.6,4.2,1.6,6.3,2.3,2.1.7,4.3,1.3,6.4,2.1.5.2,1,0,1.5.2.2,0,.4.2.6.3.1,0,.3.2.4.3,0,0,0,0,0,0,2.4.5,3.2-.6,3.6-3.8.6-4.2-3.7-5.1-7.1-6.3-2.2-.8-4.4-1.7-6.7-2.4-2.3-.7-4.6-1.4-6.9-1.9-2.3-.6-4.7-1-7-1.5-2.3-.5-4.7-.9-7-1.3-2.4-.5-4.7-.7-7-1.1-.8.7-1.7,1.2-2.2,2.2,0,0,.2,0,.2,0"/>
        <path class="cls-4" d="m12.4,36.6c0,.1,0,.2-.2.4-.1.3-.1.6-.2.9,1.5,1.6,3,3.3,4.6,4.8,1.6,1.5,3.3,3,5,4.4,1.7,1.5,3.5,2.8,5.2,4.2,1.7,1.4,3.4,2.9,5.1,4.3,1.7,1.5,3.4,2.9,5,4.4,1.7,1.5,3.2,3.1,4.8,4.7.4.4.7.7,1.1,1,.1.1.4,0,.5.2.1.1.4.1.5.2,0,0,0,0,0,0,2,1.4,3.1.9,4.8-1.8.8-1.3,1-2.5.7-3.6,0,0-.3,0-.3,0,0,0,0,0,0,0-.2-.5-.3-1-.5-1.4,0,0,0-.1-.1-.2-.3-.4-.6-.7-.9-1,0-.1,0-.3-.2-.4-.3-.3-.7-.6-1-.9-.1,0-.2-.2-.3-.3-.4-.4-.9-.6-1.3-.9-1.7-1.6-3.5-3.2-5.3-4.8-1.8-1.5-3.7-3-5.6-4.5-1.9-1.5-3.7-3-5.6-4.5-1.9-1.4-3.9-2.7-5.9-4.1-2-1.4-3.9-2.7-5.9-4-1,.3-2,.6-2.9,1.2,0,0,0,0,0,0,0,0,0,.2,0,.2,0,0,0,.1,0,.1,0,0,0,0,0,0-.1.1-.2.2-.3.3,0,0-.1.2-.2.3-.1.1-.4,0-.5.2,0,.1-.2.3-.2.4"/>
        <path class="cls-4" d="m14.1,29.1c.4.2,3.2,1.2,6.8,2.6,2,.8,4.2,1.6,6.7,2.6,2.1.8,4.4,1.7,6.7,2.6,2.3.9,4.5,1.8,6.7,2.6,2.4.9,4.8,1.6,6.8,2.3,3.7,1.3,6.5,2.4,6.9,2.4,1.1-1.1.9-1.8,1.5-2.7.2-.3.8-1.4.3-2.4-.3-.5-.3-1.8-.8-2.1,0,0,0,.2,0,.2h0c-2.1-.9-4.1-1.8-6.3-2.4-2.1-.6-4.3-1.1-6.5-1.6-2.2-.5-4.4-.7-6.5-1.3-1.4-.4-4-1.3-6.9-2.3-2.2-.8-4.6-1.9-6.8-2.6-3.1-1-5.8-1.8-7-1.9-.4.5-1.9,1.7-2.1,2.3,0,1,.2,1,.7,1.8"/>
        <path class="cls-2" d="m55.3,37s0,0,0,0c0,0,0,0,0,0,0,0,0,0,0,0"/>
      </g>
      <g>
        <path class="cls-13" d="m230.2,32.1l42.3-6.7-1.3,36.8h-.1c.6,4.1-5.8,6.1-13.9,7.4-7.3,1.2-13.5,1.7-15.1-1.6-.1-.2-.4-.8-.5-1.1l-11.3-34.8Z"/>
        <path class="cls-10" d="m265.4.7c-1.3-1.1-2.9-.6-4.4-.4-2.7.2-4.4.8-7,.7-1,0-3.9.1-4.6,1.2,0,0,0,.2-.1.3-.1.2-.2.5-.3.8l-.6,19c0,.4.3.8.7,1,.9.2,1.7.3,2.5.1.7-.1,1.4-.4,2.1-.8.3-.2.5-.5.5-.8l.6-15.6,10.4-2.1c1.2-1.4.8-2.7,0-3.4"/>
        <path class="cls-12" d="m274.8,24l-1.2-7.5-47.4,7.5,1.6,10.1,47.5-7.5c-.1-.9-.3-1.8-.5-2.6"/>
      </g>
      <g>
        <path class="cls-11" d="m268.9,141c0,20.1,16.3,33.8,36.3,33.8s36.3-11.1,36.3-31.2-16.3-31.2-36.3-31.2-36.3,8.5-36.3,28.6"/>
        <path class="cls-5" d="m327.7,144.6s-.2.1-.2.1c0,.1.4.2.4.3,0,.1,0,.3,0,.4,0,.1,0,.3.1.4,0,.2-.2.4-.2.5,0,.1.3.2.3.3,0,.3-.1.6-.2,1-2.1.8-4.1,1.6-6.3,2.4-2.1.7-4.3,1.3-6.4,2-2.1.6-4.3,1.2-6.5,1.8-2.1.6-4.3,1.3-6.4,1.9-2.1.6-4.3,1.4-6.4,2.1-2.1.7-4.3,1.3-6.4,2.1-.5.2-1,.2-1.4.4-.2,0-.3.4-.5.5-.1,0-.3,0-.5,0,0,0,0,0,0,0-2.4.5-3.3-.6-3.8-3.8-.2-1.5.3-2.7,1.1-3.5,0,0,.1,0,.1,0,0,0,0,0,0,0,.3-.4.6-.8,1.1-1,0,0,0-.2.1-.3.4-.2.9-.2,1.4-.4.1,0,.3,0,.4-.1.4-.2.7-.5,1.1-.6.1,0,.3-.1.4-.2.5-.2,1.1,0,1.5-.2,2.2-.8,4.5-1.5,6.8-2.2,2.3-.7,4.5-1.6,6.8-2.2,2.3-.6,4.6-1.1,7-1.6,2.3-.5,4.7-1,7-1.4,2.4-.5,4.7-.9,7.1-1.3.8.7,1.7,1.5,2.2,2.5,0,0-.2,0-.2,0,0,0,0,0,0,.1,0,0,.3,0,.3,0"/>
        <path class="cls-5" d="m327.2,133c-.2,1.1-.3,1.1-.8,2.1-.4.2-3.1,1.3-6.8,2.6-2,.7-4.4,1.5-6.8,2.4-2.2.7-4.6,1.3-6.9,2.1-2.3.8-4.7,1.5-6.9,2.2-2.5.8-4.9,1.4-7,2-3.9,1.1-6.6,2.1-7.1,1.9-1.1-1.7-1.1-2.4-1.7-3.7-.2-.4-1-2.1-.5-3.4.2-.7.5-2.1,1.1-2.4,0,0,0-.1,0-.1,0,0,0,0,0,0,2.1-.7,4.4-1,6.6-1.5,2.2-.4,4.4-.8,6.6-1.2,2.2-.3,4.5-.5,6.7-.9,1.5-.3,4.1-1.2,7.1-2,2.3-.6,4.8-1.4,7.1-2,3.2-.8,6-1.6,7.2-1.6.4.7,1.9,2.7,2.2,3.5"/>
        <path class="cls-1" d="m283.9,139s0,0,0,0c0,0,0,0,0,0,0,0,0,0,0,0"/>
        <path class="cls-5" d="m322.2,123.5c0,0-.1.3,0,.3,0,.1.3.2.4.3,0,.1.2.3.2.4,0,.1-.2.3-.2.4,0,.2,0,.4,0,.6,0,0,0,.2,0,.3,0,.3.1.7,0,1-2.1.8-4.1,1.6-6.3,2.3-2.1.7-4.3,1.3-6.4,2-2.1.6-4.3,1.3-6.4,2-2.1.6-4.3,1.2-6.5,1.8-2.1.6-4.4,1-6.5,1.6-2.1.7-4.2,1.5-6.3,2.3-.5.2-.9.6-1.3.7-.2,0-.4,0-.6,0-.1,0-.4,0-.5,0,0,0,0,0,0,0-2.4.5-3.2-.6-3.7-3.7-.6-4.2,3.7-5.4,7.1-6.6,2.3-.8,4.6-1.2,6.9-1.9,2.3-.7,4.6-1.2,6.9-1.8,2.3-.6,4.6-1.2,6.9-1.8,2.3-.5,4.6-1.1,7-1.6,2.4-.5,4.7-1.1,7.1-1.5.8.7,1.4,1.8,1.9,2.8,0,0,.2,0,.2,0"/>
        <path class="cls-4" d="m329,134.6c0,.1.2.2.2.3.1.3.4.6.5,1-1.5,1.6-3.3,3-5,4.5-1.6,1.5-3.3,3-5,4.5-1.7,1.5-3.3,3-5,4.5-1.7,1.4-3.4,2.9-5.1,4.4-1.7,1.5-3.4,2.9-5.1,4.4-1.7,1.5-3.4,2.9-5,4.5-.4.4-.8.7-1.1,1-.1.1-.2.3-.3.4-.1.1-.2.4-.4.5,0,0,0,0,0,0-2,1.4-3.2.7-4.9-2-.8-1.3-.7-2.4-.3-3.5,0,0-.3,0-.3,0,0,0,0,0,0,0,.2-.5.5-.9.8-1.3,0,0,.1-.1.2-.2.3-.4.5-.7.8-1.1.1-.1.3,0,.4-.2.3-.3.6-.7.9-1,.1,0,.2-.2.3-.3.4-.4.6-.8,1-1.2,1.7-1.6,3.5-3.2,5.4-4.7,1.8-1.5,3.6-3.1,5.5-4.6,1.9-1.5,3.8-2.8,5.8-4.3,1.9-1.4,3.8-2.9,5.7-4.3,2-1.4,3.9-2.8,5.9-4.1,1,.3,2,.9,2.9,1.6,0,0,0,0,0,0,0,0,.1,0,.2,0,0,0,.2,0,.2,0,0,0,0,0,0,0,.1.1.2.2.4.3,0,0,.2.2.2.2.1.1,0,.4.1.5,0,.1.2.3.2.4"/>
        <path class="cls-4" d="m327.1,126.8c-.4.2-2.8,1.4-6.4,2.9-2,.8-4.2,1.7-6.6,2.7-2.1.8-4.4,1.7-6.7,2.6-2.3.9-4.6,1.6-6.7,2.5-2.4.9-4.7,1.9-6.7,2.6-3.7,1.3-6.3,1.9-6.7,1.8-1.1-1.1-1.4-1.4-2-2.3-.2-.3-.8-1.7-.3-2.7.3-.5.6-1.6,1.2-1.9,0,0,0-.2,0-.2h0c2.1-.7,4.2-1.2,6.4-1.8,2.1-.6,4.3-1.1,6.4-1.7,2.2-.5,4.2-1.4,6.3-2,1.4-.4,4-1.3,6.9-2.3,2.2-.8,4.8-1.4,7-2.1,3.1-1,5.8-2,6.9-2.2.4.5,1.6,1.8,1.8,2.4-.1.9-.3.8-.8,1.6"/>
        <path class="cls-2" d="m286.3,134.9s0,0,0,0c0,0,0,0,0,0,0,0,0,0,0,0"/>
      </g>
      <g>
        <path class="cls-11" d="m232.1,137.6c0,40.1-29.7,61.6-69.8,61.6s-78.3-29.7-78-69.8c.3-51.9,43.5-72.5,83.5-72.5s64.3,40.7,64.3,80.8"/>
        <path class="cls-6" d="m214.2,123.3c0,.8,0,1.7,0,2.5,0,27.5-24.5,49.7-54.7,49.7s-54.7-22.3-54.7-49.7,24.5-49.7,54.7-49.7,25.7,4.4,35.2,11.7c0,0,4.5-4.6,4.5-4.6.5-.5-9.8-5.6-10.3-5.8-4.8-2-9.7-3.7-14.7-5.1-9.8-2.6-20.2-3.7-30.1-1.4-14.5,3.4-26.5,13.3-37.5,23.4-4.5,4.1-9.1,8.6-10.4,14.6-1.3,5.8,1.1,11.7.1,17.6-.9,5.6-.9,10.6-.4,16.3,1.3,16,20.6,33.7,34.8,39.4,16.5,6.6,38.4,6.7,55.1.8,3.9-1.4,8.1-2.4,11.4-4.8,2.4-1.8,3.6-4.4,5.1-6.8,1.7-2.8,3.9-4.4,6.5-6.3,8.5-6.1,13.9-16.1,15-26.5.3-2.6.2-5.2,0-7.8,0-1.3.7-5.3,0-6.3-1.1-1.5-7.7-.9-9.6-1"/>
        <path class="cls-4" d="m194,87.8c-.1-1.3-1.8-1.9-2.9-2.7-3-2.1-6.2-3.9-9.4-5.6-6.9-3.4-14.4-5.5-22.1-5.5-30.2,0-56.8,24.4-56.8,51.8s26.6,51.8,56.8,51.8,56.8-22.3,56.8-49.7c0-1.3-1.9-4.3-3-4.6-1.4-.4-3.5.1-5,.1-1.8,0-3.6,0-5.3,0-6.9-.1-13.7-.6-20.6-1.3-4.4-.4-9.2-.3-13.5-1.3-1.5-.3-3.3-1.1-4-2.5-.8-1.8.8-2.8,2.1-3.8,6.9-5.4,12.6-12,19.3-17.5,1.4-1.2,2.9-2.3,4.2-3.7,1.1-1.2,3.1-3.4,3.4-5,0-.2,0-.4,0-.5"/>
        <path class="cls-7" d="m128.5,139.3c-2.9,0-5.6.8-7.5,2.6-1.9,1.9-2.8,4.6-2.8,7.5s.8,5.6,2.8,7.5c1.9,1.8,4.7,2.6,7.5,2.6s5.6-.8,7.5-2.6c1.9-1.9,2.8-4.6,2.8-7.5s-.8-5.6-2.8-7.5c-1.9-1.8-4.7-2.6-7.5-2.6"/>
        <path class="cls-7" d="m201.3,125.8c-2.9,0-5.6.8-7.5,2.6-1.9,1.9-2.8,4.6-2.8,7.5s.8,5.6,2.8,7.5c1.9,1.8,4.7,2.6,7.5,2.6s5.6-.8,7.5-2.6c1.9-1.9,2.8-4.6,2.8-7.5s-.8-5.6-2.8-7.5c-1.9-1.8-4.7-2.6-7.5-2.6"/>
        <path class="cls-7" d="m132.9,87.2c-2.9,0-5.6.8-7.5,2.6-1.9,1.9-2.8,4.6-2.8,7.5s.8,5.6,2.8,7.5c1.9,1.8,4.7,2.6,7.5,2.6s5.6-.8,7.5-2.6c1.9-1.9,2.8-4.6,2.8-7.5s-.8-5.6-2.8-7.5c-1.9-1.8-4.7-2.6-7.5-2.6"/>
        <path class="cls-7" d="m164,122.4c-2.9,0-5.6.8-7.5,2.6-1.9,1.9-2.8,4.6-2.8,7.5s.8,5.6,2.8,7.5c1.9,1.8,4.7,2.6,7.5,2.6s5.6-.8,7.5-2.6c1.9-1.9,2.8-4.6,2.8-7.5s-.8-5.6-2.8-7.5c-1.9-1.8-4.7-2.6-7.5-2.6"/>
        <path class="cls-9" d="m147.1,129.2c-3.4,0-6.7.9-9,3.2-2.3,2.2-3.3,5.5-3.3,9s1,6.7,3.3,9c2.3,2.2,5.6,3.2,9,3.2s6.7-1,9-3.2c2.3-2.2,3.3-5.5,3.3-9s-1-6.7-3.3-9c-2.3-2.2-5.6-3.2-9-3.2m0,18.9c-1.8,0-3.3-1.2-4.5-2.3-1.2-1.2-2.4-2.7-2.4-4.5s1.2-3.3,2.4-4.5c1.2-1.2,2.7-2.3,4.5-2.3s3.3,1.2,4.5,2.3c1.2,1.2,2.4,2.6,2.4,4.5s-1.2,3.3-2.4,4.5c-1.2,1.2-2.7,2.3-4.5,2.3"/>
        <path class="cls-9" d="m193.5,142.4c-3.4,0-6.7.9-9,3.2-2.3,2.2-3.3,5.5-3.3,9s1,6.7,3.3,9c2.3,2.2,5.6,3.2,9,3.2s6.7-1,9-3.2c2.3-2.2,3.3-5.5,3.3-9s-1-6.7-3.3-9c-2.3-2.2-5.6-3.2-9-3.2m0,18.9c-1.8,0-3.3-1.2-4.5-2.3-1.2-1.2-2.4-2.7-2.4-4.5s1.2-3.3,2.4-4.5c1.2-1.2,2.7-2.3,4.5-2.3s3.3,1.2,4.5,2.3c1.2,1.2,2.4,2.6,2.4,4.5s-1.2,3.3-2.4,4.5c-1.2,1.2-2.7,2.3-4.5,2.3"/>
        <path class="cls-9" d="m147.1,89.6c-3.4,0-6.7.9-9,3.2-2.3,2.2-3.3,5.5-3.3,9s1,6.7,3.3,9c2.3,2.2,5.6,3.2,9,3.2s6.7-1,9-3.2c2.3-2.2,3.3-5.5,3.3-9s-1-6.7-3.3-9c-2.3-2.2-5.6-3.2-9-3.2m0,18.9c-1.8,0-3.3-1.2-4.5-2.3-1.2-1.2-2.4-2.7-2.4-4.5s1.2-3.3,2.4-4.5c1.2-1.2,2.7-2.3,4.5-2.3s3.3,1.2,4.5,2.3c1.2,1.2,2.4,2.6,2.4,4.5s-1.2,3.3-2.4,4.5c-1.2,1.2-2.7,2.3-4.5,2.3"/>
        <path class="cls-7" d="m168.5,140.7c4.3,0,7.9,2.2,10.7,4.9,2.8,2.7,5.1,6.3,5.1,10.6s-2.3,7.8-5.1,10.6c-2.8,2.7-6.4,4.9-10.7,4.9s-7.9-2.2-10.7-4.9c-2.8-2.7-5.1-6.3-5.1-10.6s2.3-7.8,5.1-10.6c2.8-2.7,6.4-4.9,10.7-4.9"/>
        <path class="cls-7" d="m122.4,106.7c4.3,0,7.9,2.2,10.7,4.9,2.8,2.7,5.1,6.3,5.1,10.6s-2.3,7.8-5.1,10.6c-2.8,2.7-6.4,4.9-10.7,4.9s-7.9-2.2-10.7-4.9c-2.8-2.7-5.1-6.3-5.1-10.6s2.3-7.8,5.1-10.6c2.8-2.7,6.4-4.9,10.7-4.9"/>
        <path class="cls-7" d="m166.5,74.5c-4.3,0-8.3,1.1-11.1,3.8-2.8,2.7-4.1,6.8-4.1,11s1.2,8.3,4.1,11c2.8,2.7,6.9,3.8,11.1,3.8s8.3-1.1,11.1-3.8c2.8-2.7,4.1-6.8,4.1-11s-1.2-8.3-4.1-11c-2.8-2.7-6.9-3.8-11.1-3.8"/>
        <path class="cls-8" d="m189.5,131c-.2-.3,0-.8-.2-1-.2-.2-.7-.1-1-.3-.7-.5-1.4-1.2-2.3-1.3-.9,0-1.7.5-2.5.7-2.3.7-4.3,1.5-5.6,3.1-1.4,1.5-2,3.7-2.8,5.8-.2.5-1.4,3.3-2.2,6.3-.8,3.2-1.2,6.2-.9,6.3,2.3.5,4.8.8,7,.2,2.3-.6,4.2-2.1,6-3.6,1.8-1.5,3.6-3.2,4.5-5.4.9-2.2,1-4.6.9-7,0-.7.3-1.4.2-2.1-.2-.7-.8-1.2-1.2-1.7"/>
        <path class="cls-8" d="m156.6,112.3c-.2-.3,0-.8-.2-1-.2-.2-.7-.1-1-.3-.7-.5-1.4-1.2-2.3-1.3-.9,0-1.7.5-2.5.7-2.3.7-4.3,1.5-5.6,3.1-1.4,1.5-2,3.7-2.8,5.8-.2.5-1.4,3.3-2.2,6.3-.8,3.2-1.2,6.2-.9,6.3,2.3.5,4.8.8,7,.2,2.3-.6,4.2-2.1,6-3.6,1.8-1.5,3.6-3.2,4.5-5.4.9-2.2,1-4.6.9-7,0-.7.3-1.4.2-2.1-.2-.7-.8-1.2-1.2-1.7"/>
        <path class="cls-8" d="m128.8,93.3c-.2-.3,0-.8-.2-1-.2-.2-.7-.1-1-.3-.7-.5-1.4-1.2-2.3-1.3-.9,0-1.7.5-2.5.7-2.3.7-4.3,1.5-5.6,3.1-1.4,1.5-2,3.7-2.8,5.8-.2.5-1.4,3.3-2.2,6.3-.8,3.2-1.2,6.2-.9,6.3,2.3.5,4.8.8,7,.2,2.3-.6,4.2-2.1,6-3.6,1.8-1.5,3.6-3.2,4.5-5.4.9-2.2,1-4.6.9-7,0-.7.3-1.4.2-2.1-.2-.7-.8-1.2-1.2-1.7"/>
        <path class="cls-8" d="m136.8,150.4c.2-.3.7-.3.9-.5.2-.2.1-.8.4-1,.7-.5,1.7-.4,2.6-.4.9,0,1.8-.4,2.6-.1,2.3.7,3.8,2.3,5.2,3.8,1.4,1.5,2.8,3.2,3.6,5.4.2.5.6,3.6,1.3,6.5.8,3.2,1.7,6.6,1.4,6.6-2.3.5-4.7,0-7-.7-2.3-.6-4.6-1.3-6.4-2.8-1.8-1.5-2.9-3.8-3.8-5.9-.9-2.2-1.9-4.5-1.8-6.8,0-.7.6-1.3.7-2,.2-.7,0-1.5.3-2.1"/>
        <path class="cls-8" d="m154.3,87.2c.2-.3.7-.3.9-.5.2-.2.1-.8.4-1,.7-.5,1.7-.4,2.6-.4.9,0,1.8-.4,2.6-.1,2.3.7,3.8,2.3,5.2,3.8,1.4,1.5,2.8,3.2,3.6,5.4.2.5.6,3.6,1.3,6.5.8,3.2,1.7,6.6,1.4,6.6-2.3.5-4.7,0-7-.7-2.3-.6-4.6-1.3-6.4-2.8-1.8-1.5-2.9-3.8-3.8-5.9-.9-2.2-1.9-4.5-1.8-6.8,0-.7.6-1.3.7-2,.2-.7,0-1.5.3-2.1"/>
      </g>
    </g>
  </g>
</svg>