<?xml version="1.0" encoding="UTF-8"?>
<svg id="_レイヤー_2" data-name="レイヤー 2" xmlns="http://www.w3.org/2000/svg" viewBox="0 0 431.3 373.3">
  <defs>
    <style>
      .cls-1 {
        fill: #f9dd96;
      }

      .cls-2 {
        fill: #0083c9;
      }

      .cls-3 {
        fill: #f1b22d;
      }

      .cls-4 {
        fill: #eaa51c;
      }

      .cls-5 {
        fill: #ebcb32;
      }

      .cls-6 {
        fill: #fff;
      }

      .cls-7 {
        fill: #e9a828;
      }

      .cls-8 {
        fill: #edab23;
      }

      .cls-9, .cls-10 {
        fill: #efefef;
      }

      .cls-11 {
        fill: #e73c71;
      }

      .cls-12 {
        fill: #65bbb1;
      }

      .cls-13 {
        fill: #221815;
      }

      .cls-14 {
        fill: #1c68ac;
      }

      .cls-10, .cls-15 {
        fill-rule: evenodd;
      }

      .cls-15 {
        fill: #edad23;
      }

      .cls-16 {
        fill: none;
        stroke: #e9c72c;
        stroke-linecap: round;
        stroke-linejoin: round;
        stroke-width: 2.3px;
      }
    </style>
  </defs>
  <g id="_レイヤー_1-2" data-name="レイヤー 1">
    <g>
      <g>
        <path class="cls-14" d="m156,293.2c8.5,33.1-15.6,67.8-53.9,77.7-38.3,9.8-78.2-11-84.7-44.6-8.1-42,18.1-65.4,56.4-75.2,38.3-9.8,73.7,9,82.2,42.1"/>
        <path class="cls-4" d="m36.7,356.5s0,0,0,0c0,0,0,0,.1,0,0,0,0,0-.1,0"/>
        <path class="cls-7" d="m69.7,303.8s-.2,0-.2,0c0-.2-.2-.3-.3-.5,0-.1,0-.3,0-.5,0-.1-.4-.1-.5-.2-.1-.1-.3-.2-.4-.4,0,0,0-.4,0-.5-.3-.2-.7-.5-1.1-.7-1.9,1-3.6,2.4-5.5,3.5-1.8,1.1-3.8,2-5.7,3.2-1.8,1.2-3.5,2.5-5.3,3.7-1.8,1.2-3.4,2.6-5.2,3.8-1.8,1.2-3.8,2.1-5.6,3.3-1.8,1.2-3.5,2.5-5.3,3.7-1.8,1.1-3.7,2.3-5.5,3.4-.5.3-1.1.5-1.5.7-.2.1-.3.3-.5.5-.1.1-.4.1-.5.2,0,0,0,0,0,0-2.2,1.7-1.7,3.1.7,5.8,1.1,1.3,2.3,1.9,3.6,1.9,0,0,0-.4,0-.4,0,0,0,.1,0,.1.6,0,1.2.1,1.7,0,0,0,0-.3.2-.3.5-.2,1-.3,1.4-.5.1,0,.3-.2.4-.2.4-.2.8-.6,1.2-.8.1,0,.4,0,.5-.1.5-.3,1.1-.5,1.5-.8,1.9-1.1,3.7-2.5,5.6-3.7,1.9-1.2,3.7-2.6,5.5-3.8,1.8-1.3,3.7-2.5,5.5-3.8,1.8-1.3,3.5-2.8,5.3-4.2,1.8-1.4,3.7-2.6,5.4-4,1.7-1.4,3.4-2.9,5.1-4.4,0-1.2,0-2.4-.6-3.5,0,0,0,0,0,0,0,0-.2,0-.2,0,0,0,.3-.2.3-.2"/>
        <path class="cls-7" d="m79.2,312.9c-1.1-.6-1.1-.6-2.3-.9-.5.2-2.8,1.2-6.2,3.1-1.8,1-3.8,2.3-6,3.6-1.9,1.1-3.9,2.4-6,3.6-2,1.2-3.9,2.6-5.9,3.8-2.1,1.3-4,2.7-5.8,3.9-2.2,1.4-4.2,2.6-5.9,3.8-3.2,2.2-5.6,3.7-5.7,4.2.6,2.2,1.3,2.7,2,4.1.2.5,1.1,2.3,2.5,2.8.7.3,2.1,1,2.8.7,0,0,0,0,0,0,0,0,.2.4.2.4,2.2-1.3,4-3.1,6-4.7,2-1.6,4-3.1,5.9-4.7,1.9-1.7,3.7-3.5,5.6-5.1,1.1-.9,3-2,5.1-3.5,1.6-1.1,3.3-2.4,5-3.6,1.8-1.2,3.5-2.5,5.1-3.6,2.3-1.6,4-3,4.8-3.8-.3-.9-.8-3.3-1.3-4.1"/>
        <path class="cls-1" d="m42.7,345.7s0,0,0,0c0,0,0,0,.1,0,0,0,0,0-.1,0"/>
        <path class="cls-8" d="m75.7,336.1c2.3-1.9,4.1-3.2,4.5-3.6-.4.2-2.2,1.6-4.5,3.6"/>
        <path class="cls-7" d="m84,323.8c0,0,0-.2-.1-.3,0-.1-.2-.2-.3-.4,0-.1,0-.4-.2-.5,0-.1-.5,0-.6,0-.1-.2-.3-.3-.5-.5,0,0,0-.3,0-.4-.3-.2-.5-.3-.9-.6-1.9,1-3.9,1.9-5.7,3-1.8,1.1-3.6,2.3-5.5,3.5-1.8,1.2-3.6,2.4-5.4,3.6-1.8,1.2-3.6,2.4-5.4,3.6-1.8,1.2-3.4,2.6-5.3,3.8-1.8,1.2-3.6,2.4-5.4,3.6-1.8,1.1-3.7,2.2-5.6,3.3-.5.3-1.1.3-1.6.6-.2.1-.4.3-.6.4-.1.1-.2.4-.3.5,0,0,0-.1,0-.1-2.2,1.7-1.8,3.4.6,6,1.6,1.8,3.6,1.9,5.5,1.3,1.8-.6,3.5-2,5.1-3,1.9-1.2,3.8-2.3,5.7-3.5,1.9-1.2,3.9-2.2,5.7-3.5,1.8-1.3,3.5-2.9,5.3-4.2,1.8-1.3,3.8-2.5,5.5-3.8,1.8-1.4,3.4-2.9,5.2-4.3,1.7-1.4,3.4-2.9,5.1-4.3,0-1.2-.1-2.4-.6-3.6,0,0,.1,0,.1,0"/>
        <path class="cls-5" d="m79.3,310c0-.1-.2-.2-.2-.4-.1-.3-.2-.6-.4-.9-2.1.2-4.2.4-6.4.7-2.1.3-4.3.6-6.4.9-2.1.3-4.3.5-6.4.9-2.1.4-4.2.8-6.4,1.1-2.1.4-4.3.5-6.4.9-2.1.3-4.3.8-6.4,1.1-2.1.3-4.3.6-6.4.8-.6,0-1.2,0-1.7,0-.2,0-.4,0-.6,0-.2,0-.5.1-.6.2,0,0,.1.4.1.4-2.7.7-3.1,2-2,5.5.5,1.6,1.5,2.7,2.7,3.2,0,0,0-.2,0-.2,0,0,0,0,0,0,.5.2,1,.4,1.6.5,0,0,.2.1.3.1.5,0,1,0,1.5,0,.2,0,.3.1.5,0,.5,0,.9-.4,1.4-.5.2,0,.3.1.5.1.6,0,1.2,0,1.8,0,2.2-.3,4.4-.7,6.6-1,2.2-.3,4.4-1,6.6-1.4,2.2-.4,4.5-.5,6.7-1,2.2-.5,4.3-1.2,6.5-1.7,2.2-.5,4.3-1.2,6.5-1.8,2.2-.6,4.3-1.1,6.5-1.7.5-1.1.8-2.2.8-3.5,0,0,.2,0,.2,0,0,0-.3-.1-.3-.1,0,0,.3,0,.3-.1,0,0-.3,0-.3,0,0-.2.3-.4.3-.6,0-.1,0-.3,0-.4,0-.2-.3-.3-.3-.5,0-.2,0-.3-.2-.5"/>
        <path class="cls-5" d="m84.9,311.1c0-.1,0-.3-.1-.4-.2-.3-.6-.2-.9-.5-2,.6-4.2.9-6.2,1.6-2,.7-4,1.6-6,2.4-2,.8-3.9,1.7-6,2.5-2,.8-4.1,1.3-6.1,2.1-2,.8-3.9,1.7-6,2.5-2,.8-4.1,1.4-6.1,2.1-2,.7-4,1.7-6,2.4-.6.2-1.2.1-1.6.3-.2,0-.5.1-.7.2-.2,0-.1.6-.3.6,0,0-.2-.3-.2-.3-2.5,1.3-2.5,2.9-.7,6.1.9,1.5,2.2,2.1,3.4,2.3,0,0,0,0,0,0,0,0,0,.1,0,.1.5,0,1.1,0,1.7-.1,0,0,.2,0,.3-.1.5,0,1,0,1.5-.2.2,0,.4,0,.6,0,.4-.1.9-.3,1.3-.5.2,0,.4,0,.6-.2.5-.2,1.1-.3,1.6-.5,2.1-.7,4.1-1.9,6.1-2.7,2.1-.8,4.2-1.5,6.3-2.4,2.1-.9,4.1-1.7,6.2-2.6,2-.9,4.1-1.8,6.1-2.8,2-1,3.9-2.3,5.8-3.3,2-1,3.9-2.1,5.9-3.1.2-1.2.5-2.2.2-3.5,0,0,0,0,0,0,0,0,0,0,0-.1,0,0,0,0,0,0,0,0,.2,0,.2,0,0,0,0,0,0,0,0-.2-.3-.3-.3-.4,0-.1-.1-.3-.2-.4,0-.1-.2-.2-.2-.4,0-.2,0-.5,0-.7"/>
        <path class="cls-5" d="m87.8,320c-1.2-.4-1.3,0-2.5-.1-.4.3-2.2,2.1-5,4.8-1.5,1.4-3.2,3-5.1,4.8-1.6,1.6-3.4,3-5.1,4.7-1.6,1.6-3.1,3.5-4.8,5.2-1.7,1.7-3.5,3.2-5.1,4.8-1.8,1.9-3.4,3.6-4.8,5.1-2.6,2.9-4.1,4.9-4.1,5.4,1.1,2,1.6,2.5,2.6,3.7.3.4,1.7,1.9,3.2,2.1.8,0,2.3.6,2.9.2,0,0,0,0,0,0,0,0,.2.2.2.2,1.8-1.8,3.2-3.9,4.8-5.9,1.5-2,3-4.1,4.4-6.2,1.5-2.1,3.2-4,4.7-6,.8-1.1,2.1-3,3.8-4.9,1.3-1.5,2.8-3,4.2-4.6,1.4-1.6,2.9-3.2,4.2-4.6,1.8-2.1,3.3-4,3.8-4.9-.5-.8-1.7-3.2-2.4-3.9"/>
        <path class="cls-1" d="m60,360.6s0,0,0,0c0,0,0,0,.1,0,0,0,0,0-.1,0"/>
        <path class="cls-5" d="m84.7,316.9c-.5.2-2.9,1.3-6.3,3.1-1.8.9-3.8,2.2-6,3.4-1.9,1-4,2.1-6.1,3.2-2,1.1-3.9,2.4-5.9,3.5-2.1,1.2-4.1,2.4-6,3.5-2.2,1.2-4.3,2.4-6,3.4-3.3,1.9-5.6,3.2-5.9,3.6.2,1.7.7,2.1,1.1,3.3.1.4.7,1.7,1.9,2,.6.2,1.7,1,2.4.7,0,0,.1.2.1.2h0c2.2-1.1,4.2-2.7,6.2-4.1,2.1-1.4,4.2-2.7,6.2-4.2,2-1.5,4.1-2.9,6.1-4.3,1.1-.8,2.9-2,5.1-3.4,1.6-1,3.5-2,5.3-3.1,1.8-1.1,3.5-2.4,5.1-3.4,2.4-1.5,4.2-2.7,5-3.4-.1-.7-.2-2.6-.5-3.2-.8-.7-.9-.6-1.9-.8"/>
        <path class="cls-3" d="m48,346.5s0,0,0,0c0,0,0,0,0,0,0,0,0,0,.1,0"/>
        <path class="cls-7" d="m134.5,332.4c-.3,2.3-.8,4.2-2,5.8-1.2,1.6-2.8,3.1-5.2,3.6-2.4.5-4.9.4-7.3.6-2.4.2-4.9,0-7.3,0-2.4,0-4.9,0-7.3-.2-2.4-.2-4.9,0-7.3-.2-2.4-.2-4.8-.8-7.2-1-2-.2-4-.4-6.1-.4-2,0-4-.2-6.1-.3-2-.1-3.9-.4-5.9-.9-2.3-.6-5.2-.8-7.4-1.7-2.5-1-4.4-2.5-4.5-5.4,0-2.3.1-4.4.2-6.2.1-2.4.4-4.4,1-6.1.7-2,1.8-3.6,3.6-4.9,1.4-1.1,3.3-1.9,5.7-2.6,2.2-.6,4.6-1.4,7.2-1.8,2.3-.4,4.8-.8,7.3-1.1,2.4-.3,4.9,0,7.4-.2,2.5,0,5-.7,7.4-.6,2.6,0,5,.5,7.4.8,2.6.4,5.1.9,7.3,1.5,1.5.5,3.3,1.6,5.5,2.5,1.8.8,3.8,1.4,5.5,2.4,2,1.1,3.8,2.2,5.1,3.2,3.5,2.7,2.3,4.2,3.2,8.4.3,1.6.2,3.2,0,4.8"/>
        <path class="cls-12" d="m125.1,309.8c4.4,0,4.5.6,8.1,3.2,3,2.2,3.6,4.8,1.8,5.5-1.8.7-2.2,1.2-2.6,2.5-.4,1.2-.5,3.1-4.5,3-4-.2-6.3,1.6-8.4,3.4-2,1.8-5,2.2-8.2,1.6-1.7-.3-3.6-.7-5.6-.7-1.7,0-3.3.6-5.2,1.8-4,2.5-7,1-8.8.1-1.1-.5-3-1.7-5.3-2-1.7-.2-3.7.2-5.6,1.1-4.5,2.1-7.6,1.5-8.5-.4-.9-1.9-3.3-3.2-7.7-2.9-4.4.3-7.2-1.4-6.8-3.8.4-2.4-2.9-.9-3.2-3-.2-1.4-.5-4.1,2.5-5.9,1.4-.8,3.6-1.4,6.7-1.7,1.5-.1,3.8-.2,6.8-.3,2,0,4.3-.5,6.8-.6,2.2,0,4.5.3,6.8.2,2.2,0,4.5,0,6.8,0,2.3,0,4.6-.4,6.8-.4,2.3,0,4.6,0,6.8,0,2.4,0,4.7-.5,6.8-.5,2.5,0,4.8-.3,6.8-.3,4.2,0,3.4,0,6.8,0"/>
        <path class="cls-11" d="m65.5,315.3c1.9,1.7,4.3,2.4,6.8,3.1,3,.8,6.1,1.3,9.1,2,2.4.6,4.9.9,7.4,1,2.5.2,5,.2,7.5.2,2.5,0,5,.6,7.5.7,2.5.1,4.9,0,7.4.2,2.5.2,4.9.3,7.3.3,2.4,0,4.9.3,7.4,0,1.7-.2,3.9-.1,5.3-1.3,1-.9,1.4-2.9,1.7-5.4.2-1.9.7-4,.6-5.9-.2-2.5-.6-4.8-1.2-5.8.3,0-3.4,0-7.7-.2-2.3-.1-4.9-.7-7.5-.9-2.8-.2-5.5-.2-7.5-.4-2.4-.3-4.8-.2-7.2-.5-2.4-.3-4.7-1.2-7.1-1.6-2.4-.4-4.8-.4-7.2-.9-1.9-.4-3.8-.6-5.7-1-1.9-.4-3.7-1.1-5.6-1.5-2.5-.6-4.9-1.3-7.4-1.8-3.6-.7-6.9.4-7.5,3.7-.3,1.7-.2,5.1.3,8.4.6,3.3,1.9,6.4,3.3,7.6"/>
        <path class="cls-5" d="m59.7,301.9c.6-1.7-1.7-2.8-2.1-4.6-.5-2.5,1.9-7,4.5-8.3-.1-.2,2.4,1,5,2,2.2.9,4.5,1.8,5.1,1.9,2.8.2,5.6,1.2,8.4,1.4,2,.2,4.3.1,6.8.2,2.1,0,4.4-.3,6.8-.4,2.2,0,4.5,0,6.8-.1,2.3-.1,4.5-.3,6.8-.4,2.3-.1,4.6.1,6.9,0,2.3-.1,4.6-.1,6.9-.2,2.4,0,4.7-.3,6.8-.3,2.5,0,2.3,0,4.3,0,.5,0,.8.4.5.7,2.7,1.2,4.8,6.8,3.1,8.8-1.2,1.4-3.1,2.5-4.7,3.5-.9.5-3.5.6-6.7.7-2.2,0-4.6,0-6.8,0-3.1,0-5.6.6-6.4,1.3-2.4,2-.9,3.9-.4,6.6.2,1.3.4,4.3-1.6,5.1-2,.8-3.9,1.1-6.2-1.5-1.1-1.2-.3-4.4,0-5.4.3-1.2,1.2-3.7.2-4.5-2.9-2.2-4,1.7-4.5,3.2-.2.6,0,2.8-1.5,3.1-2.2.4-2.3-4.9-3.8-5.8-2.3-1.3-4.1-.9-5.5-.1-1.8,1-3.3,2.9-5.2,2.3-3.4-1-5-2.9-5.9-4.7-1.3-2.5-1.2-5.2-4-5.9-1.4-.3-2.9,0-4.1.8-1.7.9-3.3,2.1-5.2,2.6-.4,0-1.3.8-1.4,1.4-.3,1.2.5,3.7-.6,4.7-1.2,1.2-2.7-1.8-2.7-3.6s.1-3.4.5-4.4"/>
        <path class="cls-11" d="m129,285.1c-3.9.3-1.8,1.7-7.3,3.1-2,.5-4.5,1.7-7.6,2-2.3.2-4.8.1-7.8.1-2.4,0-4.9-.3-7.8-.4-2.3-.1-4.5-.2-6.6-.4-2.3-.2-4.5-.4-6.6-.7-2.4-.3-4.6-.1-6.6-.4-2.4-.4-4.6-1-6.5-1.4-2.6-.6-4.7-1.5-6.4-2-4.6-1.4-5.4-5.9-6.3-2.3-.3,8.5-2.7,7.3.8,11.5,2.2.6,4.4,1.4,6.7,1.8,2.3.5,4.6.4,6.9.8,2.3.3,4.5,1.1,6.8,1.3,2.3.2,4.6.3,6.9.5,2.3.2,4.7,0,6.9.1,2.4,0,4.7,0,6.9,0,2.4,0,4.7,0,6.9,0,2.5,0,4.8-.2,6.9-.3,2.6-.2,5,.2,6.9,0,3.9-.5,6.1-1.7,6.5-2.1.8-.7,2.2-4.8,2.2-7,0-2.2-.2-4.1-2-4"/>
        <path class="cls-7" d="m57.8,274.6c.4-1,.9-1.9,1.5-2.8,2-3.1,4.9-5.5,8-7.4,3.4-2.1,6.7-3.1,10.5-4,8.4-1.9,17.1-2.7,25.7-2.4,7.8.3,15.8,1.7,22.3,6,2.6,1.8,5,4,6.9,6.5.9,1.2,1.6,2.4,2,3.8.4,1.6.3,3.2.2,4.8,0,1.2-.2,2.5-.7,3.6-.9,2.1-3.1,3.3-5.3,4.2-7.9,3.3-16.7,3.9-25.2,4.5-5.3.3-10.6.6-15.9.9-3.5.2-7,.3-10.5-.1-3.3-.5-6.6-1.5-9.9-1.7-2.8-.2-5.9,0-8-1.8-1-.8-1.6-2-2.1-3.2-1.3-3.5-.9-7.3.5-10.8"/>
        <path class="cls-5" d="m103.8,277.5h0c.4-.3,1-.4,1.6-.3,1,.2,2,.9,2.5,1.9.1.3.5.8.2,1.4-.1.3-.4.5-.8.6-.2,0-.4,0-.6.1-.5,0-1.1,0-1.9-.3-1-.3-1.8-1-1.9-1.8-.1-.6.2-1.2.8-1.6"/>
        <path class="cls-5" d="m96.6,260.9c.4-.3,1-.4,1.6-.3,1,.2,2,.9,2.6,1.9.1.3.4.8.2,1.4-.1.3-.4.5-.7.6-.2,0-.4,0-.6,0-.5,0-1.1,0-1.9-.3-1-.3-1.7-1-1.9-1.8-.1-.6.2-1.2.8-1.6"/>
        <path class="cls-5" d="m119,267.5c.6-.2,1.2-.1,1.7.1h0c.7.3,1,.9,1,1.5,0,.8-.7,1.6-1.6,2-.7.3-1.4.5-1.9.5-.2,0-.4,0-.6,0-.4,0-.7-.3-.8-.5-.3-.5,0-1.1,0-1.4.4-1.1,1.3-1.9,2.3-2.2"/>
        <path class="cls-5" d="m88.2,269.5c.9-.6,2.6-.9,3.5-.6.7.2.9.7,1,.9.2.9-1.1,1.9-1.7,2.3-.3.2-.8.4-1.3.4-.4,0-.9,0-1.2-.1-.7-.2-1.1-.7-1.2-1.3,0-.6.3-1.1.9-1.5"/>
        <path class="cls-5" d="m81,263.3c0-.6.3-1.1,1-1.5.9-.6,2.6-.9,3.5-.6,0,0,0,0,0,0,.8.2.9.6,1,.9.2.9-1.1,1.9-1.7,2.3-.4.2-.8.3-1.3.4-.4,0-.8,0-1.2-.1-.7-.2-1.2-.7-1.2-1.3"/>
        <path class="cls-5" d="m91.3,277.3c.9-.4,2.5-.3,3.6.1.7.3,1.1.8,1.1,1.4,0,.6-.4,1.1-1,1.4-.4.2-.8.3-1.2.3-.5,0-1,0-1.4-.2-.6-.3-2-1.1-1.9-2.1,0-.2.1-.7.9-1"/>
        <path class="cls-5" d="m71,266.6c.9-.4,2.5-.3,3.6.2.7.3,1.1.8,1.1,1.4,0,.6-.3,1.1-1,1.4-.4.2-.8.3-1.2.3-.5,0-1,0-1.4-.3-.8-.4-2.1-1.2-2-2.1,0-.2.2-.7.9-1"/>
        <path class="cls-5" d="m109.1,263.3c0,.9,1.2,1.7,2,2,.4.2.9.3,1.4.3.4,0,.8-.1,1.2-.3.7-.3,1-.9,1-1.4,0-.6-.4-1.1-1.1-1.4-1-.5-2.7-.5-3.6-.2-.7.3-.9.8-.9,1m1.2-.4h0s0,0,0,0c0,0,0,0,0,0"/>
        <path class="cls-5" d="m105.3,271.6c-.2,0-.4.1-.6.1-.5,0-1.1-.1-1.5-.5-.6-.5-1-1.5-.6-2.3.3-.6.9-.9,1.8-1,1.1,0,1.7.3,1.9.6.5.5.5,1.2.3,1.5-.4.8-.8,1.3-1.4,1.5"/>
        <path class="cls-5" d="m81.8,275.2c1.1,0,1.7.3,1.9.6.5.5.4,1.2.3,1.5-.4.8-.8,1.3-1.3,1.6-.2,0-.4.1-.6.1-.5,0-1.1-.2-1.5-.5-.6-.5-1-1.5-.6-2.3.3-.6.9-.9,1.7-1"/>
      </g>
      <g>
        <path class="cls-14" d="m170.1,271.7c-1.4,30.6,29.5,56.9,68.9,58.7,39.5,1.8,72.7-21.5,74.1-52.1,1.4-30.6-29.5-56.9-68.9-58.7-39.5-1.8-72.7,21.5-74.1,52.1"/>
        <path class="cls-12" d="m181.4,257.5c0-.2.1-.3.2-.5.5-2.5-3.6-4.3-3.3-6.9.4-3.6,3.3-2.5,5.4-3.8,3.2-1.9,1.8-4.5,4.4-7.1,2.9-2.9,5.9,1,9,.3,3.7-.9,7-1.7,11.1-1.9,3.6-.2,3.8-9.9,9.8-8.5,5.9,1.3,10.4,7.3,16.4,8.1,3,.4,5.6,1.8,8.5,2.3,5.6.9,10.9-.5,16.4,1.5,7.9,2.8,16-2.5,24.3-.5,1.4.3,2.8.9,3.7,2,1.7,2.2-.1,4-1.7,5.4-1.3,1.1-3.3,2.6-3.3,4.5,0,1.9,1.9,3.2,3.7,3.1,2,0,3.7-1.2,5.6-1.8,1.9-.7,4-.8,6-.4.6.1,1.2.3,1.6.6,1.6,1.2.8,3.7,0,5.4.2,1,1.1,1.6,2.1,1.9.9.3,2,.3,2.9.6,1.5.5,2.7,1.9,3,3.5.3,1.6-.3,3.3-1.4,4.4-.7.6-1.6,1.1-1.9,2-.2.9.3,1.8,1.1,2.3.7.5,1.6.7,2.5,1,1.6.5.9,3.1,0,4-.7.7-1.7,1-2.5,1.6-2.4,2.1,2.3,4.8,1,7.5-.3.7-.8,1.2-1.3,1.5-2,1.2-7.1-3.7-10.8-5.1-1.1-.4-2.8-.5-2.9.7,0,.4.1.8.3,1.1,1.1,1.9,18.1,13,8.2,14.7-1.1.2-2.3-.1-3.4-.1-5,0-2.8,9.5-9.5,7.6-1.7-.5-3.2-2-5-1.8-3.9.4-2.8,6.5-7.2,6.5-1.4,0-2.7-.7-3.9-1.4-4.1-2.5-6,.5-9.9,2.1-4.6,1.8-11,3.8-16.1,2.1-2.9-1-5.1-5-8.2-5.1-4.4-.1-6.4,6.2-11.4,4.1-3.3-1.4-2.5-4.8-4.7-7-2.2-2.1-5-.9-7.4-2.1-2.6-1.3-3-4-5-5.6-1.6-1.2-2.6-1.1-4.7-1.5-3.1-.6-7.8-.7-9.3-4.2-1.3-3.1.8-6.5-.6-9.7-1.4-3.2-4.2-5-6.4-7.6-2.1-2.4-3.1-7-6-8.2-2.3-.9-5.7-3.2-5.3-6.1.5-3.5,5-3.1,6-5.5"/>
        <path class="cls-9" d="m210.7,209.3c0-.4,0-.9.2-1.3,1-3.1,4.2-4.8,7.3-3.8,3.1,1,4.8,4.2,3.8,7.3-.3.8-.7,1.5-1.2,2.1l12.5,8.4-2.8,4.1-12.7-8.5c-1.3,2.3-4.1,3.5-6.8,2.7-3.1-1-4.8-4.2-3.8-7.3.5-1.7,1.8-3,3.4-3.7"/>
        <path class="cls-7" d="m267.7,243.6c-.2-10.8-7.3-20.1-15.3-25.8-6.5-4.6-14.9-3.1-22.3-1-2.4.7-4.2,1.6-5.5,3.2-1.5,1.7-1.7,4-.9,6.1,1.2,3.2.7,8.3,1.6,11.2,3,9.7,11.8,13.3,20.8,13.2l21.6-6.9Z"/>
        <path class="cls-7" d="m291.6,262.2c-1.8-6.4-5-12.5-8.7-14.9-3.4-2.1-7.5-3.2-11-5.5-14.9-9.7-36.7-22.8-52.7-2.6-6.2,7.9-13.7,24.2-10.1,34.4,2.7,7.8,7.8,15.1,13.3,20.2,4.6,4.2,12.8,4,18.5,5,10.2,1.8,26,4.6,36.4-.6,7.9-4,15.2-12.6,15.9-23.1.2-3.6-.4-8.3-1.7-12.9"/>
        <path class="cls-9" d="m189.8,226c.1-.4.3-.8.6-1.2,1.8-2.7,5.4-3.5,8.1-1.7,2.7,1.8,3.5,5.4,1.7,8.1-.5.7-1.1,1.3-1.8,1.7l9.7,11.4-3.8,3.2-9.9-11.6c-1.9,1.9-4.9,2.2-7.3.7-2.7-1.8-3.5-5.4-1.7-8.1,1-1.5,2.6-2.4,4.3-2.6"/>
        <path class="cls-7" d="m207.9,236.8c-10.2-1.5-11.3,16.6-11.6,23.4-.4,9.4,1.8,17.9,7,25.4,4.2,6,12.8,11.6,20.3,9,9.3-3.3,14.5-20,14.5-29.3,0-10.3-8.4-18.3-16.1-22.9-4.4-2.6-9-4.9-14-5.6"/>
        <path class="cls-16" d="m226.1,245.3s18.5,11.6,6.8,32.8"/>
        <path class="cls-16" d="m232,230.1s16.7-7.4,30.8,6.7"/>
      </g>
      <g>
        <path class="cls-14" d="m361.4,207.8c0,19.3,15.6,32.5,34.9,32.5s34.9-10.7,34.9-30-15.6-30-34.9-30-34.9,8.2-34.9,27.5"/>
        <path class="cls-4" d="m365.3,203.8s0,0,0,0c0,0,0,0,0,0,0,0,0,0,0,0"/>
        <path class="cls-7" d="m417.9,211.2s-.2.1-.2.1c0,.1.4.2.4.3,0,.1,0,.3,0,.4,0,.1,0,.3.1.4,0,.2-.2.4-.2.5,0,.1.3.2.3.3,0,.3-.1.6-.2.9-2,.8-4,1.6-6,2.3-2,.7-4.1,1.3-6.2,1.9-2,.6-4.1,1.2-6.2,1.8-2.1.6-4.1,1.2-6.2,1.8-2.1.6-4.1,1.3-6.1,2-2,.7-4.1,1.3-6.1,2-.5.2-1,.2-1.4.3-.2,0-.3.4-.5.5-.1,0-.3,0-.5,0,0,0,0,0,0,0-2.3.5-3.2-.6-3.6-3.7-.2-1.5.3-2.6,1-3.4,0,0,.1,0,.1,0,0,0,0,0,0,0,.3-.3.6-.7,1-1,0,0,0-.2,0-.3.4-.2.9-.2,1.3-.4.1,0,.3,0,.4-.1.4-.2.7-.5,1.1-.6.1,0,.3-.1.4-.2.5-.2,1,0,1.5-.2,2.2-.7,4.3-1.5,6.5-2.1,2.2-.6,4.3-1.5,6.6-2.1,2.2-.6,4.5-1.1,6.7-1.6,2.2-.5,4.5-.9,6.7-1.4,2.3-.4,4.5-.8,6.8-1.2.8.7,1.6,1.4,2.1,2.4,0,0-.2,0-.2,0,0,0,0,0,0,.1,0,0,.3,0,.3,0"/>
        <path class="cls-7" d="m417.5,200c-.2,1.1-.3,1.1-.7,2-.4.2-3,1.3-6.6,2.5-1.9.7-4.2,1.5-6.6,2.3-2.1.7-4.4,1.3-6.7,2-2.2.7-4.5,1.5-6.6,2.1-2.4.8-4.7,1.4-6.7,1.9-3.7,1.1-6.4,2-6.8,1.8-1.1-1.6-1-2.3-1.6-3.6-.2-.4-1-2.1-.5-3.3.2-.6.5-2,1-2.3,0,0,0-.1,0-.1,0,0,0,0,0,0,2-.7,4.2-1,6.4-1.4,2.1-.4,4.2-.8,6.4-1.1,2.2-.3,4.3-.5,6.4-.9,1.4-.3,4-1.2,6.8-2,2.2-.6,4.6-1.3,6.8-1.9,3.1-.8,5.8-1.5,6.9-1.5.4.7,1.8,2.6,2.1,3.4"/>
        <path class="cls-1" d="m375.8,205.8s0,0,0,0c0,0,0,0,0,0,0,0,0,0,0,0"/>
        <path class="cls-7" d="m412.7,190.9c0,0-.1.2,0,.3,0,.1.3.2.3.3,0,.1.2.3.2.4,0,.1-.2.3-.2.4,0,.2,0,.4,0,.6,0,0,0,.2,0,.2,0,.3.1.7,0,1-2,.8-4,1.6-6,2.2-2,.7-4.1,1.3-6.2,1.9-2,.6-4.1,1.3-6.2,1.9-2.1.6-4.1,1.2-6.2,1.8-2.1.6-4.2.9-6.3,1.6-2.1.7-4.1,1.5-6.1,2.2-.5.2-.8.6-1.2.7-.2,0-.4,0-.6,0-.1,0-.3,0-.5,0,0,0,0,0,0,0-2.3.4-3.1-.5-3.5-3.6-.6-4,3.5-5.2,6.8-6.3,2.2-.7,4.4-1.1,6.6-1.8,2.2-.6,4.4-1.2,6.7-1.8,2.2-.6,4.4-1.2,6.7-1.7,2.2-.5,4.5-1.1,6.7-1.5,2.3-.4,4.5-1,6.8-1.4.8.7,1.3,1.7,1.8,2.7,0,0,.2,0,.2,0"/>
        <path class="cls-5" d="m419.2,201.6c0,.1.2.2.2.3.1.3.4.6.5.9-1.5,1.5-3.2,2.9-4.8,4.3-1.6,1.4-3.2,2.9-4.8,4.3-1.6,1.4-3.2,2.9-4.8,4.3-1.6,1.4-3.3,2.8-4.9,4.2-1.6,1.4-3.3,2.8-4.9,4.2-1.6,1.4-3.3,2.8-4.8,4.3-.4.4-.7.7-1.1.9-.1.1-.2.3-.3.4-.1.1-.2.4-.3.5,0,0,0,0,0,0-1.9,1.4-3.1.7-4.7-1.9-.8-1.2-.7-2.3-.3-3.4,0,0-.3,0-.3,0,0,0,0,0,0,0,.1-.4.5-.8.8-1.2,0,0,.1-.1.2-.2.2-.3.5-.7.8-1,0-.1.3,0,.4-.2.3-.3.5-.6.9-.9,0,0,.2-.2.3-.3.4-.3.6-.8,1-1.1,1.7-1.5,3.4-3.1,5.2-4.6,1.7-1.5,3.5-3,5.3-4.4,1.8-1.4,3.7-2.7,5.5-4.1,1.8-1.4,3.6-2.8,5.5-4.1,1.9-1.3,3.8-2.7,5.7-3.9,1,.3,2,.8,2.8,1.5,0,0,0,0,0,0,0,0,.1,0,.2,0,0,0,.1,0,.2,0,0,0,0,0,0,0,.1.1.2.2.3.3,0,0,.2.2.2.2,0,.1,0,.4.1.5,0,.1.2.3.2.4"/>
        <path class="cls-5" d="m417.3,194c-.4.2-2.7,1.4-6.2,2.8-1.9.8-4,1.7-6.4,2.6-2.1.8-4.2,1.7-6.4,2.5-2.2.8-4.4,1.6-6.5,2.4-2.3.9-4.5,1.8-6.4,2.5-3.6,1.3-6,1.9-6.4,1.8-1-1.1-1.4-1.3-1.9-2.2-.2-.3-.8-1.6-.3-2.6.2-.5.6-1.5,1.2-1.8,0,0,0-.2,0-.2h0c2-.7,4.1-1.1,6.1-1.7,2.1-.6,4.1-1.1,6.2-1.6,2.1-.5,4.1-1.4,6.1-1.9,1.4-.4,3.9-1.2,6.6-2.2,2.2-.7,4.6-1.3,6.7-2,3-1,5.6-1.9,6.7-2.1.4.5,1.5,1.7,1.7,2.3-.1.9-.3.8-.8,1.6"/>
        <path class="cls-3" d="m378.1,201.9s0,0,0,0c0,0,0,0,0,0,0,0,0,0,0,0"/>
      </g>
      <g>
        <path class="cls-14" d="m377.5,137.7c-5.4,41.9-34.5,54.7-67.8,54.7s-50.6-24.6-53-54.7c-3.4-43.4,35.7-58.4,69.1-58.4s55.6,28.5,51.7,58.4"/>
        <path class="cls-12" d="m364.5,140.8c.4-2.6,2.5-2.3,4.9-4.9,3.2-3.4,2-6.1-1.2-8.4-1-.7,1.8-6.5,1.6-8.5-.5-4-5.2-1.6-6.7-3.4-1.3-1.5.2-5.5-1.3-7.1-3.8-4-6.6.3-9.6-2.2-2.4-2-4.6-4.4-7.3-5.9-2.6-1.4-5.4-1.3-8.4-1.3-4.2,0-6.8-2.6-10.3-4.3-1.9-.9-4.1-1.1-6.2-.3-4.8-1.4-7-7.7-11.7-9.6-2.4-.9-5.5-.8-8.1,1.9.8,3.2,1,8.4.5,10.7-.6,3.4-3.2,4.7-5,3.4-2.8-2.1-4-6.5-6.3-9.3-.8.7-1.3,2.2-1.9,3.6,1.4,1.4,2.7,3.1,2.6,5.7,0,1.9-.9,3.4-2.2,2.7-1.6-.7-3-2.6-4.4-3.8-.7-.7-1.4-1.3-2-2.1-.6.3-1.2,1-2,2.6-.8,1.6-.9,3.2-.9,4.7.6.6,1.1,1.3,1.6,2,.7,1.1,2.9,3.7,2.1,5.9-.8,2-2.3,1.3-3.2.9-1.8-.9-3.6-1.9-5.4-2.8-.8.2-1.6.7-2.3,2-2.1,3.7,1.8,4.5-.2,7.3-1.4,2-3.5,2.3-3.9,5.4-.1.9,0,1.5.1,2.1,1.3-.1,2.5-.2,3.8-.4,5.2-1.1,6.7-1.4,7.5,0,1.3,2.2-5.8,5.1-6.9,5.7-2,1-3.9,1.6-5.9,2.6-.6.6-1.1,1.2-1.2,1.8-1.4,6.8,3.2,3.7,3.8,6.7.5,2.2-1.8,6-.6,8.4,1.8,3.8,4.6.4,6.9,2,.8.5-1.1,7.1.3,8.8,1.6,2,6.4-.7,7,.4.8,1.5.9,3.1,1.5,4.7.9,2.5,2.2,4,4.3,4.7,2.2.7,5.8,5.8,8.3,5.4,1.8-.3,3.2-2.5,4.3-3.1,1.7-.9,2.7.1,3.4,4,.3,1.8,1.7,4.3,2.9,4.9,2.3,1.2,3.9-2.3,7.1-5.1,2.5-2.2,5.4.8,8.3.2,2.6-.5,3.4-5.2,5.7-4.5,2.7.8,7.4,3.6,10.6,0,2.4-2.8,2.7-7.1,5.2-9.9,2.1-2.3,4.9-3.1,7.2-4.2,3.2-1.5,5.5-7.4,8.9-7.6,3.8-.3,5.5-1.8,7-5.5,1-2.5-2.7-3.1-2.2-6.8"/>
        <path class="cls-7" d="m360.1,143.2c0,0,0-.1,0-.2,0-.2-.2-.4-.4-.6-2.3-2.2-1.2-2.7,0-5.2.9-2.1,1.5-4.3,1.7-6.6.4-4.6-.6-9.3-2.6-13.5-1-2.1-2.3-4.1-3.8-5.9-7.3-8.9-19-13-30.4-14.7-6.8-1-15.8-2.7-20.5,3.6-.4.6-.8,1.2-1,1.9-.9-.2-2.3-.5-2.9-.7-1-.3-2.9,1.5-2.1,4.3.8,2.7,3.1,1.1,5,0,0,.3.2.5.3.8,2.9,6.1,11.4,4.1,16.2,5.3,6.4,1.6,12.5,5,17.4,10.3,2.3,2.5,4.3,5.4,5.9,8.7,1.5,3.2,2.1,7.2,4.1,10.1,1.9,2.6,4.7,3.1,7.3,2.1.2,1.1.5,2.2,1,3.2.1.3.3.6.5.8.6.4,1.4.2,2-.1,1.2-.6,2.7-1.8,2.3-3.4,0,0,0-.1,0-.2"/>
        <path class="cls-5" d="m315.2,96.6c-3,2.2-4.9,6.3-3.5,10.4.2.7,1.1.6,1.1-.2,0-3.7,1.2-6.5,3.1-9.4.6-.9-.4-1.1-.7-.9"/>
        <path class="cls-5" d="m322.1,97.1c-3,2.2-4.9,6.3-3.5,10.4.2.7,1.1.6,1.1-.2,0-3.7,1.2-6.5,3.1-9.4.6-.9-.4-1.1-.7-.9"/>
        <path class="cls-5" d="m328.9,99.6c-2.9,1.2-5,5.9-4.2,9.3.1.5.7.4.8-.1.2-1.9.6-4,1.7-5.5.9-1.2,2.3-2,3.4-2.9.4-.3.3-1.1,0-1.1-.6,0-1.2.3-1.6.4"/>
        <path class="cls-5" d="m335.7,103.4c-2.9,1.2-5,5.9-4.2,9.3.1.5.7.4.8-.1.2-1.9.6-4,1.7-5.5.9-1.2,2.3-2,3.4-2.9.4-.3.3-1.1,0-1.1-.6,0-1.2.3-1.6.4"/>
        <path class="cls-5" d="m342,109.1c-2.9,1.2-5,5.9-4.2,9.3.1.5.7.4.8-.1.2-1.9.6-4,1.7-5.5.9-1.2,2.3-2,3.4-2.9.4-.3.3-1.1,0-1.1-.6,0-1.2.3-1.6.4"/>
        <path class="cls-5" d="m347.1,116c-2.9,1.2-5,5.9-4.2,9.3.1.5.7.4.8-.1.2-1.9.6-4,1.7-5.5.9-1.2,2.3-2,3.4-2.9.4-.3.3-1.1,0-1.1-.6,0-1.2.3-1.6.4"/>
        <path class="cls-5" d="m350.6,124.4c-2.9,1.2-5,5.9-4.2,9.3.1.5.7.4.8-.1.2-1.9.6-4,1.7-5.5.9-1.2,2.3-2,3.4-2.9.4-.3.3-1.1,0-1.1-.6,0-1.2.3-1.6.4"/>
        <path class="cls-7" d="m332,160.7c0,0,0-.1,0-.2,0-.2-.1-.5-.3-.7-.3-.7-.9-1.6-1.4-2.4,0,0,.1,0,.2-.1.4-.4.8-.8,1.1-1.2.9-1.1,1.5-2.4,2-3.7,1.3-3.7,1.3-8,.8-11.6-1.3-7.7-4.8-15-9.4-20.4-10.2-12.2-23.9-16.6-33.3-15.4-1,.1-2.2.4-3.3.9-1,.4-2,1-2.9,1.8-.5.5-1,1-1.3,1.7-.9-.4-2.2-.9-2.7-1.3-.9-.5-3.2.9-2.9,3.9.3,2.9,3.2,1.4,4.9,1.2-.3,4.7,8.3,7.2,11.8,7.9,1.8.4,3.7.7,5.3,1.5,1.6.8,2.9,2,4.2,3.2,2.9,2.7,5.8,5.6,7.4,9.2,1,2.2,1.5,4.5,1.9,6.9.6,2.8,1.1,5.5,1.7,8.3.7,3.3,1.8,7.1,5,8.1,1.3.4,4,0,5.1,1,.8.7.7,2.6.9,3.7,0,.3.2.6.4.9.5.5,1.3.4,1.9.3,1.3-.3,3-1.2,3-2.9,0,0,0-.1,0-.2"/>
        <path class="cls-5" d="m297,106.3c-3.4,1.5-6,5.2-5.5,9.5,0,.7,1,.8,1.1,0,.7-3.7,2.5-6.2,4.9-8.6.8-.8-.2-1.1-.5-1"/>
        <path class="cls-5" d="m303.6,108.1c-3.4,1.5-6,5.2-5.5,9.5,0,.7,1,.8,1.1,0,.7-3.7,2.5-6.2,4.9-8.6.8-.8-.2-1.1-.5-1"/>
        <path class="cls-5" d="m309.8,111.9c-3.1.7-6.1,4.8-5.9,8.3,0,.5.6.5.8,0,.5-1.8,1.4-3.8,2.7-5.1,1.1-1,2.6-1.5,3.9-2.2.4-.2.5-1,.1-1.1-.6-.1-1.3,0-1.6,0"/>
        <path class="cls-5" d="m315.8,117c-3.1.7-6.1,4.8-5.9,8.3,0,.5.6.5.8,0,.5-1.8,1.4-3.8,2.7-5.1,1.1-1,2.6-1.5,3.9-2.2.4-.2.5-1,.1-1.1-.6-.1-1.3,0-1.6,0"/>
        <path class="cls-5" d="m320.8,123.8c-3.1.7-6.1,4.8-5.9,8.3,0,.5.6.5.8,0,.5-1.8,1.4-3.8,2.7-5.1,1.1-1,2.6-1.5,3.9-2.2.4-.2.5-1,.1-1.1-.6-.1-1.3,0-1.6,0"/>
        <path class="cls-5" d="m324.4,131.6c-3.1.7-6.1,4.8-5.9,8.3,0,.5.6.5.8,0,.5-1.8,1.4-3.8,2.7-5.1,1.1-1,2.6-1.5,3.9-2.2.4-.2.5-1,.1-1.1-.6-.1-1.3,0-1.6,0"/>
        <path class="cls-5" d="m326.3,140.5c-3.1.7-6.1,4.8-5.9,8.3,0,.5.6.5.8,0,.5-1.8,1.4-3.8,2.7-5.1,1.1-1,2.6-1.5,3.9-2.2.4-.2.5-1,.1-1.1-.6-.1-1.3,0-1.6,0"/>
        <path class="cls-7" d="m341.8,171c0,0-.1,0-.2,0-.2,0-.5,0-.7-.1-.8-.2-1.7-.6-2.7-.9,0,0,0,.1,0,.2-.3.5-.6.9-.9,1.3-.9,1.1-2,2-3.2,2.8-3.3,2-7.5,3-11.2,3.2-7.8.4-15.7-1.6-21.9-4.9-14.1-7.4-21.2-19.9-22-29.4,0-1,0-2.2.2-3.4.2-1.1.6-2.2,1.1-3.2.4-.6.8-1.2,1.3-1.7-.5-.8-1.4-1.9-1.8-2.4-.7-.8.3-3.3,3.2-3.6,2.8-.3,1.4,2.2,2.4,3.5.7.8,1.9.4,2.9.6,1.3.2,2.6.8,3.7,1.6,2.2,1.6,3.7,4,4.8,6.5,1.2,2.5,2.1,5,3.4,7.4,3,5.2,8.3,9,14.1,10.4,6.8,1.6,13.7-.3,20.4,1.2,3.1.7,4.7,3.1,4.8,5.9,1-.3,2.2-.5,3.3-.4.3,0,.6,0,.9.2.6.4.7,1.2.7,1.8,0,1.3-.6,3.1-2.2,3.5,0,0-.1,0-.2,0"/>
        <path class="cls-5" d="m281.1,149.3c.8-3.6,3.9-6.9,8.2-7.4.7,0,1,.8.3,1.1-3.5,1.4-5.5,3.7-7.4,6.5-.6.9-1.1,0-1.1-.3"/>
        <path class="cls-5" d="m284.2,155.4c.8-3.6,3.9-6.9,8.2-7.4.7,0,1,.8.3,1.1-3.5,1.4-5.5,3.7-7.4,6.5-.6.9-1.1,0-1.1-.3"/>
        <path class="cls-5" d="m289.2,160.6c0-3.2,3.5-6.9,6.9-7.5.5,0,.6.5.2.7-1.7.9-3.4,2.2-4.4,3.7-.8,1.3-.9,2.9-1.4,4.2-.1.5-.9.7-1.1.4-.3-.6-.3-1.2-.3-1.6"/>
        <path class="cls-5" d="m295.4,165.4c0-3.2,3.5-6.9,6.9-7.5.5,0,.6.5.2.7-1.7.9-3.4,2.2-4.4,3.7-.8,1.3-.9,2.9-1.4,4.2-.1.5-.9.7-1.1.4-.3-.6-.3-1.2-.3-1.6"/>
        <path class="cls-5" d="m303.1,168.9c0-3.2,3.5-6.9,6.9-7.5.5,0,.6.5.2.7-1.7.9-3.4,2.2-4.4,3.7-.8,1.3-.9,2.9-1.4,4.2-.1.5-.9.7-1.1.4-.3-.6-.3-1.2-.3-1.6"/>
        <path class="cls-5" d="m311.5,170.8c0-3.2,3.5-6.9,6.9-7.5.5,0,.6.5.2.7-1.7.9-3.4,2.2-4.4,3.7-.8,1.3-.9,2.9-1.4,4.2-.1.5-.9.7-1.1.4-.3-.6-.3-1.2-.3-1.6"/>
        <path class="cls-5" d="m320.6,170.8c0-3.2,3.5-6.9,6.9-7.5.5,0,.6.5.2.7-1.7.9-3.4,2.2-4.4,3.7-.8,1.3-.9,2.9-1.4,4.2-.1.5-.9.7-1.1.4-.3-.6-.3-1.2-.3-1.6"/>
      </g>
      <g>
        <path class="cls-15" d="m376.2,30.9l40.6-6.4-1.3,35.4h-.1c.6,3.9-5.6,5.9-13.4,7.1-7,1.1-13,1.7-14.5-1.5,0-.2-.4-.8-.5-1.1l-10.9-33.5Z"/>
        <path class="cls-13" d="m410,.7c-1.2-1.1-2.8-.5-4.2-.4-2.6.2-4.2.8-6.7.7-1,0-3.8.1-4.5,1.2,0,0,0,.2-.1.3-.1.2-.2.5-.2.8l-.6,18.2c0,.4.3.8.7.9.8.2,1.6.3,2.4.1.7-.1,1.4-.4,2.1-.7.3-.2.5-.4.5-.8l.6-15,10-2.1c1.2-1.4.8-2.6,0-3.2"/>
        <path class="cls-10" d="m419.1,23.1l-1.1-7.2-45.6,7.2,1.5,9.7,45.6-7.2c-.1-.9-.3-1.7-.5-2.5"/>
      </g>
      <g>
        <polygon class="cls-11" points="129.7 157.5 100 133.5 109.6 157.5 129.7 157.5"/>
        <polygon class="cls-6" points="73.3 74 55.4 114.2 55.4 82.9 73.3 74"/>
        <polygon class="cls-11" points="40.6 129.9 0 131 28.8 146.2 40.6 129.9"/>
        <polygon class="cls-2" points="27.5 32.4 10.9 77.4 30.1 60.5 27.5 32.4"/>
      </g>
    </g>
  </g>
</svg>