<?xml version="1.0" encoding="UTF-8"?>
<svg id="_レイヤー_2" data-name="レイヤー 2" xmlns="http://www.w3.org/2000/svg" viewBox="0 0 277.4 317.1">
  <defs>
    <style>
      .cls-1 {
        fill: #ebcb32;
      }

      .cls-2 {
        fill: #7f2583;
      }

      .cls-3 {
        fill: #65bbb1;
      }

      .cls-4 {
        fill: #582282;
      }
    </style>
  </defs>
  <g id="_レイヤー_1-2" data-name="レイヤー 1">
    <g>
      <path class="cls-2" d="m13.4,182.8c1.8-12.2,5.1-22.8.5-35-6.3-16.9-20,106.1-10.8,87.3C16.9,207.1,67.7,24.3,100.4,48.2c11.2,8.2,23.2,24.8,39.2,20.7,10.2-2.6,15.7-13.2,21.4-22,15.9-24.7,53.6-55.4,85.3-44.7,33.6,11.3,38.1,53.6,22.7,80.6-14.5,25.5-42.5,45.8-71,52.4-21.9,5.1-45.6,9.9-61,26.3-10,10.7-15.1,24.9-23.4,37-11.8,17-30.7,29.3-51,33.5-21.5,4.5-36.5-5.4-45.6-24.6-4.6-9.7-4.7-16.8-3.6-24.5"/>
      <path class="cls-4" d="m263.1,91.5c-33-25.6-46.8,2.3-65,6.1-21.4,4.5-32.4-1.3-54.1-4.2-19.4-2.6-34.4,4.5-48,18.8-9.9,10.4-17.3,22.8-24.5,35.2-15.5,26.2-31.5,55-27.5,85.1,25.3,1.7,51.1-10,66.5-30.1,11.9-15.5,18-35.6,33.3-47.6,13.5-10.7,31.5-13,48.1-17.4,27.8-7.3,54.8-22.1,71.1-45.8"/>
      <path class="cls-3" d="m180.7,80.3c-.9,20.9-3.4,42.2-7.8,62.9-10.3-8.9-18.5-21-21.5-34.4-.2-1.5-1.5-2.7-3.1-2.6-1.6,0-2.9,1.4-2.8,3.1,0,2.6.4,4.9.8,7.2,1.3,7,3.7,13.8,7,20.1,3.3,6.4,7.5,12.4,12.4,17.7,1.2,1.3,2.4,2.5,3.7,3.7-2.6,10-5.6,19.8-9.1,29.4-3.2,8.7-7.2,17.4-10.5,25.9-.8,2.1-1.5,4.2-2.2,6.3-2-2.2-4-4.4-5.9-6.6-19.1-22.4-33.9-48.4-42.7-76.5-1.5-4.2-7.7-2.6-7,1.8,2.5,15.2,6.6,30.3,12.3,44.8,9.1,22.8,21.2,44.6,36.7,63.6-1.4,8.9-2,18-1.6,27.2.4,10.8,2.2,22.2,6.4,32.3,3.9,9.7,15.6,13.8,24.8,8.8,8.9-4.5,11.8-16.8,7-24.3-.9-1.6-1.9-4.1-2.5-5.8-7.1-20.4-5.6-42.9-.6-63.9,2.3-8.8,5.3-18.1,7.4-27,8.9-37.6,11.1-75.7,8.3-114-.7-6-9.3-5.5-9.4.4"/>
      <path class="cls-1" d="m202.8,56.2c0,8.6,6.9,15.5,15.5,15.5s15.5-6.9,15.5-15.5-6.9-15.5-15.5-15.5-15.5,6.9-15.5,15.5"/>
      <path class="cls-1" d="m233.8,80.8c0,4.9,3.9,8.8,8.8,8.8s8.8-3.9,8.8-8.8-3.9-8.8-8.8-8.8-8.8,3.9-8.8,8.8"/>
    </g>
  </g>
</svg>