<?xml version="1.0" encoding="UTF-8"?>
<svg id="_レイヤー_2" data-name="レイヤー 2" xmlns="http://www.w3.org/2000/svg" viewBox="0 0 73.3 101.6">
  <defs>
    <style>
      .cls-1 {
        fill: #fff;
      }

      .cls-2 {
        fill: #e84572;
      }

      .cls-3 {
        fill: #c93462;
      }

      .cls-4 {
        fill: #221815;
      }

      .cls-5 {
        fill: none;
        stroke: #c93262;
        stroke-linecap: round;
        stroke-linejoin: round;
        stroke-width: 1.6px;
      }

      .cls-6 {
        fill: #65bbb1;
      }

      .cls-6, .cls-7 {
        fill-rule: evenodd;
      }

      .cls-7 {
        fill: #efefef;
      }
    </style>
  </defs>
  <g id="_レイヤー_1-2" data-name="レイヤー 1">
    <g>
      <path class="cls-4" d="m33.9,98l-1.4-6.1c23.7-5.3,23.4-14.8,23.4-14.9l6.2-.8c.2,1.5,1.2,15.1-28.2,21.7"/>
      <path class="cls-2" d="m59.7,33.2s-.1-.3-.3-.6c-.6-1.8-1-3.7-1.2-5.6-.7-5.6-1.6-11.4-3.9-16.4-1.2-2.5-2.9-5.5-6-5.5-6.1,0-4.9,7.1-5.6,11,.7-3.8-1.8-12.3-4.7-14.8-2.2-1.9-4.9-1.3-6.7.9-2.5,3.2-1.4,8.4-1.6,12.1.1-2.5-1.6-7.6-3.5-9.3-5.1-4.4-8,4-8.1,7.4-.2,4.2-.3,8.6.5,12.7-.4-2-1.1-4.1-1.8-6-.9-2.5-4.9-4.4-6.8-.5-1.4,2.9-1.2,6.3-1.2,9.5,0,5.4.4,10.8,1.2,16.1,1.4,10.5,3.4,21.9,9.4,30.9,11.6,17.3,43.1,13.1,51.9-5.3,6-12.7-.5-37.4-11.4-36.5"/>
      <path class="cls-5" d="m42.8,17.4s.5,13.4,2.5,18.5"/>
      <path class="cls-5" d="m18.4,26.7s.4,12.1,2.4,17.2"/>
      <path class="cls-5" d="m29.4,15.9s.6,17.5,2.6,22.6"/>
      <path class="cls-4" d="m56.1,57c.4,1.7-2,3.8-5.4,4.7-3.4.8-6.6.1-7-1.6-.4-1.7,2-3.8,5.4-4.7,3.4-.9,6.6-.1,7,1.6"/>
      <path class="cls-1" d="m34.5,45.5c1.3-3,4.8-4.4,7.8-3.1,3,1.3,4.4,4.8,3.1,7.8-1.3,3-4.8,4.4-7.8,3.1-3-1.3-4.4-4.8-3.1-7.8"/>
      <path class="cls-4" d="m40.6,46.4c.6-1.4,2.2-2,3.6-1.4,1.4.6,2,2.2,1.4,3.6s-2.2,2-3.6,1.4c-1.4-.6-2-2.2-1.4-3.6"/>
      <path class="cls-3" d="m32.6,45.6l13.4-1.1s-6.8-16.5-13.4,1.1"/>
      <path class="cls-1" d="m48.2,44.4c1.3-3,4.8-4.4,7.8-3.1,3,1.3,4.4,4.8,3.1,7.8-1.3,3-4.8,4.4-7.8,3.1-3-1.3-4.4-4.8-3.1-7.8"/>
      <path class="cls-4" d="m54.2,45.3c.6-1.4,2.2-2,3.6-1.4,1.4.6,2,2.2,1.4,3.6s-2.2,2-3.6,1.4c-1.4-.6-2-2.2-1.4-3.6"/>
      <path class="cls-3" d="m46.2,44.5l13.4-1.1s-6.8-16.5-13.4,1.1"/>
      <path class="cls-2" d="m9.6,78.8l1.1,4.7,3.1-.6,2.9,5.8-4.5,1.1-9.5,2.2-1.5-6.3-1.1-4.7c-.6-2.6,1-5.2,3.6-5.9,2.6-.6,5.2,1,5.9,3.6"/>
      <path class="cls-6" d="m3.5,65l32.4-2.6-3.1,27.8h0c.3,3.1-4.7,4.3-10.9,4.8-5.6.5-10.3.5-11.4-2.1,0-.2-.2-.6-.3-.9l-6.6-27Z"/>
      <path class="cls-4" d="m31.9,33.9c-.8-.8-2.5-1-3.5,0,0,0,0,0,0,0l-8.5,11c0,0,0,.1-.1.2-.1.2-.2.4-.2.6l-1.6,12.8c0,.3.2.7.5.8.6.2,1.3.3,1.9.3.6,0,1.1-.2,1.7-.4.2-.1.4-.3.4-.6l1.4-11.8,7.9-10.4c1-1,.8-2,.2-2.6"/>
      <path class="cls-7" d="m37.8,61.4l-.5-5.7L1,58.6l.6,7.8,36.3-2.9c0-.7-.1-1.4-.2-2"/>
      <path class="cls-2" d="m32.5,92l-3.1.7-1.4-4.7c-.8-2.6-3.5-4.1-6-3.3-2.6.7-4.1,3.5-3.3,6l1.4,4.7,1.8,6.2,12-3.6-1.4-6Z"/>
    </g>
  </g>
</svg>